<svg width="23" height="23" viewBox="0 0 23 23" fill="none" xmlns="http://www.w3.org/2000/svg">
<g clip-path="url(#clip0_11272_77545)">
<path d="M0 0H23V23H0V0Z" fill="#003399"/>
<path d="M11.6111 4.14642L11.7569 4.72912L12.2176 4.7339C12.2772 4.7345 12.3019 4.83596 12.254 4.88324L11.8833 5.24813L12.0223 5.83374C12.0403 5.9095 11.9755 5.97231 11.927 5.92603L11.5522 5.56882L11.1775 5.92603C11.129 5.97226 11.0642 5.90956 11.0822 5.83374L11.2211 5.24813L10.8505 4.88324C10.8025 4.83596 10.8272 4.7345 10.8869 4.7339L11.3476 4.72912L11.4933 4.14642C11.5122 4.07098 11.5923 4.07098 11.6111 4.14642Z" fill="#FFE15A"/>
<path d="M11.6111 16.6562L11.7569 17.2389L12.2176 17.2437C12.2772 17.2443 12.3019 17.3457 12.254 17.393L11.8833 17.7579L12.0223 18.3435C12.0403 18.4193 11.9755 18.4821 11.927 18.4358L11.5522 18.0786L11.1775 18.4358C11.129 18.482 11.0642 18.4193 11.0822 18.3435L11.2211 17.7579L10.8505 17.393C10.8025 17.3457 10.8272 17.2443 10.8869 17.2437L11.3476 17.2389L11.4933 16.6562C11.5122 16.5807 11.5923 16.5807 11.6111 16.6562Z" fill="#FFE15A"/>
<path d="M16.3025 10.4003L16.4483 10.983L16.909 10.9878C16.9686 10.9884 16.9933 11.0899 16.9454 11.1371L16.5748 11.502L16.7137 12.0876C16.7317 12.1634 16.667 12.2262 16.6184 12.1799L16.2436 11.8227L15.8689 12.1799C15.8204 12.2262 15.7556 12.1635 15.7736 12.0876L15.9125 11.502L15.5419 11.1371C15.4939 11.0899 15.5187 10.9884 15.5783 10.9878L16.039 10.983L16.1848 10.4003C16.2036 10.3249 16.2837 10.3249 16.3025 10.4003Z" fill="#FFE15A"/>
<path d="M6.91971 10.4003L7.06549 10.983L7.52615 10.9878C7.58582 10.9884 7.61052 11.0899 7.56255 11.1371L7.19194 11.502L7.33088 12.0876C7.34888 12.1634 7.28414 12.2262 7.23559 12.1799L6.86083 11.8227L6.48606 12.1799C6.43755 12.2262 6.37278 12.1635 6.39078 12.0876L6.52971 11.502L6.15911 11.1371C6.11113 11.0899 6.13584 10.9884 6.19551 10.9878L6.65617 10.983L6.80194 10.4003C6.8208 10.3249 6.90089 10.3249 6.91971 10.4003Z" fill="#FFE15A"/>
<path d="M7.62381 7.1347L7.76959 7.7174L8.23025 7.72218C8.28992 7.72278 8.31463 7.82424 8.26665 7.87152L7.89605 8.23641L8.03498 8.82202C8.05298 8.89779 7.98824 8.9606 7.93969 8.91431L7.56493 8.55711L7.19016 8.91431C7.14166 8.96054 7.07688 8.89784 7.09488 8.82202L7.23381 8.23641L6.86321 7.87152C6.81523 7.82424 6.83994 7.72278 6.89961 7.72218L7.36027 7.7174L7.50604 7.1347C7.5249 7.05927 7.60491 7.05927 7.62381 7.1347Z" fill="#FFE15A"/>
<path d="M15.7498 13.3886L15.8956 13.9713L16.3562 13.9761C16.4159 13.9767 16.4406 14.0782 16.3926 14.1254L16.022 14.4903L16.161 15.0759C16.179 15.1517 16.1142 15.2145 16.0657 15.1682L15.6909 14.811L15.3161 15.1682C15.2676 15.2144 15.2029 15.1517 15.2209 15.0759L15.3598 14.4903L14.9892 14.1254C14.9412 14.0782 14.9659 13.9767 15.0256 13.9761L15.4862 13.9713L15.632 13.3886C15.6509 13.3132 15.7309 13.3132 15.7498 13.3886Z" fill="#FFE15A"/>
<path d="M14.032 4.84369L14.1778 5.42638L14.6385 5.43116C14.6981 5.43177 14.7228 5.53323 14.6749 5.5805L14.3042 5.94539L14.4432 6.531C14.4612 6.60677 14.3964 6.66958 14.3479 6.62329L13.9731 6.26609L13.5984 6.62329C13.5499 6.66952 13.4851 6.60682 13.5031 6.531L13.642 5.94539L13.2714 5.5805C13.2234 5.53323 13.2481 5.43177 13.3078 5.43116L13.7685 5.42638L13.9142 4.84369C13.9331 4.76825 14.0131 4.76825 14.032 4.84369Z" fill="#FFE15A"/>
<path d="M9.34061 15.6796L9.48638 16.2623L9.94705 16.2671C10.0067 16.2677 10.0314 16.3692 9.98345 16.4164L9.61284 16.7813L9.75178 17.3669C9.76977 17.4427 9.70504 17.5055 9.65649 17.4592L9.28173 17.102L8.90696 17.4592C8.85845 17.5055 8.79368 17.4428 8.81167 17.3669L8.95061 16.7813L8.58 16.4164C8.53203 16.3692 8.55674 16.2677 8.61641 16.2671L9.07707 16.2623L9.22284 15.6796C9.2417 15.6042 9.32171 15.6042 9.34061 15.6796Z" fill="#FFE15A"/>
<path d="M15.632 7.1347L15.4862 7.7174L15.0256 7.72218C14.9659 7.72278 14.9412 7.82424 14.9892 7.87152L15.3598 8.23641L15.2209 8.82202C15.2029 8.89779 15.2676 8.9606 15.3161 8.91431L15.6909 8.55711L16.0657 8.91431C16.1142 8.96054 16.179 8.89784 16.161 8.82202L16.022 8.23641L16.3926 7.87152C16.4406 7.82424 16.4159 7.72278 16.3562 7.72218L15.8956 7.7174L15.7498 7.1347C15.7309 7.05927 15.6509 7.05927 15.632 7.1347Z" fill="#FFE15A"/>
<path d="M7.50604 13.3886L7.36027 13.9713L6.89961 13.9761C6.83994 13.9767 6.81523 14.0782 6.86321 14.1254L7.23381 14.4903L7.09488 15.0759C7.07688 15.1517 7.14161 15.2145 7.19016 15.1682L7.56493 14.811L7.93969 15.1682C7.9882 15.2144 8.05298 15.1517 8.03498 15.0759L7.89605 14.4903L8.26665 14.1254C8.31463 14.0782 8.28992 13.9767 8.23025 13.9761L7.76959 13.9713L7.62381 13.3886C7.60491 13.3132 7.5249 13.3132 7.50604 13.3886Z" fill="#FFE15A"/>
<path d="M9.22284 4.84369L9.07707 5.42638L8.61641 5.43116C8.55674 5.43177 8.53203 5.53323 8.58 5.5805L8.95061 5.94539L8.81167 6.531C8.79368 6.60677 8.85841 6.66958 8.90696 6.62329L9.28173 6.26609L9.65649 6.62329C9.705 6.66952 9.76977 6.60682 9.75178 6.531L9.61284 5.94539L9.98345 5.5805C10.0314 5.53323 10.0067 5.43177 9.94705 5.43116L9.48638 5.42638L9.34061 4.84369C9.32171 4.76825 9.2417 4.76825 9.22284 4.84369Z" fill="#FFE15A"/>
<path d="M13.9142 15.6796L13.7685 16.2623L13.3078 16.2671C13.2481 16.2677 13.2234 16.3692 13.2714 16.4164L13.642 16.7813L13.5031 17.3669C13.4851 17.4427 13.5498 17.5055 13.5984 17.4592L13.9731 17.102L14.3479 17.4592C14.3964 17.5055 14.4612 17.4428 14.4432 17.3669L14.3042 16.7813L14.6749 16.4164C14.7228 16.3692 14.6981 16.2677 14.6385 16.2671L14.1778 16.2623L14.032 15.6796C14.0131 15.6042 13.9331 15.6042 13.9142 15.6796Z" fill="#FFE15A"/>
</g>
<defs>
<clipPath id="clip0_11272_77545">
<rect width="23" height="23" rx="11.5" fill="white"/>
</clipPath>
</defs>
</svg>
