<svg width="26" height="26" viewBox="0 0 26 26" fill="none" xmlns="http://www.w3.org/2000/svg">
<g clip-path="url(#clip0_11272_77559)">
<path d="M25 0.712891L0.999999 0.712889L0.999997 24.7129L25 24.7129L25 0.712891Z" fill="#006B3F"/>
<path d="M25 0.712891L0.999999 0.712889L0.999998 16.7129L25 16.7129L25 0.712891Z" fill="#FCD116"/>
<path d="M25 0.712891L0.999999 0.712889L0.999998 8.71289L25 8.71289L25 0.712891Z" fill="#CE1126"/>
<path d="M12.9996 8.71289L11.0496 16.7129L16.1533 11.7679L9.84957 11.7679L14.9496 16.7129L12.9996 8.71289Z" fill="black"/>
</g>
<rect x="0.282353" y="-0.282353" width="24.5647" height="24.5647" rx="12.2824" transform="matrix(-1 -8.74228e-08 -8.74228e-08 1 25.5647 0.712891)" stroke="white" stroke-width="0.564706"/>
<defs>
<clipPath id="clip0_11272_77559">
<rect width="24" height="24" rx="12" transform="matrix(-1 -8.74228e-08 -8.74228e-08 1 25 0.712891)" fill="white"/>
</clipPath>
</defs>
</svg>
