<svg width="26" height="26" viewBox="0 0 26 26" fill="none" xmlns="http://www.w3.org/2000/svg">
<g clip-path="url(#clip0_11272_77564)">
<path fill-rule="evenodd" clip-rule="evenodd" d="M26.5 16.7168L-0.500001 16.7168L-0.500001 20.7152L26.5 20.7152L26.5 16.7168Z" fill="#FFE700"/>
<path fill-rule="evenodd" clip-rule="evenodd" d="M26.5 12.7129L-0.500001 12.7129L-0.500001 16.7113L26.5 16.7113L26.5 12.7129Z" fill="black"/>
<path fill-rule="evenodd" clip-rule="evenodd" d="M26.5 8.71484L-0.500001 8.71484L-0.500001 12.7133L26.5 12.7133L26.5 8.71484Z" fill="#DE3908"/>
<path fill-rule="evenodd" clip-rule="evenodd" d="M26.5 4.7168L-0.500001 4.71679L-0.500001 8.71523L26.5 8.71523L26.5 4.7168Z" fill="#FFE700"/>
<path fill-rule="evenodd" clip-rule="evenodd" d="M26.5 0.712891L-0.500001 0.712888L-0.500001 4.71133L26.5 4.71133L26.5 0.712891Z" fill="black"/>
<path fill-rule="evenodd" clip-rule="evenodd" d="M10.1979 12.7125C10.1979 13.7033 10.4931 14.6536 11.0185 15.3542C11.544 16.0548 12.2567 16.4484 12.9998 16.4484C13.7429 16.4484 14.4556 16.0548 14.9811 15.3542C15.5066 14.6536 15.8018 13.7033 15.8018 12.7125C15.8018 11.7217 15.5066 10.7714 14.9811 10.0708C14.4556 9.37017 13.7429 8.97656 12.9998 8.97656C12.2567 8.97656 11.544 9.37017 11.0185 10.0708C10.4931 10.7714 10.1979 11.7217 10.1979 12.7125V12.7125Z" fill="#FFFDFF"/>
<path fill-rule="evenodd" clip-rule="evenodd" d="M12.9998 9C13.7383 9 14.4465 9.39114 14.9687 10.0874C15.4908 10.7836 15.7842 11.7279 15.7842 12.7125C15.7842 13.6971 15.4908 14.6414 14.9687 15.3376C14.4465 16.0339 13.7383 16.425 12.9998 16.425C12.2613 16.425 11.5531 16.0339 11.031 15.3376C10.5088 14.6414 10.2154 13.6971 10.2154 12.7125C10.2154 11.7279 10.5088 10.7836 11.031 10.0874C11.5531 9.39114 12.2613 9 12.9998 9ZM14.9935 10.0542C14.4647 9.3492 13.7476 8.95312 12.9998 8.95312C12.252 8.95312 11.5349 9.3492 11.0061 10.0542C10.4773 10.7592 10.1803 11.7155 10.1803 12.7125C10.1803 13.7095 10.4773 14.6658 11.0061 15.3708C11.5349 16.0758 12.252 16.4719 12.9998 16.4719C13.7476 16.4719 14.4647 16.0758 14.9935 15.3708C15.5223 14.6658 15.8193 13.7095 15.8193 12.7125C15.8193 11.7155 15.5223 10.7592 14.9935 10.0542Z" fill="black"/>
<path fill-rule="evenodd" clip-rule="evenodd" d="M13.492 9.84844L13.6748 9.40312C13.6045 9.30937 13.4885 9.23437 13.2986 9.23437L13.3197 9.72656L13.4955 9.84844L13.492 9.84844Z" fill="#DE3108"/>
<path fill-rule="evenodd" clip-rule="evenodd" d="M13.6536 9.40759L13.4863 9.81516L13.3374 9.71192L13.318 9.25806C13.4847 9.26257 13.5887 9.32754 13.6536 9.40759ZM13.4694 9.85629L13.3035 9.74121L13.2807 9.21094L13.2993 9.21094C13.4929 9.21094 13.6137 9.28756 13.688 9.38655L13.6973 9.39897L13.5081 9.85969L13.4996 9.85347L13.4962 9.87187L13.463 9.87187L13.4694 9.85629Z" fill="black"/>
<path fill-rule="evenodd" clip-rule="evenodd" d="M13.3158 9.72716L13.2912 9.23498C13.2912 9.23498 12.915 9.20685 12.7111 9.53498L12.9115 9.91935L13.3193 9.73185L13.3158 9.72716Z" fill="#FFE700"/>
<path fill-rule="evenodd" clip-rule="evenodd" d="M13.2756 9.25785L13.2986 9.71701L12.9193 9.89141L12.7342 9.53643C12.8321 9.38738 12.968 9.31732 13.0822 9.28485C13.1408 9.26818 13.1933 9.26156 13.231 9.25912C13.2498 9.2579 13.265 9.25772 13.2754 9.25785C13.2755 9.25785 13.2755 9.25785 13.2756 9.25785ZM13.3338 9.71682L13.3086 9.21274L13.2931 9.21158L13.2921 9.23498C13.2931 9.21158 13.2931 9.21158 13.2931 9.21158L13.293 9.21157L13.293 9.21157L13.2927 9.21155L13.2918 9.21149C13.291 9.21145 13.2899 9.21138 13.2884 9.21132C13.2855 9.21119 13.2812 9.21104 13.2757 9.21097C13.2647 9.21084 13.2489 9.21103 13.2293 9.2123C13.1901 9.21484 13.1358 9.2217 13.0749 9.23901C12.9534 9.27354 12.804 9.35024 12.6985 9.52002L12.69 9.53373L12.9056 9.94729L13.3525 9.74179L13.3338 9.71682Z" fill="black"/>
<path fill-rule="evenodd" clip-rule="evenodd" d="M12.9082 9.91367L12.7219 9.5293C12.5988 9.70273 12.5461 9.82461 12.5285 10.0121C12.525 10.0168 12.8203 10.1105 12.8203 10.1059L12.9082 9.91367V9.91367Z" fill="#DE3108"/>
<path fill-rule="evenodd" clip-rule="evenodd" d="M12.7251 9.49219L12.7097 9.51387C12.5854 9.68911 12.5301 9.81524 12.5118 10.0087C12.5114 10.0118 12.5114 10.0151 12.512 10.0185C12.5132 10.0248 12.516 10.0286 12.5169 10.0298C12.5189 10.0324 12.521 10.0339 12.5215 10.0343L12.5216 10.0343C12.5231 10.0354 12.5248 10.0362 12.5259 10.0367C12.5284 10.0379 12.5318 10.0393 12.5357 10.0409C12.5438 10.044 12.5552 10.0481 12.5688 10.0528C12.5962 10.0622 12.6329 10.0742 12.6696 10.086C12.7064 10.0977 12.7433 10.1092 12.771 10.1174C12.7849 10.1215 12.7966 10.1249 12.8048 10.127C12.8089 10.1281 12.8124 10.129 12.815 10.1295C12.8162 10.1297 12.8177 10.13 12.8191 10.1301C12.8197 10.1301 12.8212 10.1302 12.8231 10.1299C12.8238 10.1298 12.8263 10.1293 12.829 10.1274C12.8308 10.1262 12.8343 10.123 12.8365 10.1174L12.9238 9.92655L12.9088 9.91435L12.9236 9.90163L12.7251 9.49219ZM12.8881 9.91471L12.812 10.0811C12.8119 10.0811 12.8118 10.0811 12.8117 10.0811C12.8038 10.079 12.7924 10.0757 12.7787 10.0716C12.7512 10.0635 12.7144 10.0521 12.6778 10.0404C12.6412 10.0287 12.6047 10.0167 12.5776 10.0074C12.5657 10.0033 12.5558 9.99973 12.5485 9.99696C12.5663 9.83415 12.6135 9.72176 12.72 9.56792L12.8881 9.91471ZM12.8055 10.0953L12.8062 10.0938C12.8059 10.0943 12.8057 10.0948 12.8055 10.0953Z" fill="black"/>
<path fill-rule="evenodd" clip-rule="evenodd" d="M13.4006 16.232C13.4006 16.232 13.0526 15.7023 12.3776 15.8148C12.4795 15.5945 12.81 15.6226 12.81 15.6226C12.81 15.6226 12.9084 14.5913 12.8311 14.5351C12.7538 14.4788 12.4092 14.5398 12.4092 14.5398C12.367 14.5398 12.2897 14.3804 12.353 14.2773C12.4127 14.1742 12.592 13.7851 12.5182 13.7054C12.4444 13.6304 12.0471 13.7523 12.0471 13.7523L13.1721 11.8304C13.1721 11.8304 13.2881 11.1038 13.0561 10.7523C12.7784 10.4476 12.81 10.1148 12.817 10.1195C12.8557 9.78197 13.2389 9.54291 13.4991 9.85229C13.6502 10.096 13.5483 10.2835 13.5483 10.2835C13.5483 10.2835 13.9526 10.4288 13.9666 10.5226C13.9842 10.6163 13.5131 10.5085 13.5131 10.5085L13.5588 10.9351C13.5588 10.9351 14.4729 12.0413 13.7698 12.9976L13.7487 12.9601C13.7487 12.9601 13.5026 13.3632 13.2459 13.4523C12.9998 13.7804 13.0245 13.7335 13.0245 13.7335C13.0245 13.7335 12.9787 14.2538 13.0245 14.357C13.0842 14.3335 13.703 14.3007 13.7944 14.3476C13.8788 14.3851 14.1952 14.3617 14.1178 15.0554L14.0018 14.7038C14.0018 14.7038 14.0123 14.9523 13.935 15.0414C13.9491 14.7789 13.8612 14.6007 13.8612 14.6007C13.8612 14.6007 13.8471 14.8913 13.7979 14.9288C13.7487 14.9757 13.7487 14.4601 13.4815 14.507C13.2213 14.5492 13.028 14.5351 13.028 14.5351C13.028 14.5351 12.9401 15.5382 12.9682 15.632C13.158 15.571 13.6151 15.6554 13.6432 15.8101C13.376 15.7867 13.253 15.8288 13.253 15.8288C13.253 15.8288 13.4674 16.0867 13.4006 16.232V16.232Z" fill="black"/>
<path fill-rule="evenodd" clip-rule="evenodd" d="M12.8019 10.1123C12.8239 9.93651 12.9337 9.78951 13.0695 9.72499C13.2073 9.65948 13.3744 9.6776 13.5094 9.8381C13.51 9.83881 13.5106 9.83958 13.5111 9.8404C13.5894 9.96661 13.603 10.0801 13.5959 10.1633C13.5924 10.2045 13.5838 10.2376 13.5761 10.2606C13.5747 10.2648 13.5733 10.2686 13.572 10.2721C13.583 10.2762 13.5981 10.282 13.616 10.289C13.6543 10.3042 13.7055 10.3254 13.7572 10.3496C13.8089 10.3737 13.8615 10.401 13.9023 10.4284C13.9226 10.4421 13.9406 10.4562 13.9542 10.4704C13.9669 10.4836 13.9788 10.5001 13.9819 10.5195C13.984 10.5312 13.9823 10.5427 13.9769 10.5522C13.9719 10.5609 13.9648 10.5663 13.9579 10.57C13.9442 10.5774 13.9251 10.581 13.9039 10.5826C13.8609 10.5857 13.8027 10.5809 13.7447 10.5733C13.6866 10.5656 13.628 10.555 13.584 10.5463C13.5625 10.5421 13.5445 10.5383 13.5317 10.5356L13.5735 10.9263C13.5751 10.9283 13.5772 10.9309 13.5797 10.9341C13.5863 10.9426 13.5959 10.9551 13.6078 10.9713C13.6317 11.0037 13.6649 11.0511 13.7026 11.1109C13.7778 11.2304 13.871 11.4001 13.9421 11.6003C14.0131 11.8004 14.0625 12.0321 14.049 12.275C14.0356 12.5184 13.9591 12.7715 13.7809 13.0139C13.7777 13.0183 13.7731 13.0206 13.7685 13.0202C13.7639 13.0198 13.7597 13.0167 13.7569 13.0118L13.7477 12.9955C13.7405 13.0067 13.7303 13.022 13.7177 13.0403C13.6903 13.0799 13.6512 13.1335 13.6039 13.1901C13.5108 13.3014 13.3845 13.4258 13.2539 13.4728C13.133 13.6339 13.078 13.7037 13.0533 13.7332C13.047 13.7407 13.0425 13.7458 13.0392 13.7492C13.0392 13.7493 13.0391 13.7494 13.039 13.7495C13.0387 13.7524 13.0384 13.7559 13.0381 13.7599C13.037 13.7742 13.0354 13.7949 13.0336 13.82C13.03 13.8702 13.0258 13.9382 13.0229 14.0093C13.0201 14.0805 13.0187 14.1544 13.0208 14.2167C13.0219 14.2478 13.0238 14.2756 13.0267 14.2985C13.0287 14.3133 13.0309 14.3252 13.0334 14.3344C13.0428 14.3323 13.0551 14.3304 13.0692 14.3285C13.0923 14.3254 13.1219 14.3224 13.1559 14.3195C13.224 14.3139 13.31 14.309 13.397 14.3064C13.484 14.3037 13.5721 14.3033 13.6443 14.3065C13.6803 14.308 13.7126 14.3105 13.7389 14.3142C13.7645 14.3177 13.7859 14.3224 13.7995 14.3293C13.8088 14.3334 13.8218 14.3368 13.8385 14.3412L13.8401 14.3416C13.8563 14.3458 13.8751 14.3507 13.8952 14.3576C13.9366 14.3719 13.984 14.3951 14.0265 14.4405C14.1126 14.5326 14.1724 14.7093 14.1333 15.0601C14.1322 15.0694 14.1267 15.0766 14.1197 15.0779C14.1128 15.0791 14.106 15.0741 14.1032 15.0655L14.0161 14.8016C14.0153 14.8148 14.0143 14.8289 14.0129 14.8434C14.0093 14.881 14.0032 14.9221 13.9927 14.9599C13.9823 14.9975 13.9673 15.0334 13.9452 15.0589C13.9403 15.0644 13.9334 15.0656 13.9277 15.0618C13.922 15.0579 13.9186 15.0499 13.919 15.0414C13.9259 14.9136 13.9079 14.8064 13.8882 14.7311C13.8827 14.7099 13.877 14.6913 13.8718 14.6754C13.8697 14.6993 13.867 14.7272 13.8634 14.7557C13.8585 14.7949 13.852 14.836 13.8433 14.8701C13.839 14.8871 13.834 14.903 13.8282 14.9162C13.8226 14.9289 13.8155 14.9409 13.8062 14.9482C13.8002 14.9536 13.7924 14.9565 13.7841 14.9529C13.7767 14.9497 13.7716 14.9424 13.7682 14.9363C13.7614 14.9239 13.7557 14.905 13.7502 14.8848C13.747 14.8729 13.7437 14.8598 13.7402 14.846C13.7312 14.8105 13.7208 14.7696 13.7068 14.7281C13.6875 14.6708 13.6622 14.6157 13.6266 14.5777C13.5917 14.5403 13.5459 14.5185 13.4834 14.5294L13.4832 14.5295C13.3525 14.5507 13.2385 14.5577 13.1572 14.5595C13.1166 14.5604 13.0841 14.5599 13.0617 14.5593C13.0538 14.559 13.0471 14.5588 13.0418 14.5585C13.0413 14.565 13.0406 14.573 13.0398 14.5823C13.0374 14.6099 13.0341 14.6494 13.0302 14.6971C13.0224 14.7926 13.0123 14.9208 13.0031 15.0519C12.9939 15.1831 12.9856 15.3169 12.9813 15.4237C12.9792 15.4771 12.9781 15.5235 12.9783 15.5593C12.9785 15.5771 12.979 15.5921 12.9798 15.6037C12.9799 15.6054 12.98 15.6069 12.9802 15.6084C13.0793 15.5823 13.2339 15.5896 13.3689 15.6209C13.4403 15.6375 13.5073 15.661 13.5587 15.6906C13.5843 15.7054 13.6067 15.7221 13.6238 15.7408C13.6407 15.7593 13.6538 15.7812 13.6584 15.8067C13.6596 15.8132 13.6584 15.8201 13.6551 15.8252C13.6519 15.8304 13.647 15.8331 13.642 15.8327C13.5092 15.821 13.4124 15.8257 13.3491 15.8332C13.3219 15.8365 13.3008 15.8402 13.2857 15.8435C13.2891 15.848 13.2928 15.8529 13.2967 15.8583C13.316 15.8852 13.3413 15.9227 13.3644 15.965C13.3875 16.0072 13.4092 16.0551 13.4206 16.1028C13.4321 16.1505 13.434 16.2009 13.4139 16.2446L13.4004 16.2335C13.3885 16.2474 13.3885 16.2474 13.3886 16.2474L13.3885 16.2474L13.3884 16.2472L13.3877 16.2462C13.3871 16.2453 13.3861 16.2439 13.3848 16.242C13.3823 16.2384 13.3783 16.2329 13.3731 16.226C13.3625 16.2121 13.3466 16.1923 13.3254 16.1687C13.283 16.1217 13.2193 16.0599 13.1348 16.0015C12.9658 15.8848 12.7133 15.7816 12.3794 15.8373C12.3733 15.8383 12.3674 15.8346 12.3641 15.8277C12.3608 15.8209 12.3607 15.8122 12.3639 15.8053C12.4188 15.6866 12.5334 15.6374 12.6293 15.6168C12.6779 15.6063 12.7232 15.6029 12.7563 15.6021C12.7729 15.6017 12.7864 15.6019 12.7959 15.6023C12.7959 15.6023 12.7959 15.6023 12.7959 15.6023C12.7965 15.5955 12.7973 15.5871 12.7982 15.5772C12.8007 15.549 12.8043 15.5085 12.8083 15.4598C12.8163 15.3624 12.8261 15.232 12.8336 15.0999C12.8411 14.9677 12.8461 14.8343 12.8444 14.7307C12.8436 14.6789 12.8411 14.6353 12.8367 14.6034C12.8344 14.5874 12.8318 14.5752 12.829 14.5667C12.826 14.5576 12.8236 14.5554 12.8233 14.5552C12.816 14.5498 12.8042 14.5451 12.788 14.5415C12.7721 14.538 12.753 14.5358 12.7318 14.5347C12.6894 14.5326 12.6397 14.5349 12.592 14.539C12.5444 14.543 12.4991 14.5489 12.4658 14.5537C12.4491 14.5561 12.4354 14.5582 12.4259 14.5598C12.4212 14.5605 12.4174 14.5612 12.4149 14.5616L12.4121 14.5621L12.4114 14.5622L12.4112 14.5622L12.4111 14.5622C12.4104 14.5624 12.4097 14.5624 12.409 14.5624C12.3919 14.5624 12.3753 14.5473 12.3623 14.5296C12.3486 14.511 12.3358 14.4856 12.3268 14.457C12.3088 14.4003 12.3038 14.3256 12.3404 14.2657C12.3696 14.2152 12.4287 14.0936 12.4712 13.975C12.4926 13.9155 12.5093 13.8581 12.5162 13.8113C12.5197 13.7879 12.5206 13.7684 12.5189 13.7533C12.5173 13.7385 12.5134 13.7293 12.5082 13.7236C12.5021 13.7174 12.491 13.7119 12.4741 13.7083C12.4574 13.7047 12.4368 13.7033 12.4135 13.7037C12.3669 13.7046 12.3111 13.7127 12.2571 13.7232C12.2032 13.7336 12.1515 13.7464 12.1133 13.7567C12.0942 13.7618 12.0784 13.7662 12.0675 13.7694C12.062 13.7709 12.0578 13.7722 12.0549 13.7731L12.0516 13.7741L12.0507 13.7743L12.0505 13.7744L12.0505 13.7744C12.044 13.7764 12.0372 13.7727 12.0336 13.7652C12.03 13.7576 12.0303 13.7479 12.0345 13.7409L13.1572 11.8229C13.1573 11.822 13.1575 11.8209 13.1576 11.8197C13.1584 11.8144 13.1595 11.8065 13.1609 11.7964C13.1636 11.7761 13.1672 11.7467 13.1707 11.7102C13.1779 11.6372 13.1851 11.5364 13.1851 11.4247C13.1851 11.2007 13.1562 10.9387 13.0449 10.769C12.9041 10.6142 12.8411 10.4516 12.8144 10.3272C12.801 10.265 12.7968 10.2125 12.7964 10.1754C12.7962 10.1569 12.7969 10.142 12.7981 10.1314C12.7986 10.1262 12.7993 10.1214 12.8003 10.1175C12.8006 10.1163 12.8011 10.1144 12.8019 10.1123ZM13.1719 11.832C13.1874 11.8364 13.1874 11.8363 13.1874 11.8363L13.1874 11.8362L13.1875 11.8357L13.1878 11.8341C13.188 11.8327 13.1883 11.8305 13.1887 11.8278C13.1895 11.8222 13.1907 11.8141 13.192 11.8037C13.1948 11.7829 13.1985 11.7528 13.2021 11.7157C13.2094 11.6414 13.2168 11.5387 13.2168 11.4247C13.2168 11.1982 13.1878 10.9218 13.0678 10.7399C13.0672 10.7391 13.0666 10.7383 13.066 10.7376C12.9297 10.588 12.8699 10.4324 12.8448 10.3156C12.8322 10.2571 12.8284 10.2083 12.828 10.1748C12.8278 10.158 12.8285 10.1453 12.8294 10.1374C12.8296 10.1354 12.8298 10.134 12.8299 10.1329C12.8312 10.1303 12.8321 10.1274 12.8325 10.1242C12.8507 9.96497 12.951 9.82609 13.0801 9.76472C13.2083 9.70382 13.3624 9.72063 13.4875 9.86852C13.5597 9.98553 13.5705 10.0872 13.5645 10.1585C13.5614 10.1946 13.5539 10.2236 13.5472 10.2433C13.5439 10.2532 13.5408 10.2608 13.5386 10.2658C13.5375 10.2683 13.5366 10.2701 13.536 10.2713C13.5357 10.2719 13.5355 10.2723 13.5354 10.2725L13.5353 10.2727C13.5322 10.2783 13.5315 10.2856 13.5332 10.2921C13.5349 10.2987 13.539 10.3037 13.544 10.3055L13.5443 10.3056L13.5451 10.3059L13.5484 10.3071C13.5514 10.3082 13.5557 10.3098 13.5612 10.3118C13.5722 10.316 13.588 10.322 13.607 10.3295C13.645 10.3445 13.6957 10.3655 13.7468 10.3894C13.798 10.4133 13.8491 10.4399 13.888 10.4661C13.9076 10.4792 13.9235 10.4919 13.9347 10.5036C13.946 10.5154 13.95 10.5236 13.9508 10.5276C13.9507 10.5277 13.9506 10.5278 13.9505 10.5279C13.9496 10.5288 13.9481 10.5298 13.9461 10.5309C13.9374 10.5356 13.9226 10.5389 13.9021 10.5404C13.8617 10.5434 13.8055 10.5389 13.7479 10.5313C13.6904 10.5237 13.6323 10.5132 13.5886 10.5046C13.5667 10.5003 13.5485 10.4965 13.5357 10.4937C13.5293 10.4923 13.5243 10.4912 13.5208 10.4905L13.5169 10.4896L13.5156 10.4893C13.5107 10.4882 13.5055 10.4903 13.5019 10.495C13.4983 10.4997 13.4966 10.5064 13.4973 10.5131L13.543 10.9396C13.5435 10.9445 13.5453 10.949 13.548 10.9523L13.5481 10.9524L13.5486 10.953L13.5505 10.9553C13.5521 10.9573 13.5546 10.9604 13.5578 10.9645C13.5642 10.9727 13.5736 10.9849 13.5853 11.0008C13.6086 11.0326 13.6413 11.0792 13.6784 11.138C13.7525 11.2558 13.8439 11.4224 13.9135 11.6183C13.9831 11.8143 14.0304 12.0385 14.0175 12.2719C14.0049 12.499 13.9352 12.7365 13.7711 12.9667L13.7611 12.949C13.7582 12.9438 13.7537 12.9407 13.7488 12.9406C13.7439 12.9404 13.7393 12.9433 13.7362 12.9483L13.7361 12.9486L13.7356 12.9494C13.7353 12.9498 13.735 12.9504 13.7345 12.951C13.7342 12.9515 13.7339 12.9521 13.7335 12.9527C13.7317 12.9556 13.729 12.9599 13.7254 12.9654C13.7183 12.9764 13.7078 12.9923 13.6944 13.0117C13.6676 13.0506 13.6291 13.1032 13.5828 13.1586C13.4897 13.27 13.3663 13.3902 13.2418 13.4334C13.239 13.4344 13.2366 13.4363 13.2346 13.4389C13.1115 13.603 13.0564 13.6729 13.0322 13.7018C13.0273 13.7076 13.0237 13.7117 13.0212 13.7144C13.0173 13.7154 13.0137 13.7184 13.0113 13.723L13.0243 13.7351L13.0394 13.7375C13.0394 13.7375 13.0394 13.7375 13.0394 13.7375L13.0243 13.7351C13.0113 13.723 13.0113 13.723 13.0113 13.723L13.0113 13.723L13.0113 13.7231L13.0112 13.7232L13.011 13.7236C13.0109 13.7237 13.0108 13.7239 13.0107 13.7241C13.0107 13.7243 13.0106 13.7244 13.0105 13.7246C13.0103 13.7252 13.0096 13.7267 13.009 13.7286C13.0087 13.7296 13.0082 13.7314 13.0079 13.7338C13.0078 13.7349 13.0076 13.7372 13.0079 13.7401C13.0076 13.7438 13.0072 13.749 13.0067 13.7554C13.0055 13.7699 13.0039 13.7907 13.0021 13.816C12.9985 13.8666 12.9942 13.9352 12.9913 14.007C12.9885 14.0788 12.987 14.1543 12.9892 14.2186C12.9903 14.2507 12.9923 14.2804 12.9956 14.3057C12.9988 14.3305 13.0035 14.353 13.0107 14.3693C13.0143 14.3776 13.0218 14.3815 13.0287 14.3788C13.0345 14.3765 13.0492 14.3736 13.0723 14.3705C13.0949 14.3674 13.1241 14.3644 13.1579 14.3616C13.2255 14.356 13.3111 14.3512 13.3977 14.3486C13.4844 14.3459 13.5718 14.3455 13.6432 14.3486C13.6789 14.3502 13.7104 14.3526 13.7357 14.3561C13.7615 14.3597 13.7793 14.3641 13.7885 14.3688C13.7887 14.369 13.789 14.3691 13.7892 14.3692C13.8009 14.3744 13.8162 14.3784 13.8325 14.3826L13.8339 14.3829C13.8501 14.3872 13.8682 14.3918 13.8872 14.3984C13.9264 14.412 13.9691 14.4332 14.0067 14.4734C14.0749 14.5464 14.131 14.6872 14.1091 14.9786L14.0161 14.6969C14.013 14.6876 14.0054 14.6825 13.9979 14.6849C13.9905 14.6873 13.9854 14.6964 13.9858 14.7066M13.9858 14.7066L13.9858 14.7067L13.9858 14.7072L13.9859 14.7091C13.986 14.7108 13.986 14.7134 13.9861 14.7168C13.9862 14.7235 13.9863 14.7333 13.9862 14.7454C13.986 14.7695 13.9849 14.8025 13.9815 14.8381C13.9781 14.8738 13.9724 14.9115 13.963 14.9453C13.9598 14.957 13.9562 14.9681 13.9521 14.9784C13.9514 14.8726 13.9354 14.7833 13.9181 14.7172C13.9077 14.6775 13.8969 14.6461 13.8886 14.6246C13.8844 14.6138 13.8809 14.6055 13.8784 14.5997C13.8771 14.5969 13.8761 14.5947 13.8754 14.5932C13.875 14.5924 13.8748 14.5918 13.8746 14.5914L13.8743 14.5909L13.8742 14.5907C13.8742 14.5907 13.8742 14.5907 13.861 14.6023L13.8742 14.5907C13.8705 14.5831 13.8635 14.5796 13.8569 14.5819C13.8504 14.5842 13.8456 14.5919 13.8452 14.6009L13.8452 14.6011L13.8452 14.6017L13.845 14.604C13.8449 14.6061 13.8448 14.6092 13.8445 14.6132C13.844 14.6211 13.8433 14.6324 13.8423 14.6462C13.8402 14.6737 13.837 14.7107 13.8322 14.7488C13.8274 14.787 13.8212 14.8256 13.8134 14.8566C13.8094 14.872 13.8053 14.885 13.8009 14.8948C13.7978 14.9019 13.795 14.9065 13.7927 14.9093C13.7892 14.9021 13.7851 14.8894 13.78 14.8705C13.7771 14.8599 13.774 14.8477 13.7706 14.8344C13.7615 14.7984 13.7504 14.7543 13.7357 14.7108C13.7155 14.6509 13.6876 14.5888 13.6464 14.5448C13.6047 14.5002 13.5503 14.4752 13.4793 14.4876C13.3499 14.5086 13.2371 14.5156 13.1567 14.5173C13.1165 14.5182 13.0844 14.5178 13.0624 14.5171C13.0514 14.5168 13.0429 14.5164 13.0372 14.5161C13.0344 14.5159 13.0322 14.5158 13.0308 14.5157L13.0292 14.5156L13.0288 14.5156L13.0287 14.5156C13.0203 14.515 13.013 14.5231 13.0121 14.5342L13.0278 14.5367C13.0121 14.5342 13.0121 14.5342 13.0121 14.5342L13.0111 14.5455C13.0105 14.5529 13.0095 14.5637 13.0083 14.5776C13.006 14.6052 13.0027 14.6448 12.9988 14.6926C12.991 14.7881 12.9808 14.9166 12.9716 15.048C12.9624 15.1793 12.954 15.3138 12.9497 15.4215C12.9475 15.4753 12.9464 15.5226 12.9467 15.5597C12.9468 15.5782 12.9474 15.5945 12.9483 15.6078C12.9492 15.6206 12.9507 15.6325 12.9533 15.6414C12.9563 15.6511 12.9641 15.6565 12.9717 15.654C13.0636 15.6245 13.2229 15.6299 13.3635 15.6625C13.4335 15.6788 13.4979 15.7015 13.5461 15.7294C13.5702 15.7433 13.5897 15.7581 13.6037 15.7734C13.6083 15.7785 13.6123 15.7834 13.6155 15.7883C13.4956 15.7795 13.4066 15.7841 13.3463 15.7912C13.3138 15.7951 13.2897 15.7997 13.2735 15.8034C13.2654 15.8052 13.2594 15.8068 13.2553 15.808C13.2532 15.8086 13.2517 15.8091 13.2506 15.8094L13.2494 15.8098L13.249 15.8099L13.2489 15.81L13.2489 15.81C13.2489 15.81 13.2488 15.81 13.2528 15.8304L13.2489 15.81C13.2432 15.8119 13.2388 15.8178 13.2374 15.8254C13.236 15.8329 13.2379 15.8409 13.2422 15.8461C13.2422 15.8461 13.2422 15.8461 13.2422 15.8461L13.2423 15.8462L13.2427 15.8467L13.2444 15.8488C13.2459 15.8506 13.2481 15.8534 13.2509 15.857C13.2565 15.8642 13.2645 15.8746 13.2738 15.8876C13.2926 15.9136 13.3168 15.9496 13.3389 15.9899C13.3611 16.0304 13.3805 16.0742 13.3905 16.1157C13.3976 16.1453 13.3996 16.1723 13.3952 16.1959C13.3841 16.1813 13.3676 16.1606 13.3456 16.1363C13.3017 16.0876 13.2362 16.024 13.1493 15.964C12.9818 15.8483 12.7352 15.7462 12.4123 15.7898C12.4647 15.7138 12.5521 15.6761 12.6344 15.6585C12.6811 15.6484 12.7248 15.6451 12.7569 15.6443C12.7729 15.6439 12.786 15.6441 12.795 15.6445C12.7995 15.6446 12.803 15.6448 12.8053 15.645C12.8061 15.645 12.8067 15.645 12.8072 15.6451L12.808 15.6451L12.8086 15.6452L12.8088 15.6452C12.8171 15.6459 12.8245 15.6379 12.8255 15.6268L12.8098 15.6242C12.8255 15.6268 12.8255 15.6268 12.8255 15.6268L12.8255 15.6268L12.8255 15.6266L12.8258 15.6238L12.8266 15.6151C12.8273 15.6076 12.8283 15.5964 12.8296 15.5822C12.8322 15.5539 12.8357 15.5133 12.8397 15.4644C12.8477 15.3667 12.8577 15.2358 12.8651 15.1031C12.8726 14.9705 12.8777 14.8355 12.8761 14.7299C12.8752 14.6772 12.8727 14.6309 12.8678 14.5957C12.8653 14.5781 12.8621 14.5623 12.8579 14.5496C12.8538 14.5374 12.8479 14.525 12.8385 14.5181C12.8265 14.5094 12.8106 14.5037 12.7932 14.4999C12.7755 14.496 12.7549 14.4937 12.733 14.4926C12.689 14.4903 12.6381 14.4927 12.59 14.4969C12.5418 14.501 12.496 14.5069 12.4624 14.5117C12.4455 14.5142 12.4317 14.5163 12.4221 14.5179C12.4194 14.5183 12.4171 14.5187 12.4151 14.519C12.4135 14.5193 12.4121 14.5195 12.4109 14.5197L12.4083 14.5202C12.404 14.5197 12.3956 14.5146 12.3848 14.5C12.3742 14.4855 12.3636 14.4647 12.3559 14.4406C12.3405 14.3918 12.3385 14.3354 12.365 14.2922L12.3653 14.2917C12.3959 14.239 12.4562 14.1146 12.4998 13.9932C12.5215 13.9326 12.5395 13.8714 12.5473 13.8196C12.5511 13.7936 12.5526 13.7689 12.5502 13.7471C12.5478 13.7251 12.5412 13.7048 12.528 13.6906L12.5276 13.6902C12.5153 13.6776 12.4979 13.6706 12.4791 13.6666C12.4599 13.6625 12.4373 13.6611 12.413 13.6616C12.3644 13.6625 12.307 13.6708 12.2525 13.6814C12.1979 13.692 12.1456 13.705 12.107 13.7153C12.0996 13.7173 12.0926 13.7192 12.0863 13.7209L13.1844 11.8449C13.1859 11.8424 13.1869 11.8395 13.1874 11.8363L13.1719 11.832M12.8304 10.1305C12.8304 10.1305 12.8304 10.1306 12.8304 10.1305Z" fill="black"/>
<path fill-rule="evenodd" clip-rule="evenodd" d="M13.2955 10.782C13.2955 10.782 13.9599 11.757 13.6716 12.5023C13.6576 12.3992 13.6646 12.3336 13.6541 12.3383C13.6716 12.3242 13.5732 12.4273 13.5802 12.4086C13.5802 12.3523 13.6084 12.2352 13.6084 12.2352L13.5205 12.268L13.5732 12.1367L13.4431 12.1555C13.4431 12.1555 13.4888 11.9961 13.4748 11.9961L13.3693 12.0055C13.5591 11.5555 13.3798 11.1805 13.2955 10.7773L13.2955 10.782Z" fill="#9CA69C"/>
<path fill-rule="evenodd" clip-rule="evenodd" d="M13.2931 10.7561C13.2853 10.7575 13.2794 10.7664 13.2794 10.777L13.2794 10.7816C13.2794 10.7861 13.2805 10.7904 13.2824 10.794C13.2997 10.8748 13.3206 10.9545 13.3413 11.0333C13.3456 11.0497 13.3499 11.0662 13.3541 11.0825C13.3798 11.1814 13.4039 11.279 13.4195 11.3778C13.4506 11.5745 13.4479 11.7753 13.3553 11.9947C13.3524 12.0015 13.3526 12.0098 13.3557 12.0163C13.3588 12.0229 13.3643 12.0266 13.3701 12.0261L13.4598 12.0182C13.4576 12.0317 13.4535 12.05 13.449 12.0689C13.4442 12.0885 13.439 12.1082 13.435 12.123C13.433 12.1304 13.4312 12.1365 13.43 12.1408L13.4286 12.1458L13.4283 12.1471L13.4282 12.1474L13.4281 12.1475C13.4262 12.1544 13.427 12.1621 13.4304 12.168C13.4337 12.1738 13.4391 12.1768 13.4446 12.1761L13.5449 12.1616L13.5063 12.2576C13.5033 12.2651 13.5039 12.2742 13.5079 12.2808C13.5119 12.2874 13.5184 12.2902 13.5245 12.2879L13.5848 12.2654C13.5829 12.2743 13.5808 12.2844 13.5788 12.2951C13.572 12.33 13.5647 12.3739 13.5642 12.4049C13.5641 12.4059 13.564 12.4069 13.5639 12.408C13.5636 12.4133 13.5647 12.4225 13.5714 12.4282C13.5765 12.4324 13.5814 12.4316 13.5828 12.4314C13.5848 12.431 13.5865 12.4302 13.5875 12.4297C13.5912 12.4278 13.5957 12.4242 13.5996 12.4209C13.6081 12.4136 13.6196 12.4026 13.6304 12.3916C13.6356 12.3865 13.6407 12.3812 13.6453 12.3763C13.6454 12.3778 13.6455 12.3792 13.6455 12.3808C13.6456 12.3818 13.6456 12.3829 13.6457 12.384C13.647 12.4126 13.6489 12.4547 13.6559 12.5057C13.6571 12.5146 13.6624 12.5215 13.6691 12.5228C13.6758 12.5242 13.6824 12.5196 13.6855 12.5116C13.8333 12.1294 13.7361 11.6909 13.6055 11.3527C13.54 11.1829 13.4654 11.0367 13.4072 10.933C13.3782 10.8811 13.3532 10.8398 13.3354 10.8115C13.3265 10.7973 13.3194 10.7863 13.3146 10.7789C13.3132 10.7768 13.312 10.7749 13.3109 10.7734C13.3108 10.7727 13.3106 10.772 13.3105 10.7713C13.3084 10.7611 13.3009 10.7546 13.2931 10.7561ZM13.3346 10.8768C13.3484 10.8997 13.3644 10.927 13.3819 10.9583C13.4393 11.0607 13.5129 11.2048 13.5774 11.372C13.6993 11.6878 13.787 12.0799 13.6798 12.4276C13.6786 12.4099 13.6778 12.3943 13.6772 12.3812L13.6771 12.3782C13.6765 12.3645 13.6759 12.3518 13.6746 12.343C13.6741 12.3393 13.673 12.3333 13.6704 12.328C13.6661 12.3149 13.656 12.3154 13.6548 12.3155C13.6524 12.3157 13.6505 12.3167 13.65 12.3169C13.6492 12.3173 13.6486 12.3177 13.6481 12.318C13.6473 12.3186 13.6464 12.3192 13.6457 12.3198C13.6432 12.3218 13.6412 12.3247 13.6399 12.3279C13.6395 12.3284 13.6391 12.3289 13.6386 12.3294C13.6322 12.3365 13.622 12.3473 13.6114 12.358C13.6071 12.3623 13.6028 12.3665 13.5987 12.3704C13.6013 12.3501 13.6053 12.3271 13.6094 12.3057C13.6129 12.2878 13.6163 12.2716 13.6189 12.2599C13.6202 12.2541 13.6213 12.2494 13.6221 12.2461L13.6229 12.2424L13.6231 12.2415L13.6232 12.2412L13.6081 12.2348M13.3966 11.9815C13.4803 11.764 13.4811 11.5631 13.4505 11.3691C13.4344 11.2675 13.4098 11.1677 13.384 11.0687C13.3797 11.0521 13.3754 11.0356 13.371 11.019C13.3586 10.9716 13.3462 10.9243 13.3346 10.8768" fill="#9CA69C"/>
<path fill-rule="evenodd" clip-rule="evenodd" d="M13.0633 9.94141C13.0633 9.94141 13.0282 10.2789 13.1688 10.3727C13.1864 10.3961 13.2743 10.4336 13.2602 10.5039C13.2461 10.5977 13.2075 10.5789 13.1547 10.5602C13.0106 10.5273 12.8418 10.1195 13.0633 9.94141Z" fill="#9CA69C"/>
<path fill-rule="evenodd" clip-rule="evenodd" d="M13.0858 9.89648L13.0542 9.92187C12.9951 9.96936 12.9612 10.0331 12.9469 10.103C12.9327 10.1723 12.9381 10.2459 12.9552 10.3133C12.9723 10.3808 13.0014 10.4433 13.0357 10.4914C13.0696 10.5388 13.1101 10.574 13.1509 10.5836C13.153 10.5843 13.155 10.5851 13.1571 10.5858C13.1676 10.5896 13.1782 10.5934 13.1881 10.596C13.2001 10.5991 13.213 10.601 13.2253 10.5978C13.2383 10.5944 13.2499 10.5855 13.2591 10.5697C13.2677 10.5547 13.2735 10.5347 13.2773 10.5097C13.2871 10.4588 13.259 10.4233 13.2364 10.4021C13.225 10.3913 13.2128 10.3821 13.2028 10.3746C13.2022 10.3741 13.2016 10.3737 13.2011 10.3733C13.1958 10.3693 13.1913 10.3659 13.1877 10.3628C13.1838 10.3596 13.1819 10.3576 13.1812 10.3566L13.1792 10.3539L13.1766 10.3522C13.1148 10.311 13.0894 10.2142 13.0807 10.1196C13.0765 10.0732 13.0765 10.0294 13.0775 9.99717C13.0781 9.98108 13.0789 9.96795 13.0795 9.95889C13.0799 9.95436 13.0802 9.95086 13.0804 9.94852C13.0805 9.94736 13.0806 9.94648 13.0806 9.94591L13.0807 9.9453L13.0807 9.94517L13.0858 9.89648ZM13.0426 9.99004C13.0425 9.9917 13.0425 9.99338 13.0424 9.9951C13.0413 10.0291 13.0413 10.0755 13.0458 10.1252C13.0547 10.2218 13.0816 10.3393 13.1586 10.3926C13.1618 10.3963 13.1655 10.3996 13.1689 10.4025C13.1734 10.4063 13.1786 10.4102 13.1838 10.4141C13.1842 10.4144 13.1846 10.4148 13.1851 10.4151C13.1954 10.4228 13.2062 10.431 13.2162 10.4404C13.2384 10.4613 13.247 10.4794 13.2432 10.4984L13.243 10.4991L13.2429 10.4998C13.2397 10.5215 13.2354 10.534 13.2312 10.5411C13.2275 10.5476 13.2235 10.5504 13.2185 10.5517C13.2129 10.5532 13.2053 10.5527 13.1948 10.55C13.1863 10.5478 13.1772 10.5445 13.1668 10.5408C13.1643 10.5399 13.1618 10.539 13.1592 10.538L13.1584 10.5378L13.1576 10.5376C13.1266 10.5305 13.0923 10.5026 13.0612 10.459C13.0303 10.4158 13.0039 10.3592 12.9885 10.2983C12.9731 10.2374 12.9689 10.1736 12.9808 10.1153C12.9901 10.0698 13.0095 10.0266 13.0426 9.99004Z" fill="#9CA69C"/>
<path fill-rule="evenodd" clip-rule="evenodd" d="M13.3096 10.2285C13.3096 10.2472 13.3151 10.265 13.325 10.2782C13.3349 10.2914 13.3483 10.2988 13.3623 10.2988C13.3763 10.2988 13.3897 10.2914 13.3996 10.2782C13.4095 10.265 13.415 10.2472 13.415 10.2285C13.415 10.2099 13.4095 10.192 13.3996 10.1788C13.3897 10.1656 13.3763 10.1582 13.3623 10.1582C13.3483 10.1582 13.3349 10.1656 13.325 10.1788C13.3151 10.192 13.3096 10.2099 13.3096 10.2285V10.2285Z" fill="white"/>
<path fill-rule="evenodd" clip-rule="evenodd" d="M13.5235 10.5098C13.5587 10.552 13.7415 10.8051 13.5587 10.8988C13.3723 10.8332 13.4251 10.7863 13.3829 10.7301C13.3829 10.6129 13.4743 10.5848 13.5235 10.5145L13.5235 10.5098Z" fill="#DE3108"/>
<path fill-rule="evenodd" clip-rule="evenodd" d="M13.5069 10.5048L13.5069 10.457L13.5362 10.4922C13.5545 10.5141 13.6111 10.5905 13.6398 10.6752C13.6542 10.7175 13.6628 10.7654 13.6531 10.8107C13.6432 10.8574 13.6152 10.8954 13.5659 10.9206L13.5606 10.9233L13.5551 10.9214C13.4619 10.8885 13.423 10.8589 13.4037 10.825C13.3954 10.8104 13.3912 10.7957 13.3879 10.7842C13.3874 10.7825 13.387 10.7809 13.3865 10.7794C13.383 10.7673 13.3795 10.7573 13.3714 10.7465L13.3663 10.7397L13.3663 10.73C13.3663 10.6611 13.3939 10.6187 13.4248 10.5862C13.4359 10.5746 13.448 10.5636 13.4595 10.5532C13.4637 10.5494 13.4678 10.5456 13.4717 10.542C13.4849 10.5298 13.4968 10.5179 13.5069 10.5048ZM13.5264 10.5447C13.5493 10.5757 13.5871 10.6336 13.6078 10.6945C13.6207 10.7324 13.6257 10.768 13.6193 10.7979C13.6135 10.8252 13.597 10.8528 13.5585 10.8741C13.47 10.8422 13.4429 10.8163 13.4317 10.7966C13.4266 10.7878 13.4243 10.7796 13.4209 10.768C13.4204 10.7662 13.4199 10.7643 13.4193 10.7623C13.4157 10.7499 13.411 10.7358 13.4016 10.7211C13.4037 10.6779 13.4212 10.6496 13.4466 10.623C13.4566 10.6125 13.4672 10.6029 13.4783 10.5928C13.4827 10.5888 13.4872 10.5847 13.4918 10.5805C13.5034 10.5697 13.5154 10.558 13.5264 10.5447Z" fill="black"/>
<path fill-rule="evenodd" clip-rule="evenodd" d="M13.1194 12.9238C13.13 12.9801 13.1722 13.1863 13.1159 13.3457C12.9542 13.252 12.8804 13.2801 12.8276 13.327C12.9577 13.1863 13.0104 13.1254 13.1194 12.9238V12.9238Z" fill="#9CA69C"/>
<path fill-rule="evenodd" clip-rule="evenodd" d="M13.1064 12.9121C12.9985 13.1117 12.9469 13.1713 12.8175 13.3112C12.8109 13.3183 12.8097 13.331 12.8147 13.3401C12.8197 13.3492 12.8292 13.3514 12.8362 13.3451C12.8606 13.3234 12.8894 13.3064 12.931 13.3053C12.9732 13.3042 13.0297 13.3195 13.1094 13.3657C13.1173 13.3702 13.1264 13.3656 13.13 13.3553C13.1598 13.2709 13.1632 13.1752 13.1583 13.095C13.1537 13.0201 13.1417 12.9567 13.1358 12.9257C13.1353 12.9234 13.1349 12.9213 13.1346 12.9193L13.1192 12.9244L13.1064 12.9121ZM13.1119 12.9736C13.0362 13.1101 12.9861 13.1785 12.9094 13.2649C12.9161 13.2639 12.9231 13.2633 12.9304 13.2631C12.9758 13.2619 13.0327 13.2774 13.1074 13.3187C13.1284 13.2482 13.1311 13.169 13.1268 13.0984C13.1238 13.0498 13.1175 13.0062 13.1119 12.9736Z" fill="#9CA69C"/>
<path fill-rule="evenodd" clip-rule="evenodd" d="M12.8457 13.8887L12.8387 14.3668C12.8387 14.3668 12.7121 14.3949 12.6559 14.3668C12.5996 14.3387 12.6559 14.0387 12.8457 13.8887Z" fill="white"/>
<path fill-rule="evenodd" clip-rule="evenodd" d="M12.8535 13.8701C12.8485 13.8662 12.8424 13.8662 12.8374 13.8701C12.7392 13.9478 12.6756 14.064 12.6437 14.1649C12.6278 14.2152 12.6194 14.2627 12.6191 14.3007C12.6189 14.3196 12.6207 14.3373 12.6253 14.352C12.6299 14.367 12.6379 14.38 12.6501 14.3862C12.6664 14.3943 12.6868 14.398 12.7072 14.3993C12.7278 14.4007 12.7495 14.3998 12.7692 14.398C12.789 14.3962 12.8069 14.3935 12.8199 14.3913C12.8263 14.3902 12.8316 14.3892 12.8353 14.3884C12.8371 14.3881 12.8385 14.3878 12.8395 14.3875L12.8407 14.3873L12.841 14.3872L12.841 14.3872C12.841 14.3872 12.8411 14.3872 12.8385 14.3664L12.8411 14.3872C12.8486 14.3855 12.8541 14.377 12.8543 14.3668L12.8613 13.8887C12.8614 13.881 12.8584 13.8739 12.8535 13.8701ZM12.8229 14.3482C12.8208 14.3486 12.8184 14.349 12.8158 14.3494C12.8033 14.3516 12.786 14.3542 12.7671 14.3559C12.7481 14.3576 12.7277 14.3585 12.7087 14.3572C12.6896 14.3559 12.673 14.3526 12.6612 14.3467C12.6594 14.3457 12.6568 14.3433 12.6545 14.3359C12.6521 14.3282 12.6506 14.3167 12.6507 14.3012C12.651 14.2703 12.658 14.2282 12.6729 14.1812C12.6998 14.0961 12.7513 13.9987 12.8291 13.9273L12.8229 14.3482Z" fill="white"/>
<path fill-rule="evenodd" clip-rule="evenodd" d="M11.9453 13.9513C11.9453 13.9513 12.1738 13.2107 12.7609 13.0232C13.348 12.8357 13.2707 12.0013 13.225 11.9497C13.1968 11.8794 13.1793 11.7669 13.0105 11.8747C12.8418 11.9825 12.0613 12.5028 11.9488 12.531C11.8363 12.5591 11.9347 13.97 11.9418 13.9513L11.9453 13.9513Z" fill="#9CA69C"/>
<path fill-rule="evenodd" clip-rule="evenodd" d="M13.2007 11.9356C13.2035 11.9433 13.2064 11.9513 13.2095 11.9588L13.211 11.9628L13.2136 11.9657C13.2135 11.9656 13.2135 11.9656 13.2136 11.9658C13.214 11.9664 13.2155 11.9691 13.2176 11.9756C13.2201 11.9831 13.2227 11.9935 13.2252 12.0068C13.2302 12.0333 13.2346 12.0694 13.2368 12.1125C13.2411 12.1987 13.2369 12.311 13.2133 12.4274C13.1663 12.6592 13.043 12.907 12.7568 12.9984C12.4585 13.0937 12.2515 13.3294 12.1194 13.5406C12.0533 13.6462 12.0058 13.7458 11.9748 13.8192C11.9657 13.8408 11.958 13.8602 11.9516 13.8768C11.9487 13.8413 11.9452 13.7936 11.9416 13.7373C11.9331 13.6074 11.9237 13.4323 11.918 13.2558C11.9123 13.079 11.9104 12.9016 11.9168 12.7669C11.92 12.6994 11.9253 12.6439 11.9329 12.6048C11.9367 12.5852 11.9409 12.5711 11.9451 12.5621C11.9471 12.5576 11.9489 12.555 11.9502 12.5536C11.9514 12.5522 11.952 12.5521 11.952 12.5521C11.968 12.5481 11.994 12.536 12.0263 12.519C12.059 12.5017 12.0997 12.4785 12.1456 12.4512C12.2374 12.3966 12.351 12.3255 12.4661 12.2519C12.5814 12.1783 12.6983 12.1023 12.797 12.0379C12.8216 12.0218 12.8451 12.0065 12.8671 11.9921C12.9334 11.9488 12.9865 11.9141 13.0181 11.8939C13.1012 11.8408 13.1404 11.8466 13.1614 11.8635C13.1723 11.8724 13.1806 11.886 13.1882 11.9031C13.1919 11.9116 13.1953 11.9207 13.1988 11.9302C13.1994 11.932 13.2001 11.9338 13.2007 11.9356ZM11.9615 13.9583L11.9615 13.9582L11.9617 13.9579L11.9621 13.9564C11.9625 13.9551 11.9632 13.9531 11.9641 13.9505C11.9658 13.9452 11.9685 13.9374 11.9721 13.9273C11.9793 13.9071 11.9904 13.8779 12.0055 13.8422C12.0356 13.7708 12.082 13.6736 12.1464 13.5706C12.2753 13.3645 12.4762 13.1362 12.765 13.044C13.0659 12.9479 13.1975 12.6848 13.2472 12.4396C13.272 12.3175 13.2764 12.1999 13.2718 12.1093C13.2695 12.064 13.2649 12.025 13.2593 11.9953C13.2564 11.9804 13.2533 11.9674 13.2498 11.9569C13.2472 11.9489 13.2438 11.9403 13.2393 11.9337C13.237 11.928 13.2349 11.922 13.2325 11.9155C13.2318 11.9136 13.2311 11.9117 13.2304 11.9097C13.2269 11.9 13.223 11.8896 13.2185 11.8794C13.2095 11.859 13.1976 11.838 13.1796 11.8234C13.1426 11.7935 13.0885 11.7969 13.0029 11.8516C12.9712 11.8719 12.9178 11.9068 12.8515 11.9501C12.8295 11.9645 12.8061 11.9798 12.7815 11.9958C12.6829 12.0602 12.566 12.1362 12.451 12.2096C12.3359 12.2832 12.2227 12.3541 12.1313 12.4084C12.0855 12.4355 12.0454 12.4584 12.0133 12.4754C11.9807 12.4926 11.9577 12.503 11.9455 12.506C11.9315 12.5095 11.9217 12.5232 11.9151 12.5376C11.9084 12.5523 11.9031 12.5714 11.8989 12.593C11.8904 12.6364 11.885 12.6955 11.8817 12.764C11.8752 12.9012 11.8772 13.0806 11.8829 13.2578C11.8886 13.4351 11.8981 13.611 11.9066 13.7413C11.9108 13.8065 11.9148 13.8604 11.918 13.8975C11.9195 13.916 11.9209 13.9306 11.9221 13.9404C11.9226 13.9451 11.9232 13.9494 11.9238 13.9526L11.9238 13.9526C11.924 13.9537 11.9246 13.9569 11.9258 13.96C11.9261 13.9609 11.9269 13.9627 11.9281 13.9646C11.9291 13.9662 11.9318 13.9701 11.9365 13.9719C11.939 13.973 11.9415 13.9732 11.9438 13.9728L11.957 13.9728L11.9615 13.9583Z" fill="black"/>
<path fill-rule="evenodd" clip-rule="evenodd" d="M12.5004 13.0172C12.5109 13.0266 11.7164 13.6453 11.9555 14.175C11.7305 13.9734 11.8008 13.6266 11.8008 13.6266C11.8008 13.6266 11.618 14.2687 12.068 14.5828C12.0187 14.6391 11.9871 14.6297 11.9871 14.6297L12.0645 14.7281C12.0645 14.7281 12.0996 14.8078 11.7973 14.6109C11.8781 14.7 11.8852 14.7656 11.8852 14.7656C11.8852 14.7656 11.8641 14.85 11.6672 14.6203C11.8254 14.85 11.8605 14.9672 11.8605 14.9625C11.4281 14.9156 10.4895 13.0406 12.1559 12.4922L12.082 12.5953L12.5039 13.0172L12.5004 13.0172Z" fill="#DE3108"/>
<path fill-rule="evenodd" clip-rule="evenodd" d="M12.1703 12.4812C12.1668 12.4731 12.1597 12.4691 12.1528 12.4713C11.7341 12.6091 11.4764 12.8311 11.3339 13.0901C11.1912 13.3494 11.1655 13.643 11.2064 13.9191C11.2472 14.1949 11.3545 14.454 11.4787 14.6472C11.5408 14.7439 11.6075 14.8245 11.6727 14.8825C11.737 14.9398 11.8009 14.9761 11.8582 14.9829C11.8612 14.9837 11.8652 14.9837 11.8693 14.9804C11.8747 14.9762 11.8762 14.9696 11.8766 14.9676C11.8771 14.9651 11.8771 14.963 11.8771 14.9621C11.8771 14.9573 11.8759 14.9528 11.8739 14.9493L11.8735 14.9483C11.8723 14.9452 11.8702 14.9399 11.8672 14.9327C11.8612 14.9183 11.8517 14.8965 11.8372 14.8672C11.8226 14.8381 11.8032 14.8016 11.7774 14.758C11.808 14.7831 11.8307 14.7951 11.8478 14.7994C11.8656 14.804 11.8788 14.8005 11.8881 14.7926C11.8926 14.7887 11.8957 14.7843 11.8977 14.7804C11.8987 14.7785 11.8994 14.7767 11.8999 14.7753C11.9002 14.7745 11.9004 14.7739 11.9006 14.7733L11.9008 14.7725L11.9009 14.7722L11.9009 14.7721L11.9009 14.772C11.9009 14.7719 11.9009 14.7719 11.8859 14.7652C11.9016 14.7623 11.9016 14.7622 11.9016 14.7622L11.9016 14.7622L11.9016 14.7621L11.9016 14.762L11.9015 14.7616L11.9014 14.7606C11.9013 14.7597 11.9011 14.7587 11.9009 14.7574C11.9004 14.7548 11.8997 14.7512 11.8986 14.7468C11.8963 14.738 11.8925 14.7257 11.886 14.7108C11.882 14.7014 11.877 14.6911 11.8707 14.6798C11.9075 14.7022 11.9374 14.7191 11.9616 14.7316C12.0012 14.752 12.0266 14.7612 12.0431 14.7639C12.0513 14.7652 12.0585 14.7652 12.0647 14.7629C12.0712 14.7604 12.0774 14.755 12.0805 14.7455C12.0833 14.737 12.0822 14.7292 12.0814 14.7252C12.0809 14.7229 12.0804 14.7211 12.0799 14.7198C12.0797 14.7191 12.0795 14.7186 12.0793 14.7181L12.0791 14.7175L12.079 14.7173L12.0789 14.7171L12.0789 14.7171C12.0789 14.7171 12.0789 14.717 12.0652 14.7277L12.0789 14.717C12.0781 14.7154 12.0772 14.7138 12.0762 14.7125L12.0224 14.644C12.0378 14.637 12.0571 14.6235 12.079 14.5984C12.083 14.5939 12.0851 14.587 12.0845 14.58C12.0839 14.5731 12.0807 14.567 12.0761 14.5637C11.8569 14.4108 11.7924 14.1791 11.7822 13.985C11.7798 13.9407 11.7803 13.8983 11.7825 13.8593C11.7976 13.9691 11.8407 14.0965 11.9474 14.1921C11.9536 14.1976 11.9618 14.1967 11.9672 14.1899C11.9725 14.1831 11.9736 14.1722 11.9698 14.1637C11.9132 14.0384 11.9173 13.9077 11.9567 13.7795C11.9962 13.6507 12.0711 13.5257 12.1542 13.4155C12.2371 13.3056 12.3272 13.2115 12.3962 13.1442C12.4272 13.114 12.4538 13.0892 12.4736 13.0708C12.4758 13.0687 12.478 13.0667 12.48 13.0648C12.4901 13.0554 12.4982 13.0478 12.5036 13.0424C12.5054 13.0406 12.5071 13.0389 12.5086 13.0372C12.5137 13.0355 12.518 13.0304 12.5197 13.0235C12.5218 13.0149 12.5196 13.0054 12.5142 12.9999L12.1066 12.5923L12.1681 12.5064C12.1729 12.4996 12.1739 12.4893 12.1703 12.4812ZM12.4773 13.0158C12.4731 13.0198 12.468 13.0246 12.4619 13.0302C12.4599 13.0321 12.4577 13.0341 12.4555 13.0362C12.4357 13.0546 12.4088 13.0796 12.3775 13.1102C12.3079 13.1781 12.2164 13.2735 12.1319 13.3856C12.0475 13.4975 11.9692 13.6271 11.9274 13.7636C11.8937 13.8733 11.8834 13.9882 11.9129 14.1012C11.8447 14.0136 11.8185 13.91 11.8102 13.8222C11.8051 13.7683 11.8068 13.7204 11.8098 13.6859C11.8113 13.6687 11.8131 13.655 11.8145 13.6456C11.8152 13.6409 11.8158 13.6373 11.8162 13.635C11.8164 13.6338 11.8166 13.6329 11.8167 13.6324L11.8168 13.6318L11.8168 13.6317L11.8168 13.6317L11.8168 13.6317C11.819 13.6208 11.8145 13.6096 11.8064 13.6061C11.7984 13.6026 11.7898 13.6082 11.7868 13.6187L11.8016 13.6262C11.7868 13.6187 11.7868 13.6187 11.7868 13.6187L11.7868 13.6188L11.7867 13.6189L11.7866 13.6193L11.7862 13.6209C11.7858 13.6222 11.7853 13.6241 11.7847 13.6266C11.7834 13.6316 11.7816 13.6389 11.7794 13.6483C11.7752 13.667 11.7697 13.6939 11.7645 13.7271C11.7542 13.7936 11.7452 13.8857 11.7506 13.988C11.7611 14.187 11.8262 14.4243 12.0398 14.5854C12.0256 14.598 12.0141 14.6038 12.006 14.6065C12.0003 14.6084 11.9961 14.6088 11.9936 14.6088C11.9924 14.6088 11.9915 14.6087 11.9911 14.6086C11.9911 14.6086 11.991 14.6086 11.9909 14.6086C11.9841 14.6068 11.9772 14.6112 11.9739 14.6194C11.9706 14.6277 11.9718 14.638 11.977 14.6446L12.0358 14.7194C12.0224 14.7155 12.0024 14.7074 11.973 14.6922C11.9344 14.6723 11.8803 14.6407 11.805 14.5916C11.7978 14.5869 11.7891 14.5901 11.7847 14.5991C11.7804 14.6081 11.7818 14.62 11.788 14.6268C11.8271 14.6699 11.8478 14.7067 11.8586 14.7318C11.8635 14.7432 11.8664 14.7523 11.8681 14.7586C11.8655 14.7594 11.861 14.7599 11.8538 14.758C11.8284 14.7515 11.7766 14.7187 11.6784 14.604C11.6721 14.5967 11.6625 14.5972 11.6566 14.6052C11.6508 14.6132 11.6506 14.6259 11.6563 14.6342C11.7349 14.7483 11.7827 14.8341 11.8108 14.8906C11.8195 14.9081 11.8263 14.9228 11.8316 14.9347C11.7886 14.9218 11.7405 14.8922 11.6903 14.8475C11.6279 14.7919 11.5633 14.714 11.5027 14.6197C11.3814 14.4311 11.277 14.1784 11.2374 13.911C11.1979 13.6439 11.223 13.363 11.3594 13.115C11.4901 12.8776 11.7244 12.6678 12.107 12.5307L12.0714 12.5804C12.0682 12.5847 12.0667 12.5907 12.067 12.5967C12.0674 12.6027 12.0697 12.6082 12.0733 12.6118L12.4773 13.0158ZM11.8859 14.7652L11.9016 14.7623C11.9019 14.7655 11.9017 14.7688 11.9009 14.7719L11.8859 14.7652Z" fill="black"/>
<path fill-rule="evenodd" clip-rule="evenodd" d="M12.466 12.8352C12.3606 12.9383 12.3219 12.9758 12.3078 13.0227C12.4063 12.9946 12.4942 13.0039 12.4942 13.0039C12.4942 13.0039 12.7086 12.7321 12.7473 12.7086C12.7754 12.7086 12.9442 12.568 12.9442 12.568C13.025 12.5117 13.1024 12.1321 12.7965 12.2399C12.6792 12.3214 12.5583 12.3935 12.4344 12.4555L12.0582 12.6149L11.8403 12.9383C11.8403 12.9383 12.227 12.6852 12.2762 12.6805C12.1707 12.793 12.111 12.9524 12.111 12.9524C12.234 12.9055 12.3395 12.8586 12.466 12.8352V12.8352Z" fill="white"/>
<path fill-rule="evenodd" clip-rule="evenodd" d="M12.9836 12.4689C12.9703 12.5089 12.9523 12.5381 12.9367 12.5489C12.9363 12.5492 12.9359 12.5494 12.9356 12.5497L12.9337 12.5513L12.9284 12.5557C12.9237 12.5595 12.917 12.565 12.909 12.5716C12.8928 12.5847 12.8709 12.6022 12.8482 12.6196C12.8254 12.6371 12.802 12.6545 12.7827 12.6674C12.773 12.6739 12.7645 12.679 12.7578 12.6826C12.7545 12.6843 12.7518 12.6856 12.7497 12.6863C12.7478 12.687 12.747 12.6871 12.747 12.6871C12.747 12.6871 12.747 12.6871 12.7471 12.6871C12.7448 12.6871 12.7426 12.6878 12.7406 12.689C12.7339 12.6931 12.725 12.7012 12.7156 12.7108C12.7057 12.7208 12.6939 12.7336 12.681 12.7481C12.6553 12.7772 12.6247 12.8136 12.5954 12.8491C12.5661 12.8846 12.538 12.9194 12.5173 12.9453C12.5069 12.9582 12.4984 12.969 12.4924 12.9765L12.4881 12.9819C12.4857 12.9818 12.4827 12.9816 12.4792 12.9814C12.4692 12.981 12.4548 12.9807 12.4373 12.9813C12.4111 12.9822 12.3777 12.9851 12.3413 12.9926C12.347 12.9845 12.354 12.9757 12.3628 12.9657C12.3865 12.9386 12.4212 12.9046 12.4729 12.854L12.4752 12.8518L12.4659 12.8348L12.4637 12.8139C12.3584 12.8334 12.2674 12.869 12.1703 12.9069C12.1615 12.9104 12.1527 12.9138 12.1438 12.9173C12.15 12.9038 12.1577 12.8878 12.1668 12.8703C12.1944 12.8173 12.2348 12.7511 12.2859 12.6966C12.2913 12.6908 12.2933 12.681 12.2907 12.6724C12.2882 12.6638 12.2818 12.6584 12.2749 12.6591C12.2662 12.6599 12.2527 12.6655 12.2378 12.6727C12.2221 12.6802 12.2027 12.6907 12.181 12.7029C12.1375 12.7275 12.0844 12.7597 12.0329 12.7916C11.9865 12.8205 11.9414 12.8492 11.9058 12.872L12.0669 12.6328L12.439 12.4752C12.4393 12.4751 12.4395 12.475 12.4398 12.4748C12.5637 12.4128 12.6847 12.3408 12.8021 12.2593C12.876 12.2335 12.9237 12.2383 12.9531 12.2565C12.9818 12.2742 12.9956 12.3062 12.9995 12.3448C13.0034 12.3842 12.9966 12.4296 12.9836 12.4689ZM11.8401 12.9379C11.847 12.9569 11.847 12.9568 11.847 12.9568L11.8514 12.954C11.8542 12.9522 11.8584 12.9495 11.8637 12.946C11.8744 12.9391 11.8896 12.9292 11.9081 12.9173C11.9451 12.8935 11.9949 12.8618 12.0463 12.8299C12.0976 12.798 12.1504 12.766 12.1933 12.7418C12.1991 12.7385 12.2048 12.7354 12.2102 12.7324C12.182 12.7718 12.1588 12.8119 12.1409 12.8462C12.1265 12.8737 12.1155 12.8976 12.1081 12.9147C12.1044 12.9233 12.1015 12.9302 12.0996 12.9349C12.0986 12.9373 12.0979 12.9392 12.0974 12.9405L12.0968 12.942L12.0967 12.9424L12.0966 12.9425L12.0966 12.9425C12.0966 12.9425 12.0966 12.9425 12.1108 12.952L12.0966 12.9425C12.0938 12.95 12.0946 12.959 12.0986 12.9654C12.1026 12.9719 12.1091 12.9746 12.1151 12.9723C12.1373 12.9638 12.1588 12.9554 12.1799 12.9472C12.2559 12.9175 12.3267 12.8898 12.4032 12.8701C12.3778 12.8953 12.3578 12.9158 12.3422 12.9336C12.3169 12.9625 12.3014 12.9863 12.293 13.0145C12.2908 13.0217 12.2918 13.0299 12.2956 13.0359C12.2993 13.0418 12.3052 13.0445 12.311 13.0429C12.359 13.0292 12.4045 13.0246 12.4381 13.0235C12.4549 13.0229 12.4687 13.0232 12.4782 13.0236C12.4829 13.0238 12.4866 13.0241 12.4891 13.0243C12.4903 13.0243 12.4913 13.0244 12.4919 13.0245L12.4925 13.0246L12.4927 13.0246C12.4927 13.0246 12.4927 13.0246 12.4927 13.0246M12.494 13.0035L12.5049 13.0188L12.5073 13.0158L12.5141 13.0071C12.5201 12.9997 12.5286 12.989 12.5389 12.9761C12.5596 12.9503 12.5875 12.9156 12.6167 12.8803C12.6459 12.8449 12.6761 12.8089 12.7014 12.7804C12.7141 12.7661 12.7254 12.7538 12.7347 12.7445C12.7425 12.7365 12.7481 12.7315 12.7516 12.7289C12.75 12.7292 12.7485 12.7293 12.7471 12.7293L12.7471 12.7082L12.7536 12.7274C12.7531 12.7278 12.7524 12.7283 12.7516 12.7289C12.7574 12.7278 12.7638 12.7248 12.7694 12.7218C12.7774 12.7176 12.7867 12.7118 12.7968 12.7051C12.817 12.6917 12.841 12.6738 12.864 12.6562C12.887 12.6385 12.9091 12.6208 12.9254 12.6076C12.9336 12.601 12.9403 12.5955 12.945 12.5916L12.9504 12.5871L12.9519 12.5859C12.9765 12.5684 12.9981 12.5293 13.0125 12.486C13.0272 12.4416 13.0357 12.3883 13.0309 12.3392C13.0259 12.2894 13.0068 12.2432 12.9664 12.2182C12.9271 12.1939 12.8703 12.1916 12.7923 12.2191C12.7911 12.2195 12.79 12.2201 12.789 12.2208C12.6724 12.3019 12.5522 12.3735 12.429 12.4352L12.0532 12.5944C12.0506 12.5955 12.0482 12.5976 12.0463 12.6004L11.8283 12.9238C11.8232 12.9313 11.8229 12.9426 11.8275 12.9506C11.832 12.9587 11.8402 12.9613 11.847 12.9568L11.8401 12.9379M12.4927 13.0246C12.4927 13.0246 12.4927 13.0246 12.4927 13.0246C12.4972 13.025 12.5016 13.023 12.5049 13.0188L12.494 13.0035" fill="black"/>
<path fill-rule="evenodd" clip-rule="evenodd" d="M13.9667 10.5724C13.9752 10.5752 13.9838 10.5683 13.9859 10.557C13.988 10.5457 13.9828 10.5343 13.9743 10.5315L13.9705 10.552C13.9743 10.5315 13.9743 10.5315 13.9743 10.5315L13.9701 10.5301C13.9674 10.5292 13.9634 10.5279 13.9583 10.5263C13.9481 10.523 13.9334 10.5183 13.9158 10.5127C13.8804 10.5015 13.8327 10.4868 13.7835 10.4727C13.7345 10.4587 13.6837 10.4451 13.6423 10.4362C13.6216 10.4318 13.6029 10.4285 13.5879 10.4269C13.5803 10.4261 13.5735 10.4257 13.5675 10.4258C13.5619 10.426 13.556 10.4266 13.551 10.4287C13.5427 10.4321 13.538 10.4439 13.5405 10.455C13.5431 10.4662 13.552 10.4724 13.5603 10.469C13.561 10.4687 13.5634 10.4681 13.5682 10.468C13.5727 10.4679 13.5784 10.4682 13.5853 10.4689C13.5992 10.4704 13.6169 10.4735 13.6373 10.4779C13.6779 10.4866 13.728 10.5 13.7769 10.514C13.8258 10.528 13.8732 10.5426 13.9085 10.5537C13.9261 10.5593 13.9407 10.564 13.9508 10.5673C13.9559 10.5689 13.9599 10.5702 13.9626 10.5711L13.9667 10.5724Z" fill="white"/>
<path fill-rule="evenodd" clip-rule="evenodd" d="M26.5 20.7148L-0.500001 20.7148L-0.500001 24.7133L26.5 24.7133L26.5 20.7148Z" fill="#DE3908"/>
</g>
<rect x="0.282353" y="-0.282353" width="24.5647" height="24.5647" rx="12.2824" transform="matrix(-1 -8.74228e-08 -8.74228e-08 1 25.5647 0.712891)" stroke="white" stroke-width="0.564706"/>
<defs>
<clipPath id="clip0_11272_77564">
<rect width="24" height="24" rx="12" transform="matrix(-1 -8.74228e-08 -8.74228e-08 1 25 0.712891)" fill="white"/>
</clipPath>
</defs>
</svg>
