<svg width="386" height="84" viewBox="0 0 386 84" fill="none" xmlns="http://www.w3.org/2000/svg">
<rect x="0.5" y="0.5" width="385" height="82.741" rx="18.4508" fill="white" fill-opacity="0.42"/>
<rect x="0.5" y="0.5" width="385" height="82.741" rx="18.4508" stroke="url(#paint0_linear_29772_59793)"/>
<rect x="12.6348" y="11.3706" width="37.8412" height="37.1451" rx="9.12206" fill="#F4F4F4" fill-opacity="0.51"/>
<path d="M39.521 27.6169C39.4437 28.046 39.3316 28.4844 39.1851 28.9277C38.8109 30.0582 38.5107 31.2118 38.3051 32.3847C37.9859 34.2058 36.9154 35.658 35.4541 36.7677C34.0548 37.8311 32.3806 38.0633 30.7271 37.7361C30.2609 37.644 29.8086 37.5002 29.3762 37.3106C28.9099 37.1063 28.5406 36.7285 28.3506 36.257C28.2186 35.9294 27.8754 34.7157 27.7842 34.4034C27.7579 34.3131 27.8437 34.2318 27.9337 34.2594C27.952 34.265 27.9703 34.2703 27.9888 34.2754C30.1494 34.8651 33.4777 34.8084 36.0873 32.5516C36.7333 31.9926 37.3039 31.3932 37.7927 30.7737C38.1839 30.2776 38.3269 29.6311 38.1787 29.0175C37.9547 28.0906 37.5743 27.1671 37.0307 26.2916C36.258 25.0467 35.2513 24.0534 34.1337 23.3514C33.4496 22.9216 32.5744 22.9399 31.9035 23.3897C30.8774 24.0776 29.8869 25.0063 29.0279 26.1406C27.5452 28.0982 26.7586 30.2658 26.7126 32.117H26.7105C26.7059 32.2091 26.6381 33.7411 27.2091 35.6269C27.2374 35.7204 27.1253 35.7929 27.0519 35.7283C26.1577 34.9418 25.4011 34.1213 24.814 33.4185C23.2305 31.5224 22.8282 28.8945 23.8065 26.6274C24.4176 25.2112 25.477 23.9342 26.9289 23.0363C28.2123 22.2427 29.7013 21.996 31.1772 22.2251C32.2694 22.3947 33.3845 22.3743 34.4681 22.1577C34.822 22.0872 35.1689 22.0423 35.5054 22.0233H35.5085C35.7664 22.0088 36.0184 22.0098 36.2629 22.0268H36.2639C37.378 22.1035 38.3324 22.506 38.985 23.2574C39.9205 24.3347 40.0569 25.9233 39.521 27.6169Z" fill="#4F3FD7"/>
<path d="M67.08 19.8746C67.08 19.4079 66.9447 19.0579 66.674 18.8246C66.4127 18.5819 66.0207 18.4606 65.498 18.4606H63.44V21.3306H65.512C66.0347 21.3306 66.4267 21.2093 66.688 20.9666C66.9493 20.7239 67.08 20.3599 67.08 19.8746ZM69.362 26.3706H67.458C67.3553 26.2493 67.2713 26.1186 67.206 25.9786C67.15 25.8386 67.0987 25.6613 67.052 25.4466L66.716 23.9626C66.6227 23.5239 66.4547 23.2113 66.212 23.0246C65.9693 22.8379 65.6007 22.7446 65.106 22.7446H63.44V26.3706H61.69V17.0186H65.638C66.7113 17.0186 67.5233 17.2473 68.074 17.7046C68.634 18.1619 68.914 18.8293 68.914 19.7066C68.914 20.3506 68.7133 20.8919 68.312 21.3306C67.92 21.7599 67.4207 22.0026 66.814 22.0586V22.0866C67.262 22.1426 67.612 22.2919 67.864 22.5346C68.116 22.7773 68.298 23.1319 68.41 23.5986L68.844 25.3486C68.8813 25.5353 68.942 25.7126 69.026 25.8806C69.1193 26.0486 69.2313 26.2119 69.362 26.3706ZM72.6272 25.3346C73.0472 25.3346 73.3832 25.1993 73.6352 24.9286C73.8965 24.6579 74.0272 24.2799 74.0272 23.7946V23.3046C73.8778 23.2859 73.7518 23.2766 73.6492 23.2766C73.5558 23.2673 73.4905 23.2626 73.4532 23.2626C72.8278 23.2626 72.3565 23.3606 72.0392 23.5566C71.7218 23.7433 71.5632 24.0233 71.5632 24.3966C71.5632 24.6859 71.6565 24.9146 71.8432 25.0826C72.0392 25.2506 72.3005 25.3346 72.6272 25.3346ZM73.0192 19.1606C73.8965 19.1606 74.5592 19.3519 75.0072 19.7346C75.4552 20.1173 75.6792 20.6819 75.6792 21.4286V24.6626C75.6792 24.8493 75.7165 24.9893 75.7912 25.0826C75.8752 25.1666 76.0012 25.2086 76.1692 25.2086C76.2438 25.2086 76.3185 25.1993 76.3932 25.1806C76.4678 25.1526 76.5285 25.1153 76.5752 25.0686L76.6452 26.2446C76.5238 26.3286 76.3698 26.3939 76.1832 26.4406C76.0058 26.4873 75.8238 26.5106 75.6372 26.5106C75.3478 26.5106 75.0912 26.4593 74.8672 26.3566C74.6432 26.2446 74.4658 26.0859 74.3352 25.8806C74.2885 25.7966 74.2465 25.7126 74.2092 25.6286C74.1812 25.5446 74.1532 25.4559 74.1252 25.3626C73.9945 25.7173 73.7425 25.9973 73.3692 26.2026C73.0052 26.4079 72.5805 26.5106 72.0952 26.5106C71.4232 26.5106 70.8865 26.3333 70.4852 25.9786C70.0838 25.6146 69.8832 25.1246 69.8832 24.5086C69.8832 23.7993 70.1725 23.2486 70.7512 22.8566C71.3392 22.4646 72.1745 22.2686 73.2572 22.2686C73.3692 22.2686 73.4952 22.2733 73.6352 22.2826C73.7845 22.2919 73.9152 22.3013 74.0272 22.3106V21.5266C74.0272 21.1813 73.9338 20.9153 73.7472 20.7286C73.5605 20.5419 73.2898 20.4486 72.9352 20.4486C72.5805 20.4486 72.3098 20.5466 72.1232 20.7426C71.9365 20.9293 71.8385 21.1999 71.8292 21.5546L70.2052 21.3026C70.2705 20.6399 70.5552 20.1173 71.0592 19.7346C71.5632 19.3519 72.2165 19.1606 73.0192 19.1606ZM80.3844 25.2226C80.767 25.2226 81.075 25.1339 81.3084 24.9566C81.5417 24.7699 81.705 24.4946 81.7984 24.1306L83.2264 24.5926C83.0584 25.2179 82.7224 25.6986 82.2184 26.0346C81.7144 26.3706 81.0984 26.5386 80.3704 26.5386C79.3344 26.5386 78.5224 26.2166 77.9344 25.5726C77.3464 24.9286 77.0524 24.0373 77.0524 22.8986C77.0524 21.7506 77.351 20.8406 77.9484 20.1686C78.5457 19.4966 79.3577 19.1606 80.3844 19.1606C81.2804 19.1606 81.9897 19.4406 82.5124 20.0006C83.035 20.5513 83.2964 21.2886 83.2964 22.2126C83.2964 22.3806 83.2824 22.5533 83.2544 22.7306C83.2264 22.8986 83.1937 23.0386 83.1564 23.1506H78.7044C78.723 23.8039 78.877 24.3126 79.1664 24.6766C79.465 25.0406 79.871 25.2226 80.3844 25.2226ZM80.3564 20.4066C79.899 20.4066 79.5257 20.5653 79.2364 20.8826C78.9564 21.1906 78.7884 21.6293 78.7324 22.1986H81.6444C81.6537 22.1613 81.6584 22.1193 81.6584 22.0726C81.6584 22.0166 81.6584 21.9419 81.6584 21.8486C81.6584 21.4193 81.537 21.0739 81.2944 20.8126C81.061 20.5419 80.7484 20.4066 80.3564 20.4066ZM84.4772 19.3286H85.8912L86.1012 20.6866C86.2785 20.2013 86.5678 19.8279 86.9692 19.5666C87.3705 19.2959 87.8465 19.1606 88.3972 19.1606C89.0692 19.1606 89.6012 19.3659 89.9932 19.7766C90.3945 20.1779 90.5952 20.7333 90.5952 21.4426V26.3706H88.8592V21.9186C88.8592 21.4986 88.7612 21.1766 88.5652 20.9526C88.3692 20.7286 88.0845 20.6166 87.7112 20.6166C87.2352 20.6166 86.8618 20.7753 86.5912 21.0926C86.3298 21.4006 86.1992 21.8439 86.1992 22.4226V26.3706H84.4772V19.3286ZM95.0346 25.2226C95.4173 25.2226 95.7253 25.1339 95.9586 24.9566C96.1919 24.7699 96.3553 24.4946 96.4486 24.1306L97.8766 24.5926C97.7086 25.2179 97.3726 25.6986 96.8686 26.0346C96.3646 26.3706 95.7486 26.5386 95.0206 26.5386C93.9846 26.5386 93.1726 26.2166 92.5846 25.5726C91.9966 24.9286 91.7026 24.0373 91.7026 22.8986C91.7026 21.7506 92.0013 20.8406 92.5986 20.1686C93.1959 19.4966 94.0079 19.1606 95.0346 19.1606C95.9306 19.1606 96.6399 19.4406 97.1626 20.0006C97.6853 20.5513 97.9466 21.2886 97.9466 22.2126C97.9466 22.3806 97.9326 22.5533 97.9046 22.7306C97.8766 22.8986 97.8439 23.0386 97.8066 23.1506H93.3546C93.3733 23.8039 93.5273 24.3126 93.8166 24.6766C94.1153 25.0406 94.5213 25.2226 95.0346 25.2226ZM95.0066 20.4066C94.5493 20.4066 94.1759 20.5653 93.8866 20.8826C93.6066 21.1906 93.4386 21.6293 93.3826 22.1986H96.2946C96.3039 22.1613 96.3086 22.1193 96.3086 22.0726C96.3086 22.0166 96.3086 21.9419 96.3086 21.8486C96.3086 21.4193 96.1873 21.0739 95.9446 20.8126C95.7113 20.5419 95.3986 20.4066 95.0066 20.4066ZM101.423 26.5386C100.639 26.5386 99.9857 26.3706 99.4631 26.0346C98.9404 25.6893 98.6184 25.2133 98.4971 24.6066L99.9951 24.2426C100.042 24.5693 100.196 24.8353 100.457 25.0406C100.728 25.2459 101.054 25.3486 101.437 25.3486C101.829 25.3486 102.132 25.2739 102.347 25.1246C102.562 24.9659 102.669 24.7466 102.669 24.4666C102.669 24.2333 102.571 24.0466 102.375 23.9066C102.188 23.7573 101.773 23.6126 101.129 23.4726C100.653 23.3699 100.298 23.2766 100.065 23.1926C99.8411 23.1086 99.6497 23.0153 99.4911 22.9126C99.2484 22.7446 99.0664 22.5346 98.9451 22.2826C98.8237 22.0306 98.7631 21.7366 98.7631 21.4006C98.7631 20.7286 99.0151 20.1873 99.5191 19.7766C100.023 19.3659 100.681 19.1606 101.493 19.1606C102.296 19.1606 102.93 19.3333 103.397 19.6786C103.864 20.0239 104.139 20.5186 104.223 21.1626L102.725 21.3446C102.697 21.0273 102.576 20.7799 102.361 20.6026C102.146 20.4253 101.862 20.3366 101.507 20.3366C101.152 20.3366 100.877 20.4159 100.681 20.5746C100.485 20.7333 100.387 20.9573 100.387 21.2466C100.387 21.4799 100.48 21.6666 100.667 21.8066C100.854 21.9466 101.269 22.0773 101.913 22.1986C102.398 22.3013 102.753 22.3946 102.977 22.4786C103.21 22.5626 103.411 22.6606 103.579 22.7726C103.822 22.9406 104.004 23.1506 104.125 23.4026C104.246 23.6546 104.307 23.9579 104.307 24.3126C104.307 25.0033 104.046 25.5493 103.523 25.9506C103 26.3426 102.3 26.5386 101.423 26.5386ZM108.303 25.1246C108.499 25.1246 108.681 25.0966 108.849 25.0406C109.027 24.9846 109.218 24.8913 109.423 24.7606L109.661 26.0346C109.437 26.1933 109.176 26.3146 108.877 26.3986C108.588 26.4919 108.289 26.5386 107.981 26.5386C107.235 26.5386 106.661 26.3566 106.259 25.9926C105.867 25.6193 105.671 25.0826 105.671 24.3826V20.6166H104.719V19.3286H105.671V17.8306L107.407 17.6066V19.3286H109.381V20.6166H107.407V24.1726C107.407 24.4899 107.482 24.7279 107.631 24.8866C107.781 25.0453 108.005 25.1246 108.303 25.1246Z" fill="black"/>
<path d="M326.003 21.3626C326.003 20.1066 326.267 19.1026 326.795 18.3506C327.331 17.5906 328.055 17.2106 328.967 17.2106C329.879 17.2106 330.599 17.5906 331.127 18.3506C331.663 19.1026 331.931 20.1066 331.931 21.3626C331.931 22.6186 331.663 23.6266 331.127 24.3866C330.599 25.1386 329.879 25.5146 328.967 25.5146C328.055 25.5146 327.331 25.1386 326.795 24.3866C326.267 23.6266 326.003 22.6186 326.003 21.3626ZM327.023 21.3626C327.023 22.4186 327.191 23.2346 327.527 23.8106C327.863 24.3786 328.343 24.6626 328.967 24.6626C329.591 24.6626 330.071 24.3786 330.407 23.8106C330.743 23.2346 330.911 22.4186 330.911 21.3626C330.911 20.3066 330.743 19.4946 330.407 18.9266C330.071 18.3506 329.591 18.0626 328.967 18.0626C328.343 18.0626 327.863 18.3506 327.527 18.9266C327.191 19.4946 327.023 20.3066 327.023 21.3626ZM334.086 25.3706L336.979 18.2426H333.486V19.6346H332.61V17.3546H338.023V18.0506L335.107 25.3706H334.086ZM339.476 19.7426C339.692 19.7426 339.872 19.8186 340.016 19.9706C340.168 20.1146 340.244 20.2946 340.244 20.5106C340.244 20.7266 340.168 20.9106 340.016 21.0626C339.872 21.2066 339.692 21.2786 339.476 21.2786C339.26 21.2786 339.076 21.2066 338.924 21.0626C338.78 20.9106 338.708 20.7266 338.708 20.5106C338.708 20.2946 338.78 20.1146 338.924 19.9706C339.076 19.8186 339.26 19.7426 339.476 19.7426ZM339.476 23.9066C339.692 23.9066 339.872 23.9826 340.016 24.1346C340.168 24.2786 340.244 24.4586 340.244 24.6746C340.244 24.8906 340.168 25.0746 340.016 25.2266C339.872 25.3706 339.692 25.4426 339.476 25.4426C339.26 25.4426 339.076 25.3706 338.924 25.2266C338.78 25.0746 338.708 24.8906 338.708 24.6746C338.708 24.4586 338.78 24.2786 338.924 24.1346C339.076 23.9826 339.26 23.9066 339.476 23.9066ZM346.343 19.3226C346.343 19.8346 346.199 20.2626 345.911 20.6066C345.623 20.9426 345.231 21.1466 344.735 21.2186V21.2426C345.279 21.2746 345.723 21.4706 346.067 21.8306C346.419 22.1826 346.595 22.6146 346.595 23.1266C346.595 23.8306 346.339 24.4066 345.827 24.8546C345.323 25.2946 344.679 25.5146 343.895 25.5146C343.143 25.5146 342.515 25.3226 342.011 24.9386C341.515 24.5546 341.223 24.0506 341.135 23.4266L341.999 23.1146C342.103 23.6266 342.319 24.0226 342.647 24.3026C342.975 24.5746 343.395 24.7106 343.907 24.7106C344.435 24.7106 344.855 24.5706 345.167 24.2906C345.487 24.0026 345.647 23.6146 345.647 23.1266C345.647 22.6706 345.491 22.3146 345.179 22.0586C344.867 21.7946 344.443 21.6626 343.907 21.6626H343.115V20.8226H343.847C344.351 20.8226 344.731 20.6946 344.987 20.4386C345.251 20.1826 345.383 19.8106 345.383 19.3226C345.383 18.9386 345.243 18.6266 344.963 18.3866C344.691 18.1386 344.343 18.0146 343.919 18.0146C343.479 18.0146 343.107 18.1466 342.803 18.4106C342.507 18.6666 342.307 19.0306 342.203 19.5026L341.363 19.1306C341.523 18.5306 341.827 18.0626 342.275 17.7266C342.731 17.3826 343.279 17.2106 343.919 17.2106C344.663 17.2106 345.251 17.4026 345.683 17.7866C346.123 18.1626 346.343 18.6746 346.343 19.3226ZM347.462 21.3626C347.462 20.1066 347.726 19.1026 348.254 18.3506C348.79 17.5906 349.514 17.2106 350.426 17.2106C351.338 17.2106 352.058 17.5906 352.586 18.3506C353.122 19.1026 353.39 20.1066 353.39 21.3626C353.39 22.6186 353.122 23.6266 352.586 24.3866C352.058 25.1386 351.338 25.5146 350.426 25.5146C349.514 25.5146 348.79 25.1386 348.254 24.3866C347.726 23.6266 347.462 22.6186 347.462 21.3626ZM348.482 21.3626C348.482 22.4186 348.65 23.2346 348.986 23.8106C349.322 24.3786 349.802 24.6626 350.426 24.6626C351.05 24.6626 351.53 24.3786 351.866 23.8106C352.202 23.2346 352.37 22.4186 352.37 21.3626C352.37 20.3066 352.202 19.4946 351.866 18.9266C351.53 18.3506 351.05 18.0626 350.426 18.0626C349.802 18.0626 349.322 18.3506 348.986 18.9266C348.65 19.4946 348.482 20.3066 348.482 21.3626ZM360.177 18.4466H360.153L358.773 22.2746H361.569L360.177 18.4466ZM363.705 25.3706H362.685L361.869 23.1266H358.461L357.657 25.3706H356.661L359.625 17.3546H360.741L363.705 25.3706ZM371.198 18.8306H371.174L368.882 23.5226H368.114L365.822 18.8306H365.798L365.81 20.2226V25.3706H364.826V17.3546H366.05L368.522 22.4306H368.546L371.018 17.3546H372.17V25.3706H371.186V20.2226L371.198 18.8306Z" fill="#E0E0E0"/>
<path d="M62.306 37.0186L64.882 41.5826H64.924L67.5 37.0186H68.746L65.47 42.7026V46.3706H64.294V42.7026L61.004 37.0186H62.306ZM71.4179 39.2026C72.3792 39.2026 73.1399 39.5293 73.6999 40.1826C74.2692 40.8359 74.5539 41.7319 74.5539 42.8706C74.5539 44.0093 74.2692 44.9053 73.6999 45.5586C73.1399 46.2119 72.3792 46.5386 71.4179 46.5386C70.4566 46.5386 69.6912 46.2119 69.1219 45.5586C68.5619 44.9053 68.2819 44.0093 68.2819 42.8706C68.2819 41.7319 68.5619 40.8359 69.1219 40.1826C69.6912 39.5293 70.4566 39.2026 71.4179 39.2026ZM71.4179 45.6426C72.0619 45.6426 72.5519 45.4093 72.8879 44.9426C73.2239 44.4666 73.3919 43.7759 73.3919 42.8706C73.3919 41.9653 73.2239 41.2793 72.8879 40.8126C72.5519 40.3366 72.0619 40.0986 71.4179 40.0986C70.7739 40.0986 70.2839 40.3366 69.9479 40.8126C69.6119 41.2793 69.4439 41.9653 69.4439 42.8706C69.4439 43.7759 69.6119 44.4666 69.9479 44.9426C70.2839 45.4093 70.7739 45.6426 71.4179 45.6426ZM81.1585 46.3706H80.2485L80.1085 45.0406C79.9498 45.5259 79.6792 45.8993 79.2965 46.1606C78.9138 46.4126 78.4472 46.5386 77.8965 46.5386C77.2525 46.5386 76.7298 46.3379 76.3285 45.9366C75.9365 45.5353 75.7405 44.9893 75.7405 44.2986V39.3706H76.8885V44.1726C76.8885 44.6206 77.0052 44.9753 77.2385 45.2366C77.4718 45.4886 77.7985 45.6146 78.2185 45.6146C78.7692 45.6146 79.2032 45.4233 79.5205 45.0406C79.8378 44.6579 79.9965 44.1213 79.9965 43.4306V39.3706H81.1585V46.3706ZM85.7172 36.2626H86.8652V40.4766C87.0798 40.0659 87.3738 39.7533 87.7472 39.5386C88.1298 39.3146 88.5685 39.2026 89.0632 39.2026C89.7165 39.2026 90.2392 39.4079 90.6312 39.8186C91.0232 40.2199 91.2192 40.7659 91.2192 41.4566V46.3706H90.0712V41.6946C90.0712 41.2186 89.9498 40.8546 89.7072 40.6026C89.4738 40.3413 89.1378 40.2106 88.6992 40.2106C88.1205 40.2106 87.6678 40.3926 87.3412 40.7566C87.0238 41.1206 86.8652 41.6386 86.8652 42.3106V46.3706H85.7172V36.2626ZM94.7815 45.6426C95.3042 45.6426 95.7242 45.4746 96.0415 45.1386C96.3588 44.8026 96.5175 44.3406 96.5175 43.7526V43.1646C96.3962 43.1553 96.2795 43.1506 96.1675 43.1506C96.0555 43.1413 95.9528 43.1366 95.8595 43.1366C95.0568 43.1366 94.4595 43.2533 94.0675 43.4866C93.6755 43.7106 93.4795 44.0513 93.4795 44.5086C93.4795 44.8633 93.5962 45.1433 93.8295 45.3486C94.0628 45.5446 94.3802 45.6426 94.7815 45.6426ZM95.2015 39.2026C95.9762 39.2026 96.5688 39.3893 96.9795 39.7626C97.3902 40.1266 97.5955 40.6586 97.5955 41.3586V44.9986C97.5955 45.2039 97.6375 45.3579 97.7215 45.4606C97.8055 45.5633 97.9362 45.6146 98.1135 45.6146C98.1882 45.6146 98.2675 45.6006 98.3515 45.5726C98.4355 45.5446 98.5008 45.5073 98.5475 45.4606L98.6175 46.3146C98.5335 46.3706 98.4168 46.4173 98.2675 46.4546C98.1275 46.4919 97.9875 46.5106 97.8475 46.5106C97.5862 46.5106 97.3575 46.4593 97.1615 46.3566C96.9748 46.2446 96.8302 46.0859 96.7275 45.8806C96.6902 45.8059 96.6528 45.7266 96.6155 45.6426C96.5875 45.5493 96.5642 45.4466 96.5455 45.3346C96.4148 45.6986 96.1628 45.9879 95.7895 46.2026C95.4162 46.4173 94.9915 46.5246 94.5155 46.5246C93.8622 46.5246 93.3348 46.3473 92.9335 45.9926C92.5415 45.6286 92.3455 45.1479 92.3455 44.5506C92.3455 43.8226 92.6442 43.2626 93.2415 42.8706C93.8482 42.4786 94.7208 42.2826 95.8595 42.2826C95.9155 42.2826 95.9855 42.2873 96.0695 42.2966C96.1628 42.2966 96.3122 42.3013 96.5175 42.3106V41.4846C96.5175 41.0553 96.3962 40.7239 96.1535 40.4906C95.9202 40.2573 95.5795 40.1406 95.1315 40.1406C94.7022 40.1406 94.3708 40.2479 94.1375 40.4626C93.9042 40.6773 93.7782 40.9899 93.7595 41.4006L92.6395 41.2046C92.7142 40.5886 92.9802 40.1033 93.4375 39.7486C93.9042 39.3846 94.4922 39.2026 95.2015 39.2026ZM99.7202 39.3706L101.666 45.1526H101.694L103.654 39.3706H104.802L102.24 46.3706H101.064L98.5022 39.3706H99.7202ZM108.261 45.6286C108.699 45.6286 109.059 45.5213 109.339 45.3066C109.619 45.0919 109.81 44.7746 109.913 44.3546L110.907 44.6346C110.757 45.2506 110.454 45.7219 109.997 46.0486C109.539 46.3753 108.961 46.5386 108.261 46.5386C107.281 46.5386 106.515 46.2213 105.965 45.5866C105.414 44.9519 105.139 44.0559 105.139 42.8986C105.139 41.7693 105.419 40.8733 105.979 40.2106C106.548 39.5386 107.309 39.2026 108.261 39.2026C109.091 39.2026 109.749 39.4733 110.235 40.0146C110.729 40.5466 110.977 41.2559 110.977 42.1426C110.977 42.3199 110.963 42.4926 110.935 42.6606C110.907 42.8286 110.874 42.9686 110.837 43.0806H106.245C106.273 43.8926 106.459 44.5226 106.805 44.9706C107.159 45.4093 107.645 45.6286 108.261 45.6286ZM108.233 40.0846C107.682 40.0846 107.234 40.2713 106.889 40.6446C106.553 41.0179 106.347 41.5499 106.273 42.2406H109.829C109.838 42.1939 109.843 42.1473 109.843 42.1006C109.843 42.0446 109.843 41.9699 109.843 41.8766C109.843 41.3446 109.693 40.9153 109.395 40.5886C109.105 40.2526 108.718 40.0846 108.233 40.0846ZM115.016 46.3706V39.3706H115.926L116.08 41.1626C116.211 40.5746 116.481 40.1033 116.892 39.7486C117.303 39.3846 117.774 39.2026 118.306 39.2026C118.371 39.2026 118.437 39.2073 118.502 39.2166C118.577 39.2259 118.647 39.2353 118.712 39.2446L118.642 40.4486C118.586 40.4393 118.507 40.4299 118.404 40.4206C118.301 40.4113 118.194 40.4066 118.082 40.4066C117.503 40.4066 117.037 40.6259 116.682 41.0646C116.337 41.5033 116.164 42.0913 116.164 42.8286V46.3706H115.016ZM122.047 45.6286C122.486 45.6286 122.845 45.5213 123.125 45.3066C123.405 45.0919 123.597 44.7746 123.699 44.3546L124.693 44.6346C124.544 45.2506 124.241 45.7219 123.783 46.0486C123.326 46.3753 122.747 46.5386 122.047 46.5386C121.067 46.5386 120.302 46.2213 119.751 45.5866C119.201 44.9519 118.925 44.0559 118.925 42.8986C118.925 41.7693 119.205 40.8733 119.765 40.2106C120.335 39.5386 121.095 39.2026 122.047 39.2026C122.878 39.2026 123.536 39.4733 124.021 40.0146C124.516 40.5466 124.763 41.2559 124.763 42.1426C124.763 42.3199 124.749 42.4926 124.721 42.6606C124.693 42.8286 124.661 42.9686 124.623 43.0806H120.031C120.059 43.8926 120.246 44.5226 120.591 44.9706C120.946 45.4093 121.431 45.6286 122.047 45.6286ZM122.019 40.0846C121.469 40.0846 121.021 40.2713 120.675 40.6446C120.339 41.0179 120.134 41.5499 120.059 42.2406H123.615C123.625 42.1939 123.629 42.1473 123.629 42.1006C123.629 42.0446 123.629 41.9699 123.629 41.8766C123.629 41.3446 123.48 40.9153 123.181 40.5886C122.892 40.2526 122.505 40.0846 122.019 40.0846ZM128.689 46.5386C127.728 46.5386 126.967 46.2119 126.407 45.5586C125.847 44.9053 125.567 44.0093 125.567 42.8706C125.567 41.7413 125.847 40.8499 126.407 40.1966C126.967 39.5339 127.728 39.2026 128.689 39.2026C129.389 39.2026 129.972 39.3986 130.439 39.7906C130.906 40.1826 131.176 40.7006 131.251 41.3446L130.201 41.5406C130.164 41.1206 130.005 40.7799 129.725 40.5186C129.454 40.2479 129.109 40.1126 128.689 40.1126C128.073 40.1126 127.592 40.3553 127.247 40.8406C126.902 41.3259 126.729 42.0026 126.729 42.8706C126.729 43.7386 126.902 44.4153 127.247 44.9006C127.592 45.3859 128.073 45.6286 128.689 45.6286C129.118 45.6286 129.468 45.4979 129.739 45.2366C130.01 44.9659 130.164 44.6113 130.201 44.1726L131.251 44.3686C131.148 45.0499 130.873 45.5819 130.425 45.9646C129.977 46.3473 129.398 46.5386 128.689 46.5386ZM135.003 45.6286C135.441 45.6286 135.801 45.5213 136.081 45.3066C136.361 45.0919 136.552 44.7746 136.655 44.3546L137.649 44.6346C137.499 45.2506 137.196 45.7219 136.739 46.0486C136.281 46.3753 135.703 46.5386 135.003 46.5386C134.023 46.5386 133.257 46.2213 132.707 45.5866C132.156 44.9519 131.881 44.0559 131.881 42.8986C131.881 41.7693 132.161 40.8733 132.721 40.2106C133.29 39.5386 134.051 39.2026 135.003 39.2026C135.833 39.2026 136.491 39.4733 136.977 40.0146C137.471 40.5466 137.719 41.2559 137.719 42.1426C137.719 42.3199 137.705 42.4926 137.677 42.6606C137.649 42.8286 137.616 42.9686 137.579 43.0806H132.987C133.015 43.8926 133.201 44.5226 133.547 44.9706C133.901 45.4093 134.387 45.6286 135.003 45.6286ZM134.975 40.0846C134.424 40.0846 133.976 40.2713 133.631 40.6446C133.295 41.0179 133.089 41.5499 133.015 42.2406H136.571C136.58 42.1939 136.585 42.1473 136.585 42.1006C136.585 42.0446 136.585 41.9699 136.585 41.8766C136.585 41.3446 136.435 40.9153 136.137 40.5886C135.847 40.2526 135.46 40.0846 134.975 40.0846ZM139.532 36.4026C139.766 36.4026 139.962 36.4819 140.12 36.6406C140.279 36.7993 140.358 36.9999 140.358 37.2426C140.358 37.4853 140.279 37.6859 140.12 37.8446C139.962 38.0033 139.766 38.0826 139.532 38.0826C139.299 38.0826 139.103 38.0033 138.944 37.8446C138.786 37.6859 138.706 37.4853 138.706 37.2426C138.706 36.9999 138.786 36.7993 138.944 36.6406C139.103 36.4819 139.299 36.4026 139.532 36.4026ZM138.958 46.3706V39.3706H140.106V46.3706H138.958ZM142.232 39.3706L144.178 45.1526H144.206L146.166 39.3706H147.314L144.752 46.3706H143.576L141.014 39.3706H142.232ZM150.772 45.6286C151.211 45.6286 151.57 45.5213 151.85 45.3066C152.13 45.0919 152.321 44.7746 152.424 44.3546L153.418 44.6346C153.269 45.2506 152.965 45.7219 152.508 46.0486C152.051 46.3753 151.472 46.5386 150.772 46.5386C149.792 46.5386 149.027 46.2213 148.476 45.5866C147.925 44.9519 147.65 44.0559 147.65 42.8986C147.65 41.7693 147.93 40.8733 148.49 40.2106C149.059 39.5386 149.82 39.2026 150.772 39.2026C151.603 39.2026 152.261 39.4733 152.746 40.0146C153.241 40.5466 153.488 41.2559 153.488 42.1426C153.488 42.3199 153.474 42.4926 153.446 42.6606C153.418 42.8286 153.385 42.9686 153.348 43.0806H148.756C148.784 43.8926 148.971 44.5226 149.316 44.9706C149.671 45.4093 150.156 45.6286 150.772 45.6286ZM150.744 40.0846C150.193 40.0846 149.745 40.2713 149.4 40.6446C149.064 41.0179 148.859 41.5499 148.784 42.2406H152.34C152.349 42.1939 152.354 42.1473 152.354 42.1006C152.354 42.0446 152.354 41.9699 152.354 41.8766C152.354 41.3446 152.205 40.9153 151.906 40.5886C151.617 40.2526 151.229 40.0846 150.744 40.0846ZM157.428 45.6146C157.978 45.6146 158.426 45.4186 158.772 45.0266C159.117 44.6253 159.29 44.0793 159.29 43.3886V42.0866C159.29 41.4893 159.112 41.0133 158.758 40.6586C158.403 40.2946 157.964 40.1126 157.442 40.1126C156.816 40.1126 156.326 40.3599 155.972 40.8546C155.626 41.3493 155.454 42.0539 155.454 42.9686C155.454 43.8086 155.626 44.4619 155.972 44.9286C156.317 45.3859 156.802 45.6146 157.428 45.6146ZM160.438 46.3706H159.528L159.402 45.0406C159.243 45.5259 158.968 45.8993 158.576 46.1606C158.184 46.4126 157.708 46.5386 157.148 46.5386C156.298 46.5386 155.608 46.2213 155.076 45.5866C154.553 44.9426 154.292 44.0746 154.292 42.9826C154.292 41.8066 154.553 40.8826 155.076 40.2106C155.608 39.5386 156.336 39.2026 157.26 39.2026C157.745 39.2026 158.17 39.3053 158.534 39.5106C158.898 39.7159 159.15 39.9866 159.29 40.3226V36.2626H160.438V46.3706ZM166.865 45.6426C167.388 45.6426 167.808 45.4746 168.125 45.1386C168.442 44.8026 168.601 44.3406 168.601 43.7526V43.1646C168.48 43.1553 168.363 43.1506 168.251 43.1506C168.139 43.1413 168.036 43.1366 167.943 43.1366C167.14 43.1366 166.543 43.2533 166.151 43.4866C165.759 43.7106 165.563 44.0513 165.563 44.5086C165.563 44.8633 165.68 45.1433 165.913 45.3486C166.146 45.5446 166.464 45.6426 166.865 45.6426ZM167.285 39.2026C168.06 39.2026 168.652 39.3893 169.063 39.7626C169.474 40.1266 169.679 40.6586 169.679 41.3586V44.9986C169.679 45.2039 169.721 45.3579 169.805 45.4606C169.889 45.5633 170.02 45.6146 170.197 45.6146C170.272 45.6146 170.351 45.6006 170.435 45.5726C170.519 45.5446 170.584 45.5073 170.631 45.4606L170.701 46.3146C170.617 46.3706 170.5 46.4173 170.351 46.4546C170.211 46.4919 170.071 46.5106 169.931 46.5106C169.67 46.5106 169.441 46.4593 169.245 46.3566C169.058 46.2446 168.914 46.0859 168.811 45.8806C168.774 45.8059 168.736 45.7266 168.699 45.6426C168.671 45.5493 168.648 45.4466 168.629 45.3346C168.498 45.6986 168.246 45.9879 167.873 46.2026C167.5 46.4173 167.075 46.5246 166.599 46.5246C165.946 46.5246 165.418 46.3473 165.017 45.9926C164.625 45.6286 164.429 45.1479 164.429 44.5506C164.429 43.8226 164.728 43.2626 165.325 42.8706C165.932 42.4786 166.804 42.2826 167.943 42.2826C167.999 42.2826 168.069 42.2873 168.153 42.2966C168.246 42.2966 168.396 42.3013 168.601 42.3106V41.4846C168.601 41.0553 168.48 40.7239 168.237 40.4906C168.004 40.2573 167.663 40.1406 167.215 40.1406C166.786 40.1406 166.454 40.2479 166.221 40.4626C165.988 40.6773 165.862 40.9899 165.843 41.4006L164.723 41.2046C164.798 40.5886 165.064 40.1033 165.521 39.7486C165.988 39.3846 166.576 39.2026 167.285 39.2026ZM177.345 40.1266C176.813 40.1266 176.374 40.3319 176.029 40.7426C175.693 41.1439 175.525 41.6899 175.525 42.3806V43.6266C175.525 44.2426 175.693 44.7326 176.029 45.0966C176.374 45.4513 176.813 45.6286 177.345 45.6286C177.97 45.6286 178.46 45.3859 178.815 44.9006C179.179 44.4153 179.361 43.7386 179.361 42.8706C179.361 41.9746 179.188 41.2933 178.843 40.8266C178.497 40.3599 177.998 40.1266 177.345 40.1266ZM174.377 39.3706H175.231L175.371 40.7146C175.501 40.2853 175.772 39.9259 176.183 39.6366C176.603 39.3473 177.069 39.2026 177.583 39.2026C178.507 39.2026 179.225 39.5293 179.739 40.1826C180.261 40.8359 180.523 41.7319 180.523 42.8706C180.523 43.9533 180.247 44.8353 179.697 45.5166C179.146 46.1979 178.418 46.5386 177.513 46.5386C177.046 46.5386 176.631 46.4406 176.267 46.2446C175.912 46.0393 175.665 45.7686 175.525 45.4326V49.1426H174.377V39.3706ZM183.646 45.6426C184.169 45.6426 184.589 45.4746 184.906 45.1386C185.223 44.8026 185.382 44.3406 185.382 43.7526V43.1646C185.261 43.1553 185.144 43.1506 185.032 43.1506C184.92 43.1413 184.817 43.1366 184.724 43.1366C183.921 43.1366 183.324 43.2533 182.932 43.4866C182.54 43.7106 182.344 44.0513 182.344 44.5086C182.344 44.8633 182.461 45.1433 182.694 45.3486C182.927 45.5446 183.245 45.6426 183.646 45.6426ZM184.066 39.2026C184.841 39.2026 185.433 39.3893 185.844 39.7626C186.255 40.1266 186.46 40.6586 186.46 41.3586V44.9986C186.46 45.2039 186.502 45.3579 186.586 45.4606C186.67 45.5633 186.801 45.6146 186.978 45.6146C187.053 45.6146 187.132 45.6006 187.216 45.5726C187.3 45.5446 187.365 45.5073 187.412 45.4606L187.482 46.3146C187.398 46.3706 187.281 46.4173 187.132 46.4546C186.992 46.4919 186.852 46.5106 186.712 46.5106C186.451 46.5106 186.222 46.4593 186.026 46.3566C185.839 46.2446 185.695 46.0859 185.592 45.8806C185.555 45.8059 185.517 45.7266 185.48 45.6426C185.452 45.5493 185.429 45.4466 185.41 45.3346C185.279 45.6986 185.027 45.9879 184.654 46.2026C184.281 46.4173 183.856 46.5246 183.38 46.5246C182.727 46.5246 182.199 46.3473 181.798 45.9926C181.406 45.6286 181.21 45.1479 181.21 44.5506C181.21 43.8226 181.509 43.2626 182.106 42.8706C182.713 42.4786 183.585 42.2826 184.724 42.2826C184.78 42.2826 184.85 42.2873 184.934 42.2966C185.027 42.2966 185.177 42.3013 185.382 42.3106V41.4846C185.382 41.0553 185.261 40.7239 185.018 40.4906C184.785 40.2573 184.444 40.1406 183.996 40.1406C183.567 40.1406 183.235 40.2479 183.002 40.4626C182.769 40.6773 182.643 40.9899 182.624 41.4006L181.504 41.2046C181.579 40.5886 181.845 40.1033 182.302 39.7486C182.769 39.3846 183.357 39.2026 184.066 39.2026ZM190.585 45.2786H190.613L192.587 39.3706H193.735L191.075 46.7486C190.739 47.6726 190.384 48.3306 190.011 48.7226C189.638 49.1146 189.166 49.3106 188.597 49.3106C188.429 49.3106 188.261 49.2873 188.093 49.2406C187.925 49.1939 187.766 49.1286 187.617 49.0446L187.785 48.0926C187.972 48.2046 188.116 48.2746 188.219 48.3026C188.331 48.3399 188.448 48.3586 188.569 48.3586C188.914 48.3586 189.185 48.2466 189.381 48.0226C189.577 47.7986 189.796 47.3459 190.039 46.6646L187.435 39.3706H188.653L190.585 45.2786ZM197.808 39.2026C198.302 39.2026 198.727 39.3333 199.082 39.5946C199.436 39.8466 199.679 40.2059 199.81 40.6726C200.015 40.2059 200.304 39.8466 200.678 39.5946C201.051 39.3333 201.485 39.2026 201.98 39.2026C202.642 39.2026 203.165 39.3986 203.548 39.7906C203.94 40.1733 204.136 40.7053 204.136 41.3866V46.3706H202.988V41.6806C202.988 41.1859 202.876 40.8173 202.652 40.5746C202.428 40.3319 202.087 40.2106 201.63 40.2106C201.116 40.2106 200.71 40.3926 200.412 40.7566C200.113 41.1206 199.964 41.6339 199.964 42.2966V46.3706H198.816V41.6806C198.816 41.1953 198.699 40.8313 198.466 40.5886C198.242 40.3366 197.906 40.2106 197.458 40.2106C196.944 40.2106 196.538 40.3973 196.24 40.7706C195.941 41.1346 195.792 41.6479 195.792 42.3106V46.3706H194.644V39.3706H195.498L195.638 40.7286C195.806 40.2526 196.081 39.8793 196.464 39.6086C196.846 39.3379 197.294 39.2026 197.808 39.2026ZM208.443 45.6286C208.881 45.6286 209.241 45.5213 209.521 45.3066C209.801 45.0919 209.992 44.7746 210.095 44.3546L211.089 44.6346C210.939 45.2506 210.636 45.7219 210.179 46.0486C209.721 46.3753 209.143 46.5386 208.443 46.5386C207.463 46.5386 206.697 46.2213 206.147 45.5866C205.596 44.9519 205.321 44.0559 205.321 42.8986C205.321 41.7693 205.601 40.8733 206.161 40.2106C206.73 39.5386 207.491 39.2026 208.443 39.2026C209.273 39.2026 209.931 39.4733 210.417 40.0146C210.911 40.5466 211.159 41.2559 211.159 42.1426C211.159 42.3199 211.145 42.4926 211.117 42.6606C211.089 42.8286 211.056 42.9686 211.019 43.0806H206.427C206.455 43.8926 206.641 44.5226 206.987 44.9706C207.341 45.4093 207.827 45.6286 208.443 45.6286ZM208.415 40.0846C207.864 40.0846 207.416 40.2713 207.071 40.6446C206.735 41.0179 206.529 41.5499 206.455 42.2406H210.011C210.02 42.1939 210.025 42.1473 210.025 42.1006C210.025 42.0446 210.025 41.9699 210.025 41.8766C210.025 41.3446 209.875 40.9153 209.577 40.5886C209.287 40.2526 208.9 40.0846 208.415 40.0846ZM212.398 39.3706H213.252L213.392 40.7286C213.588 40.2433 213.891 39.8699 214.302 39.6086C214.713 39.3379 215.193 39.2026 215.744 39.2026C216.397 39.2026 216.92 39.4079 217.312 39.8186C217.704 40.2199 217.9 40.7659 217.9 41.4566V46.3706H216.752V41.6946C216.752 41.2186 216.631 40.8546 216.388 40.6026C216.155 40.3413 215.819 40.2106 215.38 40.2106C214.801 40.2106 214.349 40.3926 214.022 40.7566C213.705 41.1206 213.546 41.6386 213.546 42.3106V46.3706H212.398V39.3706ZM221.91 45.5726C222.125 45.5726 222.316 45.5493 222.484 45.5026C222.652 45.4466 222.844 45.3486 223.058 45.2086L223.268 46.1186C223.063 46.2493 222.83 46.3519 222.568 46.4266C222.316 46.5013 222.069 46.5386 221.826 46.5386C221.154 46.5386 220.636 46.3753 220.272 46.0486C219.918 45.7126 219.74 45.2319 219.74 44.6066V40.2526H218.732V39.3706H219.74V37.8866L220.888 37.7046V39.3706H222.988V40.2526H220.888V44.4946C220.888 44.8493 220.972 45.1199 221.14 45.3066C221.318 45.4839 221.574 45.5726 221.91 45.5726ZM229.692 39.2026C230.653 39.2026 231.414 39.5293 231.974 40.1826C232.543 40.8359 232.828 41.7319 232.828 42.8706C232.828 44.0093 232.543 44.9053 231.974 45.5586C231.414 46.2119 230.653 46.5386 229.692 46.5386C228.73 46.5386 227.965 46.2119 227.396 45.5586C226.836 44.9053 226.556 44.0093 226.556 42.8706C226.556 41.7319 226.836 40.8359 227.396 40.1826C227.965 39.5293 228.73 39.2026 229.692 39.2026ZM229.692 45.6426C230.336 45.6426 230.826 45.4093 231.162 44.9426C231.498 44.4666 231.666 43.7759 231.666 42.8706C231.666 41.9653 231.498 41.2793 231.162 40.8126C230.826 40.3366 230.336 40.0986 229.692 40.0986C229.048 40.0986 228.558 40.3366 228.222 40.8126C227.886 41.2793 227.718 41.9653 227.718 42.8706C227.718 43.7759 227.886 44.4666 228.222 44.9426C228.558 45.4093 229.048 45.6426 229.692 45.6426ZM234.294 46.3706V40.2526H233.272V39.3706H234.294V38.5726C234.294 37.8353 234.514 37.2379 234.952 36.7806C235.391 36.3233 235.96 36.0946 236.66 36.0946C236.884 36.0946 237.099 36.1226 237.304 36.1786C237.519 36.2253 237.734 36.3046 237.948 36.4166L237.682 37.3826C237.524 37.2613 237.37 37.1773 237.22 37.1306C237.071 37.0746 236.894 37.0466 236.688 37.0466C236.287 37.0466 235.979 37.1819 235.764 37.4526C235.55 37.7233 235.442 38.1059 235.442 38.6006V39.3706H237.234V40.2526H235.442V46.3706H234.294ZM241.451 39.5666C241.451 39.9399 241.573 40.2433 241.815 40.4766C242.058 40.7006 242.487 40.8873 243.103 41.0366V37.9846C242.609 38.0499 242.207 38.2273 241.899 38.5166C241.601 38.8059 241.451 39.1559 241.451 39.5666ZM245.553 43.7806C245.553 43.4073 245.432 43.1086 245.189 42.8846C244.956 42.6513 244.536 42.4553 243.929 42.2966V45.3906C244.424 45.3253 244.816 45.1479 245.105 44.8586C245.404 44.5693 245.553 44.2099 245.553 43.7806ZM243.929 46.3426V47.9106H243.103V46.3566C242.226 46.3099 241.512 46.0533 240.961 45.5866C240.42 45.1199 240.089 44.4899 239.967 43.6966L241.031 43.3606C241.115 43.9673 241.335 44.4479 241.689 44.8026C242.053 45.1573 242.525 45.3626 243.103 45.4186V42.1146C242.571 41.9933 242.165 41.8813 241.885 41.7786C241.615 41.6666 241.386 41.5453 241.199 41.4146C240.91 41.2093 240.695 40.9619 240.555 40.6726C240.425 40.3739 240.359 40.0239 240.359 39.6226C240.359 38.9133 240.611 38.3206 241.115 37.8446C241.629 37.3686 242.291 37.0979 243.103 37.0326V35.6466H243.929V37.0466C244.713 37.1119 245.334 37.3593 245.791 37.7886C246.249 38.2086 246.524 38.7873 246.617 39.5246L245.525 39.7486C245.469 39.2819 245.301 38.8946 245.021 38.5866C244.741 38.2786 244.377 38.0826 243.929 37.9986V41.2186C244.975 41.4426 245.689 41.7506 246.071 42.1426C246.454 42.5253 246.645 43.0573 246.645 43.7386C246.645 44.4573 246.398 45.0499 245.903 45.5166C245.418 45.9833 244.76 46.2586 243.929 46.3426ZM248.864 45.3346H253.484V46.3706H247.282V45.4606C247.375 45.3859 247.665 45.1619 248.15 44.7886C248.635 44.4059 249.013 44.1026 249.284 43.8786C249.704 43.5239 250.059 43.2066 250.348 42.9266C250.647 42.6373 250.899 42.3666 251.104 42.1146C251.421 41.7226 251.655 41.3399 251.804 40.9666C251.953 40.5839 252.028 40.1966 252.028 39.8046C252.028 39.1699 251.865 38.6753 251.538 38.3206C251.211 37.9659 250.754 37.7886 250.166 37.7886C249.643 37.7886 249.214 37.9566 248.878 38.2926C248.551 38.6286 248.388 39.0626 248.388 39.5946C248.388 39.7813 248.411 39.9539 248.458 40.1126C248.505 40.2713 248.579 40.4393 248.682 40.6166L247.688 41.0226C247.557 40.8173 247.459 40.5933 247.394 40.3506C247.329 40.1079 247.296 39.8326 247.296 39.5246C247.296 38.7873 247.567 38.1573 248.108 37.6346C248.649 37.1119 249.34 36.8506 250.18 36.8506C251.095 36.8506 251.823 37.1119 252.364 37.6346C252.905 38.1573 253.176 38.8713 253.176 39.7766C253.176 40.6166 252.849 41.4753 252.196 42.3526C251.543 43.2206 250.432 44.2146 248.864 45.3346ZM255.362 44.6626C255.688 44.6626 255.954 44.7886 256.16 45.0406C256.374 45.2926 256.482 45.6193 256.482 46.0206C256.482 46.7299 256.272 47.3179 255.852 47.7846C255.432 48.2606 254.881 48.4986 254.2 48.4986V47.8826C254.62 47.8546 254.97 47.6913 255.25 47.3926C255.53 47.1033 255.67 46.7673 255.67 46.3846C255.67 46.3193 255.665 46.2633 255.656 46.2166C255.646 46.1699 255.632 46.1373 255.614 46.1186C255.567 46.1466 255.511 46.1699 255.446 46.1886C255.39 46.2073 255.334 46.2166 255.278 46.2166C255.063 46.2166 254.886 46.1513 254.746 46.0206C254.615 45.8806 254.55 45.6939 254.55 45.4606C254.55 45.2273 254.624 45.0359 254.774 44.8866C254.923 44.7373 255.119 44.6626 255.362 44.6626ZM258.813 42.0026H257.861L258.113 37.0186H262.957V38.0406H259.037L258.883 41.0646C259.107 40.8593 259.368 40.7006 259.667 40.5886C259.975 40.4673 260.292 40.4066 260.619 40.4066C261.44 40.4066 262.112 40.6913 262.635 41.2606C263.157 41.8206 263.419 42.5393 263.419 43.4166C263.419 44.3499 263.12 45.1059 262.523 45.6846C261.925 46.2539 261.16 46.5386 260.227 46.5386C259.368 46.5386 258.64 46.3099 258.043 45.8526C257.455 45.3859 257.114 44.7979 257.021 44.0886L258.029 43.7106C258.15 44.3173 258.402 44.7839 258.785 45.1106C259.177 45.4373 259.667 45.6006 260.255 45.6006C260.889 45.6006 261.389 45.4093 261.753 45.0266C262.117 44.6346 262.299 44.1026 262.299 43.4306C262.299 42.8053 262.121 42.3059 261.767 41.9326C261.421 41.5593 260.955 41.3726 260.367 41.3726C260.059 41.3726 259.769 41.4286 259.499 41.5406C259.228 41.6526 258.999 41.8066 258.813 42.0026ZM264.244 41.6946C264.244 40.2293 264.552 39.0579 265.168 38.1806C265.793 37.2939 266.638 36.8506 267.702 36.8506C268.766 36.8506 269.606 37.2939 270.222 38.1806C270.847 39.0579 271.16 40.2293 271.16 41.6946C271.16 43.1599 270.847 44.3359 270.222 45.2226C269.606 46.0999 268.766 46.5386 267.702 46.5386C266.638 46.5386 265.793 46.0999 265.168 45.2226C264.552 44.3359 264.244 43.1599 264.244 41.6946ZM265.434 41.6946C265.434 42.9266 265.63 43.8786 266.022 44.5506C266.414 45.2133 266.974 45.5446 267.702 45.5446C268.43 45.5446 268.99 45.2133 269.382 44.5506C269.774 43.8786 269.97 42.9266 269.97 41.6946C269.97 40.4626 269.774 39.5153 269.382 38.8526C268.99 38.1806 268.43 37.8446 267.702 37.8446C266.974 37.8446 266.414 38.1806 266.022 38.8526C265.63 39.5153 265.434 40.4626 265.434 41.6946ZM271.938 41.6946C271.938 40.2293 272.246 39.0579 272.862 38.1806C273.488 37.2939 274.332 36.8506 275.396 36.8506C276.46 36.8506 277.3 37.2939 277.916 38.1806C278.542 39.0579 278.854 40.2293 278.854 41.6946C278.854 43.1599 278.542 44.3359 277.916 45.2226C277.3 46.0999 276.46 46.5386 275.396 46.5386C274.332 46.5386 273.488 46.0999 272.862 45.2226C272.246 44.3359 271.938 43.1599 271.938 41.6946ZM273.128 41.6946C273.128 42.9266 273.324 43.8786 273.716 44.5506C274.108 45.2133 274.668 45.5446 275.396 45.5446C276.124 45.5446 276.684 45.2133 277.076 44.5506C277.468 43.8786 277.664 42.9266 277.664 41.6946C277.664 40.4626 277.468 39.5153 277.076 38.8526C276.684 38.1806 276.124 37.8446 275.396 37.8446C274.668 37.8446 274.108 38.1806 273.716 38.8526C273.324 39.5153 273.128 40.4626 273.128 41.6946ZM283.133 46.3706V40.2526H282.111V39.3706H283.133V38.5726C283.133 37.8353 283.352 37.2379 283.791 36.7806C284.23 36.3233 284.799 36.0946 285.499 36.0946C285.723 36.0946 285.938 36.1226 286.143 36.1786C286.358 36.2253 286.572 36.3046 286.787 36.4166L286.521 37.3826C286.362 37.2613 286.208 37.1773 286.059 37.1306C285.91 37.0746 285.732 37.0466 285.527 37.0466C285.126 37.0466 284.818 37.1819 284.603 37.4526C284.388 37.7233 284.281 38.1059 284.281 38.6006V39.3706H286.073V40.2526H284.281V46.3706H283.133ZM286.762 46.3706V39.3706H287.672L287.826 41.1626C287.957 40.5746 288.227 40.1033 288.638 39.7486C289.049 39.3846 289.52 39.2026 290.052 39.2026C290.117 39.2026 290.183 39.2073 290.248 39.2166C290.323 39.2259 290.393 39.2353 290.458 39.2446L290.388 40.4486C290.332 40.4393 290.253 40.4299 290.15 40.4206C290.047 40.4113 289.94 40.4066 289.828 40.4066C289.249 40.4066 288.783 40.6259 288.428 41.0646C288.083 41.5033 287.91 42.0913 287.91 42.8286V46.3706H286.762ZM293.807 39.2026C294.769 39.2026 295.529 39.5293 296.089 40.1826C296.659 40.8359 296.943 41.7319 296.943 42.8706C296.943 44.0093 296.659 44.9053 296.089 45.5586C295.529 46.2119 294.769 46.5386 293.807 46.5386C292.846 46.5386 292.081 46.2119 291.511 45.5586C290.951 44.9053 290.671 44.0093 290.671 42.8706C290.671 41.7319 290.951 40.8359 291.511 40.1826C292.081 39.5293 292.846 39.2026 293.807 39.2026ZM293.807 45.6426C294.451 45.6426 294.941 45.4093 295.277 44.9426C295.613 44.4666 295.781 43.7759 295.781 42.8706C295.781 41.9653 295.613 41.2793 295.277 40.8126C294.941 40.3366 294.451 40.0986 293.807 40.0986C293.163 40.0986 292.673 40.3366 292.337 40.8126C292.001 41.2793 291.833 41.9653 291.833 42.8706C291.833 43.7759 292.001 44.4666 292.337 44.9426C292.673 45.4093 293.163 45.6426 293.807 45.6426ZM301.364 39.2026C301.859 39.2026 302.283 39.3333 302.638 39.5946C302.993 39.8466 303.235 40.2059 303.366 40.6726C303.571 40.2059 303.861 39.8466 304.234 39.5946C304.607 39.3333 305.041 39.2026 305.536 39.2026C306.199 39.2026 306.721 39.3986 307.104 39.7906C307.496 40.1733 307.692 40.7053 307.692 41.3866V46.3706H306.544V41.6806C306.544 41.1859 306.432 40.8173 306.208 40.5746C305.984 40.3319 305.643 40.2106 305.186 40.2106C304.673 40.2106 304.267 40.3926 303.968 40.7566C303.669 41.1206 303.52 41.6339 303.52 42.2966V46.3706H302.372V41.6806C302.372 41.1953 302.255 40.8313 302.022 40.5886C301.798 40.3366 301.462 40.2106 301.014 40.2106C300.501 40.2106 300.095 40.3973 299.796 40.7706C299.497 41.1346 299.348 41.6479 299.348 42.3106V46.3706H298.2V39.3706H299.054L299.194 40.7286C299.362 40.2526 299.637 39.8793 300.02 39.6086C300.403 39.3379 300.851 39.2026 301.364 39.2026ZM63.902 65.5586C64.5087 65.5586 64.9613 65.3766 65.26 65.0126C65.5587 64.6393 65.708 64.0793 65.708 63.3326V57.0186H66.898V63.4306C66.898 64.4199 66.632 65.1853 66.1 65.7266C65.568 66.2679 64.8307 66.5386 63.888 66.5386C63.0947 66.5386 62.432 66.3099 61.9 65.8526C61.368 65.3953 61.0693 64.8026 61.004 64.0746L62.026 63.5286C62.0727 64.1539 62.2593 64.6486 62.586 65.0126C62.922 65.3766 63.3607 65.5586 63.902 65.5586ZM70.4565 65.6426C70.9792 65.6426 71.3992 65.4746 71.7165 65.1386C72.0338 64.8026 72.1925 64.3406 72.1925 63.7526V63.1646C72.0712 63.1553 71.9545 63.1506 71.8425 63.1506C71.7305 63.1413 71.6278 63.1366 71.5345 63.1366C70.7318 63.1366 70.1345 63.2533 69.7425 63.4866C69.3505 63.7106 69.1545 64.0513 69.1545 64.5086C69.1545 64.8633 69.2712 65.1433 69.5045 65.3486C69.7378 65.5446 70.0552 65.6426 70.4565 65.6426ZM70.8765 59.2026C71.6512 59.2026 72.2438 59.3893 72.6545 59.7626C73.0652 60.1266 73.2705 60.6586 73.2705 61.3586V64.9986C73.2705 65.2039 73.3125 65.3579 73.3965 65.4606C73.4805 65.5633 73.6112 65.6146 73.7885 65.6146C73.8632 65.6146 73.9425 65.6006 74.0265 65.5726C74.1105 65.5446 74.1758 65.5073 74.2225 65.4606L74.2925 66.3146C74.2085 66.3706 74.0918 66.4173 73.9425 66.4546C73.8025 66.4919 73.6625 66.5106 73.5225 66.5106C73.2612 66.5106 73.0325 66.4593 72.8365 66.3566C72.6498 66.2446 72.5052 66.0859 72.4025 65.8806C72.3652 65.8059 72.3278 65.7266 72.2905 65.6426C72.2625 65.5493 72.2392 65.4466 72.2205 65.3346C72.0898 65.6986 71.8378 65.9879 71.4645 66.2026C71.0912 66.4173 70.6665 66.5246 70.1905 66.5246C69.5372 66.5246 69.0098 66.3473 68.6085 65.9926C68.2165 65.6286 68.0205 65.1479 68.0205 64.5506C68.0205 63.8226 68.3192 63.2626 68.9165 62.8706C69.5232 62.4786 70.3958 62.2826 71.5345 62.2826C71.5905 62.2826 71.6605 62.2873 71.7445 62.2966C71.8378 62.2966 71.9872 62.3013 72.1925 62.3106V61.4846C72.1925 61.0553 72.0712 60.7239 71.8285 60.4906C71.5952 60.2573 71.2545 60.1406 70.8065 60.1406C70.3772 60.1406 70.0458 60.2479 69.8125 60.4626C69.5792 60.6773 69.4532 60.9899 69.4345 61.4006L68.3145 61.2046C68.3892 60.5886 68.6552 60.1033 69.1125 59.7486C69.5792 59.3846 70.1672 59.2026 70.8765 59.2026ZM77.7859 66.5386C76.8246 66.5386 76.0639 66.2119 75.5039 65.5586C74.9439 64.9053 74.6639 64.0093 74.6639 62.8706C74.6639 61.7413 74.9439 60.8499 75.5039 60.1966C76.0639 59.5339 76.8246 59.2026 77.7859 59.2026C78.4859 59.2026 79.0693 59.3986 79.5359 59.7906C80.0026 60.1826 80.2733 60.7006 80.3479 61.3446L79.2979 61.5406C79.2606 61.1206 79.1019 60.7799 78.8219 60.5186C78.5513 60.2479 78.2059 60.1126 77.7859 60.1126C77.1699 60.1126 76.6893 60.3553 76.3439 60.8406C75.9986 61.3259 75.8259 62.0026 75.8259 62.8706C75.8259 63.7386 75.9986 64.4153 76.3439 64.9006C76.6893 65.3859 77.1699 65.6286 77.7859 65.6286C78.2153 65.6286 78.5653 65.4979 78.8359 65.2366C79.1066 64.9659 79.2606 64.6113 79.2979 64.1726L80.3479 64.3686C80.2453 65.0499 79.9699 65.5819 79.5219 65.9646C79.0739 66.3473 78.4953 66.5386 77.7859 66.5386ZM84.1136 59.2026C85.0749 59.2026 85.8356 59.5293 86.3956 60.1826C86.9649 60.8359 87.2496 61.7319 87.2496 62.8706C87.2496 64.0093 86.9649 64.9053 86.3956 65.5586C85.8356 66.2119 85.0749 66.5386 84.1136 66.5386C83.1523 66.5386 82.3869 66.2119 81.8176 65.5586C81.2576 64.9053 80.9776 64.0093 80.9776 62.8706C80.9776 61.7319 81.2576 60.8359 81.8176 60.1826C82.3869 59.5293 83.1523 59.2026 84.1136 59.2026ZM84.1136 65.6426C84.7576 65.6426 85.2476 65.4093 85.5836 64.9426C85.9196 64.4666 86.0876 63.7759 86.0876 62.8706C86.0876 61.9653 85.9196 61.2793 85.5836 60.8126C85.2476 60.3366 84.7576 60.0986 84.1136 60.0986C83.4696 60.0986 82.9796 60.3366 82.6436 60.8126C82.3076 61.2793 82.1396 61.9653 82.1396 62.8706C82.1396 63.7759 82.3076 64.4666 82.6436 64.9426C82.9796 65.4093 83.4696 65.6426 84.1136 65.6426ZM88.5062 56.2626H89.6542V60.5186C89.7849 60.1266 90.0416 59.8093 90.4242 59.5666C90.8069 59.3239 91.2362 59.2026 91.7122 59.2026C92.6362 59.2026 93.3549 59.5293 93.8682 60.1826C94.3909 60.8359 94.6522 61.7319 94.6522 62.8706C94.6522 63.9533 94.3769 64.8353 93.8262 65.5166C93.2756 66.1979 92.5476 66.5386 91.6422 66.5386C91.1009 66.5386 90.6389 66.4033 90.2562 66.1326C89.8829 65.8619 89.6402 65.4979 89.5282 65.0406L89.4162 66.3706H88.5062V56.2626ZM91.4742 60.1266C90.9422 60.1266 90.5036 60.3319 90.1582 60.7426C89.8222 61.1439 89.6542 61.6946 89.6542 62.3946V63.4306C89.6542 64.1213 89.8176 64.6626 90.1442 65.0546C90.4802 65.4373 90.9236 65.6286 91.4742 65.6286C92.0996 65.6286 92.5896 65.3859 92.9442 64.9006C93.3082 64.4153 93.4902 63.7386 93.4902 62.8706C93.4902 61.9746 93.3176 61.2933 92.9722 60.8266C92.6269 60.3599 92.1276 60.1266 91.4742 60.1266ZM102.312 58.0546V66.3706H101.136V58.0546H97.9296V57.0186H105.518V58.0546H102.312ZM107.245 65.6426C107.767 65.6426 108.187 65.4746 108.505 65.1386C108.822 64.8026 108.981 64.3406 108.981 63.7526V63.1646C108.859 63.1553 108.743 63.1506 108.631 63.1506C108.519 63.1413 108.416 63.1366 108.323 63.1366C107.52 63.1366 106.923 63.2533 106.531 63.4866C106.139 63.7106 105.943 64.0513 105.943 64.5086C105.943 64.8633 106.059 65.1433 106.293 65.3486C106.526 65.5446 106.843 65.6426 107.245 65.6426ZM107.665 59.2026C108.439 59.2026 109.032 59.3893 109.443 59.7626C109.853 60.1266 110.059 60.6586 110.059 61.3586V64.9986C110.059 65.2039 110.101 65.3579 110.185 65.4606C110.269 65.5633 110.399 65.6146 110.577 65.6146C110.651 65.6146 110.731 65.6006 110.815 65.5726C110.899 65.5446 110.964 65.5073 111.011 65.4606L111.081 66.3146C110.997 66.3706 110.88 66.4173 110.731 66.4546C110.591 66.4919 110.451 66.5106 110.311 66.5106C110.049 66.5106 109.821 66.4593 109.625 66.3566C109.438 66.2446 109.293 66.0859 109.191 65.8806C109.153 65.8059 109.116 65.7266 109.079 65.6426C109.051 65.5493 109.027 65.4466 109.009 65.3346C108.878 65.6986 108.626 65.9879 108.253 66.2026C107.879 66.4173 107.455 66.5246 106.979 66.5246C106.325 66.5246 105.798 66.3473 105.397 65.9926C105.005 65.6286 104.809 65.1479 104.809 64.5506C104.809 63.8226 105.107 63.2626 105.705 62.8706C106.311 62.4786 107.184 62.2826 108.323 62.2826C108.379 62.2826 108.449 62.2873 108.533 62.2966C108.626 62.2966 108.775 62.3013 108.981 62.3106V61.4846C108.981 61.0553 108.859 60.7239 108.617 60.4906C108.383 60.2573 108.043 60.1406 107.595 60.1406C107.165 60.1406 106.834 60.2479 106.601 60.4626C106.367 60.6773 106.241 60.9899 106.223 61.4006L105.103 61.2046C105.177 60.5886 105.443 60.1033 105.901 59.7486C106.367 59.3846 106.955 59.2026 107.665 59.2026ZM113.622 65.5726C113.734 65.5726 113.842 65.5586 113.944 65.5306C114.056 65.4933 114.159 65.4419 114.252 65.3766L114.378 66.2586C114.248 66.3333 114.084 66.3939 113.888 66.4406C113.692 66.4873 113.501 66.5106 113.314 66.5106C112.829 66.5106 112.46 66.3893 112.208 66.1466C111.966 65.8946 111.844 65.5306 111.844 65.0546V56.2626H112.992V64.9286C112.992 65.1526 113.044 65.3159 113.146 65.4186C113.249 65.5213 113.408 65.5726 113.622 65.5726ZM117.976 59.2026C118.937 59.2026 119.698 59.5293 120.258 60.1826C120.827 60.8359 121.112 61.7319 121.112 62.8706C121.112 64.0093 120.827 64.9053 120.258 65.5586C119.698 66.2119 118.937 66.5386 117.976 66.5386C117.015 66.5386 116.249 66.2119 115.68 65.5586C115.12 64.9053 114.84 64.0093 114.84 62.8706C114.84 61.7319 115.12 60.8359 115.68 60.1826C116.249 59.5293 117.015 59.2026 117.976 59.2026ZM117.976 65.6426C118.62 65.6426 119.11 65.4093 119.446 64.9426C119.782 64.4666 119.95 63.7759 119.95 62.8706C119.95 61.9653 119.782 61.2793 119.446 60.8126C119.11 60.3366 118.62 60.0986 117.976 60.0986C117.332 60.0986 116.842 60.3366 116.506 60.8126C116.17 61.2793 116.002 61.9653 116.002 62.8706C116.002 63.7759 116.17 64.4666 116.506 64.9426C116.842 65.4093 117.332 65.6426 117.976 65.6426ZM125.533 59.2026C126.027 59.2026 126.452 59.3333 126.807 59.5946C127.161 59.8466 127.404 60.2059 127.535 60.6726C127.74 60.2059 128.029 59.8466 128.403 59.5946C128.776 59.3333 129.21 59.2026 129.705 59.2026C130.367 59.2026 130.89 59.3986 131.273 59.7906C131.665 60.1733 131.861 60.7053 131.861 61.3866V66.3706H130.713V61.6806C130.713 61.1859 130.601 60.8173 130.377 60.5746C130.153 60.3319 129.812 60.2106 129.355 60.2106C128.841 60.2106 128.435 60.3926 128.137 60.7566C127.838 61.1206 127.689 61.6339 127.689 62.2966V66.3706H126.541V61.6806C126.541 61.1953 126.424 60.8313 126.191 60.5886C125.967 60.3366 125.631 60.2106 125.183 60.2106C124.669 60.2106 124.263 60.3973 123.965 60.7706C123.666 61.1346 123.517 61.6479 123.517 62.3106V66.3706H122.369V59.3706H123.223L123.363 60.7286C123.531 60.2526 123.806 59.8793 124.189 59.6086C124.571 59.3379 125.019 59.2026 125.533 59.2026ZM136.182 59.2026C137.143 59.2026 137.904 59.5293 138.464 60.1826C139.033 60.8359 139.318 61.7319 139.318 62.8706C139.318 64.0093 139.033 64.9053 138.464 65.5586C137.904 66.2119 137.143 66.5386 136.182 66.5386C135.22 66.5386 134.455 66.2119 133.886 65.5586C133.326 64.9053 133.046 64.0093 133.046 62.8706C133.046 61.7319 133.326 60.8359 133.886 60.1826C134.455 59.5293 135.22 59.2026 136.182 59.2026ZM136.182 65.6426C136.826 65.6426 137.316 65.4093 137.652 64.9426C137.988 64.4666 138.156 63.7759 138.156 62.8706C138.156 61.9653 137.988 61.2793 137.652 60.8126C137.316 60.3366 136.826 60.0986 136.182 60.0986C135.538 60.0986 135.048 60.3366 134.712 60.8126C134.376 61.2793 134.208 61.9653 134.208 62.8706C134.208 63.7759 134.376 64.4666 134.712 64.9426C135.048 65.4093 135.538 65.6426 136.182 65.6426ZM142.24 65.5726C142.352 65.5726 142.46 65.5586 142.562 65.5306C142.674 65.4933 142.777 65.4419 142.87 65.3766L142.996 66.2586C142.866 66.3333 142.702 66.3939 142.506 66.4406C142.31 66.4873 142.119 66.5106 141.932 66.5106C141.447 66.5106 141.078 66.3893 140.826 66.1466C140.584 65.8946 140.462 65.5306 140.462 65.0546V56.2626H141.61V64.9286C141.61 65.1526 141.662 65.3159 141.764 65.4186C141.867 65.5213 142.026 65.5726 142.24 65.5726ZM145.824 65.6426C146.347 65.6426 146.767 65.4746 147.084 65.1386C147.401 64.8026 147.56 64.3406 147.56 63.7526V63.1646C147.439 63.1553 147.322 63.1506 147.21 63.1506C147.098 63.1413 146.995 63.1366 146.902 63.1366C146.099 63.1366 145.502 63.2533 145.11 63.4866C144.718 63.7106 144.522 64.0513 144.522 64.5086C144.522 64.8633 144.639 65.1433 144.872 65.3486C145.105 65.5446 145.423 65.6426 145.824 65.6426ZM146.244 59.2026C147.019 59.2026 147.611 59.3893 148.022 59.7626C148.433 60.1266 148.638 60.6586 148.638 61.3586V64.9986C148.638 65.2039 148.68 65.3579 148.764 65.4606C148.848 65.5633 148.979 65.6146 149.156 65.6146C149.231 65.6146 149.31 65.6006 149.394 65.5726C149.478 65.5446 149.543 65.5073 149.59 65.4606L149.66 66.3146C149.576 66.3706 149.459 66.4173 149.31 66.4546C149.17 66.4919 149.03 66.5106 148.89 66.5106C148.629 66.5106 148.4 66.4593 148.204 66.3566C148.017 66.2446 147.873 66.0859 147.77 65.8806C147.733 65.8059 147.695 65.7266 147.658 65.6426C147.63 65.5493 147.607 65.4466 147.588 65.3346C147.457 65.6986 147.205 65.9879 146.832 66.2026C146.459 66.4173 146.034 66.5246 145.558 66.5246C144.905 66.5246 144.377 66.3473 143.976 65.9926C143.584 65.6286 143.388 65.1479 143.388 64.5506C143.388 63.8226 143.687 63.2626 144.284 62.8706C144.891 62.4786 145.763 62.2826 146.902 62.2826C146.958 62.2826 147.028 62.2873 147.112 62.2966C147.205 62.2966 147.355 62.3013 147.56 62.3106V61.4846C147.56 61.0553 147.439 60.7239 147.196 60.4906C146.963 60.2573 146.622 60.1406 146.174 60.1406C145.745 60.1406 145.413 60.2479 145.18 60.4626C144.947 60.6773 144.821 60.9899 144.802 61.4006L143.682 61.2046C143.757 60.5886 144.023 60.1033 144.48 59.7486C144.947 59.3846 145.535 59.2026 146.244 59.2026Z" fill="black"/>
<defs>
<linearGradient id="paint0_linear_29772_59793" x1="346.5" y1="94.7402" x2="6.1088e-06" y2="-0.259762" gradientUnits="userSpaceOnUse">
<stop stop-color="white" stop-opacity="0.24"/>
<stop offset="1" stop-color="white" stop-opacity="0.23"/>
</linearGradient>
</defs>
</svg>
