<svg width="386" height="85" viewBox="0 0 386 85" fill="none" xmlns="http://www.w3.org/2000/svg">
<rect x="0.5" y="0.84375" width="385" height="82.741" rx="18.4508" fill="white" fill-opacity="0.42"/>
<rect x="0.5" y="0.84375" width="385" height="82.741" rx="18.4508" stroke="url(#paint0_linear_29772_59960)"/>
<rect x="12.6348" y="11.7139" width="37.8412" height="37.1451" rx="9.12206" fill="#F4F4F4" fill-opacity="0.51"/>
<path d="M39.521 27.9602C39.4437 28.3893 39.3316 28.8277 39.1851 29.271C38.8109 30.4014 38.5107 31.555 38.3051 32.728C37.9859 34.5491 36.9154 36.0012 35.4541 37.111C34.0548 38.1744 32.3806 38.4066 30.7271 38.0794C30.2609 37.9873 29.8086 37.8434 29.3762 37.6539C28.9099 37.4495 28.5406 37.0718 28.3506 36.6002C28.2186 36.2727 27.8754 35.059 27.7842 34.7466C27.7579 34.6564 27.8437 34.5751 27.9337 34.6027C27.952 34.6083 27.9703 34.6136 27.9888 34.6186C30.1494 35.2084 33.4777 35.1517 36.0873 32.8949C36.7333 32.3359 37.3039 31.7364 37.7927 31.1169C38.1839 30.6208 38.3269 29.9744 38.1787 29.3608C37.9547 28.4338 37.5743 27.5103 37.0307 26.6348C36.258 25.39 35.2513 24.3967 34.1337 23.6947C33.4496 23.2649 32.5744 23.2832 31.9035 23.733C30.8774 24.4209 29.8869 25.3496 29.0279 26.4838C27.5452 28.4414 26.7586 30.6091 26.7126 32.4602H26.7105C26.7059 32.5524 26.6381 34.0843 27.2091 35.9702C27.2374 36.0637 27.1253 36.1361 27.0519 36.0716C26.1577 35.2851 25.4011 34.4646 24.814 33.7617C23.2305 31.8656 22.8282 29.2378 23.8065 26.9707C24.4176 25.5545 25.477 24.2775 26.9289 23.3796C28.2123 22.586 29.7013 22.3393 31.1772 22.5683C32.2694 22.738 33.3845 22.7176 34.4681 22.501C34.822 22.4305 35.1689 22.3856 35.5054 22.3666H35.5085C35.7664 22.3521 36.0184 22.3531 36.2629 22.37H36.2639C37.378 22.4467 38.3324 22.8492 38.985 23.6007C39.9205 24.6779 40.0569 26.2665 39.521 27.9602Z" fill="#4F3FD7"/>
<path d="M67.08 20.2179C67.08 19.7512 66.9447 19.4012 66.674 19.1679C66.4127 18.9252 66.0207 18.8039 65.498 18.8039H63.44V21.6739H65.512C66.0347 21.6739 66.4267 21.5525 66.688 21.3099C66.9493 21.0672 67.08 20.7032 67.08 20.2179ZM69.362 26.7139H67.458C67.3553 26.5925 67.2713 26.4619 67.206 26.3219C67.15 26.1819 67.0987 26.0045 67.052 25.7899L66.716 24.3059C66.6227 23.8672 66.4547 23.5545 66.212 23.3679C65.9693 23.1812 65.6007 23.0879 65.106 23.0879H63.44V26.7139H61.69V17.3619H65.638C66.7113 17.3619 67.5233 17.5905 68.074 18.0479C68.634 18.5052 68.914 19.1725 68.914 20.0499C68.914 20.6939 68.7133 21.2352 68.312 21.6739C67.92 22.1032 67.4207 22.3459 66.814 22.4019V22.4299C67.262 22.4859 67.612 22.6352 67.864 22.8779C68.116 23.1205 68.298 23.4752 68.41 23.9419L68.844 25.6919C68.8813 25.8785 68.942 26.0559 69.026 26.2239C69.1193 26.3919 69.2313 26.5552 69.362 26.7139ZM72.6272 25.6779C73.0472 25.6779 73.3832 25.5425 73.6352 25.2719C73.8965 25.0012 74.0272 24.6232 74.0272 24.1379V23.6479C73.8778 23.6292 73.7518 23.6199 73.6492 23.6199C73.5558 23.6105 73.4905 23.6059 73.4532 23.6059C72.8278 23.6059 72.3565 23.7039 72.0392 23.8999C71.7218 24.0865 71.5632 24.3665 71.5632 24.7399C71.5632 25.0292 71.6565 25.2579 71.8432 25.4259C72.0392 25.5939 72.3005 25.6779 72.6272 25.6779ZM73.0192 19.5039C73.8965 19.5039 74.5592 19.6952 75.0072 20.0779C75.4552 20.4605 75.6792 21.0252 75.6792 21.7719V25.0059C75.6792 25.1925 75.7165 25.3325 75.7912 25.4259C75.8752 25.5099 76.0012 25.5519 76.1692 25.5519C76.2438 25.5519 76.3185 25.5425 76.3932 25.5239C76.4678 25.4959 76.5285 25.4585 76.5752 25.4119L76.6452 26.5879C76.5238 26.6719 76.3698 26.7372 76.1832 26.7839C76.0058 26.8305 75.8238 26.8539 75.6372 26.8539C75.3478 26.8539 75.0912 26.8025 74.8672 26.6999C74.6432 26.5879 74.4658 26.4292 74.3352 26.2239C74.2885 26.1399 74.2465 26.0559 74.2092 25.9719C74.1812 25.8879 74.1532 25.7992 74.1252 25.7059C73.9945 26.0605 73.7425 26.3405 73.3692 26.5459C73.0052 26.7512 72.5805 26.8539 72.0952 26.8539C71.4232 26.8539 70.8865 26.6765 70.4852 26.3219C70.0838 25.9579 69.8832 25.4679 69.8832 24.8519C69.8832 24.1425 70.1725 23.5919 70.7512 23.1999C71.3392 22.8079 72.1745 22.6119 73.2572 22.6119C73.3692 22.6119 73.4952 22.6165 73.6352 22.6259C73.7845 22.6352 73.9152 22.6445 74.0272 22.6539V21.8699C74.0272 21.5245 73.9338 21.2585 73.7472 21.0719C73.5605 20.8852 73.2898 20.7919 72.9352 20.7919C72.5805 20.7919 72.3098 20.8899 72.1232 21.0859C71.9365 21.2725 71.8385 21.5432 71.8292 21.8979L70.2052 21.6459C70.2705 20.9832 70.5552 20.4605 71.0592 20.0779C71.5632 19.6952 72.2165 19.5039 73.0192 19.5039ZM80.3844 25.5659C80.767 25.5659 81.075 25.4772 81.3084 25.2999C81.5417 25.1132 81.705 24.8379 81.7984 24.4739L83.2264 24.9359C83.0584 25.5612 82.7224 26.0419 82.2184 26.3779C81.7144 26.7139 81.0984 26.8819 80.3704 26.8819C79.3344 26.8819 78.5224 26.5599 77.9344 25.9159C77.3464 25.2719 77.0524 24.3805 77.0524 23.2419C77.0524 22.0939 77.351 21.1839 77.9484 20.5119C78.5457 19.8399 79.3577 19.5039 80.3844 19.5039C81.2804 19.5039 81.9897 19.7839 82.5124 20.3439C83.035 20.8945 83.2964 21.6319 83.2964 22.5559C83.2964 22.7239 83.2824 22.8965 83.2544 23.0739C83.2264 23.2419 83.1937 23.3819 83.1564 23.4939H78.7044C78.723 24.1472 78.877 24.6559 79.1664 25.0199C79.465 25.3839 79.871 25.5659 80.3844 25.5659ZM80.3564 20.7499C79.899 20.7499 79.5257 20.9085 79.2364 21.2259C78.9564 21.5339 78.7884 21.9725 78.7324 22.5419H81.6444C81.6537 22.5045 81.6584 22.4625 81.6584 22.4159C81.6584 22.3599 81.6584 22.2852 81.6584 22.1919C81.6584 21.7625 81.537 21.4172 81.2944 21.1559C81.061 20.8852 80.7484 20.7499 80.3564 20.7499ZM84.4772 19.6719H85.8912L86.1012 21.0299C86.2785 20.5445 86.5678 20.1712 86.9692 19.9099C87.3705 19.6392 87.8465 19.5039 88.3972 19.5039C89.0692 19.5039 89.6012 19.7092 89.9932 20.1199C90.3945 20.5212 90.5952 21.0765 90.5952 21.7859V26.7139H88.8592V22.2619C88.8592 21.8419 88.7612 21.5199 88.5652 21.2959C88.3692 21.0719 88.0845 20.9599 87.7112 20.9599C87.2352 20.9599 86.8618 21.1185 86.5912 21.4359C86.3298 21.7439 86.1992 22.1872 86.1992 22.7659V26.7139H84.4772V19.6719ZM95.0346 25.5659C95.4173 25.5659 95.7253 25.4772 95.9586 25.2999C96.1919 25.1132 96.3553 24.8379 96.4486 24.4739L97.8766 24.9359C97.7086 25.5612 97.3726 26.0419 96.8686 26.3779C96.3646 26.7139 95.7486 26.8819 95.0206 26.8819C93.9846 26.8819 93.1726 26.5599 92.5846 25.9159C91.9966 25.2719 91.7026 24.3805 91.7026 23.2419C91.7026 22.0939 92.0013 21.1839 92.5986 20.5119C93.1959 19.8399 94.0079 19.5039 95.0346 19.5039C95.9306 19.5039 96.6399 19.7839 97.1626 20.3439C97.6853 20.8945 97.9466 21.6319 97.9466 22.5559C97.9466 22.7239 97.9326 22.8965 97.9046 23.0739C97.8766 23.2419 97.8439 23.3819 97.8066 23.4939H93.3546C93.3733 24.1472 93.5273 24.6559 93.8166 25.0199C94.1153 25.3839 94.5213 25.5659 95.0346 25.5659ZM95.0066 20.7499C94.5493 20.7499 94.1759 20.9085 93.8866 21.2259C93.6066 21.5339 93.4386 21.9725 93.3826 22.5419H96.2946C96.3039 22.5045 96.3086 22.4625 96.3086 22.4159C96.3086 22.3599 96.3086 22.2852 96.3086 22.1919C96.3086 21.7625 96.1873 21.4172 95.9446 21.1559C95.7113 20.8852 95.3986 20.7499 95.0066 20.7499ZM101.423 26.8819C100.639 26.8819 99.9857 26.7139 99.4631 26.3779C98.9404 26.0325 98.6184 25.5565 98.4971 24.9499L99.9951 24.5859C100.042 24.9125 100.196 25.1785 100.457 25.3839C100.728 25.5892 101.054 25.6919 101.437 25.6919C101.829 25.6919 102.132 25.6172 102.347 25.4679C102.562 25.3092 102.669 25.0899 102.669 24.8099C102.669 24.5765 102.571 24.3899 102.375 24.2499C102.188 24.1005 101.773 23.9559 101.129 23.8159C100.653 23.7132 100.298 23.6199 100.065 23.5359C99.8411 23.4519 99.6497 23.3585 99.4911 23.2559C99.2484 23.0879 99.0664 22.8779 98.9451 22.6259C98.8237 22.3739 98.7631 22.0799 98.7631 21.7439C98.7631 21.0719 99.0151 20.5305 99.5191 20.1199C100.023 19.7092 100.681 19.5039 101.493 19.5039C102.296 19.5039 102.93 19.6765 103.397 20.0219C103.864 20.3672 104.139 20.8619 104.223 21.5059L102.725 21.6879C102.697 21.3705 102.576 21.1232 102.361 20.9459C102.146 20.7685 101.862 20.6799 101.507 20.6799C101.152 20.6799 100.877 20.7592 100.681 20.9179C100.485 21.0765 100.387 21.3005 100.387 21.5899C100.387 21.8232 100.48 22.0099 100.667 22.1499C100.854 22.2899 101.269 22.4205 101.913 22.5419C102.398 22.6445 102.753 22.7379 102.977 22.8219C103.21 22.9059 103.411 23.0039 103.579 23.1159C103.822 23.2839 104.004 23.4939 104.125 23.7459C104.246 23.9979 104.307 24.3012 104.307 24.6559C104.307 25.3465 104.046 25.8925 103.523 26.2939C103 26.6859 102.3 26.8819 101.423 26.8819ZM108.303 25.4679C108.499 25.4679 108.681 25.4399 108.849 25.3839C109.027 25.3279 109.218 25.2345 109.423 25.1039L109.661 26.3779C109.437 26.5365 109.176 26.6579 108.877 26.7419C108.588 26.8352 108.289 26.8819 107.981 26.8819C107.235 26.8819 106.661 26.6999 106.259 26.3359C105.867 25.9625 105.671 25.4259 105.671 24.7259V20.9599H104.719V19.6719H105.671V18.1739L107.407 17.9499V19.6719H109.381V20.9599H107.407V24.5159C107.407 24.8332 107.482 25.0712 107.631 25.2299C107.781 25.3885 108.005 25.4679 108.303 25.4679Z" fill="black"/>
<path d="M335.403 25.8579C334.811 25.8579 334.311 25.7219 333.903 25.4499C333.495 25.1779 333.191 24.7739 332.991 24.2379L333.831 23.8419C333.959 24.2179 334.159 24.5099 334.431 24.7179C334.703 24.9259 335.027 25.0299 335.403 25.0299C336.107 25.0299 336.663 24.7059 337.071 24.0579C337.479 23.4099 337.683 22.5499 337.683 21.4779V21.2139H337.647C337.503 21.6939 337.235 22.0779 336.843 22.3659C336.451 22.6459 335.991 22.7859 335.463 22.7859C334.711 22.7859 334.107 22.5459 333.651 22.0659C333.195 21.5859 332.967 20.9619 332.967 20.1939C332.967 19.4259 333.211 18.7939 333.699 18.2979C334.187 17.8019 334.827 17.5539 335.619 17.5539C336.139 17.5539 336.599 17.6659 336.999 17.8899C337.407 18.1139 337.739 18.4419 337.995 18.8739C338.195 19.2099 338.343 19.5979 338.439 20.0379C338.543 20.4699 338.595 20.9499 338.595 21.4779C338.595 22.7979 338.303 23.8579 337.719 24.6579C337.143 25.4579 336.371 25.8579 335.403 25.8579ZM335.679 18.3819C335.159 18.3819 334.735 18.5459 334.407 18.8739C334.079 19.2019 333.915 19.6339 333.915 20.1699C333.915 20.7059 334.079 21.1379 334.407 21.4659C334.735 21.7859 335.159 21.9459 335.679 21.9459C336.183 21.9459 336.595 21.7819 336.915 21.4539C337.235 21.1259 337.395 20.6979 337.395 20.1699C337.395 19.6419 337.235 19.2139 336.915 18.8859C336.595 18.5499 336.183 18.3819 335.679 18.3819ZM340.554 20.0859C340.77 20.0859 340.95 20.1619 341.094 20.3139C341.246 20.4579 341.322 20.6379 341.322 20.8539C341.322 21.0699 341.246 21.2539 341.094 21.4059C340.95 21.5499 340.77 21.6219 340.554 21.6219C340.338 21.6219 340.154 21.5499 340.002 21.4059C339.858 21.2539 339.786 21.0699 339.786 20.8539C339.786 20.6379 339.858 20.4579 340.002 20.3139C340.154 20.1619 340.338 20.0859 340.554 20.0859ZM340.554 24.2499C340.77 24.2499 340.95 24.3259 341.094 24.4779C341.246 24.6219 341.322 24.8019 341.322 25.0179C341.322 25.2339 341.246 25.4179 341.094 25.5699C340.95 25.7139 340.77 25.7859 340.554 25.7859C340.338 25.7859 340.154 25.7139 340.002 25.5699C339.858 25.4179 339.786 25.2339 339.786 25.0179C339.786 24.8019 339.858 24.6219 340.002 24.4779C340.154 24.3259 340.338 24.2499 340.554 24.2499ZM346.798 25.7139H345.838V23.2899H342.214V22.4739L345.802 17.6979H346.798V22.5099H348.49V23.2899H346.798V25.7139ZM345.838 18.9579H345.79L343.21 22.4619V22.5099H345.838V18.9579ZM350.081 24.8259H354.041V25.7139H348.725V24.9339C348.805 24.8699 349.053 24.6779 349.469 24.3579C349.885 24.0299 350.209 23.7699 350.441 23.5779C350.801 23.2739 351.105 23.0019 351.353 22.7619C351.609 22.5139 351.825 22.2819 352.001 22.0659C352.273 21.7299 352.473 21.4019 352.601 21.0819C352.729 20.7539 352.793 20.4219 352.793 20.0859C352.793 19.5419 352.653 19.1179 352.373 18.8139C352.093 18.5099 351.701 18.3579 351.197 18.3579C350.749 18.3579 350.381 18.5019 350.093 18.7899C349.813 19.0779 349.673 19.4499 349.673 19.9059C349.673 20.0659 349.693 20.2139 349.733 20.3499C349.773 20.4859 349.837 20.6299 349.925 20.7819L349.073 21.1299C348.961 20.9539 348.877 20.7619 348.821 20.5539C348.765 20.3459 348.737 20.1099 348.737 19.8459C348.737 19.2139 348.969 18.6739 349.433 18.2259C349.897 17.7779 350.489 17.5539 351.209 17.5539C351.993 17.5539 352.617 17.7779 353.081 18.2259C353.545 18.6739 353.777 19.2859 353.777 20.0619C353.777 20.7819 353.497 21.5179 352.937 22.2699C352.377 23.0139 351.425 23.8659 350.081 24.8259ZM363.3 20.1819C363.3 20.9739 363.056 21.5899 362.568 22.0299C362.08 22.4619 361.388 22.6779 360.492 22.6779H358.824V25.7139H357.816V17.6979H360.492C361.388 17.6979 362.08 17.9179 362.568 18.3579C363.056 18.7899 363.3 19.3979 363.3 20.1819ZM362.232 20.1819C362.232 19.6219 362.08 19.2099 361.776 18.9459C361.48 18.6739 361.02 18.5379 360.396 18.5379H358.824V21.8379H360.396C361.02 21.8379 361.48 21.7019 361.776 21.4299C362.08 21.1579 362.232 20.7419 362.232 20.1819ZM370.883 19.1739H370.859L368.567 23.8659H367.799L365.507 19.1739H365.483L365.495 20.5659V25.7139H364.511V17.6979H365.735L368.207 22.7739H368.231L370.703 17.6979H371.855V25.7139H370.871V20.5659L370.883 19.1739Z" fill="#E0E0E0"/>
<path d="M62.306 37.3619L64.882 41.9259H64.924L67.5 37.3619H68.746L65.47 43.0459V46.7139H64.294V43.0459L61.004 37.3619H62.306ZM71.4179 39.5459C72.3792 39.5459 73.1399 39.8725 73.6999 40.5259C74.2692 41.1792 74.5539 42.0752 74.5539 43.2139C74.5539 44.3525 74.2692 45.2485 73.6999 45.9019C73.1399 46.5552 72.3792 46.8819 71.4179 46.8819C70.4566 46.8819 69.6912 46.5552 69.1219 45.9019C68.5619 45.2485 68.2819 44.3525 68.2819 43.2139C68.2819 42.0752 68.5619 41.1792 69.1219 40.5259C69.6912 39.8725 70.4566 39.5459 71.4179 39.5459ZM71.4179 45.9859C72.0619 45.9859 72.5519 45.7525 72.8879 45.2859C73.2239 44.8099 73.3919 44.1192 73.3919 43.2139C73.3919 42.3085 73.2239 41.6225 72.8879 41.1559C72.5519 40.6799 72.0619 40.4419 71.4179 40.4419C70.7739 40.4419 70.2839 40.6799 69.9479 41.1559C69.6119 41.6225 69.4439 42.3085 69.4439 43.2139C69.4439 44.1192 69.6119 44.8099 69.9479 45.2859C70.2839 45.7525 70.7739 45.9859 71.4179 45.9859ZM81.1585 46.7139H80.2485L80.1085 45.3839C79.9498 45.8692 79.6792 46.2425 79.2965 46.5039C78.9138 46.7559 78.4472 46.8819 77.8965 46.8819C77.2525 46.8819 76.7298 46.6812 76.3285 46.2799C75.9365 45.8785 75.7405 45.3325 75.7405 44.6419V39.7139H76.8885V44.5159C76.8885 44.9639 77.0052 45.3185 77.2385 45.5799C77.4718 45.8319 77.7985 45.9579 78.2185 45.9579C78.7692 45.9579 79.2032 45.7665 79.5205 45.3839C79.8378 45.0012 79.9965 44.4645 79.9965 43.7739V39.7139H81.1585V46.7139ZM82.9172 46.7139V39.7139H83.8272L83.9812 41.5059C84.1118 40.9179 84.3825 40.4465 84.7932 40.0919C85.2038 39.7279 85.6752 39.5459 86.2072 39.5459C86.2725 39.5459 86.3378 39.5505 86.4032 39.5599C86.4778 39.5692 86.5478 39.5785 86.6132 39.5879L86.5432 40.7919C86.4872 40.7825 86.4078 40.7732 86.3052 40.7639C86.2025 40.7545 86.0952 40.7499 85.9832 40.7499C85.4045 40.7499 84.9378 40.9692 84.5832 41.4079C84.2378 41.8465 84.0652 42.4345 84.0652 43.1719V46.7139H82.9172ZM93.2352 40.4699C92.7032 40.4699 92.2645 40.6752 91.9192 41.0859C91.5832 41.4872 91.4152 42.0332 91.4152 42.7239V43.9699C91.4152 44.5859 91.5832 45.0759 91.9192 45.4399C92.2645 45.7945 92.7032 45.9719 93.2352 45.9719C93.8605 45.9719 94.3505 45.7292 94.7052 45.2439C95.0692 44.7585 95.2512 44.0819 95.2512 43.2139C95.2512 42.3179 95.0785 41.6365 94.7332 41.1699C94.3878 40.7032 93.8885 40.4699 93.2352 40.4699ZM90.2672 39.7139H91.1212L91.2612 41.0579C91.3918 40.6285 91.6625 40.2692 92.0732 39.9799C92.4932 39.6905 92.9598 39.5459 93.4732 39.5459C94.3972 39.5459 95.1158 39.8725 95.6292 40.5259C96.1518 41.1792 96.4132 42.0752 96.4132 43.2139C96.4132 44.2965 96.1378 45.1785 95.5872 45.8599C95.0365 46.5412 94.3085 46.8819 93.4032 46.8819C92.9365 46.8819 92.5212 46.7839 92.1572 46.5879C91.8025 46.3825 91.5552 46.1119 91.4152 45.7759V49.4859H90.2672V39.7139ZM99.5366 45.9859C100.059 45.9859 100.479 45.8179 100.797 45.4819C101.114 45.1459 101.273 44.6839 101.273 44.0959V43.5079C101.151 43.4985 101.035 43.4939 100.923 43.4939C100.811 43.4845 100.708 43.4799 100.615 43.4799C99.8119 43.4799 99.2146 43.5965 98.8226 43.8299C98.4306 44.0539 98.2346 44.3945 98.2346 44.8519C98.2346 45.2065 98.3512 45.4865 98.5846 45.6919C98.8179 45.8879 99.1352 45.9859 99.5366 45.9859ZM99.9566 39.5459C100.731 39.5459 101.324 39.7325 101.735 40.1059C102.145 40.4699 102.351 41.0019 102.351 41.7019V45.3419C102.351 45.5472 102.393 45.7012 102.477 45.8039C102.561 45.9065 102.691 45.9579 102.869 45.9579C102.943 45.9579 103.023 45.9439 103.107 45.9159C103.191 45.8879 103.256 45.8505 103.303 45.8039L103.373 46.6579C103.289 46.7139 103.172 46.7605 103.023 46.7979C102.883 46.8352 102.743 46.8539 102.603 46.8539C102.341 46.8539 102.113 46.8025 101.917 46.6999C101.73 46.5879 101.585 46.4292 101.483 46.2239C101.445 46.1492 101.408 46.0699 101.371 45.9859C101.343 45.8925 101.319 45.7899 101.301 45.6779C101.17 46.0419 100.918 46.3312 100.545 46.5459C100.171 46.7605 99.7466 46.8679 99.2706 46.8679C98.6172 46.8679 98.0899 46.6905 97.6886 46.3359C97.2966 45.9719 97.1006 45.4912 97.1006 44.8939C97.1006 44.1659 97.3992 43.6059 97.9966 43.2139C98.6032 42.8219 99.4759 42.6259 100.615 42.6259C100.671 42.6259 100.741 42.6305 100.825 42.6399C100.918 42.6399 101.067 42.6445 101.273 42.6539V41.8279C101.273 41.3985 101.151 41.0672 100.909 40.8339C100.675 40.6005 100.335 40.4839 99.8866 40.4839C99.4572 40.4839 99.1259 40.5912 98.8926 40.8059C98.6592 41.0205 98.5332 41.3332 98.5146 41.7439L97.3946 41.5479C97.4692 40.9319 97.7352 40.4465 98.1926 40.0919C98.6592 39.7279 99.2472 39.5459 99.9566 39.5459ZM106.476 45.6219H106.504L108.478 39.7139H109.626L106.966 47.0919C106.63 48.0159 106.275 48.6739 105.902 49.0659C105.528 49.4579 105.057 49.6539 104.488 49.6539C104.32 49.6539 104.152 49.6305 103.984 49.5839C103.816 49.5372 103.657 49.4719 103.508 49.3879L103.676 48.4359C103.862 48.5479 104.007 48.6179 104.11 48.6459C104.222 48.6832 104.338 48.7019 104.46 48.7019C104.805 48.7019 105.076 48.5899 105.272 48.3659C105.468 48.1419 105.687 47.6892 105.93 47.0079L103.326 39.7139H104.544L106.476 45.6219ZM113.698 39.5459C114.193 39.5459 114.618 39.6765 114.972 39.9379C115.327 40.1899 115.57 40.5492 115.7 41.0159C115.906 40.5492 116.195 40.1899 116.568 39.9379C116.942 39.6765 117.376 39.5459 117.87 39.5459C118.533 39.5459 119.056 39.7419 119.438 40.1339C119.83 40.5165 120.026 41.0485 120.026 41.7299V46.7139H118.878V42.0239C118.878 41.5292 118.766 41.1605 118.542 40.9179C118.318 40.6752 117.978 40.5539 117.52 40.5539C117.007 40.5539 116.601 40.7359 116.302 41.0999C116.004 41.4639 115.854 41.9772 115.854 42.6399V46.7139H114.706V42.0239C114.706 41.5385 114.59 41.1745 114.356 40.9319C114.132 40.6799 113.796 40.5539 113.348 40.5539C112.835 40.5539 112.429 40.7405 112.13 41.1139C111.832 41.4779 111.682 41.9912 111.682 42.6539V46.7139H110.534V39.7139H111.388L111.528 41.0719C111.696 40.5959 111.972 40.2225 112.354 39.9519C112.737 39.6812 113.185 39.5459 113.698 39.5459ZM124.333 45.9719C124.772 45.9719 125.131 45.8645 125.411 45.6499C125.691 45.4352 125.883 45.1179 125.985 44.6979L126.979 44.9779C126.83 45.5939 126.527 46.0652 126.069 46.3919C125.612 46.7185 125.033 46.8819 124.333 46.8819C123.353 46.8819 122.588 46.5645 122.037 45.9299C121.487 45.2952 121.211 44.3992 121.211 43.2419C121.211 42.1125 121.491 41.2165 122.051 40.5539C122.621 39.8819 123.381 39.5459 124.333 39.5459C125.164 39.5459 125.822 39.8165 126.307 40.3579C126.802 40.8899 127.049 41.5992 127.049 42.4859C127.049 42.6632 127.035 42.8359 127.007 43.0039C126.979 43.1719 126.947 43.3119 126.909 43.4239H122.317C122.345 44.2359 122.532 44.8659 122.877 45.3139C123.232 45.7525 123.717 45.9719 124.333 45.9719ZM124.305 40.4279C123.755 40.4279 123.307 40.6145 122.961 40.9879C122.625 41.3612 122.42 41.8932 122.345 42.5839H125.901C125.911 42.5372 125.915 42.4905 125.915 42.4439C125.915 42.3879 125.915 42.3132 125.915 42.2199C125.915 41.6879 125.766 41.2585 125.467 40.9319C125.178 40.5959 124.791 40.4279 124.305 40.4279ZM128.289 39.7139H129.143L129.283 41.0719C129.479 40.5865 129.782 40.2132 130.193 39.9519C130.603 39.6812 131.084 39.5459 131.635 39.5459C132.288 39.5459 132.811 39.7512 133.203 40.1619C133.595 40.5632 133.791 41.1092 133.791 41.7999V46.7139H132.643V42.0379C132.643 41.5619 132.521 41.1979 132.279 40.9459C132.045 40.6845 131.709 40.5539 131.271 40.5539C130.692 40.5539 130.239 40.7359 129.913 41.0999C129.595 41.4639 129.437 41.9819 129.437 42.6539V46.7139H128.289V39.7139ZM137.801 45.9159C138.016 45.9159 138.207 45.8925 138.375 45.8459C138.543 45.7899 138.734 45.6919 138.949 45.5519L139.159 46.4619C138.954 46.5925 138.72 46.6952 138.459 46.7699C138.207 46.8445 137.96 46.8819 137.717 46.8819C137.045 46.8819 136.527 46.7185 136.163 46.3919C135.808 46.0559 135.631 45.5752 135.631 44.9499V40.5959H134.623V39.7139H135.631V38.2299L136.779 38.0479V39.7139H138.879V40.5959H136.779V44.8379C136.779 45.1925 136.863 45.4632 137.031 45.6499C137.208 45.8272 137.465 45.9159 137.801 45.9159ZM145.582 39.5459C146.544 39.5459 147.304 39.8725 147.864 40.5259C148.434 41.1792 148.718 42.0752 148.718 43.2139C148.718 44.3525 148.434 45.2485 147.864 45.9019C147.304 46.5552 146.544 46.8819 145.582 46.8819C144.621 46.8819 143.856 46.5552 143.286 45.9019C142.726 45.2485 142.446 44.3525 142.446 43.2139C142.446 42.0752 142.726 41.1792 143.286 40.5259C143.856 39.8725 144.621 39.5459 145.582 39.5459ZM145.582 45.9859C146.226 45.9859 146.716 45.7525 147.052 45.2859C147.388 44.8099 147.556 44.1192 147.556 43.2139C147.556 42.3085 147.388 41.6225 147.052 41.1559C146.716 40.6799 146.226 40.4419 145.582 40.4419C144.938 40.4419 144.448 40.6799 144.112 41.1559C143.776 41.6225 143.608 42.3085 143.608 43.2139C143.608 44.1192 143.776 44.8099 144.112 45.2859C144.448 45.7525 144.938 45.9859 145.582 45.9859ZM150.185 46.7139V40.5959H149.163V39.7139H150.185V38.9159C150.185 38.1785 150.404 37.5812 150.843 37.1239C151.282 36.6665 151.851 36.4379 152.551 36.4379C152.775 36.4379 152.99 36.4659 153.195 36.5219C153.41 36.5685 153.624 36.6479 153.839 36.7599L153.573 37.7259C153.414 37.6045 153.26 37.5205 153.111 37.4739C152.962 37.4179 152.784 37.3899 152.579 37.3899C152.178 37.3899 151.87 37.5252 151.655 37.7959C151.44 38.0665 151.333 38.4492 151.333 38.9439V39.7139H153.125V40.5959H151.333V46.7139H150.185ZM159.666 43.5219H155.984V42.4719H159.666V43.5219ZM161.523 39.9099C161.523 40.2832 161.644 40.5865 161.887 40.8199C162.13 41.0439 162.559 41.2305 163.175 41.3799V38.3279C162.68 38.3932 162.279 38.5705 161.971 38.8599C161.672 39.1492 161.523 39.4992 161.523 39.9099ZM165.625 44.1239C165.625 43.7505 165.504 43.4519 165.261 43.2279C165.028 42.9945 164.608 42.7985 164.001 42.6399V45.7339C164.496 45.6685 164.888 45.4912 165.177 45.2019C165.476 44.9125 165.625 44.5532 165.625 44.1239ZM164.001 46.6859V48.2539H163.175V46.6999C162.298 46.6532 161.584 46.3965 161.033 45.9299C160.492 45.4632 160.16 44.8332 160.039 44.0399L161.103 43.7039C161.187 44.3105 161.406 44.7912 161.761 45.1459C162.125 45.5005 162.596 45.7059 163.175 45.7619V42.4579C162.643 42.3365 162.237 42.2245 161.957 42.1219C161.686 42.0099 161.458 41.8885 161.271 41.7579C160.982 41.5525 160.767 41.3052 160.627 41.0159C160.496 40.7172 160.431 40.3672 160.431 39.9659C160.431 39.2565 160.683 38.6639 161.187 38.1879C161.7 37.7119 162.363 37.4412 163.175 37.3759V35.9899H164.001V37.3899C164.785 37.4552 165.406 37.7025 165.863 38.1319C166.32 38.5519 166.596 39.1305 166.689 39.8679L165.597 40.0919C165.541 39.6252 165.373 39.2379 165.093 38.9299C164.813 38.6219 164.449 38.4259 164.001 38.3419V41.5619C165.046 41.7859 165.76 42.0939 166.143 42.4859C166.526 42.8685 166.717 43.4005 166.717 44.0819C166.717 44.8005 166.47 45.3932 165.975 45.8599C165.49 46.3265 164.832 46.6019 164.001 46.6859ZM172.492 46.7139H171.372V43.8859H167.144V42.9339L171.33 37.3619H172.492V42.9759H174.466V43.8859H172.492V46.7139ZM171.372 38.8319H171.316L168.306 42.9199V42.9759H171.372V38.8319ZM175.72 45.0059C176.047 45.0059 176.313 45.1319 176.518 45.3839C176.733 45.6359 176.84 45.9625 176.84 46.3639C176.84 47.0732 176.63 47.6612 176.21 48.1279C175.79 48.6039 175.24 48.8419 174.558 48.8419V48.2259C174.978 48.1979 175.328 48.0345 175.608 47.7359C175.888 47.4465 176.028 47.1105 176.028 46.7279C176.028 46.6625 176.024 46.6065 176.014 46.5599C176.005 46.5132 175.991 46.4805 175.972 46.4619C175.926 46.4899 175.87 46.5132 175.804 46.5319C175.748 46.5505 175.692 46.5599 175.636 46.5599C175.422 46.5599 175.244 46.4945 175.104 46.3639C174.974 46.2239 174.908 46.0372 174.908 45.8039C174.908 45.5705 174.983 45.3792 175.132 45.2299C175.282 45.0805 175.478 45.0059 175.72 45.0059ZM177.4 42.0379C177.4 40.5725 177.708 39.4012 178.324 38.5239C178.95 37.6372 179.794 37.1939 180.858 37.1939C181.922 37.1939 182.762 37.6372 183.378 38.5239C184.004 39.4012 184.316 40.5725 184.316 42.0379C184.316 43.5032 184.004 44.6792 183.378 45.5659C182.762 46.4432 181.922 46.8819 180.858 46.8819C179.794 46.8819 178.95 46.4432 178.324 45.5659C177.708 44.6792 177.4 43.5032 177.4 42.0379ZM178.59 42.0379C178.59 43.2699 178.786 44.2219 179.178 44.8939C179.57 45.5565 180.13 45.8879 180.858 45.8879C181.586 45.8879 182.146 45.5565 182.538 44.8939C182.93 44.2219 183.126 43.2699 183.126 42.0379C183.126 40.8059 182.93 39.8585 182.538 39.1959C182.146 38.5239 181.586 38.1879 180.858 38.1879C180.13 38.1879 179.57 38.5239 179.178 39.1959C178.786 39.8585 178.59 40.8059 178.59 42.0379ZM185.095 42.0379C185.095 40.5725 185.403 39.4012 186.019 38.5239C186.644 37.6372 187.489 37.1939 188.553 37.1939C189.617 37.1939 190.457 37.6372 191.073 38.5239C191.698 39.4012 192.011 40.5725 192.011 42.0379C192.011 43.5032 191.698 44.6792 191.073 45.5659C190.457 46.4432 189.617 46.8819 188.553 46.8819C187.489 46.8819 186.644 46.4432 186.019 45.5659C185.403 44.6792 185.095 43.5032 185.095 42.0379ZM186.285 42.0379C186.285 43.2699 186.481 44.2219 186.873 44.8939C187.265 45.5565 187.825 45.8879 188.553 45.8879C189.281 45.8879 189.841 45.5565 190.233 44.8939C190.625 44.2219 190.821 43.2699 190.821 42.0379C190.821 40.8059 190.625 39.8585 190.233 39.1959C189.841 38.5239 189.281 38.1879 188.553 38.1879C187.825 38.1879 187.265 38.5239 186.873 39.1959C186.481 39.8585 186.285 40.8059 186.285 42.0379ZM192.789 42.0379C192.789 40.5725 193.097 39.4012 193.713 38.5239C194.339 37.6372 195.183 37.1939 196.247 37.1939C197.311 37.1939 198.151 37.6372 198.767 38.5239C199.393 39.4012 199.705 40.5725 199.705 42.0379C199.705 43.5032 199.393 44.6792 198.767 45.5659C198.151 46.4432 197.311 46.8819 196.247 46.8819C195.183 46.8819 194.339 46.4432 193.713 45.5659C193.097 44.6792 192.789 43.5032 192.789 42.0379ZM193.979 42.0379C193.979 43.2699 194.175 44.2219 194.567 44.8939C194.959 45.5565 195.519 45.8879 196.247 45.8879C196.975 45.8879 197.535 45.5565 197.927 44.8939C198.319 44.2219 198.515 43.2699 198.515 42.0379C198.515 40.8059 198.319 39.8585 197.927 39.1959C197.535 38.5239 196.975 38.1879 196.247 38.1879C195.519 38.1879 194.959 38.5239 194.567 39.1959C194.175 39.8585 193.979 40.8059 193.979 42.0379ZM205.538 45.3419L206.994 39.7139H208.03L209.486 45.3419H209.514L210.97 39.7139H212.076L210.088 46.7139H208.968L207.512 41.1979H207.484L206.028 46.7139H204.908L202.92 39.7139H204.054L205.51 45.3419H205.538ZM214.848 45.9859C215.371 45.9859 215.791 45.8179 216.108 45.4819C216.425 45.1459 216.584 44.6839 216.584 44.0959V43.5079C216.463 43.4985 216.346 43.4939 216.234 43.4939C216.122 43.4845 216.019 43.4799 215.926 43.4799C215.123 43.4799 214.526 43.5965 214.134 43.8299C213.742 44.0539 213.546 44.3945 213.546 44.8519C213.546 45.2065 213.663 45.4865 213.896 45.6919C214.129 45.8879 214.447 45.9859 214.848 45.9859ZM215.268 39.5459C216.043 39.5459 216.635 39.7325 217.046 40.1059C217.457 40.4699 217.662 41.0019 217.662 41.7019V45.3419C217.662 45.5472 217.704 45.7012 217.788 45.8039C217.872 45.9065 218.003 45.9579 218.18 45.9579C218.255 45.9579 218.334 45.9439 218.418 45.9159C218.502 45.8879 218.567 45.8505 218.614 45.8039L218.684 46.6579C218.6 46.7139 218.483 46.7605 218.334 46.7979C218.194 46.8352 218.054 46.8539 217.914 46.8539C217.653 46.8539 217.424 46.8025 217.228 46.6999C217.041 46.5879 216.897 46.4292 216.794 46.2239C216.757 46.1492 216.719 46.0699 216.682 45.9859C216.654 45.8925 216.631 45.7899 216.612 45.6779C216.481 46.0419 216.229 46.3312 215.856 46.5459C215.483 46.7605 215.058 46.8679 214.582 46.8679C213.929 46.8679 213.401 46.6905 213 46.3359C212.608 45.9719 212.412 45.4912 212.412 44.8939C212.412 44.1659 212.711 43.6059 213.308 43.2139C213.915 42.8219 214.787 42.6259 215.926 42.6259C215.982 42.6259 216.052 42.6305 216.136 42.6399C216.229 42.6399 216.379 42.6445 216.584 42.6539V41.8279C216.584 41.3985 216.463 41.0672 216.22 40.8339C215.987 40.6005 215.646 40.4839 215.198 40.4839C214.769 40.4839 214.437 40.5912 214.204 40.8059C213.971 41.0205 213.845 41.3332 213.826 41.7439L212.706 41.5479C212.781 40.9319 213.047 40.4465 213.504 40.0919C213.971 39.7279 214.559 39.5459 215.268 39.5459ZM221.631 46.8819C220.885 46.8819 220.259 46.7092 219.755 46.3639C219.261 46.0185 218.962 45.5472 218.859 44.9499L219.909 44.6559C219.965 45.0479 220.152 45.3699 220.469 45.6219C220.796 45.8739 221.183 45.9999 221.631 45.9999C222.117 45.9999 222.49 45.9065 222.751 45.7199C223.022 45.5239 223.157 45.2485 223.157 44.8939C223.157 44.5952 223.05 44.3572 222.835 44.1799C222.63 44.0025 222.173 43.8345 221.463 43.6759C220.997 43.5732 220.651 43.4799 220.427 43.3959C220.213 43.3119 220.026 43.2185 219.867 43.1159C219.634 42.9479 219.457 42.7425 219.335 42.4999C219.223 42.2572 219.167 41.9725 219.167 41.6459C219.167 41.0112 219.391 40.5025 219.839 40.1199C220.297 39.7372 220.889 39.5459 221.617 39.5459C222.383 39.5459 222.975 39.7139 223.395 40.0499C223.825 40.3765 224.077 40.8572 224.151 41.4919L223.073 41.6459C223.036 41.2539 222.891 40.9552 222.639 40.7499C222.397 40.5352 222.056 40.4279 221.617 40.4279C221.188 40.4279 220.852 40.5305 220.609 40.7359C220.367 40.9319 220.245 41.2072 220.245 41.5619C220.245 41.8512 220.348 42.0845 220.553 42.2619C220.759 42.4299 221.211 42.5885 221.911 42.7379C222.387 42.8405 222.737 42.9339 222.961 43.0179C223.185 43.0925 223.377 43.1859 223.535 43.2979C223.769 43.4659 223.941 43.6759 224.053 43.9279C224.175 44.1705 224.235 44.4645 224.235 44.8099C224.235 45.4445 223.997 45.9485 223.521 46.3219C223.045 46.6952 222.415 46.8819 221.631 46.8819ZM230.308 46.8819C229.561 46.8819 228.936 46.7092 228.432 46.3639C227.937 46.0185 227.638 45.5472 227.536 44.9499L228.586 44.6559C228.642 45.0479 228.828 45.3699 229.146 45.6219C229.472 45.8739 229.86 45.9999 230.308 45.9999C230.793 45.9999 231.166 45.9065 231.428 45.7199C231.698 45.5239 231.834 45.2485 231.834 44.8939C231.834 44.5952 231.726 44.3572 231.512 44.1799C231.306 44.0025 230.849 43.8345 230.14 43.6759C229.673 43.5732 229.328 43.4799 229.104 43.3959C228.889 43.3119 228.702 43.2185 228.544 43.1159C228.31 42.9479 228.133 42.7425 228.012 42.4999C227.9 42.2572 227.844 41.9725 227.844 41.6459C227.844 41.0112 228.068 40.5025 228.516 40.1199C228.973 39.7372 229.566 39.5459 230.294 39.5459C231.059 39.5459 231.652 39.7139 232.072 40.0499C232.501 40.3765 232.753 40.8572 232.828 41.4919L231.75 41.6459C231.712 41.2539 231.568 40.9552 231.316 40.7499C231.073 40.5352 230.732 40.4279 230.294 40.4279C229.864 40.4279 229.528 40.5305 229.286 40.7359C229.043 40.9319 228.922 41.2072 228.922 41.5619C228.922 41.8512 229.024 42.0845 229.23 42.2619C229.435 42.4299 229.888 42.5885 230.588 42.7379C231.064 42.8405 231.414 42.9339 231.638 43.0179C231.862 43.0925 232.053 43.1859 232.212 43.2979C232.445 43.4659 232.618 43.6759 232.73 43.9279C232.851 44.1705 232.912 44.4645 232.912 44.8099C232.912 45.4445 232.674 45.9485 232.198 46.3219C231.722 46.6952 231.092 46.8819 230.308 46.8819ZM239.46 46.7139H238.55L238.41 45.3839C238.251 45.8692 237.98 46.2425 237.598 46.5039C237.215 46.7559 236.748 46.8819 236.198 46.8819C235.554 46.8819 235.031 46.6812 234.63 46.2799C234.238 45.8785 234.042 45.3325 234.042 44.6419V39.7139H235.19V44.5159C235.19 44.9639 235.306 45.3185 235.54 45.5799C235.773 45.8319 236.1 45.9579 236.52 45.9579C237.07 45.9579 237.504 45.7665 237.822 45.3839C238.139 45.0012 238.298 44.4645 238.298 43.7739V39.7139H239.46V46.7139ZM243.836 46.8819C242.875 46.8819 242.114 46.5552 241.554 45.9019C240.994 45.2485 240.714 44.3525 240.714 43.2139C240.714 42.0845 240.994 41.1932 241.554 40.5399C242.114 39.8772 242.875 39.5459 243.836 39.5459C244.536 39.5459 245.12 39.7419 245.586 40.1339C246.053 40.5259 246.324 41.0439 246.398 41.6879L245.348 41.8839C245.311 41.4639 245.152 41.1232 244.872 40.8619C244.602 40.5912 244.256 40.4559 243.836 40.4559C243.22 40.4559 242.74 40.6985 242.394 41.1839C242.049 41.6692 241.876 42.3459 241.876 43.2139C241.876 44.0819 242.049 44.7585 242.394 45.2439C242.74 45.7292 243.22 45.9719 243.836 45.9719C244.266 45.9719 244.616 45.8412 244.886 45.5799C245.157 45.3092 245.311 44.9545 245.348 44.5159L246.398 44.7119C246.296 45.3932 246.02 45.9252 245.572 46.3079C245.124 46.6905 244.546 46.8819 243.836 46.8819ZM250.15 46.8819C249.189 46.8819 248.428 46.5552 247.868 45.9019C247.308 45.2485 247.028 44.3525 247.028 43.2139C247.028 42.0845 247.308 41.1932 247.868 40.5399C248.428 39.8772 249.189 39.5459 250.15 39.5459C250.85 39.5459 251.433 39.7419 251.9 40.1339C252.367 40.5259 252.637 41.0439 252.712 41.6879L251.662 41.8839C251.625 41.4639 251.466 41.1232 251.186 40.8619C250.915 40.5912 250.57 40.4559 250.15 40.4559C249.534 40.4559 249.053 40.6985 248.708 41.1839C248.363 41.6692 248.19 42.3459 248.19 43.2139C248.19 44.0819 248.363 44.7585 248.708 45.2439C249.053 45.7292 249.534 45.9719 250.15 45.9719C250.579 45.9719 250.929 45.8412 251.2 45.5799C251.471 45.3092 251.625 44.9545 251.662 44.5159L252.712 44.7119C252.609 45.3932 252.334 45.9252 251.886 46.3079C251.438 46.6905 250.859 46.8819 250.15 46.8819ZM256.464 45.9719C256.902 45.9719 257.262 45.8645 257.542 45.6499C257.822 45.4352 258.013 45.1179 258.116 44.6979L259.11 44.9779C258.96 45.5939 258.657 46.0652 258.2 46.3919C257.742 46.7185 257.164 46.8819 256.464 46.8819C255.484 46.8819 254.718 46.5645 254.168 45.9299C253.617 45.2952 253.342 44.3992 253.342 43.2419C253.342 42.1125 253.622 41.2165 254.182 40.5539C254.751 39.8819 255.512 39.5459 256.464 39.5459C257.294 39.5459 257.952 39.8165 258.438 40.3579C258.932 40.8899 259.18 41.5992 259.18 42.4859C259.18 42.6632 259.166 42.8359 259.138 43.0039C259.11 43.1719 259.077 43.3119 259.04 43.4239H254.448C254.476 44.2359 254.662 44.8659 255.008 45.3139C255.362 45.7525 255.848 45.9719 256.464 45.9719ZM256.436 40.4279C255.885 40.4279 255.437 40.6145 255.092 40.9879C254.756 41.3612 254.55 41.8932 254.476 42.5839H258.032C258.041 42.5372 258.046 42.4905 258.046 42.4439C258.046 42.3879 258.046 42.3132 258.046 42.2199C258.046 41.6879 257.896 41.2585 257.598 40.9319C257.308 40.5959 256.921 40.4279 256.436 40.4279ZM262.491 46.8819C261.744 46.8819 261.119 46.7092 260.615 46.3639C260.12 46.0185 259.822 45.5472 259.719 44.9499L260.769 44.6559C260.825 45.0479 261.012 45.3699 261.329 45.6219C261.656 45.8739 262.043 45.9999 262.491 45.9999C262.976 45.9999 263.35 45.9065 263.611 45.7199C263.882 45.5239 264.017 45.2485 264.017 44.8939C264.017 44.5952 263.91 44.3572 263.695 44.1799C263.49 44.0025 263.032 43.8345 262.323 43.6759C261.856 43.5732 261.511 43.4799 261.287 43.3959C261.072 43.3119 260.886 43.2185 260.727 43.1159C260.494 42.9479 260.316 42.7425 260.195 42.4999C260.083 42.2572 260.027 41.9725 260.027 41.6459C260.027 41.0112 260.251 40.5025 260.699 40.1199C261.156 39.7372 261.749 39.5459 262.477 39.5459C263.242 39.5459 263.835 39.7139 264.255 40.0499C264.684 40.3765 264.936 40.8572 265.011 41.4919L263.933 41.6459C263.896 41.2539 263.751 40.9552 263.499 40.7499C263.256 40.5352 262.916 40.4279 262.477 40.4279C262.048 40.4279 261.712 40.5305 261.469 40.7359C261.226 40.9319 261.105 41.2072 261.105 41.5619C261.105 41.8512 261.208 42.0845 261.413 42.2619C261.618 42.4299 262.071 42.5885 262.771 42.7379C263.247 42.8405 263.597 42.9339 263.821 43.0179C264.045 43.0925 264.236 43.1859 264.395 43.2979C264.628 43.4659 264.801 43.6759 264.913 43.9279C265.034 44.1705 265.095 44.4645 265.095 44.8099C265.095 45.4445 264.857 45.9485 264.381 46.3219C263.905 46.6952 263.275 46.8819 262.491 46.8819ZM268.367 46.8819C267.621 46.8819 266.995 46.7092 266.491 46.3639C265.997 46.0185 265.698 45.5472 265.595 44.9499L266.645 44.6559C266.701 45.0479 266.888 45.3699 267.205 45.6219C267.532 45.8739 267.919 45.9999 268.367 45.9999C268.853 45.9999 269.226 45.9065 269.487 45.7199C269.758 45.5239 269.893 45.2485 269.893 44.8939C269.893 44.5952 269.786 44.3572 269.571 44.1799C269.366 44.0025 268.909 43.8345 268.199 43.6759C267.733 43.5732 267.387 43.4799 267.163 43.3959C266.949 43.3119 266.762 43.2185 266.603 43.1159C266.37 42.9479 266.193 42.7425 266.071 42.4999C265.959 42.2572 265.903 41.9725 265.903 41.6459C265.903 41.0112 266.127 40.5025 266.575 40.1199C267.033 39.7372 267.625 39.5459 268.353 39.5459C269.119 39.5459 269.711 39.7139 270.131 40.0499C270.561 40.3765 270.813 40.8572 270.887 41.4919L269.809 41.6459C269.772 41.2539 269.627 40.9552 269.375 40.7499C269.133 40.5352 268.792 40.4279 268.353 40.4279C267.924 40.4279 267.588 40.5305 267.345 40.7359C267.103 40.9319 266.981 41.2072 266.981 41.5619C266.981 41.8512 267.084 42.0845 267.289 42.2619C267.495 42.4299 267.947 42.5885 268.647 42.7379C269.123 42.8405 269.473 42.9339 269.697 43.0179C269.921 43.0925 270.113 43.1859 270.271 43.2979C270.505 43.4659 270.677 43.6759 270.789 43.9279C270.911 44.1705 270.971 44.4645 270.971 44.8099C270.971 45.4445 270.733 45.9485 270.257 46.3219C269.781 46.6952 269.151 46.8819 268.367 46.8819ZM272.381 46.7139V40.5959H271.359V39.7139H272.381V38.9159C272.381 38.1785 272.601 37.5812 273.039 37.1239C273.478 36.6665 274.047 36.4379 274.747 36.4379C274.971 36.4379 275.186 36.4659 275.391 36.5219C275.606 36.5685 275.821 36.6479 276.035 36.7599L275.769 37.7259C275.611 37.6045 275.457 37.5205 275.307 37.4739C275.158 37.4179 274.981 37.3899 274.775 37.3899C274.374 37.3899 274.066 37.5252 273.851 37.7959C273.637 38.0665 273.529 38.4492 273.529 38.9439V39.7139H275.321V40.5959H273.529V46.7139H272.381ZM281.359 46.7139H280.449L280.309 45.3839C280.15 45.8692 279.879 46.2425 279.497 46.5039C279.114 46.7559 278.647 46.8819 278.097 46.8819C277.453 46.8819 276.93 46.6812 276.529 46.2799C276.137 45.8785 275.941 45.3325 275.941 44.6419V39.7139H277.089V44.5159C277.089 44.9639 277.205 45.3185 277.439 45.5799C277.672 45.8319 277.999 45.9579 278.419 45.9579C278.969 45.9579 279.403 45.7665 279.721 45.3839C280.038 45.0012 280.197 44.4645 280.197 43.7739V39.7139H281.359V46.7139ZM284.783 45.9159C284.895 45.9159 285.002 45.9019 285.105 45.8739C285.217 45.8365 285.32 45.7852 285.413 45.7199L285.539 46.6019C285.408 46.6765 285.245 46.7372 285.049 46.7839C284.853 46.8305 284.662 46.8539 284.475 46.8539C283.99 46.8539 283.621 46.7325 283.369 46.4899C283.126 46.2379 283.005 45.8739 283.005 45.3979V36.6059H284.153V45.2719C284.153 45.4959 284.204 45.6592 284.307 45.7619C284.41 45.8645 284.568 45.9159 284.783 45.9159ZM291.167 45.9859C291.69 45.9859 292.11 45.8179 292.427 45.4819C292.744 45.1459 292.903 44.6839 292.903 44.0959V43.5079C292.782 43.4985 292.665 43.4939 292.553 43.4939C292.441 43.4845 292.338 43.4799 292.245 43.4799C291.442 43.4799 290.845 43.5965 290.453 43.8299C290.061 44.0539 289.865 44.3945 289.865 44.8519C289.865 45.2065 289.982 45.4865 290.215 45.6919C290.448 45.8879 290.766 45.9859 291.167 45.9859ZM291.587 39.5459C292.362 39.5459 292.954 39.7325 293.365 40.1059C293.776 40.4699 293.981 41.0019 293.981 41.7019V45.3419C293.981 45.5472 294.023 45.7012 294.107 45.8039C294.191 45.9065 294.322 45.9579 294.499 45.9579C294.574 45.9579 294.653 45.9439 294.737 45.9159C294.821 45.8879 294.886 45.8505 294.933 45.8039L295.003 46.6579C294.919 46.7139 294.802 46.7605 294.653 46.7979C294.513 46.8352 294.373 46.8539 294.233 46.8539C293.972 46.8539 293.743 46.8025 293.547 46.6999C293.36 46.5879 293.216 46.4292 293.113 46.2239C293.076 46.1492 293.038 46.0699 293.001 45.9859C292.973 45.8925 292.95 45.7899 292.931 45.6779C292.8 46.0419 292.548 46.3312 292.175 46.5459C291.802 46.7605 291.377 46.8679 290.901 46.8679C290.248 46.8679 289.72 46.6905 289.319 46.3359C288.927 45.9719 288.731 45.4912 288.731 44.8939C288.731 44.1659 289.03 43.6059 289.627 43.2139C290.234 42.8219 291.106 42.6259 292.245 42.6259C292.301 42.6259 292.371 42.6305 292.455 42.6399C292.548 42.6399 292.698 42.6445 292.903 42.6539V41.8279C292.903 41.3985 292.782 41.0672 292.539 40.8339C292.306 40.6005 291.965 40.4839 291.517 40.4839C291.088 40.4839 290.756 40.5912 290.523 40.8059C290.29 41.0205 290.164 41.3332 290.145 41.7439L289.025 41.5479C289.1 40.9319 289.366 40.4465 289.823 40.0919C290.29 39.7279 290.878 39.5459 291.587 39.5459ZM295.878 39.7139H296.732L296.872 41.0719C297.068 40.5865 297.372 40.2132 297.782 39.9519C298.193 39.6812 298.674 39.5459 299.224 39.5459C299.878 39.5459 300.4 39.7512 300.792 40.1619C301.184 40.5632 301.38 41.1092 301.38 41.7999V46.7139H300.232V42.0379C300.232 41.5619 300.111 41.1979 299.868 40.9459C299.635 40.6845 299.299 40.5539 298.86 40.5539C298.282 40.5539 297.829 40.7359 297.502 41.0999C297.185 41.4639 297.026 41.9819 297.026 42.6539V46.7139H295.878V39.7139ZM305.713 45.9579C306.263 45.9579 306.711 45.7619 307.057 45.3699C307.402 44.9685 307.575 44.4225 307.575 43.7319V42.4299C307.575 41.8325 307.397 41.3565 307.043 41.0019C306.688 40.6379 306.249 40.4559 305.727 40.4559C305.101 40.4559 304.611 40.7032 304.257 41.1979C303.911 41.6925 303.739 42.3972 303.739 43.3119C303.739 44.1519 303.911 44.8052 304.257 45.2719C304.602 45.7292 305.087 45.9579 305.713 45.9579ZM308.723 46.7139H307.813L307.687 45.3839C307.528 45.8692 307.253 46.2425 306.861 46.5039C306.469 46.7559 305.993 46.8819 305.433 46.8819C304.583 46.8819 303.893 46.5645 303.361 45.9299C302.838 45.2859 302.577 44.4179 302.577 43.3259C302.577 42.1499 302.838 41.2259 303.361 40.5539C303.893 39.8819 304.621 39.5459 305.545 39.5459C306.03 39.5459 306.455 39.6485 306.819 39.8539C307.183 40.0592 307.435 40.3299 307.575 40.6659V36.6059H308.723V46.7139ZM61.816 66.7139V59.7139H62.726L62.88 61.5059C63.0107 60.9179 63.2813 60.4465 63.692 60.0919C64.1027 59.7279 64.574 59.5459 65.106 59.5459C65.1713 59.5459 65.2367 59.5505 65.302 59.5599C65.3767 59.5692 65.4467 59.5785 65.512 59.5879L65.442 60.7919C65.386 60.7825 65.3067 60.7732 65.204 60.7639C65.1013 60.7545 64.994 60.7499 64.882 60.7499C64.3033 60.7499 63.8367 60.9692 63.482 61.4079C63.1367 61.8465 62.964 62.4345 62.964 63.1719V66.7139H61.816ZM68.8473 65.9719C69.2859 65.9719 69.6453 65.8645 69.9253 65.6499C70.2053 65.4352 70.3966 65.1179 70.4993 64.6979L71.4933 64.9779C71.3439 65.5939 71.0406 66.0652 70.5833 66.3919C70.1259 66.7185 69.5473 66.8819 68.8473 66.8819C67.8673 66.8819 67.1019 66.5645 66.5513 65.9299C66.0006 65.2952 65.7253 64.3992 65.7253 63.2419C65.7253 62.1125 66.0053 61.2165 66.5653 60.5539C67.1346 59.8819 67.8953 59.5459 68.8473 59.5459C69.6779 59.5459 70.3359 59.8165 70.8213 60.3579C71.3159 60.8899 71.5633 61.5992 71.5633 62.4859C71.5633 62.6632 71.5493 62.8359 71.5213 63.0039C71.4933 63.1719 71.4606 63.3119 71.4233 63.4239H66.8313C66.8593 64.2359 67.0459 64.8659 67.3913 65.3139C67.7459 65.7525 68.2313 65.9719 68.8473 65.9719ZM68.8193 60.4279C68.2686 60.4279 67.8206 60.6145 67.4753 60.9879C67.1393 61.3612 66.9339 61.8932 66.8593 62.5839H70.4153C70.4246 62.5372 70.4293 62.4905 70.4293 62.4439C70.4293 62.3879 70.4293 62.3132 70.4293 62.2199C70.4293 61.6879 70.2799 61.2585 69.9813 60.9319C69.6919 60.5959 69.3046 60.4279 68.8193 60.4279ZM75.4891 66.8819C74.5277 66.8819 73.7671 66.5552 73.2071 65.9019C72.6471 65.2485 72.3671 64.3525 72.3671 63.2139C72.3671 62.0845 72.6471 61.1932 73.2071 60.5399C73.7671 59.8772 74.5277 59.5459 75.4891 59.5459C76.1891 59.5459 76.7724 59.7419 77.2391 60.1339C77.7057 60.5259 77.9764 61.0439 78.0511 61.6879L77.0011 61.8839C76.9637 61.4639 76.8051 61.1232 76.5251 60.8619C76.2544 60.5912 75.9091 60.4559 75.4891 60.4559C74.8731 60.4559 74.3924 60.6985 74.0471 61.1839C73.7017 61.6692 73.5291 62.3459 73.5291 63.2139C73.5291 64.0819 73.7017 64.7585 74.0471 65.2439C74.3924 65.7292 74.8731 65.9719 75.4891 65.9719C75.9184 65.9719 76.2684 65.8412 76.5391 65.5799C76.8097 65.3092 76.9637 64.9545 77.0011 64.5159L78.0511 64.7119C77.9484 65.3932 77.6731 65.9252 77.2251 66.3079C76.7771 66.6905 76.1984 66.8819 75.4891 66.8819ZM81.8027 65.9719C82.2414 65.9719 82.6007 65.8645 82.8807 65.6499C83.1607 65.4352 83.3521 65.1179 83.4547 64.6979L84.4487 64.9779C84.2994 65.5939 83.9961 66.0652 83.5387 66.3919C83.0814 66.7185 82.5027 66.8819 81.8027 66.8819C80.8227 66.8819 80.0574 66.5645 79.5067 65.9299C78.9561 65.2952 78.6807 64.3992 78.6807 63.2419C78.6807 62.1125 78.9607 61.2165 79.5207 60.5539C80.0901 59.8819 80.8507 59.5459 81.8027 59.5459C82.6334 59.5459 83.2914 59.8165 83.7767 60.3579C84.2714 60.8899 84.5187 61.5992 84.5187 62.4859C84.5187 62.6632 84.5047 62.8359 84.4767 63.0039C84.4487 63.1719 84.4161 63.3119 84.3787 63.4239H79.7867C79.8147 64.2359 80.0014 64.8659 80.3467 65.3139C80.7014 65.7525 81.1867 65.9719 81.8027 65.9719ZM81.7747 60.4279C81.2241 60.4279 80.7761 60.6145 80.4307 60.9879C80.0947 61.3612 79.8894 61.8932 79.8147 62.5839H83.3707C83.3801 62.5372 83.3847 62.4905 83.3847 62.4439C83.3847 62.3879 83.3847 62.3132 83.3847 62.2199C83.3847 61.6879 83.2354 61.2585 82.9367 60.9319C82.6474 60.5959 82.2601 60.4279 81.7747 60.4279ZM86.3322 56.7459C86.5655 56.7459 86.7615 56.8252 86.9202 56.9839C87.0788 57.1425 87.1582 57.3432 87.1582 57.5859C87.1582 57.8285 87.0788 58.0292 86.9202 58.1879C86.7615 58.3465 86.5655 58.4259 86.3322 58.4259C86.0988 58.4259 85.9028 58.3465 85.7442 58.1879C85.5855 58.0292 85.5062 57.8285 85.5062 57.5859C85.5062 57.3432 85.5855 57.1425 85.7442 56.9839C85.9028 56.8252 86.0988 56.7459 86.3322 56.7459ZM85.7582 66.7139V59.7139H86.9062V66.7139H85.7582ZM91.6355 60.4699C91.1035 60.4699 90.6649 60.6752 90.3195 61.0859C89.9835 61.4872 89.8155 62.0332 89.8155 62.7239V63.9699C89.8155 64.5859 89.9835 65.0759 90.3195 65.4399C90.6649 65.7945 91.1035 65.9719 91.6355 65.9719C92.2609 65.9719 92.7509 65.7292 93.1055 65.2439C93.4695 64.7585 93.6515 64.0819 93.6515 63.2139C93.6515 62.3179 93.4789 61.6365 93.1335 61.1699C92.7882 60.7032 92.2889 60.4699 91.6355 60.4699ZM88.6675 59.7139H89.5215L89.6615 61.0579C89.7922 60.6285 90.0629 60.2692 90.4735 59.9799C90.8935 59.6905 91.3602 59.5459 91.8735 59.5459C92.7975 59.5459 93.5162 59.8725 94.0295 60.5259C94.5522 61.1792 94.8135 62.0752 94.8135 63.2139C94.8135 64.2965 94.5382 65.1785 93.9875 65.8599C93.4369 66.5412 92.7089 66.8819 91.8035 66.8819C91.3369 66.8819 90.9215 66.7839 90.5575 66.5879C90.2029 66.3825 89.9555 66.1119 89.8155 65.7759V69.4859H88.6675V59.7139ZM98.385 65.9159C98.5996 65.9159 98.791 65.8925 98.959 65.8459C99.127 65.7899 99.3183 65.6919 99.533 65.5519L99.743 66.4619C99.5376 66.5925 99.3043 66.6952 99.043 66.7699C98.791 66.8445 98.5436 66.8819 98.301 66.8819C97.629 66.8819 97.111 66.7185 96.747 66.3919C96.3923 66.0559 96.215 65.5752 96.215 64.9499V60.5959H95.207V59.7139H96.215V58.2299L97.363 58.0479V59.7139H99.463V60.5959H97.363V64.8379C97.363 65.1925 97.447 65.4632 97.615 65.6499C97.7923 65.8272 98.049 65.9159 98.385 65.9159ZM105.606 66.8819C104.86 66.8819 104.234 66.7092 103.73 66.3639C103.236 66.0185 102.937 65.5472 102.834 64.9499L103.884 64.6559C103.94 65.0479 104.127 65.3699 104.444 65.6219C104.771 65.8739 105.158 65.9999 105.606 65.9999C106.092 65.9999 106.465 65.9065 106.726 65.7199C106.997 65.5239 107.132 65.2485 107.132 64.8939C107.132 64.5952 107.025 64.3572 106.81 64.1799C106.605 64.0025 106.148 63.8345 105.438 63.6759C104.972 63.5732 104.626 63.4799 104.402 63.3959C104.188 63.3119 104.001 63.2185 103.842 63.1159C103.609 62.9479 103.432 62.7425 103.31 62.4999C103.198 62.2572 103.142 61.9725 103.142 61.6459C103.142 61.0112 103.366 60.5025 103.814 60.1199C104.272 59.7372 104.864 59.5459 105.592 59.5459C106.358 59.5459 106.95 59.7139 107.37 60.0499C107.8 60.3765 108.052 60.8572 108.126 61.4919L107.048 61.6459C107.011 61.2539 106.866 60.9552 106.614 60.7499C106.372 60.5352 106.031 60.4279 105.592 60.4279C105.163 60.4279 104.827 60.5305 104.584 60.7359C104.342 60.9319 104.22 61.2072 104.22 61.5619C104.22 61.8512 104.323 62.0845 104.528 62.2619C104.734 62.4299 105.186 62.5885 105.886 62.7379C106.362 62.8405 106.712 62.9339 106.936 63.0179C107.16 63.0925 107.352 63.1859 107.51 63.2979C107.744 63.4659 107.916 63.6759 108.028 63.9279C108.15 64.1705 108.21 64.4645 108.21 64.8099C108.21 65.4445 107.972 65.9485 107.496 66.3219C107.02 66.6952 106.39 66.8819 105.606 66.8819ZM112.029 65.9719C112.467 65.9719 112.827 65.8645 113.107 65.6499C113.387 65.4352 113.578 65.1179 113.681 64.6979L114.675 64.9779C114.525 65.5939 114.222 66.0652 113.765 66.3919C113.307 66.7185 112.729 66.8819 112.029 66.8819C111.049 66.8819 110.283 66.5645 109.733 65.9299C109.182 65.2952 108.907 64.3992 108.907 63.2419C108.907 62.1125 109.187 61.2165 109.747 60.5539C110.316 59.8819 111.077 59.5459 112.029 59.5459C112.859 59.5459 113.517 59.8165 114.003 60.3579C114.497 60.8899 114.745 61.5992 114.745 62.4859C114.745 62.6632 114.731 62.8359 114.703 63.0039C114.675 63.1719 114.642 63.3119 114.605 63.4239H110.013C110.041 64.2359 110.227 64.8659 110.573 65.3139C110.927 65.7525 111.413 65.9719 112.029 65.9719ZM112.001 60.4279C111.45 60.4279 111.002 60.6145 110.657 60.9879C110.321 61.3612 110.115 61.8932 110.041 62.5839H113.597C113.606 62.5372 113.611 62.4905 113.611 62.4439C113.611 62.3879 113.611 62.3132 113.611 62.2199C113.611 61.6879 113.461 61.2585 113.163 60.9319C112.873 60.5959 112.486 60.4279 112.001 60.4279ZM115.984 59.7139H116.838L116.978 61.0719C117.174 60.5865 117.477 60.2132 117.888 59.9519C118.299 59.6812 118.779 59.5459 119.33 59.5459C119.983 59.5459 120.506 59.7512 120.898 60.1619C121.29 60.5632 121.486 61.1092 121.486 61.7999V66.7139H120.338V62.0379C120.338 61.5619 120.217 61.1979 119.974 60.9459C119.741 60.6845 119.405 60.5539 118.966 60.5539C118.387 60.5539 117.935 60.7359 117.608 61.0999C117.291 61.4639 117.132 61.9819 117.132 62.6539V66.7139H115.984V59.7139ZM125.496 65.9159C125.711 65.9159 125.902 65.8925 126.07 65.8459C126.238 65.7899 126.43 65.6919 126.644 65.5519L126.854 66.4619C126.649 66.5925 126.416 66.6952 126.154 66.7699C125.902 66.8445 125.655 66.8819 125.412 66.8819C124.74 66.8819 124.222 66.7185 123.858 66.3919C123.504 66.0559 123.326 65.5752 123.326 64.9499V60.5959H122.318V59.7139H123.326V58.2299L124.474 58.0479V59.7139H126.574V60.5959H124.474V64.8379C124.474 65.1925 124.558 65.4632 124.726 65.6499C124.904 65.8272 125.16 65.9159 125.496 65.9159ZM132.956 65.9159C133.17 65.9159 133.362 65.8925 133.53 65.8459C133.698 65.7899 133.889 65.6919 134.104 65.5519L134.314 66.4619C134.108 66.5925 133.875 66.6952 133.614 66.7699C133.362 66.8445 133.114 66.8819 132.872 66.8819C132.2 66.8819 131.682 66.7185 131.318 66.3919C130.963 66.0559 130.786 65.5752 130.786 64.9499V60.5959H129.778V59.7139H130.786V58.2299L131.934 58.0479V59.7139H134.034V60.5959H131.934V64.8379C131.934 65.1925 132.018 65.4632 132.186 65.6499C132.363 65.8272 132.62 65.9159 132.956 65.9159ZM137.937 59.5459C138.898 59.5459 139.659 59.8725 140.219 60.5259C140.788 61.1792 141.073 62.0752 141.073 63.2139C141.073 64.3525 140.788 65.2485 140.219 65.9019C139.659 66.5552 138.898 66.8819 137.937 66.8819C136.976 66.8819 136.21 66.5552 135.641 65.9019C135.081 65.2485 134.801 64.3525 134.801 63.2139C134.801 62.0752 135.081 61.1792 135.641 60.5259C136.21 59.8725 136.976 59.5459 137.937 59.5459ZM137.937 65.9859C138.581 65.9859 139.071 65.7525 139.407 65.2859C139.743 64.8099 139.911 64.1192 139.911 63.2139C139.911 62.3085 139.743 61.6225 139.407 61.1559C139.071 60.6799 138.581 60.4419 137.937 60.4419C137.293 60.4419 136.803 60.6799 136.467 61.1559C136.131 61.6225 135.963 62.3085 135.963 63.2139C135.963 64.1192 136.131 64.8099 136.467 65.2859C136.803 65.7525 137.293 65.9859 137.937 65.9859ZM147.426 65.6219H147.454L149.428 59.7139H150.576L147.916 67.0919C147.58 68.0159 147.225 68.6739 146.852 69.0659C146.478 69.4579 146.007 69.6539 145.438 69.6539C145.27 69.6539 145.102 69.6305 144.934 69.5839C144.766 69.5372 144.607 69.4719 144.458 69.3879L144.626 68.4359C144.812 68.5479 144.957 68.6179 145.06 68.6459C145.172 68.6832 145.288 68.7019 145.41 68.7019C145.755 68.7019 146.026 68.5899 146.222 68.3659C146.418 68.1419 146.637 67.6892 146.88 67.0079L144.276 59.7139H145.494L147.426 65.6219ZM153.98 59.5459C154.941 59.5459 155.702 59.8725 156.262 60.5259C156.831 61.1792 157.116 62.0752 157.116 63.2139C157.116 64.3525 156.831 65.2485 156.262 65.9019C155.702 66.5552 154.941 66.8819 153.98 66.8819C153.018 66.8819 152.253 66.5552 151.684 65.9019C151.124 65.2485 150.844 64.3525 150.844 63.2139C150.844 62.0752 151.124 61.1792 151.684 60.5259C152.253 59.8725 153.018 59.5459 153.98 59.5459ZM153.98 65.9859C154.624 65.9859 155.114 65.7525 155.45 65.2859C155.786 64.8099 155.954 64.1192 155.954 63.2139C155.954 62.3085 155.786 61.6225 155.45 61.1559C155.114 60.6799 154.624 60.4419 153.98 60.4419C153.336 60.4419 152.846 60.6799 152.51 61.1559C152.174 61.6225 152.006 62.3085 152.006 63.2139C152.006 64.1192 152.174 64.8099 152.51 65.2859C152.846 65.7525 153.336 65.9859 153.98 65.9859ZM163.72 66.7139H162.81L162.67 65.3839C162.512 65.8692 162.241 66.2425 161.858 66.5039C161.476 66.7559 161.009 66.8819 160.458 66.8819C159.814 66.8819 159.292 66.6812 158.89 66.2799C158.498 65.8785 158.302 65.3325 158.302 64.6419V59.7139H159.45V64.5159C159.45 64.9639 159.567 65.3185 159.8 65.5799C160.034 65.8319 160.36 65.9579 160.78 65.9579C161.331 65.9579 161.765 65.7665 162.082 65.3839C162.4 65.0012 162.558 64.4645 162.558 63.7739V59.7139H163.72V66.7139ZM165.479 66.7139V59.7139H166.389L166.543 61.5059C166.674 60.9179 166.944 60.4465 167.355 60.0919C167.766 59.7279 168.237 59.5459 168.769 59.5459C168.834 59.5459 168.9 59.5505 168.965 59.5599C169.04 59.5692 169.11 59.5785 169.175 59.5879L169.105 60.7919C169.049 60.7825 168.97 60.7732 168.867 60.7639C168.764 60.7545 168.657 60.7499 168.545 60.7499C167.966 60.7499 167.5 60.9692 167.145 61.4079C166.8 61.8465 166.627 62.4345 166.627 63.1719V66.7139H165.479ZM175.447 65.9719C175.886 65.9719 176.245 65.8645 176.525 65.6499C176.805 65.4352 176.996 65.1179 177.099 64.6979L178.093 64.9779C177.944 65.5939 177.64 66.0652 177.183 66.3919C176.726 66.7185 176.147 66.8819 175.447 66.8819C174.467 66.8819 173.702 66.5645 173.151 65.9299C172.6 65.2952 172.325 64.3992 172.325 63.2419C172.325 62.1125 172.605 61.2165 173.165 60.5539C173.734 59.8819 174.495 59.5459 175.447 59.5459C176.278 59.5459 176.936 59.8165 177.421 60.3579C177.916 60.8899 178.163 61.5992 178.163 62.4859C178.163 62.6632 178.149 62.8359 178.121 63.0039C178.093 63.1719 178.06 63.3119 178.023 63.4239H173.431C173.459 64.2359 173.646 64.8659 173.991 65.3139C174.346 65.7525 174.831 65.9719 175.447 65.9719ZM175.419 60.4279C174.868 60.4279 174.42 60.6145 174.075 60.9879C173.739 61.3612 173.534 61.8932 173.459 62.5839H177.015C177.024 62.5372 177.029 62.4905 177.029 62.4439C177.029 62.3879 177.029 62.3132 177.029 62.2199C177.029 61.6879 176.88 61.2585 176.581 60.9319C176.292 60.5959 175.904 60.4279 175.419 60.4279ZM182.566 59.5459C183.061 59.5459 183.486 59.6765 183.84 59.9379C184.195 60.1899 184.438 60.5492 184.568 61.0159C184.774 60.5492 185.063 60.1899 185.436 59.9379C185.81 59.6765 186.244 59.5459 186.738 59.5459C187.401 59.5459 187.924 59.7419 188.306 60.1339C188.698 60.5165 188.894 61.0485 188.894 61.7299V66.7139H187.746V62.0239C187.746 61.5292 187.634 61.1605 187.41 60.9179C187.186 60.6752 186.846 60.5539 186.388 60.5539C185.875 60.5539 185.469 60.7359 185.17 61.0999C184.872 61.4639 184.722 61.9772 184.722 62.6399V66.7139H183.574V62.0239C183.574 61.5385 183.458 61.1745 183.224 60.9319C183 60.6799 182.664 60.5539 182.216 60.5539C181.703 60.5539 181.297 60.7405 180.998 61.1139C180.7 61.4779 180.55 61.9912 180.55 62.6539V66.7139H179.402V59.7139H180.256L180.396 61.0719C180.564 60.5959 180.84 60.2225 181.222 59.9519C181.605 59.6812 182.053 59.5459 182.566 59.5459ZM192.445 65.9859C192.968 65.9859 193.388 65.8179 193.705 65.4819C194.022 65.1459 194.181 64.6839 194.181 64.0959V63.5079C194.06 63.4985 193.943 63.4939 193.831 63.4939C193.719 63.4845 193.616 63.4799 193.523 63.4799C192.72 63.4799 192.123 63.5965 191.731 63.8299C191.339 64.0539 191.143 64.3945 191.143 64.8519C191.143 65.2065 191.26 65.4865 191.493 65.6919C191.726 65.8879 192.044 65.9859 192.445 65.9859ZM192.865 59.5459C193.64 59.5459 194.232 59.7325 194.643 60.1059C195.054 60.4699 195.259 61.0019 195.259 61.7019V65.3419C195.259 65.5472 195.301 65.7012 195.385 65.8039C195.469 65.9065 195.6 65.9579 195.777 65.9579C195.852 65.9579 195.931 65.9439 196.015 65.9159C196.099 65.8879 196.164 65.8505 196.211 65.8039L196.281 66.6579C196.197 66.7139 196.08 66.7605 195.931 66.7979C195.791 66.8352 195.651 66.8539 195.511 66.8539C195.25 66.8539 195.021 66.8025 194.825 66.6999C194.638 66.5879 194.494 66.4292 194.391 66.2239C194.354 66.1492 194.316 66.0699 194.279 65.9859C194.251 65.8925 194.228 65.7899 194.209 65.6779C194.078 66.0419 193.826 66.3312 193.453 66.5459C193.08 66.7605 192.655 66.8679 192.179 66.8679C191.526 66.8679 190.998 66.6905 190.597 66.3359C190.205 65.9719 190.009 65.4912 190.009 64.8939C190.009 64.1659 190.308 63.6059 190.905 63.2139C191.512 62.8219 192.384 62.6259 193.523 62.6259C193.579 62.6259 193.649 62.6305 193.733 62.6399C193.826 62.6399 193.976 62.6445 194.181 62.6539V61.8279C194.181 61.3985 194.06 61.0672 193.817 60.8339C193.584 60.6005 193.243 60.4839 192.795 60.4839C192.366 60.4839 192.034 60.5912 191.801 60.8059C191.568 61.0205 191.442 61.3332 191.423 61.7439L190.303 61.5479C190.378 60.9319 190.644 60.4465 191.101 60.0919C191.568 59.7279 192.156 59.5459 192.865 59.5459ZM197.731 56.7459C197.964 56.7459 198.16 56.8252 198.319 56.9839C198.477 57.1425 198.557 57.3432 198.557 57.5859C198.557 57.8285 198.477 58.0292 198.319 58.1879C198.16 58.3465 197.964 58.4259 197.731 58.4259C197.497 58.4259 197.301 58.3465 197.143 58.1879C196.984 58.0292 196.905 57.8285 196.905 57.5859C196.905 57.3432 196.984 57.1425 197.143 56.9839C197.301 56.8252 197.497 56.7459 197.731 56.7459ZM197.157 66.7139V59.7139H198.305V66.7139H197.157ZM201.732 65.9159C201.844 65.9159 201.951 65.9019 202.054 65.8739C202.166 65.8365 202.269 65.7852 202.362 65.7199L202.488 66.6019C202.357 66.6765 202.194 66.7372 201.998 66.7839C201.802 66.8305 201.611 66.8539 201.424 66.8539C200.939 66.8539 200.57 66.7325 200.318 66.4899C200.075 66.2379 199.954 65.8739 199.954 65.3979V56.6059H201.102V65.2719C201.102 65.4959 201.153 65.6592 201.256 65.7619C201.359 65.8645 201.517 65.9159 201.732 65.9159Z" fill="black"/>
<defs>
<linearGradient id="paint0_linear_29772_59960" x1="346.5" y1="95.084" x2="6.1088e-06" y2="0.0839878" gradientUnits="userSpaceOnUse">
<stop stop-color="white" stop-opacity="0.24"/>
<stop offset="1" stop-color="white" stop-opacity="0.23"/>
</linearGradient>
</defs>
</svg>
