<svg width="27" height="26" viewBox="0 0 27 26" fill="none" xmlns="http://www.w3.org/2000/svg">
<g clip-path="url(#clip0_4255_20194)">
<path d="M2 1.86328H25V24.8633H2V1.86328Z" fill="white"/>
<path d="M2 1.86328H25V8.76328H2V1.86328Z" fill="black"/>
<path d="M2 17.9648H25V24.8648H2V17.9648Z" fill="#006600"/>
<path d="M10.4141 20.1906L10.6081 20.3344L15.643 8.69063C15.9341 8.60438 16.0958 8.23063 16.2575 7.85688C16.3653 7.59813 16.7966 6.60625 16.9798 5.3125C16.4684 5.91854 16.0349 6.6324 15.6969 7.42563C15.5352 7.79938 15.3734 8.17312 15.4489 8.56125L10.4141 20.1906Z" fill="black"/>
<path fill-rule="evenodd" clip-rule="evenodd" d="M17.062 5.12109L17.0327 5.32809C16.8553 6.58025 16.448 7.55171 16.3195 7.85813C16.314 7.87134 16.309 7.88332 16.3045 7.89403L16.3043 7.89454L16.3026 7.89836C16.2228 8.08288 16.1398 8.27457 16.0395 8.43059C15.9429 8.58094 15.8273 8.70287 15.678 8.75543L10.6282 20.4338L10.3398 20.2202L15.3913 8.55242C15.3575 8.35003 15.3821 8.15386 15.4331 7.96584C15.486 7.77119 15.5688 7.57974 15.6487 7.39505L15.6499 7.39237C15.6499 7.3923 15.6499 7.39223 15.65 7.39216C15.9909 6.59218 16.428 5.87223 16.9439 5.26103L17.062 5.12109ZM16.8935 5.51698C16.4393 6.08477 16.0515 6.74087 15.7436 7.46339L15.7434 7.4638C15.662 7.6519 15.5838 7.83315 15.5345 8.01476C15.4856 8.19508 15.4668 8.37005 15.501 8.54547L15.5065 8.57395L10.488 20.1655L10.5878 20.2394L15.608 8.62958L15.6311 8.62272C15.7615 8.58408 15.8653 8.48078 15.9577 8.33704C16.0508 8.19225 16.1291 8.01176 16.2104 7.82373C16.2148 7.81325 16.2197 7.80159 16.2251 7.78878C16.345 7.50263 16.7062 6.64105 16.8935 5.51698Z" fill="black"/>
<path d="M10.4141 20.1906L10.6081 20.3344L15.643 8.69063C15.9341 8.60438 16.0958 8.23063 16.2575 7.85688C16.3653 7.59813 16.7966 6.60625 16.9798 5.3125C16.4684 5.91854 16.0349 6.6324 15.6969 7.42563C15.5352 7.79938 15.3734 8.17312 15.4489 8.56125L10.4141 20.1906Z" fill="white"/>
<path d="M25.0173 9.91484H15.5478C15.2244 8.76484 14.1463 6.46484 13.4994 6.46484C12.8525 6.46484 11.7744 8.76484 11.4509 9.91484H1.99219V16.8148H11.4509C11.7744 17.9648 12.8525 20.2648 13.4994 20.2648C14.1463 20.2648 15.2244 17.9648 15.5478 16.8148H25.0173V9.91484Z" fill="#BB0000"/>
<path d="M15.5469 16.8141C15.8703 15.6641 16.0859 14.5141 16.0859 13.3641C16.0859 12.2141 15.8703 11.0641 15.5469 9.91406C15.2234 11.0641 15.0078 12.2141 15.0078 13.3641C15.0078 14.5141 15.2234 15.6641 15.5469 16.8141Z" fill="black"/>
<path d="M13.5016 14.225C13.7397 14.225 13.9328 13.8388 13.9328 13.3625C13.9328 12.8862 13.7397 12.5 13.5016 12.5C13.2634 12.5 13.0703 12.8862 13.0703 13.3625C13.0703 13.8388 13.2634 14.225 13.5016 14.225Z" fill="white"/>
<path d="M13.6094 14.1992C13.6094 14.1992 14.0406 15.3492 14.0406 17.218C14.0406 19.0867 13.6094 20.2367 13.6094 20.2367V14.1992Z" fill="white"/>
</g>
<rect x="1.48889" y="1.35217" width="24.0222" height="24.0222" rx="12.0111" stroke="white" stroke-width="1.02222"/>
<defs>
<clipPath id="clip0_4255_20194">
<rect x="2" y="1.86328" width="23" height="23" rx="11.5" fill="white"/>
</clipPath>
</defs>
</svg>
