<svg xmlns="http://www.w3.org/2000/svg" width="100%" viewBox="0 0 33 32" fill="none"><rect x="0.179688" width="32" height="32" rx="16" fill="#4F3FD7"></rect><path d="M22.9868 15.5571L17.0646 9.63493C16.9014 9.47624 16.6659 9.41669 16.4469 9.4787C16.2279 9.54071 16.0585 9.71486 16.0027 9.93555C15.9469 10.1562 16.0131 10.3899 16.1763 10.5486L21.0071 15.371H9.8142C9.46377 15.371 9.17969 15.655 9.17969 16.0055C9.17969 16.3559 9.46377 16.64 9.8142 16.64H20.9986L16.1763 21.4623C16.0554 21.5802 15.9872 21.7419 15.9872 21.9107C15.9872 22.0796 16.0554 22.2413 16.1763 22.3591C16.2929 22.4815 16.4557 22.549 16.6247 22.5452C16.7931 22.546 16.9547 22.4789 17.0731 22.3591L22.9952 16.4369C23.2427 16.1892 23.2427 15.7879 22.9952 15.5402L22.9868 15.5571Z" fill="white"></path></svg>