<svg xmlns="http://www.w3.org/2000/svg" width="100%" viewBox="0 0 32 35" fill="none"><path d="M31.313 10.5852C31.3298 11.4246 31.313 12.2892 31.2542 13.1874C30.759 21.5228 27.3006 31.9231 16.3127 34.1979L15.9685 34.2314L15.6244 34.1979C0.237875 31.0165 0.447728 16.1505 0.766811 12.3144C0.808721 11.8275 1.25353 11.475 1.74046 11.5589C1.74046 11.5589 2.67356 11.7018 3.39567 11.8194C3.8264 11.8895 4.1322 12.2795 4.09116 12.7139C3.78877 15.9152 3.53263 27.9077 15.7472 30.7892C15.8892 30.8227 16.0436 30.8226 16.1854 30.7881C21.881 29.4013 25.5553 25.2048 27.1243 18.291C27.9805 14.5304 27.9637 10.8958 27.863 8.89795C27.8462 8.56221 27.6281 8.26839 27.309 8.15926L25.1014 7.37021L22.4907 6.43847L16.2119 4.19725C16.0357 4.13008 15.8427 4.13008 15.6664 4.18885L1.85271 8.75195C1.30958 8.93136 0.750007 8.52689 0.750007 7.95489V6.1809C0.750007 5.81863 0.982402 5.49723 1.32644 5.38374L15.3075 0.771698L15.5824 0.730469L16.3882 0.747273L16.6685 0.798797L26.1003 4.16369L26.6794 4.37355C27.4517 4.71768 28.0645 5.36405 28.3079 6.18666C28.3162 6.21181 28.3246 6.23702 28.3246 6.25382C28.5681 7.07643 29.0802 7.78992 29.8272 8.21802C30.6918 8.7133 31.2459 9.60308 31.313 10.5852Z" fill="white"></path></svg>