<svg xmlns="http://www.w3.org/2000/svg" width="100%" viewBox="0 0 33 35" fill="none"><path d="M31.7195 7.13632C31.6629 6.33441 31.2667 5.60797 30.644 5.14569C30.6063 5.10796 30.578 5.08909 30.5402 5.06078C30.3138 4.90984 30.0686 4.77776 29.795 4.69285C29.6912 4.65511 29.5874 4.62681 29.4836 4.58907C29.2478 4.52303 29.0213 4.41926 28.8138 4.28718H28.8043C28.2477 3.94754 27.8326 3.39092 27.644 2.7494C27.644 2.73053 27.644 2.72109 27.644 2.71166C27.3043 1.53238 26.2194 0.730469 24.9929 0.730469H10.068C9.54908 0.730469 9.12454 1.15501 9.12454 1.67389V3.56074C9.12454 4.07962 9.54908 4.50416 10.068 4.50416H27.0496C27.1817 4.50416 27.3043 4.53247 27.4081 4.57964C27.5213 4.62681 27.6156 4.69285 27.7006 4.77776C27.7855 4.85323 27.8515 4.95701 27.8987 5.07022C27.9553 5.18343 27.9836 5.31551 27.9836 5.44759V14.9667C27.9836 18.5517 26.4175 21.9481 23.7004 24.2783L17.2757 29.7785C17.2757 29.7785 17.1908 29.8445 17.1342 29.8823C17.0399 29.9389 16.9361 29.9766 16.8229 29.9955C16.7191 30.0143 16.6153 30.0143 16.5021 29.9955C16.3889 29.9766 16.2851 29.9389 16.1908 29.8823C16.1342 29.8445 16.087 29.8162 16.0493 29.7785L9.63398 24.2783C6.90749 21.9481 5.35084 18.5517 5.35084 14.9667V1.67389C5.35084 1.15501 4.9263 0.730469 4.40742 0.730469H2.52057C2.00169 0.730469 1.57715 1.15501 1.57715 1.67389V14.9667C1.57715 19.6556 3.62437 24.0991 7.17164 27.1463H7.18107L15.304 34.1088C15.4549 34.1843 15.6153 34.2314 15.7851 34.2314H17.5399C17.7097 34.2314 17.8701 34.1843 18.021 34.1088L18.0493 34.0899C18.0493 34.0899 18.1248 34.0333 18.1625 34.005L26.1533 27.1463C29.71 24.0896 31.7573 19.6556 31.7573 14.9667V7.6269C31.7573 7.34387 31.729 7.13632 31.729 7.13632H31.7195Z" fill="white"></path><path d="M15.4352 20.6537L22.9826 13.1063C23.3506 12.7384 23.3506 12.144 22.9826 11.7761L21.6524 10.4459C21.2845 10.0779 20.6901 10.0779 20.3222 10.4459L15.4447 15.3234C15.0767 15.6913 14.4824 15.6913 14.1145 15.3234L13.0106 14.2196C12.6427 13.8516 12.0483 13.8516 11.6804 14.2196L10.3502 15.5498C9.98223 15.9177 9.98223 16.5121 10.3502 16.88L14.1239 20.6537C14.4918 21.0217 15.0862 21.0217 15.4541 20.6537H15.4352Z" fill="white"></path></svg>