<svg width="316" height="297" viewBox="0 0 316 297" fill="none" xmlns="http://www.w3.org/2000/svg">
<g clip-path="url(#clip0_8017_57213)">
<rect y="0.886719" width="316" height="296" rx="28.9806" fill="#4F3FD7"/>
<rect x="38" y="45" width="240" height="200.005" rx="14.3641" fill="white"/>
<g clip-path="url(#clip1_8017_57213)">
<path d="M54.8411 66.886V71.1521H54.2378V66.886H52.5931V66.3545H56.4858V66.886H54.8411ZM57.7317 67.4749C58.2249 67.4749 58.6151 67.6425 58.9024 67.9776C59.1945 68.3128 59.3405 68.7724 59.3405 69.3566C59.3405 69.9407 59.1945 70.4004 58.9024 70.7355C58.6151 71.0707 58.2249 71.2383 57.7317 71.2383C57.2386 71.2383 56.846 71.0707 56.5539 70.7355C56.2666 70.4004 56.123 69.9407 56.123 69.3566C56.123 68.7724 56.2666 68.3128 56.5539 67.9776C56.846 67.6425 57.2386 67.4749 57.7317 67.4749ZM57.7317 70.7786C58.0621 70.7786 58.3135 70.6589 58.4859 70.4195C58.6582 70.1753 58.7444 69.821 58.7444 69.3566C58.7444 68.8921 58.6582 68.5402 58.4859 68.3008C58.3135 68.0566 58.0621 67.9345 57.7317 67.9345C57.4014 67.9345 57.15 68.0566 56.9776 68.3008C56.8053 68.5402 56.7191 68.8921 56.7191 69.3566C56.7191 69.821 56.8053 70.1753 56.9776 70.4195C57.15 70.6589 57.4014 70.7786 57.7317 70.7786ZM61.1702 70.7427C61.2803 70.7427 61.3785 70.7308 61.4647 70.7068C61.5509 70.6781 61.649 70.6278 61.7591 70.556L61.8669 71.0228C61.7615 71.0899 61.6418 71.1425 61.5078 71.1808C61.3785 71.2191 61.2516 71.2383 61.1271 71.2383C60.7824 71.2383 60.5166 71.1545 60.3299 70.9869C60.148 70.8145 60.057 70.568 60.057 70.2472V68.0135H59.5399V67.5611H60.057V66.7998L60.6459 66.7064V67.5611H61.7232V68.0135H60.6459V70.1897C60.6459 70.3717 60.689 70.5105 60.7752 70.6063C60.8662 70.6972 60.9978 70.7427 61.1702 70.7427ZM63.3307 70.7786C63.5988 70.7786 63.8142 70.6924 63.977 70.5201C64.1398 70.3477 64.2212 70.1107 64.2212 69.8091V69.5074C64.159 69.5026 64.0991 69.5002 64.0417 69.5002C63.9842 69.4954 63.9316 69.493 63.8837 69.493C63.4719 69.493 63.1655 69.5529 62.9644 69.6726C62.7633 69.7875 62.6627 69.9623 62.6627 70.1969C62.6627 70.3788 62.7226 70.5225 62.8423 70.6278C62.962 70.7284 63.1248 70.7786 63.3307 70.7786ZM63.5461 67.4749C63.9435 67.4749 64.2476 67.5707 64.4582 67.7622C64.6689 67.9489 64.7742 68.2218 64.7742 68.5809V70.4483C64.7742 70.5536 64.7958 70.6326 64.8389 70.6853C64.882 70.7379 64.949 70.7643 65.04 70.7643C65.0783 70.7643 65.119 70.7571 65.1621 70.7427C65.2052 70.7284 65.2387 70.7092 65.2626 70.6853L65.2985 71.1234C65.2554 71.1521 65.1956 71.176 65.119 71.1952C65.0472 71.2143 64.9753 71.2239 64.9035 71.2239C64.7695 71.2239 64.6522 71.1976 64.5516 71.1449C64.4558 71.0875 64.3816 71.0061 64.329 70.9007C64.3098 70.8624 64.2907 70.8217 64.2715 70.7786C64.2571 70.7308 64.2452 70.6781 64.2356 70.6206C64.1686 70.8074 64.0393 70.9558 63.8478 71.0659C63.6562 71.176 63.4384 71.2311 63.1942 71.2311C62.859 71.2311 62.5885 71.1401 62.3826 70.9582C62.1815 70.7715 62.081 70.5249 62.081 70.2184C62.081 69.845 62.2342 69.5577 62.5406 69.3566C62.8519 69.1555 63.2995 69.0549 63.8837 69.0549C63.9124 69.0549 63.9483 69.0573 63.9914 69.0621C64.0393 69.0621 64.1159 69.0645 64.2212 69.0693V68.6456C64.2212 68.4253 64.159 68.2553 64.0345 68.1356C63.9148 68.0159 63.74 67.9561 63.5102 67.9561C63.29 67.9561 63.12 68.0112 63.0003 68.1213C62.8806 68.2314 62.8159 68.3918 62.8064 68.6025L62.2318 68.5019C62.2701 68.1859 62.4066 67.9369 62.6412 67.755C62.8806 67.5683 63.1822 67.4749 63.5461 67.4749ZM66.6023 70.7427C66.6598 70.7427 66.7148 70.7355 66.7675 70.7212C66.8249 70.702 66.8776 70.6757 66.9255 70.6422L66.9901 71.0946C66.9231 71.1329 66.8393 71.1641 66.7388 71.188C66.6382 71.2119 66.5401 71.2239 66.4443 71.2239C66.1953 71.2239 66.0062 71.1617 65.8769 71.0372C65.7524 70.9079 65.6902 70.7212 65.6902 70.477V65.9667H66.2791V70.4123C66.2791 70.5273 66.3054 70.6111 66.3581 70.6637C66.4108 70.7164 66.4922 70.7427 66.6023 70.7427ZM72.1468 67.6114C72.1468 67.8986 72.063 68.1428 71.8954 68.3439C71.7326 68.5402 71.5172 68.6623 71.249 68.7102V68.7246C71.5842 68.7629 71.8403 68.8778 72.0175 69.0693C72.1995 69.256 72.2904 69.5074 72.2904 69.8234C72.2904 70.2496 72.1516 70.5775 71.8739 70.8074C71.5962 71.0372 71.1964 71.1521 70.6745 71.1521H68.958V66.3545H70.617C71.1102 66.3545 71.4884 66.4622 71.7518 66.6777C72.0151 66.8931 72.1468 67.2044 72.1468 67.6114ZM70.5739 66.8644H69.5541V68.5091H70.5739C70.8803 68.5091 71.115 68.4397 71.2778 68.3008C71.4405 68.162 71.5219 67.9585 71.5219 67.6904C71.5219 67.4222 71.4405 67.2187 71.2778 67.0799C71.1198 66.9362 70.8851 66.8644 70.5739 66.8644ZM70.6529 69.0047H69.5541V70.6565H70.6529C70.9881 70.6565 71.2442 70.5871 71.4214 70.4483C71.5986 70.3046 71.6871 70.0987 71.6871 69.8306C71.6871 69.5625 71.5986 69.359 71.4214 69.2201C71.2442 69.0765 70.9881 69.0047 70.6529 69.0047ZM73.9438 70.7786C74.2119 70.7786 74.4274 70.6924 74.5902 70.5201C74.753 70.3477 74.8344 70.1107 74.8344 69.8091V69.5074C74.7721 69.5026 74.7123 69.5002 74.6548 69.5002C74.5974 69.4954 74.5447 69.493 74.4968 69.493C74.0851 69.493 73.7786 69.5529 73.5775 69.6726C73.3764 69.7875 73.2759 69.9623 73.2759 70.1969C73.2759 70.3788 73.3357 70.5225 73.4554 70.6278C73.5751 70.7284 73.7379 70.7786 73.9438 70.7786ZM74.1593 67.4749C74.5567 67.4749 74.8607 67.5707 75.0714 67.7622C75.2821 67.9489 75.3874 68.2218 75.3874 68.5809V70.4483C75.3874 70.5536 75.4089 70.6326 75.452 70.6853C75.4951 70.7379 75.5622 70.7643 75.6531 70.7643C75.6914 70.7643 75.7321 70.7571 75.7752 70.7427C75.8183 70.7284 75.8518 70.7092 75.8758 70.6853L75.9117 71.1234C75.8686 71.1521 75.8087 71.176 75.7321 71.1952C75.6603 71.2143 75.5885 71.2239 75.5167 71.2239C75.3826 71.2239 75.2653 71.1976 75.1648 71.1449C75.069 71.0875 74.9948 71.0061 74.9421 70.9007C74.923 70.8624 74.9038 70.8217 74.8847 70.7786C74.8703 70.7308 74.8583 70.6781 74.8487 70.6206C74.7817 70.8074 74.6524 70.9558 74.4609 71.0659C74.2694 71.176 74.0515 71.2311 73.8074 71.2311C73.4722 71.2311 73.2017 71.1401 72.9958 70.9582C72.7947 70.7715 72.6941 70.5249 72.6941 70.2184C72.6941 69.845 72.8474 69.5577 73.1538 69.3566C73.465 69.1555 73.9127 69.0549 74.4968 69.0549C74.5256 69.0549 74.5615 69.0573 74.6046 69.0621C74.6524 69.0621 74.729 69.0645 74.8344 69.0693V68.6456C74.8344 68.4253 74.7721 68.2553 74.6477 68.1356C74.528 68.0159 74.3532 67.9561 74.1234 67.9561C73.9031 67.9561 73.7331 68.0112 73.6134 68.1213C73.4937 68.2314 73.4291 68.3918 73.4195 68.6025L72.845 68.5019C72.8833 68.1859 73.0197 67.9369 73.2543 67.755C73.4937 67.5683 73.7954 67.4749 74.1593 67.4749ZM77.2155 70.7427C77.2729 70.7427 77.328 70.7355 77.3806 70.7212C77.4381 70.702 77.4908 70.6757 77.5386 70.6422L77.6033 71.0946C77.5363 71.1329 77.4525 71.1641 77.3519 71.188C77.2514 71.2119 77.1532 71.2239 77.0575 71.2239C76.8085 71.2239 76.6193 71.1617 76.4901 71.0372C76.3656 70.9079 76.3033 70.7212 76.3033 70.477V65.9667H76.8923V70.4123C76.8923 70.5273 76.9186 70.6111 76.9713 70.6637C77.0239 70.7164 77.1053 70.7427 77.2155 70.7427ZM79.054 70.7786C79.3221 70.7786 79.5376 70.6924 79.7004 70.5201C79.8632 70.3477 79.9446 70.1107 79.9446 69.8091V69.5074C79.8823 69.5026 79.8225 69.5002 79.765 69.5002C79.7076 69.4954 79.6549 69.493 79.607 69.493C79.1953 69.493 78.8888 69.5529 78.6877 69.6726C78.4866 69.7875 78.3861 69.9623 78.3861 70.1969C78.3861 70.3788 78.4459 70.5225 78.5656 70.6278C78.6853 70.7284 78.8481 70.7786 79.054 70.7786ZM79.2695 67.4749C79.6669 67.4749 79.9709 67.5707 80.1816 67.7622C80.3923 67.9489 80.4976 68.2218 80.4976 68.5809V70.4483C80.4976 70.5536 80.5191 70.6326 80.5622 70.6853C80.6053 70.7379 80.6724 70.7643 80.7633 70.7643C80.8016 70.7643 80.8423 70.7571 80.8854 70.7427C80.9285 70.7284 80.962 70.7092 80.986 70.6853L81.0219 71.1234C80.9788 71.1521 80.9189 71.176 80.8423 71.1952C80.7705 71.2143 80.6987 71.2239 80.6269 71.2239C80.4928 71.2239 80.3755 71.1976 80.275 71.1449C80.1792 71.0875 80.105 71.0061 80.0523 70.9007C80.0332 70.8624 80.014 70.8217 79.9949 70.7786C79.9805 70.7308 79.9685 70.6781 79.9589 70.6206C79.8919 70.8074 79.7626 70.9558 79.5711 71.0659C79.3796 71.176 79.1617 71.2311 78.9175 71.2311C78.5824 71.2311 78.3119 71.1401 78.106 70.9582C77.9049 70.7715 77.8043 70.5249 77.8043 70.2184C77.8043 69.845 77.9575 69.5577 78.264 69.3566C78.5752 69.1555 79.0229 69.0549 79.607 69.0549C79.6357 69.0549 79.6717 69.0573 79.7148 69.0621C79.7626 69.0621 79.8392 69.0645 79.9446 69.0693V68.6456C79.9446 68.4253 79.8823 68.2553 79.7578 68.1356C79.6381 68.0159 79.4634 67.9561 79.2336 67.9561C79.0133 67.9561 78.8433 68.0112 78.7236 68.1213C78.6039 68.2314 78.5393 68.3918 78.5297 68.6025L77.9552 68.5019C77.9935 68.1859 78.1299 67.9369 78.3645 67.755C78.6039 67.5683 78.9056 67.4749 79.2695 67.4749ZM81.471 67.5611H81.9091L81.9809 68.2577C82.0815 68.0088 82.2371 67.8172 82.4477 67.6832C82.6584 67.5443 82.905 67.4749 83.1875 67.4749C83.5227 67.4749 83.7908 67.5802 83.9919 67.7909C84.193 67.9968 84.2935 68.2769 84.2935 68.6312V71.1521H83.7046V68.7533C83.7046 68.5091 83.6424 68.3224 83.5179 68.1931C83.3982 68.059 83.2258 67.992 83.0008 67.992C82.7039 67.992 82.4717 68.0854 82.3041 68.2721C82.1413 68.4588 82.0599 68.7246 82.0599 69.0693V71.1521H81.471V67.5611ZM86.5089 71.2383C86.0157 71.2383 85.6255 71.0707 85.3382 70.7355C85.0509 70.4004 84.9073 69.9407 84.9073 69.3566C84.9073 68.7772 85.0509 68.32 85.3382 67.9848C85.6255 67.6449 86.0157 67.4749 86.5089 67.4749C86.868 67.4749 87.1672 67.5754 87.4066 67.7765C87.646 67.9776 87.7849 68.2434 87.8232 68.5737L87.2845 68.6743C87.2654 68.4588 87.184 68.2841 87.0403 68.15C86.9015 68.0112 86.7243 67.9417 86.5089 67.9417C86.1928 67.9417 85.9463 68.0662 85.7691 68.3152C85.5919 68.5642 85.5034 68.9113 85.5034 69.3566C85.5034 69.8019 85.5919 70.149 85.7691 70.398C85.9463 70.647 86.1928 70.7715 86.5089 70.7715C86.7291 70.7715 86.9087 70.7044 87.0475 70.5704C87.1864 70.4315 87.2654 70.2496 87.2845 70.0245L87.8232 70.1251C87.7705 70.4746 87.6293 70.7475 87.3994 70.9438C87.1696 71.1401 86.8727 71.2383 86.5089 71.2383ZM89.7478 70.7715C89.9728 70.7715 90.1572 70.7164 90.3008 70.6063C90.4444 70.4961 90.5426 70.3333 90.5953 70.1179L91.1052 70.2615C91.0286 70.5775 90.873 70.8193 90.6384 70.9869C90.4037 71.1545 90.1069 71.2383 89.7478 71.2383C89.245 71.2383 88.8524 71.0755 88.5699 70.7499C88.2874 70.4243 88.1462 69.9647 88.1462 69.371C88.1462 68.7916 88.2898 68.3319 88.5771 67.992C88.8692 67.6473 89.2594 67.4749 89.7478 67.4749C90.1739 67.4749 90.5115 67.6137 90.7605 67.8915C91.0142 68.1644 91.1411 68.5283 91.1411 68.9831C91.1411 69.0741 91.1339 69.1627 91.1196 69.2489C91.1052 69.335 91.0884 69.4069 91.0693 69.4643H88.7136C88.7279 69.8809 88.8237 70.2041 89.0009 70.4339C89.1828 70.6589 89.4318 70.7715 89.7478 70.7715ZM89.7334 67.9274C89.4509 67.9274 89.2211 68.0231 89.0439 68.2146C88.8716 68.4062 88.7662 68.6791 88.7279 69.0334H90.5522C90.557 69.0095 90.5594 68.9855 90.5594 68.9616C90.5594 68.9328 90.5594 68.8945 90.5594 68.8467C90.5594 68.5737 90.4827 68.3535 90.3295 68.1859C90.1811 68.0135 89.9824 67.9274 89.7334 67.9274Z" fill="#C9C8C8"/>
<path d="M55.2181 84.9097C55.2181 85.2928 55.3498 85.604 55.6132 85.8434C55.8765 86.0828 56.3314 86.2803 56.9777 86.4359V83.2399C56.4391 83.3117 56.0082 83.4973 55.685 83.7965C55.3738 84.0958 55.2181 84.4668 55.2181 84.9097ZM59.9224 90.1347C59.9224 89.7636 59.7907 89.4584 59.5274 89.219C59.264 88.9796 58.8152 88.7821 58.1807 88.6264V91.8225C58.7433 91.7387 59.1743 91.5531 59.4735 91.2658C59.7728 90.9666 59.9224 90.5895 59.9224 90.1347ZM58.1807 93.5282V95.4314H56.9777V93.5461C55.8406 93.4743 54.9009 93.1631 54.1588 92.6125C53.4166 92.0499 52.9498 91.3077 52.7583 90.386L54.6436 89.6319C54.7393 90.2544 54.9907 90.7571 55.3977 91.1402C55.8047 91.5232 56.3314 91.7566 56.9777 91.8404V88.3571C56.2835 88.2135 55.7448 88.0758 55.3618 87.9441C54.9787 87.8125 54.6556 87.6509 54.3922 87.4594C53.9972 87.196 53.7039 86.8668 53.5124 86.4718C53.3209 86.0768 53.2251 85.61 53.2251 85.0713C53.2251 84.1137 53.5723 83.3177 54.2665 82.6833C54.9608 82.0369 55.8645 81.6599 56.9777 81.5521V79.8823H58.1807V81.5701C59.2221 81.6539 60.0541 81.9591 60.6765 82.4858C61.3109 83.0125 61.7059 83.7307 61.8615 84.6404L59.9224 85.1432C59.8625 84.6643 59.677 84.2634 59.3658 83.9402C59.0665 83.617 58.6715 83.3955 58.1807 83.2758V86.6873C58.887 86.8309 59.4316 86.9746 59.8147 87.1182C60.1977 87.2499 60.5209 87.4055 60.7842 87.585C61.1673 87.8604 61.4546 88.2015 61.6461 88.6085C61.8376 89.0035 61.9334 89.4703 61.9334 90.009C61.9334 90.9786 61.5922 91.7806 60.9099 92.415C60.2276 93.0374 59.3179 93.4085 58.1807 93.5282ZM65.5822 88.1776H63.7687L64.0919 81.5521H70.7892V83.4374H65.8335L65.6719 86.5975C65.9592 86.3581 66.2884 86.1726 66.6595 86.0409C67.0305 85.8973 67.4136 85.8254 67.8086 85.8254C68.8859 85.8254 69.7597 86.1786 70.4301 86.8848C71.1004 87.591 71.4355 88.5067 71.4355 89.6319C71.4355 90.8768 71.0226 91.8763 70.1966 92.6304C69.3827 93.3845 68.3413 93.7616 67.0724 93.7616C65.9233 93.7616 64.9537 93.4683 64.1637 92.8818C63.3737 92.2953 62.8949 91.5292 62.7273 90.5835L64.6844 89.8833C64.8041 90.5417 65.0734 91.0624 65.4924 91.4454C65.9113 91.8165 66.438 92.002 67.0724 92.002C67.7428 92.002 68.2754 91.7925 68.6704 91.3736C69.0655 90.9546 69.263 90.386 69.263 89.6678C69.263 88.9975 69.0774 88.4648 68.7064 88.0698C68.3473 87.6748 67.8565 87.4773 67.234 87.4773C66.8989 87.4773 66.5877 87.5432 66.3004 87.6748C66.0131 87.7945 65.7737 87.9621 65.5822 88.1776ZM74.2009 93.5461L78.4024 83.4015H74.1111V85.3227H72.172V81.5521H80.7366V83.204L76.5351 93.5461H74.2009ZM81.7815 90.799C82.2722 90.799 82.6732 90.9845 82.9845 91.3556C83.3077 91.7267 83.4692 92.2055 83.4692 92.792C83.4692 93.7855 83.17 94.6055 82.5715 95.2519C81.973 95.8983 81.1949 96.2215 80.2373 96.2215V95.198C80.776 95.1621 81.2189 94.9766 81.566 94.6414C81.9251 94.3062 82.1047 93.9112 82.1047 93.4564C82.1047 93.3965 82.0987 93.3427 82.0867 93.2948C82.0747 93.2469 82.0628 93.211 82.0508 93.187C81.9909 93.223 81.9191 93.2529 81.8353 93.2768C81.7635 93.2888 81.6977 93.2948 81.6378 93.2948C81.3027 93.2948 81.0214 93.187 80.7939 92.9716C80.5785 92.7441 80.4707 92.4509 80.4707 92.0918C80.4707 91.7087 80.5964 91.3975 80.8478 91.1581C81.0992 90.9187 81.4104 90.799 81.7815 90.799ZM88.1531 81.3546V93.5461H85.9088V83.8504L83.2155 84.5147V82.5217L88.1531 81.3546ZM95.2245 81.3367C96.1223 81.3367 96.8884 81.5342 97.5228 81.9292C98.1572 82.3122 98.63 82.8688 98.9412 83.599L97.3612 84.6404C97.1816 84.1616 96.9003 83.7905 96.5173 83.5272C96.1462 83.2519 95.7093 83.1142 95.2066 83.1142C94.2849 83.1142 93.5487 83.5212 92.9981 84.3352C92.4594 85.1372 92.1901 86.2085 92.1901 87.5491V87.8544H92.244C92.4594 87.2559 92.8365 86.7771 93.3751 86.418C93.9258 86.0589 94.5422 85.8793 95.2245 85.8793C96.3497 85.8793 97.2534 86.2384 97.9357 86.9566C98.63 87.6629 98.9771 88.5786 98.9771 89.7037C98.9771 90.9008 98.5941 91.8763 97.828 92.6304C97.0619 93.3845 96.0624 93.7616 94.8295 93.7616C94.0395 93.7616 93.3392 93.6 92.7288 93.2768C92.1183 92.9536 91.6036 92.4808 91.1846 91.8584C90.8375 91.3436 90.5741 90.7511 90.3946 90.0808C90.215 89.3985 90.1253 88.6564 90.1253 87.8544C90.1253 85.8913 90.5861 84.3172 91.5078 83.1322C92.4415 81.9352 93.6804 81.3367 95.2245 81.3367ZM94.7397 92.002C95.3861 92.002 95.9128 91.7985 96.3198 91.3915C96.7268 90.9845 96.9302 90.4519 96.9302 89.7935C96.9302 89.1352 96.7268 88.6025 96.3198 88.1955C95.9128 87.7885 95.3861 87.585 94.7397 87.585C94.1173 87.585 93.6026 87.7885 93.1956 88.1955C92.8006 88.6025 92.6031 89.1352 92.6031 89.7935C92.6031 90.4519 92.8006 90.9845 93.1956 91.3915C93.6026 91.7985 94.1173 92.002 94.7397 92.002ZM108.964 90.3322C108.964 91.3736 108.557 92.2055 107.743 92.8279C106.941 93.4504 105.863 93.7616 104.511 93.7616C103.158 93.7616 102.081 93.4504 101.279 92.8279C100.477 92.2055 100.076 91.3736 100.076 90.3322C100.076 89.6379 100.297 89.0215 100.74 88.4828C101.183 87.9441 101.764 87.585 102.482 87.4055V87.3696C101.847 87.1661 101.351 86.8249 100.992 86.3461C100.644 85.8554 100.471 85.2688 100.471 84.5865C100.471 83.617 100.842 82.8329 101.584 82.2344C102.326 81.6359 103.302 81.3367 104.511 81.3367C105.732 81.3367 106.713 81.6359 107.455 82.2344C108.198 82.8329 108.569 83.617 108.569 84.5865C108.569 85.2688 108.389 85.8554 108.03 86.3461C107.683 86.8249 107.192 87.1661 106.558 87.3696V87.4055C107.276 87.585 107.856 87.9441 108.299 88.4828C108.742 89.0215 108.964 89.6379 108.964 90.3322ZM102.572 84.7481C102.572 85.3227 102.745 85.7716 103.092 86.0948C103.439 86.406 103.912 86.5616 104.511 86.5616C105.109 86.5616 105.582 86.4 105.929 86.0768C106.288 85.7536 106.468 85.3107 106.468 84.7481C106.468 84.1736 106.294 83.7307 105.947 83.4195C105.6 83.1082 105.121 82.9526 104.511 82.9526C103.9 82.9526 103.422 83.1082 103.074 83.4195C102.739 83.7307 102.572 84.1736 102.572 84.7481ZM106.755 90.1706C106.755 89.5721 106.552 89.0993 106.145 88.7521C105.75 88.405 105.205 88.2314 104.511 88.2314C103.829 88.2314 103.284 88.405 102.877 88.7521C102.482 89.0993 102.284 89.5721 102.284 90.1706C102.284 90.7691 102.482 91.2419 102.877 91.589C103.272 91.9242 103.817 92.0918 104.511 92.0918C105.205 92.0918 105.75 91.9242 106.145 91.589C106.552 91.2419 106.755 90.7691 106.755 90.1706ZM111.77 90.799C112.177 90.799 112.518 90.9367 112.793 91.212C113.069 91.4873 113.206 91.8284 113.206 92.2354C113.206 92.6424 113.069 92.9895 112.793 93.2768C112.518 93.5521 112.177 93.6898 111.77 93.6898C111.363 93.6898 111.022 93.5521 110.746 93.2768C110.471 92.9895 110.333 92.6424 110.333 92.2354C110.333 91.8284 110.471 91.4873 110.746 91.212C111.022 90.9367 111.363 90.799 111.77 90.799ZM114.192 87.5491C114.192 85.6818 114.617 84.1796 115.467 83.0424C116.317 81.9052 117.466 81.3367 118.914 81.3367C120.363 81.3367 121.512 81.9052 122.362 83.0424C123.212 84.1796 123.637 85.6818 123.637 87.5491C123.637 89.4165 123.206 90.9187 122.344 92.0559C121.494 93.193 120.351 93.7616 118.914 93.7616C117.478 93.7616 116.329 93.193 115.467 92.0559C114.617 90.9187 114.192 89.4165 114.192 87.5491ZM116.437 87.5491C116.437 88.9377 116.646 90.009 117.065 90.7631C117.496 91.5052 118.112 91.8763 118.914 91.8763C119.728 91.8763 120.345 91.5052 120.764 90.7631C121.195 90.009 121.41 88.9377 121.41 87.5491C121.41 86.1606 121.195 85.0953 120.764 84.3531C120.345 83.599 119.728 83.222 118.914 83.222C118.112 83.222 117.496 83.599 117.065 84.3531C116.646 85.0953 116.437 86.1606 116.437 87.5491ZM127.306 88.1776H125.492L125.815 81.5521H132.513V83.4374H127.557L127.395 86.5975C127.683 86.3581 128.012 86.1726 128.383 86.0409C128.754 85.8973 129.137 85.8254 129.532 85.8254C130.609 85.8254 131.483 86.1786 132.154 86.8848C132.824 87.591 133.159 88.5067 133.159 89.6319C133.159 90.8768 132.746 91.8763 131.92 92.6304C131.106 93.3845 130.065 93.7616 128.796 93.7616C127.647 93.7616 126.677 93.4683 125.887 92.8818C125.097 92.2953 124.618 91.5292 124.451 90.5835L126.408 89.8833C126.528 90.5417 126.797 91.0624 127.216 91.4454C127.635 91.8165 128.162 92.002 128.796 92.002C129.466 92.002 129.999 91.7925 130.394 91.3736C130.789 90.9546 130.986 90.386 130.986 89.6678C130.986 88.9975 130.801 88.4648 130.43 88.0698C130.071 87.6748 129.58 87.4773 128.958 87.4773C128.622 87.4773 128.311 87.5432 128.024 87.6748C127.737 87.7945 127.497 87.9621 127.306 88.1776Z" fill="#24201E"/>
<path d="M151.638 88.0462L151.548 87.9565C151.322 87.73 151.321 87.3627 151.548 87.1361L151.632 87.0518C151.717 86.9671 151.736 86.8372 151.679 86.7319C151.551 86.4963 151.325 86.0911 151.203 85.9216V85.9189C151.124 85.8106 151.043 85.7023 150.956 85.5994C150.848 85.4695 150.737 85.3422 150.618 85.2231C150.602 85.2041 150.583 85.1879 150.564 85.1689C150.504 85.1094 150.442 85.0498 150.377 84.9929C150.309 84.9307 150.242 84.8684 150.168 84.8115C150.168 84.8088 150.166 84.8088 150.163 84.8088C150.098 84.752 150.03 84.6978 149.96 84.6464C149.567 84.3512 149.137 84.1021 148.677 83.9126C148.606 83.8828 148.536 83.8558 148.465 83.8314C148.384 83.8016 148.303 83.7745 148.222 83.7502C147.932 83.6554 147.629 83.585 147.32 83.5417C147.244 83.5281 147.166 83.5173 147.087 83.5092C147.071 83.5092 147.052 83.5065 147.033 83.5038C146.954 83.4956 146.876 83.4902 146.798 83.4875C146.687 83.4794 146.575 83.4767 146.465 83.4767C146.353 83.4767 146.242 83.4794 146.131 83.4875C146.053 83.4902 145.974 83.4956 145.896 83.5038C145.877 83.5065 145.858 83.5092 145.842 83.5092C145.763 83.5173 145.685 83.5281 145.609 83.5417C145.3 83.585 144.997 83.6554 144.707 83.7502C144.626 83.7745 144.545 83.8016 144.464 83.8314C144.393 83.8558 144.323 83.8828 144.252 83.9126C143.792 84.1021 143.362 84.3512 142.969 84.6464C142.899 84.6978 142.831 84.752 142.766 84.8088C142.763 84.8088 142.76 84.8088 142.76 84.8115C142.687 84.8684 142.62 84.9307 142.552 84.9929C142.487 85.0498 142.425 85.1094 142.365 85.1689C142.346 85.1879 142.327 85.2041 142.311 85.2231C142.195 85.3422 142.081 85.4695 141.973 85.5994C141.694 85.9352 141.455 86.3034 141.258 86.696C141.228 86.7529 141.198 86.8124 141.171 86.8747C141.16 86.8964 141.149 86.9207 141.139 86.9451C141.114 86.9993 141.093 87.0534 141.068 87.1103C141.045 87.1688 141.021 87.2283 140.999 87.2886C140.941 87.446 140.926 87.6194 140.973 87.7805C141.102 88.2208 141.278 88.5951 141.468 88.9066C141.544 89.0309 141.732 88.9883 141.745 88.8434C141.789 88.3884 141.897 87.9533 142.062 87.5462C142.176 87.2619 142.316 86.9884 142.482 86.7339C142.506 86.696 142.53 86.6581 142.557 86.6202C142.723 86.3792 142.909 86.1545 143.115 85.9487C143.169 85.8946 143.223 85.8431 143.278 85.7944C143.332 85.7429 143.386 85.6969 143.443 85.6482C143.444 85.6482 143.493 85.6112 143.551 85.5672C143.659 85.4852 143.811 85.4954 143.907 85.5914L144.903 86.5872C144.98 86.6642 145.007 86.7812 144.962 86.8804C144.817 87.1989 144.772 87.5713 144.87 87.9613C145.012 88.5236 145.463 88.9759 146.026 89.1183C146.416 89.2173 146.789 89.1717 147.109 89.027C147.208 88.982 147.325 89.0087 147.402 89.0857L148.132 89.8162C148.273 89.9571 148.219 90.1987 148.032 90.265C147.541 90.4379 147.014 90.5327 146.465 90.5327C145.061 90.5327 143.797 89.9203 142.928 88.9482C142.843 88.8534 142.687 88.9023 142.666 89.0278C142.624 89.272 142.603 89.5234 142.603 89.78V89.9521C142.603 90.0747 142.656 90.1931 142.75 90.2715C143.759 91.1114 145.053 91.6157 146.465 91.6157C148.135 91.6157 149.641 90.909 150.699 89.78C150.883 89.5904 151.048 89.3874 151.203 89.1762C151.251 89.1058 151.3 89.0354 151.346 88.9623C151.474 88.7668 151.588 88.5663 151.691 88.357C151.742 88.2535 151.719 88.1278 151.638 88.0462ZM150.843 87.6064C150.677 88.0059 150.459 88.378 150.196 88.7132C150.008 88.9527 149.797 89.1729 149.567 89.3718C149.461 89.4633 149.3 89.4529 149.202 89.3541L148.077 88.23C148.007 88.1594 147.986 88.0568 148.012 87.9604C148.092 87.6618 148.091 87.3305 147.967 86.9855C147.807 86.5388 147.446 86.1785 146.999 86.02C146.655 85.8982 146.325 85.8973 146.028 85.9769C145.932 86.0026 145.83 85.9821 145.759 85.9118L145.054 85.206C144.909 85.0612 144.971 84.8142 145.167 84.7553C145.327 84.7072 145.477 84.6632 145.509 84.6572C145.576 84.6409 145.647 84.6301 145.717 84.6193C145.817 84.603 145.918 84.5895 146.02 84.5814C146.075 84.576 146.131 84.5705 146.188 84.5678C146.204 84.5678 146.221 84.5651 146.237 84.5651C146.313 84.5624 146.389 84.5597 146.465 84.5597C146.54 84.5597 146.616 84.5624 146.692 84.5651C146.708 84.5651 146.724 84.5678 146.741 84.5678C146.798 84.5705 146.852 84.576 146.908 84.5814C147.009 84.5895 147.109 84.603 147.209 84.6193C147.279 84.6301 147.35 84.6409 147.417 84.6572C147.485 84.6707 147.55 84.6843 147.612 84.7005C147.702 84.7222 147.788 84.7465 147.872 84.7736C147.948 84.7953 148.021 84.8224 148.092 84.8494C148.238 84.9009 148.379 84.9604 148.517 85.0281C148.579 85.0579 148.641 85.0904 148.704 85.1229C148.779 85.1635 148.853 85.2068 148.926 85.2502C148.991 85.2881 149.053 85.3287 149.113 85.372C149.169 85.4099 149.224 85.4478 149.275 85.4857C149.345 85.5372 149.413 85.5913 149.478 85.6455C149.538 85.6915 149.594 85.7402 149.649 85.7944C149.705 85.8431 149.76 85.8946 149.811 85.9487C149.814 85.9487 149.817 85.9514 149.817 85.9541C149.871 86.0056 149.922 86.0597 149.971 86.1166C150.022 86.1707 150.074 86.2276 150.12 86.2872C150.306 86.504 150.452 86.7601 150.563 86.9059L150.573 86.9249C150.615 87.0227 150.663 87.0972 150.702 87.1807C150.752 87.2805 150.8 87.3823 150.843 87.4859C150.859 87.5242 150.858 87.5681 150.843 87.6064Z" fill="#C9C8C8"/>
<g clip-path="url(#clip2_8017_57213)">
<g clip-path="url(#clip3_8017_57213)">
<rect x="52.3633" y="108.122" width="95.7606" height="64.6384" rx="10.7731" fill="#3E32A7"/>
<g opacity="0.15">
<path d="M178.273 -87.0847L-76.0161 -49.2624C-85.1059 -47.9105 -91.3786 -39.4457 -90.0266 -30.356L-52.2044 223.933C-50.8524 233.023 -42.3877 239.295 -33.2979 237.943L220.991 200.121C230.081 198.769 236.353 190.304 235.001 181.215L197.179 -73.0742C195.827 -82.164 187.362 -88.4367 178.273 -87.0847Z" fill="url(#paint0_radial_8017_57213)"/>
<path d="M90.6274 -68.7271L-49.3214 12.0724C-64.9239 21.0805 -70.2697 41.0314 -61.2616 56.6339L19.5379 196.583C28.546 212.185 48.4968 217.531 64.0994 208.523L204.048 127.723C219.651 118.715 224.997 98.7645 215.988 83.162L135.189 -56.7869C126.181 -72.3894 106.23 -77.7352 90.6274 -68.7271Z" fill="url(#paint1_radial_8017_57213)"/>
<path d="M33.8688 18.5059L-20.9313 86.5904C-36.1549 105.505 -33.1632 133.179 -14.2491 148.402L53.8354 203.202C72.7495 218.426 100.424 215.434 115.647 196.52L170.447 128.436C185.671 109.522 182.679 81.8474 163.765 66.6238L95.6806 11.8238C76.7665 -3.39987 49.0924 -0.408175 33.8688 18.5059Z" fill="url(#paint2_radial_8017_57213)"/>
<path d="M30.0103 95.4913L17.6993 144.649C11.663 168.752 26.3089 193.184 50.4119 199.221L99.5692 211.532C123.672 217.568 148.105 202.922 154.141 178.819L166.452 129.662C172.489 105.559 157.843 81.1261 133.74 75.0898L84.5825 62.7788C60.4795 56.7424 36.0467 71.3883 30.0103 95.4913Z" fill="url(#paint3_radial_8017_57213)"/>
<path d="M43.2181 173.976L46.6655 183.376C55.2208 206.704 81.0674 218.679 104.395 210.124L113.795 206.677C137.123 198.121 149.099 172.275 140.544 148.947L137.096 139.547C128.541 116.219 102.695 104.243 79.3664 112.798L69.9665 116.246C46.6384 124.801 34.6628 150.648 43.2181 173.976Z" fill="url(#paint4_radial_8017_57213)"/>
<path d="M74.3468 205.981L83.6982 210.314C97.6515 216.779 114.204 210.709 120.669 196.755L125.002 187.404C131.467 173.451 125.396 156.898 111.443 150.433L102.092 146.1C88.1385 139.635 71.586 145.706 65.121 159.659L60.7882 169.01C54.3231 182.964 60.3935 199.516 74.3468 205.981Z" fill="url(#paint5_radial_8017_57213)"/>
<path d="M69.2553 196.38C71.2665 207.338 81.7803 214.591 92.7385 212.58C103.697 210.569 110.95 200.055 108.938 189.097C106.927 178.138 96.4135 170.885 85.4552 172.897C74.497 174.908 67.244 185.422 69.2553 196.38Z" fill="url(#paint6_radial_8017_57213)"/>
</g>
<g clip-path="url(#clip4_8017_57213)">
<mask id="mask0_8017_57213" style="mask-type:luminance" maskUnits="userSpaceOnUse" x="61" y="117" width="18" height="18">
<path d="M78.6976 117.698H61.9395V134.456H78.6976V117.698Z" fill="white"/>
</mask>
<g mask="url(#mask0_8017_57213)">
<path d="M67.5255 133.985V118.169C64.2786 119.322 61.9395 122.429 61.9395 126.077C61.9395 129.726 64.2786 132.833 67.5255 133.985Z" fill="#005B13"/>
<path d="M73.1114 118.17C72.2386 117.873 71.296 117.698 70.3184 117.698C69.3408 117.698 68.3982 117.873 67.5254 118.17V133.968C68.3982 134.282 69.3408 134.456 70.3184 134.456C71.296 134.456 72.2386 134.282 73.1114 133.985V118.17Z" fill="white"/>
<path d="M73.1113 118.169V133.967C76.3582 132.833 78.6974 129.726 78.6974 126.077C78.6974 122.429 76.3582 119.322 73.1113 118.169Z" fill="#005B13"/>
</g>
</g>
<rect x="62.2387" y="117.997" width="16.1596" height="16.1596" rx="8.0798" stroke="white" stroke-width="0.598504"/>
<path d="M62.8875 161.578V158.81H62.0472V158.12H62.8875V157.237H62.0472V156.547H62.8875V153.886H64.0079L65.0313 156.547H66.3025V153.886H67.1536V156.547H67.9939V157.237H67.1536V158.12H67.9939V158.81H67.1536V161.578H66.0224L64.999 158.81H63.7278V161.578H62.8875ZM63.7278 158.12H64.7405L64.4173 157.237H63.7062L63.7278 158.12ZM66.3025 160.059H66.3456L66.3133 158.81H65.8608L66.3025 160.059ZM63.7062 156.547H64.1587L63.7062 155.211H63.6631L63.7062 156.547ZM65.6023 158.12H66.3241L66.3025 157.237H65.2791L65.6023 158.12ZM70.9486 154.263V161.578H69.602V155.761L67.986 156.16V154.964L70.9486 154.263ZM73.8017 160.426H77.0336V161.578H71.981V160.587C72.886 159.891 73.4318 159.467 73.6186 159.316C73.8125 159.158 73.9848 159.014 74.1357 158.885C74.624 158.454 74.9724 158.059 75.1806 157.7C75.3961 157.341 75.5038 156.975 75.5038 156.601C75.5038 156.206 75.3997 155.897 75.1914 155.675C74.9903 155.452 74.7066 155.341 74.3403 155.341C74.01 155.341 73.7406 155.448 73.5324 155.664C73.3313 155.872 73.2307 156.145 73.2307 156.483C73.2307 156.605 73.2451 156.723 73.2738 156.838C73.3097 156.946 73.3672 157.061 73.4462 157.183L72.3258 157.635C72.2037 157.47 72.1103 157.287 72.0457 157.086C71.9882 156.885 71.9595 156.659 71.9595 156.407C71.9595 155.804 72.1857 155.294 72.6382 154.878C73.0907 154.461 73.6724 154.253 74.3834 154.253C75.1376 154.253 75.7337 154.461 76.1718 154.878C76.6171 155.294 76.8397 155.858 76.8397 156.569C76.8397 157.194 76.5919 157.822 76.0964 158.454C75.6008 159.086 74.8359 159.743 73.8017 160.426ZM82.2069 156.203C82.2069 156.648 82.0848 157.021 81.8406 157.323C81.5964 157.617 81.2624 157.801 80.8387 157.872V157.894C81.3055 157.944 81.6826 158.124 81.9699 158.433C82.2571 158.741 82.4008 159.122 82.4008 159.575C82.4008 160.214 82.1602 160.731 81.679 161.126C81.205 161.514 80.5873 161.708 79.826 161.708C79.1294 161.708 78.5404 161.535 78.0592 161.191C77.5852 160.846 77.3051 160.397 77.2189 159.844L78.3717 159.402C78.4507 159.804 78.6123 160.117 78.8564 160.339C79.1078 160.555 79.4274 160.663 79.8153 160.663C80.2103 160.663 80.5263 160.559 80.7633 160.35C81.0003 160.142 81.1188 159.858 81.1188 159.499C81.1188 159.154 80.9967 158.885 80.7525 158.691C80.5155 158.497 80.1887 158.4 79.7722 158.4H79.0396V157.442H79.7183C80.1133 157.442 80.4114 157.345 80.6125 157.151C80.8207 156.957 80.9249 156.677 80.9249 156.31C80.9249 156.023 80.8243 155.79 80.6232 155.61C80.4221 155.423 80.16 155.33 79.8368 155.33C79.4992 155.33 79.2191 155.434 78.9965 155.642C78.7739 155.844 78.6302 156.131 78.5656 156.504L77.4344 156.052C77.5709 155.499 77.8546 155.061 78.2855 154.737C78.7236 154.414 79.2551 154.253 79.8799 154.253C80.5981 154.253 81.1655 154.429 81.582 154.781C81.9986 155.132 82.2069 155.606 82.2069 156.203ZM83.7519 159.93C84.0463 159.93 84.2869 160.041 84.4737 160.264C84.6676 160.487 84.7646 160.774 84.7646 161.126C84.7646 161.722 84.585 162.214 84.2259 162.602C83.8668 162.99 83.4 163.184 82.8254 163.184V162.569C83.1486 162.548 83.4143 162.437 83.6226 162.236C83.8381 162.034 83.9458 161.797 83.9458 161.525C83.9458 161.489 83.9422 161.456 83.935 161.428C83.9278 161.399 83.9207 161.377 83.9135 161.363C83.8776 161.384 83.8345 161.402 83.7842 161.417C83.7411 161.424 83.7016 161.428 83.6657 161.428C83.4646 161.428 83.2958 161.363 83.1594 161.234C83.0301 161.097 82.9654 160.921 82.9654 160.706C82.9654 160.476 83.0409 160.289 83.1917 160.146C83.3425 160.002 83.5292 159.93 83.7519 159.93ZM86.9549 158.357H85.8669L86.0608 154.382H90.0791V155.513H87.1058L87.0088 157.409C87.1812 157.266 87.3787 157.154 87.6013 157.075C87.824 156.989 88.0538 156.946 88.2908 156.946C88.9372 156.946 89.4615 157.158 89.8637 157.582C90.2659 158.005 90.467 158.555 90.467 159.23C90.467 159.977 90.2192 160.576 89.7236 161.029C89.2352 161.481 88.6104 161.708 87.8491 161.708C87.1596 161.708 86.5779 161.532 86.1039 161.18C85.6298 160.828 85.3426 160.368 85.242 159.801L86.4163 159.381C86.4881 159.776 86.6497 160.088 86.9011 160.318C87.1524 160.541 87.4685 160.652 87.8491 160.652C88.2513 160.652 88.5709 160.526 88.8079 160.275C89.0449 160.023 89.1634 159.682 89.1634 159.251C89.1634 158.849 89.0521 158.53 88.8294 158.293C88.614 158.056 88.3195 157.937 87.9461 157.937C87.745 157.937 87.5582 157.977 87.3859 158.056C87.2135 158.127 87.0698 158.228 86.9549 158.357ZM92.5653 158.357H91.4773L91.6712 154.382H95.6895V155.513H92.7162L92.6192 157.409C92.7916 157.266 92.9891 157.154 93.2117 157.075C93.4344 156.989 93.6642 156.946 93.9012 156.946C94.5476 156.946 95.0719 157.158 95.4741 157.582C95.8763 158.005 96.0774 158.555 96.0774 159.23C96.0774 159.977 95.8296 160.576 95.334 161.029C94.8456 161.481 94.2208 161.708 93.4595 161.708C92.77 161.708 92.1883 161.532 91.7143 161.18C91.2403 160.828 90.953 160.368 90.8524 159.801L92.0267 159.381C92.0985 159.776 92.2601 160.088 92.5115 160.318C92.7629 160.541 93.0789 160.652 93.4595 160.652C93.8617 160.652 94.1813 160.526 94.4183 160.275C94.6553 160.023 94.7738 159.682 94.7738 159.251C94.7738 158.849 94.6625 158.53 94.4399 158.293C94.2244 158.056 93.9299 157.937 93.5565 157.937C93.3554 157.937 93.1686 157.977 92.9963 158.056C92.8239 158.127 92.6803 158.228 92.5653 158.357ZM98.3504 160.426H101.582V161.578H96.5297V160.587C97.4347 159.891 97.9805 159.467 98.1673 159.316C98.3612 159.158 98.5335 159.014 98.6844 158.885C99.1727 158.454 99.5211 158.059 99.7294 157.7C99.9448 157.341 100.053 156.975 100.053 156.601C100.053 156.206 99.9484 155.897 99.7401 155.675C99.539 155.452 99.2553 155.341 98.8891 155.341C98.5587 155.341 98.2894 155.448 98.0811 155.664C97.88 155.872 97.7794 156.145 97.7794 156.483C97.7794 156.605 97.7938 156.723 97.8225 156.838C97.8584 156.946 97.9159 157.061 97.9949 157.183L96.8745 157.635C96.7524 157.47 96.659 157.287 96.5944 157.086C96.5369 156.885 96.5082 156.659 96.5082 156.407C96.5082 155.804 96.7344 155.294 97.1869 154.878C97.6394 154.461 98.2211 154.253 98.9321 154.253C99.6863 154.253 100.282 154.461 100.72 154.878C101.166 155.294 101.388 155.858 101.388 156.569C101.388 157.194 101.141 157.822 100.645 158.454C100.149 159.086 99.3846 159.743 98.3504 160.426ZM103.26 159.93C103.504 159.93 103.709 160.013 103.874 160.178C104.04 160.343 104.122 160.548 104.122 160.792C104.122 161.036 104.04 161.244 103.874 161.417C103.709 161.582 103.504 161.665 103.26 161.665C103.016 161.665 102.811 161.582 102.646 161.417C102.481 161.244 102.398 161.036 102.398 160.792C102.398 160.548 102.481 160.343 102.646 160.178C102.811 160.013 103.016 159.93 103.26 159.93ZM106.846 160.426H110.078V161.578H105.026V160.587C105.931 159.891 106.477 159.467 106.663 159.316C106.857 159.158 107.03 159.014 107.18 158.885C107.669 158.454 108.017 158.059 108.225 157.7C108.441 157.341 108.549 156.975 108.549 156.601C108.549 156.206 108.444 155.897 108.236 155.675C108.035 155.452 107.751 155.341 107.385 155.341C107.055 155.341 106.785 155.448 106.577 155.664C106.376 155.872 106.275 156.145 106.275 156.483C106.275 156.605 106.29 156.723 106.319 156.838C106.354 156.946 106.412 157.061 106.491 157.183L105.37 157.635C105.248 157.47 105.155 157.287 105.09 157.086C105.033 156.885 105.004 156.659 105.004 156.407C105.004 155.804 105.23 155.294 105.683 154.878C106.135 154.461 106.717 154.253 107.428 154.253C108.182 154.253 108.778 154.461 109.216 154.878C109.662 155.294 109.884 155.858 109.884 156.569C109.884 157.194 109.637 157.822 109.141 158.454C108.645 159.086 107.881 159.743 106.846 160.426ZM112.72 161.708C112.181 161.708 111.722 161.593 111.341 161.363C110.96 161.126 110.677 160.788 110.49 160.35L111.438 159.725C111.546 160.013 111.711 160.239 111.933 160.404C112.163 160.562 112.429 160.641 112.731 160.641C113.284 160.641 113.722 160.401 114.045 159.919C114.375 159.431 114.541 158.785 114.541 157.98V157.797H114.508C114.379 158.156 114.149 158.443 113.819 158.659C113.496 158.874 113.129 158.982 112.72 158.982C112.045 158.982 111.499 158.77 111.082 158.346C110.673 157.916 110.468 157.363 110.468 156.687C110.468 155.969 110.698 155.384 111.158 154.931C111.617 154.479 112.217 154.253 112.957 154.253C113.431 154.253 113.851 154.35 114.217 154.544C114.584 154.737 114.892 155.021 115.144 155.395C115.352 155.703 115.51 156.063 115.618 156.472C115.726 156.874 115.779 157.316 115.779 157.797C115.779 158.975 115.499 159.923 114.939 160.641C114.386 161.352 113.646 161.708 112.72 161.708ZM113.011 155.308C112.623 155.308 112.307 155.431 112.063 155.675C111.819 155.919 111.696 156.239 111.696 156.634C111.696 157.029 111.819 157.348 112.063 157.592C112.307 157.837 112.623 157.959 113.011 157.959C113.384 157.959 113.689 157.837 113.926 157.592C114.171 157.348 114.293 157.029 114.293 156.634C114.293 156.239 114.171 155.919 113.926 155.675C113.689 155.431 113.384 155.308 113.011 155.308Z" fill="white"/>
</g>
<g clip-path="url(#clip5_8017_57213)">
<rect x="152.912" y="108.122" width="95.7606" height="64.6384" rx="10.7731" fill="#241C5F"/>
<g opacity="0.25">
<path d="M322.06 -138.054L31.0959 -94.7769C20.6951 -93.2299 13.5177 -83.5444 15.0647 -73.1436L58.3419 217.82C59.8889 228.221 69.5744 235.398 79.9752 233.851L370.939 190.574C381.34 189.027 388.517 179.342 386.97 168.941L343.693 -122.023C342.146 -132.424 332.46 -139.601 322.06 -138.054Z" fill="url(#paint7_radial_8017_57213)"/>
<path d="M221.775 -117.049L61.6417 -24.5958C43.789 -14.2885 37.6721 8.53981 47.9795 26.3926L140.432 186.526C150.74 204.378 173.568 210.495 191.421 200.188L351.554 107.735C369.407 97.4278 375.523 74.5995 365.216 56.7467L272.763 -103.386C262.456 -121.239 239.628 -127.356 221.775 -117.049Z" fill="url(#paint8_radial_8017_57213)"/>
<path d="M156.828 -17.2346L94.1243 60.6694C76.7051 82.3114 80.1283 113.977 101.77 131.396L179.674 194.1C201.316 211.519 232.982 208.096 250.401 186.454L313.105 108.55C330.524 86.9078 327.101 55.2424 305.459 37.8231L227.555 -24.8805C205.913 -42.2998 174.247 -38.8766 156.828 -17.2346Z" fill="url(#paint9_radial_8017_57213)"/>
<path d="M152.415 70.8543L138.328 127.101C131.421 154.681 148.18 182.637 175.759 189.544L232.006 203.631C259.585 210.538 287.542 193.78 294.449 166.2L308.536 109.953C315.442 82.3739 298.684 54.4173 271.105 47.5103L214.858 33.4238C187.279 26.5168 159.322 43.275 152.415 70.8543Z" fill="url(#paint10_radial_8017_57213)"/>
<path d="M167.528 160.657L171.472 171.413C181.262 198.106 210.836 211.808 237.528 202.019L248.284 198.075C274.977 188.285 288.68 158.711 278.89 132.018L274.946 121.263C265.157 94.5703 235.582 80.8674 208.89 90.6566L198.134 94.6011C171.441 104.39 157.739 133.965 167.528 160.657Z" fill="url(#paint11_radial_8017_57213)"/>
<path d="M203.145 197.28L213.845 202.237C229.811 209.635 248.751 202.689 256.148 186.723L261.106 176.023C268.504 160.057 261.558 141.118 245.592 133.72L234.892 128.762C218.926 121.365 199.986 128.311 192.589 144.277L187.631 154.977C180.234 170.942 187.18 189.882 203.145 197.28Z" fill="url(#paint12_radial_8017_57213)"/>
<path d="M197.319 186.293C199.62 198.832 211.651 207.131 224.189 204.829C236.728 202.528 245.027 190.498 242.726 177.959C240.424 165.421 228.394 157.122 215.856 159.423C203.317 161.724 195.018 173.754 197.319 186.293Z" fill="url(#paint13_radial_8017_57213)"/>
</g>
<g clip-path="url(#clip6_8017_57213)">
<mask id="mask1_8017_57213" style="mask-type:luminance" maskUnits="userSpaceOnUse" x="162" y="117" width="18" height="18">
<path d="M179.246 126.078C179.246 121.45 175.495 117.698 170.867 117.698C166.24 117.698 162.488 121.45 162.488 126.078C162.488 130.705 166.24 134.457 170.867 134.457C175.495 134.457 179.246 130.705 179.246 126.078Z" fill="white"/>
</mask>
<g mask="url(#mask1_8017_57213)">
<path d="M179.246 126.078C179.246 121.45 175.495 117.698 170.867 117.698C166.24 117.698 162.488 121.45 162.488 126.078C162.488 130.705 166.24 134.457 170.867 134.457C175.495 134.457 179.246 130.705 179.246 126.078Z" fill="white"/>
<mask id="mask2_8017_57213" style="mask-type:alpha" maskUnits="userSpaceOnUse" x="162" y="117" width="18" height="18">
<path d="M170.867 134.457C175.495 134.457 179.246 130.705 179.246 126.078C179.246 121.45 175.495 117.698 170.867 117.698C166.24 117.698 162.488 121.45 162.488 126.078C162.488 130.705 166.24 134.457 170.867 134.457Z" fill="white"/>
</mask>
<g mask="url(#mask2_8017_57213)">
<path d="M162.488 117.698H179.246V134.457H162.488V117.698Z" fill="white"/>
<path d="M170.867 117.698H162.488V126.73H170.867V117.698Z" fill="#231D9A"/>
<path d="M167.901 119.912L168.531 119.281L167.901 118.651L167.27 119.281L167.901 119.912Z" fill="white"/>
<path d="M167.901 122.462L168.531 121.832L167.901 121.201L167.27 121.832L167.901 122.462Z" fill="white"/>
<path d="M167.901 125.012L168.531 124.382L167.901 123.751L167.27 124.382L167.901 125.012Z" fill="white"/>
<path d="M164.537 119.912L165.168 119.281L164.537 118.651L163.907 119.281L164.537 119.912Z" fill="white"/>
<path d="M164.537 122.462L165.168 121.832L164.537 121.201L163.907 121.832L164.537 122.462Z" fill="white"/>
<path d="M164.537 125.012L165.168 124.382L164.537 123.751L163.907 124.382L164.537 125.012Z" fill="white"/>
<path d="M169.582 121.187L170.213 120.556L169.582 119.926L168.952 120.556L169.582 121.187Z" fill="white"/>
<path d="M169.582 118.637L170.213 118.007L169.582 117.376L168.952 118.007L169.582 118.637Z" fill="white"/>
<path d="M169.582 123.737L170.213 123.106L169.582 122.476L168.952 123.106L169.582 123.737Z" fill="white"/>
<path d="M169.582 126.287L170.213 125.656L169.582 125.026L168.952 125.656L169.582 126.287Z" fill="white"/>
<path d="M166.219 121.187L166.85 120.556L166.219 119.926L165.589 120.556L166.219 121.187Z" fill="white"/>
<path d="M166.219 123.737L166.85 123.106L166.219 122.476L165.589 123.106L166.219 123.737Z" fill="white"/>
<path d="M166.219 126.287L166.85 125.656L166.219 125.026L165.589 125.656L166.219 126.287Z" fill="white"/>
<path d="M162.858 121.187L163.488 120.556L162.858 119.926L162.227 120.556L162.858 121.187Z" fill="white"/>
<path d="M162.858 123.737L163.488 123.106L162.858 122.476L162.227 123.106L162.858 123.737Z" fill="white"/>
<path d="M162.858 126.287L163.488 125.656L162.858 125.026L162.227 125.656L162.858 126.287Z" fill="white"/>
<path d="M183.239 117.613H170.867V118.915H183.239V117.613Z" fill="#F0263C"/>
<path d="M179.983 120.217H170.867V121.52H179.983V120.217Z" fill="#F0263C"/>
<path d="M179.983 122.822H170.867V124.124H179.983V122.822Z" fill="#F0263C"/>
<path d="M183.239 125.427H170.867V126.729H183.239V125.427Z" fill="#F0263C"/>
<path d="M183.173 128.031H162.662V129.333H183.173V128.031Z" fill="#F0263C"/>
<path d="M183.173 130.635H162.662V131.938H183.173V130.635Z" fill="#F0263C"/>
<path d="M183.173 133.24H162.662V134.543H183.173V133.24Z" fill="#F0263C"/>
</g>
</g>
</g>
<rect x="162.788" y="117.998" width="16.1596" height="16.1596" rx="8.0798" stroke="white" stroke-width="0.598504"/>
<path d="M164.201 156.397C164.201 156.627 164.28 156.813 164.438 156.957C164.596 157.101 164.869 157.219 165.257 157.312V155.395C164.934 155.438 164.675 155.549 164.481 155.729C164.295 155.908 164.201 156.131 164.201 156.397ZM167.024 159.532C167.024 159.309 166.945 159.126 166.787 158.982C166.629 158.839 166.359 158.72 165.979 158.627V160.544C166.316 160.494 166.575 160.383 166.754 160.21C166.934 160.031 167.024 159.805 167.024 159.532ZM165.979 161.568V162.71H165.257V161.579C164.575 161.536 164.011 161.349 163.566 161.018C163.12 160.681 162.84 160.236 162.725 159.683L163.856 159.23C163.914 159.604 164.065 159.905 164.309 160.135C164.553 160.365 164.869 160.505 165.257 160.555V158.465C164.84 158.379 164.517 158.296 164.287 158.217C164.058 158.138 163.864 158.041 163.706 157.927C163.469 157.769 163.293 157.571 163.178 157.334C163.063 157.097 163.005 156.817 163.005 156.494C163.005 155.919 163.214 155.442 163.63 155.061C164.047 154.673 164.589 154.447 165.257 154.382V153.38H165.979V154.393C166.604 154.443 167.103 154.626 167.476 154.942C167.857 155.258 168.094 155.689 168.187 156.235L167.024 156.537C166.988 156.25 166.877 156.009 166.69 155.815C166.51 155.621 166.273 155.488 165.979 155.416V157.463C166.402 157.549 166.729 157.636 166.959 157.722C167.189 157.801 167.383 157.894 167.541 158.002C167.771 158.167 167.943 158.372 168.058 158.616C168.173 158.853 168.23 159.133 168.23 159.456C168.23 160.038 168.026 160.519 167.616 160.9C167.207 161.273 166.661 161.496 165.979 161.568ZM171.518 154.264V161.579H170.172V155.761L168.556 156.16V154.964L171.518 154.264ZM173.332 159.93C173.627 159.93 173.867 160.042 174.054 160.264C174.248 160.487 174.345 160.774 174.345 161.126C174.345 161.722 174.165 162.214 173.806 162.602C173.447 162.99 172.98 163.184 172.406 163.184V162.57C172.729 162.548 172.995 162.437 173.203 162.236C173.419 162.035 173.526 161.798 173.526 161.525C173.526 161.489 173.523 161.457 173.516 161.428C173.508 161.399 173.501 161.378 173.494 161.363C173.458 161.385 173.415 161.403 173.365 161.417C173.322 161.424 173.282 161.428 173.246 161.428C173.045 161.428 172.876 161.363 172.74 161.234C172.611 161.097 172.546 160.921 172.546 160.706C172.546 160.476 172.621 160.289 172.772 160.146C172.923 160.002 173.11 159.93 173.332 159.93ZM176.535 158.357H175.447L175.641 154.382H179.66V155.513H176.686L176.589 157.409C176.762 157.266 176.959 157.154 177.182 157.075C177.404 156.989 177.634 156.946 177.871 156.946C178.518 156.946 179.042 157.158 179.444 157.582C179.846 158.006 180.047 158.555 180.047 159.23C180.047 159.977 179.8 160.577 179.304 161.029C178.816 161.482 178.191 161.708 177.43 161.708C176.74 161.708 176.158 161.532 175.684 161.18C175.21 160.828 174.923 160.368 174.823 159.801L175.997 159.381C176.069 159.776 176.23 160.088 176.482 160.318C176.733 160.541 177.049 160.652 177.43 160.652C177.832 160.652 178.151 160.526 178.388 160.275C178.625 160.024 178.744 159.683 178.744 159.252C178.744 158.849 178.633 158.53 178.41 158.293C178.194 158.056 177.9 157.937 177.527 157.937C177.325 157.937 177.139 157.977 176.966 158.056C176.794 158.128 176.65 158.228 176.535 158.357ZM183.697 154.253C184.236 154.253 184.695 154.371 185.076 154.608C185.457 154.838 185.74 155.172 185.927 155.61L184.979 156.235C184.871 155.948 184.703 155.725 184.473 155.567C184.25 155.402 183.988 155.319 183.686 155.319C183.133 155.319 182.692 155.564 182.361 156.052C182.038 156.533 181.877 157.176 181.877 157.98V158.164H181.909C182.038 157.804 182.264 157.517 182.588 157.302C182.918 157.086 183.288 156.979 183.697 156.979C184.372 156.979 184.915 157.194 185.324 157.625C185.74 158.049 185.949 158.598 185.949 159.273C185.949 159.991 185.719 160.577 185.259 161.029C184.8 161.482 184.2 161.708 183.46 161.708C182.986 161.708 182.566 161.611 182.2 161.417C181.833 161.223 181.525 160.939 181.273 160.566C181.065 160.257 180.907 159.902 180.799 159.499C180.691 159.09 180.638 158.645 180.638 158.164C180.638 156.986 180.914 156.041 181.467 155.33C182.027 154.612 182.771 154.253 183.697 154.253ZM183.406 160.652C183.794 160.652 184.11 160.53 184.354 160.286C184.599 160.042 184.721 159.722 184.721 159.327C184.721 158.932 184.599 158.612 184.354 158.368C184.11 158.124 183.794 158.002 183.406 158.002C183.033 158.002 182.724 158.124 182.48 158.368C182.243 158.612 182.124 158.932 182.124 159.327C182.124 159.722 182.243 160.042 182.48 160.286C182.724 160.53 183.033 160.652 183.406 160.652ZM191.833 159.65C191.833 160.275 191.589 160.774 191.1 161.148C190.619 161.521 189.973 161.708 189.161 161.708C188.35 161.708 187.703 161.521 187.222 161.148C186.741 160.774 186.5 160.275 186.5 159.65C186.5 159.234 186.633 158.864 186.899 158.541C187.165 158.217 187.513 158.002 187.944 157.894V157.873C187.563 157.751 187.265 157.546 187.05 157.259C186.841 156.964 186.737 156.612 186.737 156.203C186.737 155.621 186.96 155.151 187.405 154.792C187.85 154.432 188.436 154.253 189.161 154.253C189.894 154.253 190.483 154.432 190.928 154.792C191.373 155.151 191.596 155.621 191.596 156.203C191.596 156.612 191.488 156.964 191.273 157.259C191.064 157.546 190.77 157.751 190.389 157.873V157.894C190.82 158.002 191.169 158.217 191.434 158.541C191.7 158.864 191.833 159.234 191.833 159.65ZM187.998 156.3C187.998 156.645 188.102 156.914 188.31 157.108C188.518 157.295 188.802 157.388 189.161 157.388C189.52 157.388 189.804 157.291 190.012 157.097C190.228 156.903 190.335 156.637 190.335 156.3C190.335 155.955 190.231 155.689 190.023 155.503C189.815 155.316 189.528 155.223 189.161 155.223C188.795 155.223 188.508 155.316 188.299 155.503C188.098 155.689 187.998 155.955 187.998 156.3ZM190.508 159.553C190.508 159.194 190.386 158.91 190.142 158.702C189.905 158.494 189.578 158.39 189.161 158.39C188.752 158.39 188.425 158.494 188.181 158.702C187.944 158.91 187.825 159.194 187.825 159.553C187.825 159.912 187.944 160.196 188.181 160.404C188.418 160.605 188.745 160.706 189.161 160.706C189.578 160.706 189.905 160.605 190.142 160.404C190.386 160.196 190.508 159.912 190.508 159.553ZM193.409 159.93C193.653 159.93 193.858 160.013 194.023 160.178C194.188 160.343 194.271 160.548 194.271 160.792C194.271 161.036 194.188 161.245 194.023 161.417C193.858 161.582 193.653 161.665 193.409 161.665C193.165 161.665 192.96 161.582 192.795 161.417C192.63 161.245 192.547 161.036 192.547 160.792C192.547 160.548 192.63 160.343 192.795 160.178C192.96 160.013 193.165 159.93 193.409 159.93ZM195.59 161.579L198.111 155.492H195.536V156.645H194.372V154.382H199.511V155.373L196.99 161.579H195.59ZM201.743 160.426H204.975V161.579H199.922V160.587C200.827 159.891 201.373 159.467 201.56 159.316C201.754 159.158 201.926 159.015 202.077 158.885C202.565 158.454 202.913 158.059 203.122 157.7C203.337 157.341 203.445 156.975 203.445 156.601C203.445 156.206 203.341 155.898 203.132 155.675C202.931 155.452 202.648 155.341 202.281 155.341C201.951 155.341 201.682 155.449 201.473 155.664C201.272 155.872 201.172 156.145 201.172 156.483C201.172 156.605 201.186 156.724 201.215 156.838C201.251 156.946 201.308 157.061 201.387 157.183L200.267 157.636C200.145 157.47 200.051 157.287 199.987 157.086C199.929 156.885 199.901 156.659 199.901 156.408C199.901 155.804 200.127 155.294 200.579 154.878C201.032 154.461 201.613 154.253 202.324 154.253C203.079 154.253 203.675 154.461 204.113 154.878C204.558 155.294 204.781 155.858 204.781 156.569C204.781 157.194 204.533 157.822 204.037 158.454C203.542 159.086 202.777 159.744 201.743 160.426Z" fill="white"/>
</g>
<g clip-path="url(#clip7_8017_57213)">
<rect x="253.461" y="108.122" width="95.7606" height="64.6384" rx="10.7731" fill="#230D3A"/>
<g opacity="0.25">
<path d="M317.188 32.9938L163.461 55.8586C157.966 56.6759 154.174 61.7931 154.992 67.2882L177.856 221.014C178.674 226.509 183.791 230.301 189.286 229.484L343.012 206.619C348.507 205.802 352.299 200.685 351.482 195.19L328.617 41.4636C327.8 35.9685 322.683 32.1765 317.188 32.9938Z" fill="url(#paint14_radial_8017_57213)"/>
<path d="M264.204 44.0915L179.6 92.9375C170.168 98.3832 166.936 110.444 172.382 119.876L221.228 204.48C226.674 213.912 238.735 217.144 248.167 211.698L332.771 162.852C342.203 157.407 345.435 145.346 339.989 135.914L291.143 51.3098C285.697 41.8775 273.636 38.6458 264.204 44.0915Z" fill="url(#paint15_radial_8017_57213)"/>
<path d="M229.89 96.8269L196.762 137.986C187.558 149.42 189.367 166.15 200.801 175.354L241.96 208.482C253.395 217.685 270.125 215.877 279.328 204.442L312.456 163.283C321.659 151.849 319.851 135.119 308.417 125.916L267.257 92.7873C255.823 83.5841 239.093 85.3927 229.89 96.8269Z" fill="url(#paint16_radial_8017_57213)"/>
<path d="M227.56 143.367L220.117 173.085C216.468 187.656 225.322 202.426 239.893 206.075L269.61 213.518C284.181 217.167 298.952 208.313 302.601 193.742L310.043 164.025C313.693 149.454 304.839 134.683 290.268 131.034L260.55 123.592C245.979 119.942 231.209 128.796 227.56 143.367Z" fill="url(#paint17_radial_8017_57213)"/>
<path d="M235.543 190.813L237.627 196.496C242.799 210.599 258.425 217.838 272.527 212.666L278.21 210.582C292.312 205.41 299.552 189.785 294.38 175.683L292.296 170C287.124 155.897 271.499 148.658 257.396 153.83L251.714 155.914C237.611 161.086 230.371 176.711 235.543 190.813Z" fill="url(#paint18_radial_8017_57213)"/>
<path d="M254.361 210.162L260.014 212.781C268.449 216.69 278.455 213.02 282.364 204.585L284.983 198.931C288.892 190.496 285.222 180.49 276.786 176.581L271.133 173.962C262.698 170.054 252.692 173.723 248.783 182.159L246.164 187.812C242.255 196.247 245.925 206.254 254.361 210.162Z" fill="url(#paint19_radial_8017_57213)"/>
</g>
<g clip-path="url(#clip8_8017_57213)">
<mask id="mask3_8017_57213" style="mask-type:alpha" maskUnits="userSpaceOnUse" x="263" y="117" width="17" height="18">
<path d="M271.416 134.457C276.044 134.457 279.795 130.705 279.795 126.078C279.795 121.45 276.044 117.698 271.416 117.698C266.789 117.698 263.037 121.45 263.037 126.078C263.037 130.705 266.789 134.457 271.416 134.457Z" fill="#231D9A"/>
</mask>
<g mask="url(#mask3_8017_57213)">
<path d="M279.793 117.698H263.035V134.457H279.793V117.698Z" fill="#231D9A"/>
<path d="M270.105 124.768V117.437H269.32V123.066L263.69 119.27L261.988 121.495L265.785 123.983H262.381V124.768H270.105Z" fill="white"/>
<path d="M270.105 127.387V134.718H269.32V129.089L263.69 132.885L261.988 130.66L265.785 128.172H262.381V127.387H270.105Z" fill="white"/>
<path d="M272.725 124.768V117.437H273.51V123.066L279.14 119.27L280.842 121.495L277.045 123.983H280.449V124.768H272.725Z" fill="white"/>
<path d="M272.725 127.387V134.718H273.51V129.089L279.14 132.885L280.842 130.66L277.045 128.172H280.449V127.387H272.725Z" fill="white"/>
<path d="M269.32 123.983V123.852L263.821 120.186L262.904 121.233L266.963 123.983H269.32Z" fill="#F0263C"/>
<path d="M269.32 128.172V128.303L263.821 131.969L262.904 130.922L266.963 128.172H269.32Z" fill="#F0263C"/>
<path d="M273.51 123.983V123.852L279.009 120.186L279.925 121.233L275.866 123.983H273.51Z" fill="#F0263C"/>
<path d="M273.51 128.172V128.303L279.009 131.969L279.925 130.922L275.866 128.172H273.51Z" fill="#F0263C"/>
<path fill-rule="evenodd" clip-rule="evenodd" d="M272.724 124.768V117.175H270.105V124.768H262.512V127.387H270.105V134.98H272.724V127.387H280.317V124.768H272.724Z" fill="#F0263C"/>
</g>
</g>
<rect x="263.336" y="117.998" width="16.1596" height="16.1596" rx="8.0798" stroke="white" stroke-width="0.598504"/>
<path d="M268.359 159.252L269.296 159.876C269.217 160.458 269.005 160.889 268.661 161.169C268.316 161.442 267.82 161.579 267.174 161.579H263.63V160.447C263.953 160.447 264.208 160.358 264.395 160.178C264.588 159.991 264.685 159.744 264.685 159.435C264.685 159.32 264.675 159.205 264.653 159.09C264.639 158.968 264.614 158.846 264.578 158.724H263.705V157.894H264.244C264.136 157.628 264.061 157.399 264.017 157.205C263.974 157.011 263.953 156.817 263.953 156.623C263.953 155.941 264.19 155.377 264.664 154.932C265.145 154.479 265.756 154.253 266.495 154.253C267.199 154.253 267.759 154.45 268.176 154.845C268.6 155.24 268.811 155.75 268.811 156.375C268.811 156.569 268.783 156.763 268.725 156.957C268.668 157.144 268.582 157.323 268.467 157.496L267.4 157.065C267.465 156.95 267.512 156.838 267.54 156.731C267.576 156.623 267.594 156.508 267.594 156.386C267.594 156.056 267.494 155.793 267.292 155.6C267.099 155.398 266.836 155.298 266.506 155.298C266.14 155.298 265.845 155.42 265.623 155.664C265.4 155.908 265.289 156.228 265.289 156.623C265.289 156.831 265.307 157.032 265.343 157.226C265.386 157.413 265.461 157.636 265.569 157.894H267.055V158.724H265.838C265.86 158.817 265.874 158.914 265.881 159.015C265.888 159.115 265.892 159.216 265.892 159.316C265.892 159.532 265.813 159.751 265.655 159.973C265.504 160.189 265.317 160.347 265.095 160.447H267.088C267.512 160.447 267.82 160.358 268.014 160.178C268.215 159.991 268.33 159.683 268.359 159.252ZM272.309 154.264V161.579H270.963V155.761L269.347 156.16V154.964L272.309 154.264ZM274.123 159.93C274.418 159.93 274.658 160.042 274.845 160.264C275.039 160.487 275.136 160.774 275.136 161.126C275.136 161.722 274.956 162.214 274.597 162.602C274.238 162.99 273.771 163.184 273.197 163.184V162.57C273.52 162.548 273.786 162.437 273.994 162.236C274.209 162.035 274.317 161.798 274.317 161.525C274.317 161.489 274.314 161.457 274.306 161.428C274.299 161.399 274.292 161.378 274.285 161.363C274.249 161.385 274.206 161.403 274.156 161.417C274.112 161.424 274.073 161.428 274.037 161.428C273.836 161.428 273.667 161.363 273.531 161.234C273.401 161.097 273.337 160.921 273.337 160.706C273.337 160.476 273.412 160.289 273.563 160.146C273.714 160.002 273.901 159.93 274.123 159.93ZM277.326 158.357H276.238L276.432 154.382H280.45V155.513H277.477L277.38 157.409C277.552 157.266 277.75 157.154 277.973 157.075C278.195 156.989 278.425 156.946 278.662 156.946C279.308 156.946 279.833 157.158 280.235 157.582C280.637 158.006 280.838 158.555 280.838 159.23C280.838 159.977 280.59 160.577 280.095 161.029C279.607 161.482 278.982 161.708 278.22 161.708C277.531 161.708 276.949 161.532 276.475 161.18C276.001 160.828 275.714 160.368 275.613 159.801L276.788 159.381C276.859 159.776 277.021 160.088 277.272 160.318C277.524 160.541 277.84 160.652 278.22 160.652C278.623 160.652 278.942 160.526 279.179 160.275C279.416 160.024 279.535 159.683 279.535 159.252C279.535 158.849 279.423 158.53 279.201 158.293C278.985 158.056 278.691 157.937 278.317 157.937C278.116 157.937 277.93 157.977 277.757 158.056C277.585 158.128 277.441 158.228 277.326 158.357ZM284.488 154.253C285.027 154.253 285.486 154.371 285.867 154.608C286.248 154.838 286.531 155.172 286.718 155.61L285.77 156.235C285.662 155.948 285.493 155.725 285.264 155.567C285.041 155.402 284.779 155.319 284.477 155.319C283.924 155.319 283.482 155.564 283.152 156.052C282.829 156.533 282.667 157.176 282.667 157.98V158.164H282.7C282.829 157.804 283.055 157.517 283.378 157.302C283.709 157.086 284.079 156.979 284.488 156.979C285.163 156.979 285.705 157.194 286.115 157.625C286.531 158.049 286.74 158.598 286.74 159.273C286.74 159.991 286.51 160.577 286.05 161.029C285.59 161.482 284.991 161.708 284.251 161.708C283.777 161.708 283.357 161.611 282.991 161.417C282.624 161.223 282.315 160.939 282.064 160.566C281.856 160.257 281.698 159.902 281.59 159.499C281.482 159.09 281.428 158.645 281.428 158.164C281.428 156.986 281.705 156.041 282.258 155.33C282.818 154.612 283.561 154.253 284.488 154.253ZM284.197 160.652C284.585 160.652 284.901 160.53 285.145 160.286C285.389 160.042 285.511 159.722 285.511 159.327C285.511 158.932 285.389 158.612 285.145 158.368C284.901 158.124 284.585 158.002 284.197 158.002C283.824 158.002 283.515 158.124 283.271 158.368C283.034 158.612 282.915 158.932 282.915 159.327C282.915 159.722 283.034 160.042 283.271 160.286C283.515 160.53 283.824 160.652 284.197 160.652ZM292.624 159.65C292.624 160.275 292.38 160.774 291.891 161.148C291.41 161.521 290.764 161.708 289.952 161.708C289.14 161.708 288.494 161.521 288.013 161.148C287.532 160.774 287.291 160.275 287.291 159.65C287.291 159.234 287.424 158.864 287.69 158.541C287.955 158.217 288.304 158.002 288.735 157.894V157.873C288.354 157.751 288.056 157.546 287.84 157.259C287.632 156.964 287.528 156.612 287.528 156.203C287.528 155.621 287.751 155.151 288.196 154.792C288.641 154.432 289.227 154.253 289.952 154.253C290.685 154.253 291.274 154.432 291.719 154.792C292.164 155.151 292.387 155.621 292.387 156.203C292.387 156.612 292.279 156.964 292.064 157.259C291.855 157.546 291.561 157.751 291.18 157.873V157.894C291.611 158.002 291.959 158.217 292.225 158.541C292.491 158.864 292.624 159.234 292.624 159.65ZM288.789 156.3C288.789 156.645 288.893 156.914 289.101 157.108C289.309 157.295 289.593 157.388 289.952 157.388C290.311 157.388 290.595 157.291 290.803 157.097C291.019 156.903 291.126 156.637 291.126 156.3C291.126 155.955 291.022 155.689 290.814 155.503C290.606 155.316 290.318 155.223 289.952 155.223C289.586 155.223 289.298 155.316 289.09 155.503C288.889 155.689 288.789 155.955 288.789 156.3ZM291.299 159.553C291.299 159.194 291.177 158.91 290.932 158.702C290.695 158.494 290.369 158.39 289.952 158.39C289.543 158.39 289.216 158.494 288.972 158.702C288.735 158.91 288.616 159.194 288.616 159.553C288.616 159.912 288.735 160.196 288.972 160.404C289.209 160.605 289.535 160.706 289.952 160.706C290.369 160.706 290.695 160.605 290.932 160.404C291.177 160.196 291.299 159.912 291.299 159.553ZM294.2 159.93C294.444 159.93 294.649 160.013 294.814 160.178C294.979 160.343 295.062 160.548 295.062 160.792C295.062 161.036 294.979 161.245 294.814 161.417C294.649 161.582 294.444 161.665 294.2 161.665C293.956 161.665 293.751 161.582 293.586 161.417C293.42 161.245 293.338 161.036 293.338 160.792C293.338 160.548 293.42 160.343 293.586 160.178C293.751 160.013 293.956 159.93 294.2 159.93ZM296.38 161.579L298.901 155.492H296.327V156.645H295.163V154.382H300.302V155.373L297.781 161.579H296.38ZM302.534 160.426H305.765V161.579H300.713V160.587C301.618 159.891 302.164 159.467 302.35 159.316C302.544 159.158 302.717 159.015 302.867 158.885C303.356 158.454 303.704 158.059 303.912 157.7C304.128 157.341 304.236 156.975 304.236 156.601C304.236 156.206 304.132 155.898 303.923 155.675C303.722 155.452 303.438 155.341 303.072 155.341C302.742 155.341 302.472 155.449 302.264 155.664C302.063 155.872 301.963 156.145 301.963 156.483C301.963 156.605 301.977 156.724 302.006 156.838C302.042 156.946 302.099 157.061 302.178 157.183L301.058 157.636C300.936 157.47 300.842 157.287 300.778 157.086C300.72 156.885 300.691 156.659 300.691 156.408C300.691 155.804 300.918 155.294 301.37 154.878C301.823 154.461 302.404 154.253 303.115 154.253C303.869 154.253 304.465 154.461 304.904 154.878C305.349 155.294 305.572 155.858 305.572 156.569C305.572 157.194 305.324 157.822 304.828 158.454C304.333 159.086 303.568 159.744 302.534 160.426Z" fill="white"/>
</g>
</g>
</g>
<rect x="59.5449" y="182.337" width="28.7282" height="28.7282" rx="14.3641" fill="#4F3FD7"/>
<path d="M79.0253 196.162H74.9851C74.6877 196.162 74.4466 195.921 74.4466 195.624V191.583C74.4466 191.435 74.3261 191.314 74.1774 191.314H73.6389C73.4902 191.314 73.3697 191.435 73.3697 191.583V195.624C73.3697 195.921 73.1286 196.162 72.8312 196.162H68.7907C68.642 196.162 68.5215 196.283 68.5215 196.431V196.97C68.5215 197.119 68.642 197.239 68.7907 197.239H72.8312C73.1286 197.239 73.3697 197.48 73.3697 197.778V201.818C73.3697 201.967 73.4902 202.087 73.6389 202.087H74.1774C74.3261 202.087 74.4466 201.967 74.4466 201.818V197.778C74.4466 197.48 74.6877 197.239 74.9851 197.239H79.0253C79.174 197.239 79.2946 197.119 79.2946 196.97V196.431C79.2946 196.283 79.174 196.162 79.0253 196.162Z" fill="#F7F7FF"/>
<path d="M59.7533 218.709H59.739L58.913 221H60.5865L59.7533 218.709ZM61.8649 222.853H61.2544L60.766 221.51H58.7263L58.2451 222.853H57.649L59.423 218.055H60.0909L61.8649 222.853ZM63.7068 222.465C63.9893 222.465 64.2191 222.364 64.3962 222.163C64.5734 221.957 64.662 221.677 64.662 221.323V220.655C64.662 220.349 64.571 220.104 64.3891 219.923C64.2071 219.736 63.9821 219.642 63.714 219.642C63.3932 219.642 63.1418 219.769 62.9598 220.023C62.7827 220.277 62.6941 220.638 62.6941 221.108C62.6941 221.538 62.7827 221.874 62.9598 222.113C63.137 222.348 63.386 222.465 63.7068 222.465ZM65.2509 222.853H64.7841L64.7194 222.17C64.638 222.419 64.4968 222.611 64.2957 222.745C64.0946 222.874 63.8504 222.939 63.5631 222.939C63.1274 222.939 62.7731 222.776 62.5002 222.451C62.2321 222.12 62.098 221.675 62.098 221.115C62.098 220.511 62.2321 220.037 62.5002 219.693C62.7731 219.348 63.1466 219.176 63.6206 219.176C63.8696 219.176 64.0874 219.228 64.2742 219.334C64.4609 219.439 64.5902 219.578 64.662 219.75V217.667H65.2509V222.853ZM67.5068 222.465C67.7893 222.465 68.0191 222.364 68.1963 222.163C68.3734 221.957 68.462 221.677 68.462 221.323V220.655C68.462 220.349 68.371 220.104 68.1891 219.923C68.0072 219.736 67.7821 219.642 67.514 219.642C67.1932 219.642 66.9418 219.769 66.7599 220.023C66.5827 220.277 66.4941 220.638 66.4941 221.108C66.4941 221.538 66.5827 221.874 66.7599 222.113C66.937 222.348 67.186 222.465 67.5068 222.465ZM69.0509 222.853H68.5841L68.5195 222.17C68.4381 222.419 68.2968 222.611 68.0957 222.745C67.8946 222.874 67.6504 222.939 67.3632 222.939C66.9275 222.939 66.5731 222.776 66.3002 222.451C66.0321 222.12 65.898 221.675 65.898 221.115C65.898 220.511 66.0321 220.037 66.3002 219.693C66.5731 219.348 66.9466 219.176 67.4206 219.176C67.6696 219.176 67.8875 219.228 68.0742 219.334C68.2609 219.439 68.3902 219.578 68.462 219.75V217.667H69.0509V222.853ZM75.2426 218.939H75.2282L73.8565 221.747H73.3968L72.025 218.939H72.0107L72.0179 219.772V222.853H71.4289V218.055H72.1615L73.641 221.093H73.6554L75.1349 218.055H75.8243V222.853H75.2354V219.772L75.2426 218.939ZM78.1143 219.176C78.6075 219.176 78.9977 219.343 79.285 219.678C79.5771 220.013 79.7231 220.473 79.7231 221.057C79.7231 221.641 79.5771 222.101 79.285 222.436C78.9977 222.771 78.6075 222.939 78.1143 222.939C77.6212 222.939 77.2286 222.771 76.9365 222.436C76.6492 222.101 76.5056 221.641 76.5056 221.057C76.5056 220.473 76.6492 220.013 76.9365 219.678C77.2286 219.343 77.6212 219.176 78.1143 219.176ZM78.1143 222.479C78.4447 222.479 78.6961 222.36 78.8685 222.12C79.0408 221.876 79.127 221.522 79.127 221.057C79.127 220.593 79.0408 220.241 78.8685 220.002C78.6961 219.757 78.4447 219.635 78.1143 219.635C77.784 219.635 77.5326 219.757 77.3602 220.002C77.1879 220.241 77.1017 220.593 77.1017 221.057C77.1017 221.522 77.1879 221.876 77.3602 222.12C77.5326 222.36 77.784 222.479 78.1143 222.479ZM80.3678 219.262H80.8059L80.8777 219.958C80.9782 219.709 81.1339 219.518 81.3445 219.384C81.5552 219.245 81.8018 219.176 82.0843 219.176C82.4194 219.176 82.6876 219.281 82.8887 219.492C83.0898 219.697 83.1903 219.978 83.1903 220.332V222.853H82.6014V220.454C82.6014 220.21 82.5391 220.023 82.4147 219.894C82.295 219.76 82.1226 219.693 81.8975 219.693C81.6007 219.693 81.3685 219.786 81.2009 219.973C81.0381 220.16 80.9567 220.425 80.9567 220.77V222.853H80.3678V219.262ZM85.4056 222.472C85.6307 222.472 85.815 222.417 85.9587 222.307C86.1023 222.197 86.2004 222.034 86.2531 221.819L86.763 221.962C86.6864 222.278 86.5308 222.52 86.2962 222.688C86.0616 222.855 85.7647 222.939 85.4056 222.939C84.9029 222.939 84.5103 222.776 84.2278 222.451C83.9453 222.125 83.804 221.665 83.804 221.072C83.804 220.492 83.9477 220.033 84.235 219.693C84.527 219.348 84.9173 219.176 85.4056 219.176C85.8318 219.176 86.1693 219.314 86.4183 219.592C86.6721 219.865 86.799 220.229 86.799 220.684C86.799 220.775 86.7918 220.863 86.7774 220.95C86.763 221.036 86.7463 221.108 86.7271 221.165H84.3714C84.3858 221.582 84.4815 221.905 84.6587 222.135C84.8406 222.36 85.0896 222.472 85.4056 222.472ZM85.3913 219.628C85.1088 219.628 84.879 219.724 84.7018 219.915C84.5294 220.107 84.4241 220.38 84.3858 220.734H86.21C86.2148 220.71 86.2172 220.686 86.2172 220.662C86.2172 220.634 86.2172 220.595 86.2172 220.547C86.2172 220.274 86.1406 220.054 85.9874 219.887C85.839 219.714 85.6402 219.628 85.3913 219.628ZM88.5776 222.293H88.5919L89.6046 219.262H90.1935L88.8289 223.047C88.6566 223.521 88.4746 223.858 88.2831 224.059C88.0916 224.26 87.8498 224.361 87.5577 224.361C87.4715 224.361 87.3854 224.349 87.2992 224.325C87.213 224.301 87.1316 224.268 87.055 224.225L87.1412 223.736C87.2369 223.794 87.3111 223.83 87.3638 223.844C87.4213 223.863 87.4811 223.873 87.5434 223.873C87.7205 223.873 87.8594 223.815 87.9599 223.7C88.0605 223.585 88.173 223.353 88.2975 223.004L86.9616 219.262H87.5865L88.5776 222.293Z" fill="#241C5F"/>
<rect x="115.605" y="182.337" width="28.7282" height="28.7282" rx="14.3641" fill="#F7F7FF"/>
<path d="M135.346 192.202L132.471 201.872C132.433 202.001 132.315 202.088 132.181 202.087L131.371 202.081C131.264 202.08 131.165 202.023 131.112 201.93L129.433 198.994C129.249 198.673 129.227 198.276 129.402 197.95C129.406 197.943 129.41 197.935 129.414 197.928C129.561 197.659 129.613 197.348 129.533 197.052C129.432 196.68 129.538 196.283 129.811 196.01L130.627 195.194C130.745 195.076 130.935 195.076 131.053 195.194L131.478 195.62C131.596 195.737 131.596 195.928 131.478 196.045L130.148 197.375C130.052 197.471 130.032 197.62 130.1 197.737L131.213 199.686C131.344 199.914 131.683 199.877 131.762 199.626L133.736 193.316C133.809 193.084 133.591 192.866 133.36 192.939L127.044 194.911C126.793 194.989 126.757 195.329 126.985 195.459L128.109 196.101C128.253 196.184 128.303 196.368 128.22 196.512L127.921 197.034C127.839 197.178 127.655 197.228 127.511 197.145L124.74 195.56C124.647 195.507 124.589 195.409 124.588 195.302L124.582 194.492C124.581 194.358 124.669 194.239 124.797 194.201L134.473 191.327C134.579 191.295 134.693 191.324 134.772 191.403L135.271 191.904C135.348 191.982 135.377 192.096 135.346 192.202Z" fill="#4F3FD7"/>
<path d="M115.84 221.582C115.84 221.989 115.686 222.317 115.38 222.566C115.073 222.814 114.678 222.939 114.195 222.939C113.702 222.939 113.292 222.814 112.967 222.566C112.641 222.312 112.447 221.967 112.385 221.531L112.938 221.359C112.981 221.689 113.118 221.953 113.347 222.149C113.582 222.345 113.864 222.443 114.195 222.443C114.516 222.443 114.772 222.369 114.963 222.221C115.16 222.068 115.258 221.862 115.258 221.603C115.258 221.464 115.224 221.345 115.157 221.244C115.09 221.139 114.987 221.048 114.848 220.971C114.777 220.933 114.69 220.894 114.59 220.856C114.489 220.818 114.327 220.768 114.101 220.705C113.795 220.619 113.57 220.547 113.426 220.49C113.288 220.432 113.168 220.368 113.067 220.296C112.909 220.181 112.792 220.045 112.715 219.887C112.639 219.724 112.6 219.537 112.6 219.326C112.6 218.929 112.749 218.603 113.046 218.35C113.347 218.096 113.728 217.969 114.188 217.969C114.662 217.969 115.038 218.079 115.315 218.299C115.598 218.52 115.763 218.838 115.811 219.255L115.251 219.377C115.217 219.099 115.105 218.879 114.913 218.716C114.726 218.548 114.487 218.465 114.195 218.465C113.893 218.465 113.649 218.541 113.462 218.694C113.276 218.848 113.182 219.049 113.182 219.298C113.182 219.437 113.213 219.556 113.276 219.657C113.343 219.757 113.446 219.846 113.584 219.923C113.656 219.961 113.742 219.999 113.843 220.037C113.943 220.071 114.104 220.116 114.324 220.174C114.635 220.26 114.863 220.334 115.006 220.397C115.15 220.454 115.272 220.519 115.373 220.59C115.531 220.705 115.648 220.844 115.725 221.007C115.801 221.17 115.84 221.361 115.84 221.582ZM117.832 222.472C118.057 222.472 118.241 222.417 118.385 222.307C118.529 222.197 118.627 222.034 118.68 221.819L119.189 221.962C119.113 222.278 118.957 222.52 118.723 222.688C118.488 222.855 118.191 222.939 117.832 222.939C117.329 222.939 116.937 222.776 116.654 222.451C116.372 222.125 116.23 221.665 116.23 221.072C116.23 220.492 116.374 220.033 116.661 219.693C116.953 219.348 117.344 219.176 117.832 219.176C118.258 219.176 118.596 219.314 118.845 219.592C119.098 219.865 119.225 220.229 119.225 220.684C119.225 220.775 119.218 220.863 119.204 220.95C119.189 221.036 119.173 221.108 119.154 221.165H116.798C116.812 221.582 116.908 221.905 117.085 222.135C117.267 222.36 117.516 222.472 117.832 222.472ZM117.818 219.628C117.535 219.628 117.305 219.724 117.128 219.915C116.956 220.107 116.851 220.38 116.812 220.734H118.636C118.641 220.71 118.644 220.686 118.644 220.662C118.644 220.634 118.644 220.595 118.644 220.547C118.644 220.274 118.567 220.054 118.414 219.887C118.265 219.714 118.067 219.628 117.818 219.628ZM119.861 219.262H120.299L120.371 219.958C120.472 219.709 120.627 219.518 120.838 219.384C121.049 219.245 121.295 219.176 121.578 219.176C121.913 219.176 122.181 219.281 122.382 219.492C122.583 219.697 122.684 219.978 122.684 220.332V222.853H122.095V220.454C122.095 220.21 122.033 220.023 121.908 219.894C121.788 219.76 121.616 219.693 121.391 219.693C121.094 219.693 120.862 219.786 120.694 219.973C120.532 220.16 120.45 220.425 120.45 220.77V222.853H119.861V219.262ZM124.906 222.465C125.189 222.465 125.419 222.364 125.596 222.163C125.773 221.957 125.861 221.677 125.861 221.323V220.655C125.861 220.349 125.771 220.104 125.589 219.923C125.407 219.736 125.182 219.642 124.913 219.642C124.593 219.642 124.341 219.769 124.159 220.023C123.982 220.277 123.894 220.638 123.894 221.108C123.894 221.538 123.982 221.874 124.159 222.113C124.336 222.348 124.585 222.465 124.906 222.465ZM126.45 222.853H125.984L125.919 222.17C125.838 222.419 125.696 222.611 125.495 222.745C125.294 222.874 125.05 222.939 124.763 222.939C124.327 222.939 123.973 222.776 123.7 222.451C123.432 222.12 123.297 221.675 123.297 221.115C123.297 220.511 123.432 220.037 123.7 219.693C123.973 219.348 124.346 219.176 124.82 219.176C125.069 219.176 125.287 219.228 125.474 219.334C125.66 219.439 125.79 219.578 125.861 219.75V217.667H126.45V222.853ZM132.642 218.939H132.628L131.256 221.747H130.796L129.425 218.939H129.41L129.417 219.772V222.853H128.828V218.055H129.561L131.04 221.093H131.055L132.534 218.055H133.224V222.853H132.635V219.772L132.642 218.939ZM135.514 219.176C136.007 219.176 136.397 219.343 136.684 219.678C136.977 220.013 137.123 220.473 137.123 221.057C137.123 221.641 136.977 222.101 136.684 222.436C136.397 222.771 136.007 222.939 135.514 222.939C135.021 222.939 134.628 222.771 134.336 222.436C134.049 222.101 133.905 221.641 133.905 221.057C133.905 220.473 134.049 220.013 134.336 219.678C134.628 219.343 135.021 219.176 135.514 219.176ZM135.514 222.479C135.844 222.479 136.096 222.36 136.268 222.12C136.44 221.876 136.526 221.522 136.526 221.057C136.526 220.593 136.44 220.241 136.268 220.002C136.096 219.757 135.844 219.635 135.514 219.635C135.183 219.635 134.932 219.757 134.76 220.002C134.587 220.241 134.501 220.593 134.501 221.057C134.501 221.522 134.587 221.876 134.76 222.12C134.932 222.36 135.183 222.479 135.514 222.479ZM137.767 219.262H138.205L138.277 219.958C138.378 219.709 138.533 219.518 138.744 219.384C138.955 219.245 139.201 219.176 139.484 219.176C139.819 219.176 140.087 219.281 140.288 219.492C140.489 219.697 140.59 219.978 140.59 220.332V222.853H140.001V220.454C140.001 220.21 139.939 220.023 139.814 219.894C139.694 219.76 139.522 219.693 139.297 219.693C139 219.693 138.768 219.786 138.6 219.973C138.438 220.16 138.356 220.425 138.356 220.77V222.853H137.767V219.262ZM142.805 222.472C143.03 222.472 143.214 222.417 143.358 222.307C143.502 222.197 143.6 222.034 143.653 221.819L144.163 221.962C144.086 222.278 143.93 222.52 143.696 222.688C143.461 222.855 143.164 222.939 142.805 222.939C142.302 222.939 141.91 222.776 141.627 222.451C141.345 222.125 141.204 221.665 141.204 221.072C141.204 220.492 141.347 220.033 141.634 219.693C141.926 219.348 142.317 219.176 142.805 219.176C143.231 219.176 143.569 219.314 143.818 219.592C144.072 219.865 144.198 220.229 144.198 220.684C144.198 220.775 144.191 220.863 144.177 220.95C144.163 221.036 144.146 221.108 144.127 221.165H141.771C141.785 221.582 141.881 221.905 142.058 222.135C142.24 222.36 142.489 222.472 142.805 222.472ZM142.791 219.628C142.508 219.628 142.278 219.724 142.101 219.915C141.929 220.107 141.824 220.38 141.785 220.734H143.609C143.614 220.71 143.617 220.686 143.617 220.662C143.617 220.634 143.617 220.595 143.617 220.547C143.617 220.274 143.54 220.054 143.387 219.887C143.238 219.714 143.04 219.628 142.791 219.628ZM145.977 222.293H145.991L147.004 219.262H147.593L146.228 223.047C146.056 223.521 145.874 223.858 145.683 224.059C145.491 224.26 145.249 224.361 144.957 224.361C144.871 224.361 144.785 224.349 144.699 224.325C144.612 224.301 144.531 224.268 144.454 224.225L144.541 223.736C144.636 223.794 144.711 223.83 144.763 223.844C144.821 223.863 144.881 223.873 144.943 223.873C145.12 223.873 145.259 223.815 145.359 223.7C145.46 223.585 145.572 223.353 145.697 223.004L144.361 219.262H144.986L145.977 222.293Z" fill="#241C5F"/>
<rect x="171.664" y="182.337" width="28.7282" height="28.7282" rx="14.3641" fill="#F7F7FF"/>
<path d="M189.137 193.876V194.393C189.137 194.536 189.021 194.652 188.879 194.652H182.151C182.008 194.652 181.892 194.767 181.892 194.91V195.686C181.892 195.829 181.776 195.945 181.633 195.945H181.116C180.973 195.945 180.857 195.829 180.857 195.686V195.174C180.857 194.952 180.922 194.703 181.137 194.595C181.302 194.515 181.452 194.452 181.592 194.333C181.683 194.258 181.77 194.176 181.835 194.083C181.928 193.953 182.001 193.816 182.135 193.72C182.265 193.632 182.425 193.617 182.583 193.617H188.879C189.021 193.617 189.137 193.733 189.137 193.876Z" fill="#4F3FD7"/>
<path d="M188.807 196.892L188.414 196.557C188.305 196.464 188.292 196.301 188.384 196.192L189.983 194.315C190.065 194.219 190.065 194.077 189.984 193.981L188.381 192.072C188.289 191.962 188.303 191.799 188.413 191.707L188.809 191.375C188.918 191.283 189.081 191.297 189.173 191.407L191.137 193.745C191.176 193.792 191.198 193.851 191.198 193.913L191.196 194.391C191.196 194.452 191.174 194.512 191.134 194.558L189.172 196.863C189.08 196.972 188.916 196.985 188.807 196.892Z" fill="#4F3FD7"/>
<path d="M182.92 199.526V199.009C182.92 198.866 183.036 198.75 183.179 198.75H189.906C190.049 198.75 190.165 198.634 190.165 198.491V197.715C190.165 197.573 190.281 197.457 190.424 197.457H190.941C191.084 197.457 191.2 197.573 191.2 197.715V198.228C191.2 198.45 191.135 198.698 190.92 198.807C190.755 198.887 190.605 198.949 190.465 199.068C190.375 199.143 190.287 199.226 190.222 199.319C190.129 199.448 190.056 199.586 189.922 199.681C189.793 199.769 189.632 199.785 189.474 199.785H183.179C183.036 199.785 182.92 199.669 182.92 199.526Z" fill="#4F3FD7"/>
<path d="M183.248 196.51L183.641 196.845C183.75 196.938 183.763 197.101 183.671 197.21L182.072 199.087C181.991 199.183 181.99 199.324 182.071 199.421L183.674 201.33C183.766 201.439 183.752 201.602 183.643 201.694L183.247 202.027C183.137 202.119 182.974 202.105 182.882 201.995L180.918 199.656C180.879 199.61 180.857 199.55 180.857 199.489L180.859 199.01C180.859 198.949 180.881 198.89 180.921 198.844L182.883 196.539C182.976 196.43 183.139 196.417 183.248 196.51Z" fill="#4F3FD7"/>
<path d="M176.93 222.939C176.313 222.939 175.815 222.714 175.436 222.264C175.058 221.814 174.869 221.21 174.869 220.454C174.869 219.697 175.058 219.094 175.436 218.644C175.815 218.194 176.313 217.969 176.93 217.969C177.352 217.969 177.701 218.062 177.979 218.249C178.257 218.431 178.47 218.709 178.618 219.082L178.101 219.377C178.02 219.089 177.876 218.869 177.67 218.716C177.469 218.563 177.222 218.486 176.93 218.486C176.49 218.486 176.143 218.661 175.889 219.01C175.64 219.36 175.515 219.841 175.515 220.454C175.515 221.067 175.64 221.548 175.889 221.898C176.143 222.247 176.49 222.422 176.93 222.422C177.222 222.422 177.469 222.345 177.67 222.192C177.876 222.034 178.02 221.814 178.101 221.531L178.618 221.819C178.47 222.197 178.257 222.479 177.979 222.666C177.701 222.848 177.352 222.939 176.93 222.939ZM180.552 219.176C181.045 219.176 181.435 219.343 181.722 219.678C182.014 220.013 182.161 220.473 182.161 221.057C182.161 221.641 182.014 222.101 181.722 222.436C181.435 222.771 181.045 222.939 180.552 222.939C180.059 222.939 179.666 222.771 179.374 222.436C179.087 222.101 178.943 221.641 178.943 221.057C178.943 220.473 179.087 220.013 179.374 219.678C179.666 219.343 180.059 219.176 180.552 219.176ZM180.552 222.479C180.882 222.479 181.133 222.36 181.306 222.12C181.478 221.876 181.564 221.522 181.564 221.057C181.564 220.593 181.478 220.241 181.306 220.002C181.133 219.757 180.882 219.635 180.552 219.635C180.221 219.635 179.97 219.757 179.798 220.002C179.625 220.241 179.539 220.593 179.539 221.057C179.539 221.522 179.625 221.876 179.798 222.12C179.97 222.36 180.221 222.479 180.552 222.479ZM182.805 219.262H183.243L183.315 219.958C183.416 219.709 183.571 219.518 183.782 219.384C183.993 219.245 184.239 219.176 184.522 219.176C184.857 219.176 185.125 219.281 185.326 219.492C185.527 219.697 185.628 219.978 185.628 220.332V222.853H185.039V220.454C185.039 220.21 184.977 220.023 184.852 219.894C184.732 219.76 184.56 219.693 184.335 219.693C184.038 219.693 183.806 219.786 183.638 219.973C183.476 220.16 183.394 220.425 183.394 220.77V222.853H182.805V219.262ZM186.687 219.262L187.685 222.228H187.699L188.705 219.262H189.294L187.98 222.853H187.376L186.062 219.262H186.687ZM191.068 222.472C191.293 222.472 191.477 222.417 191.621 222.307C191.765 222.197 191.863 222.034 191.915 221.819L192.425 221.962C192.349 222.278 192.193 222.52 191.959 222.688C191.724 222.855 191.427 222.939 191.068 222.939C190.565 222.939 190.173 222.776 189.89 222.451C189.608 222.125 189.466 221.665 189.466 221.072C189.466 220.492 189.61 220.033 189.897 219.693C190.189 219.348 190.58 219.176 191.068 219.176C191.494 219.176 191.832 219.314 192.081 219.592C192.334 219.865 192.461 220.229 192.461 220.684C192.461 220.775 192.454 220.863 192.44 220.95C192.425 221.036 192.409 221.108 192.389 221.165H190.034C190.048 221.582 190.144 221.905 190.321 222.135C190.503 222.36 190.752 222.472 191.068 222.472ZM191.054 219.628C190.771 219.628 190.541 219.724 190.364 219.915C190.192 220.107 190.086 220.38 190.048 220.734H191.872C191.877 220.71 191.88 220.686 191.88 220.662C191.88 220.634 191.88 220.595 191.88 220.547C191.88 220.274 191.803 220.054 191.65 219.887C191.501 219.714 191.303 219.628 191.054 219.628ZM193.097 222.853V219.262H193.564L193.643 220.181C193.71 219.879 193.849 219.638 194.059 219.456C194.27 219.269 194.512 219.176 194.785 219.176C194.818 219.176 194.852 219.178 194.885 219.183C194.924 219.188 194.96 219.192 194.993 219.197L194.957 219.815C194.929 219.81 194.888 219.805 194.835 219.8C194.782 219.796 194.727 219.793 194.67 219.793C194.373 219.793 194.134 219.906 193.952 220.131C193.775 220.356 193.686 220.657 193.686 221.036V222.853H193.097ZM196.616 222.443C196.726 222.443 196.825 222.431 196.911 222.407C196.997 222.379 197.095 222.328 197.205 222.257L197.313 222.724C197.208 222.791 197.088 222.843 196.954 222.882C196.825 222.92 196.698 222.939 196.573 222.939C196.228 222.939 195.963 222.855 195.776 222.688C195.594 222.515 195.503 222.269 195.503 221.948V219.714H194.986V219.262H195.503V218.5L196.092 218.407V219.262H197.169V219.714H196.092V221.89C196.092 222.072 196.135 222.211 196.221 222.307C196.312 222.398 196.444 222.443 196.616 222.443Z" fill="#241C5F"/>
<rect x="227.725" y="182.336" width="28.7282" height="28.7282" rx="14.3641" fill="#F7F7FF"/>
<path fill-rule="evenodd" clip-rule="evenodd" d="M239.522 196.702C239.522 196.837 239.496 196.97 239.444 197.095C239.393 197.219 239.317 197.332 239.222 197.428C239.127 197.523 239.014 197.599 238.889 197.65C238.765 197.702 238.631 197.728 238.497 197.728C238.362 197.728 238.228 197.702 238.104 197.65C237.98 197.599 237.866 197.523 237.771 197.428C237.676 197.332 237.6 197.219 237.549 197.095C237.497 196.97 237.471 196.837 237.471 196.702C237.471 196.43 237.579 196.169 237.771 195.977C237.964 195.785 238.224 195.677 238.497 195.677C238.769 195.677 239.03 195.785 239.222 195.977C239.414 196.169 239.522 196.43 239.522 196.702ZM242.088 197.729C242.36 197.729 242.621 197.621 242.813 197.428C243.006 197.236 243.114 196.975 243.114 196.703C243.114 196.431 243.006 196.169 242.813 195.977C242.621 195.785 242.36 195.677 242.088 195.677C241.815 195.677 241.554 195.785 241.362 195.977C241.17 196.169 241.061 196.431 241.061 196.703C241.061 196.975 241.17 197.236 241.362 197.428C241.554 197.621 241.815 197.729 242.088 197.729ZM245.679 197.729C245.951 197.729 246.212 197.621 246.404 197.428C246.597 197.236 246.705 196.975 246.705 196.703C246.705 196.431 246.597 196.169 246.404 195.977C246.212 195.785 245.951 195.677 245.679 195.677C245.406 195.677 245.145 195.785 244.953 195.977C244.761 196.169 244.652 196.431 244.652 196.703C244.652 196.975 244.761 197.236 244.953 197.428C245.145 197.621 245.406 197.729 245.679 197.729Z" fill="#4F3FD7"/>
<path d="M239.086 218.938H239.072L237.7 221.747H237.241L235.869 218.938H235.854L235.862 219.771V222.853H235.273V218.055H236.005L237.485 221.093H237.499L238.979 218.055H239.668V222.853H239.079V219.771L239.086 218.938ZM241.958 219.175C242.451 219.175 242.842 219.343 243.129 219.678C243.421 220.013 243.567 220.473 243.567 221.057C243.567 221.641 243.421 222.101 243.129 222.436C242.842 222.771 242.451 222.939 241.958 222.939C241.465 222.939 241.072 222.771 240.78 222.436C240.493 222.101 240.349 221.641 240.349 221.057C240.349 220.473 240.493 220.013 240.78 219.678C241.072 219.343 241.465 219.175 241.958 219.175ZM241.958 222.479C242.289 222.479 242.54 222.359 242.712 222.12C242.885 221.876 242.971 221.521 242.971 221.057C242.971 220.593 242.885 220.241 242.712 220.001C242.54 219.757 242.289 219.635 241.958 219.635C241.628 219.635 241.376 219.757 241.204 220.001C241.032 220.241 240.945 220.593 240.945 221.057C240.945 221.521 241.032 221.876 241.204 222.12C241.376 222.359 241.628 222.479 241.958 222.479ZM244.212 222.853V219.262H244.678L244.757 220.181C244.824 219.879 244.963 219.637 245.174 219.455C245.385 219.269 245.626 219.175 245.899 219.175C245.933 219.175 245.966 219.178 246 219.183C246.038 219.187 246.074 219.192 246.108 219.197L246.072 219.815C246.043 219.81 246.002 219.805 245.95 219.8C245.897 219.795 245.842 219.793 245.784 219.793C245.488 219.793 245.248 219.906 245.066 220.131C244.889 220.356 244.801 220.657 244.801 221.035V222.853H244.212ZM247.819 222.472C248.044 222.472 248.228 222.417 248.372 222.307C248.515 222.197 248.613 222.034 248.666 221.818L249.176 221.962C249.099 222.278 248.944 222.52 248.709 222.687C248.475 222.855 248.178 222.939 247.819 222.939C247.316 222.939 246.923 222.776 246.641 222.45C246.358 222.125 246.217 221.665 246.217 221.071C246.217 220.492 246.361 220.032 246.648 219.692C246.94 219.348 247.33 219.175 247.819 219.175C248.245 219.175 248.582 219.314 248.831 219.592C249.085 219.865 249.212 220.229 249.212 220.684C249.212 220.775 249.205 220.863 249.19 220.949C249.176 221.035 249.159 221.107 249.14 221.165H246.784C246.799 221.581 246.895 221.905 247.072 222.134C247.254 222.359 247.503 222.472 247.819 222.472ZM247.804 219.628C247.522 219.628 247.292 219.724 247.115 219.915C246.942 220.107 246.837 220.38 246.799 220.734H248.623C248.628 220.71 248.63 220.686 248.63 220.662C248.63 220.633 248.63 220.595 248.63 220.547C248.63 220.274 248.554 220.054 248.4 219.886C248.252 219.714 248.053 219.628 247.804 219.628Z" fill="#241C5F"/>
</g>
<defs>
<radialGradient id="paint0_radial_8017_57213" cx="0" cy="0" r="1" gradientUnits="userSpaceOnUse" gradientTransform="translate(72.5029 75.4192) scale(195.03)">
<stop offset="0.78" stop-color="#230C3B" stop-opacity="0"/>
<stop offset="0.8" stop-color="#2B1340" stop-opacity="0.04"/>
<stop offset="0.83" stop-color="#42264D" stop-opacity="0.15"/>
<stop offset="0.86" stop-color="#684663" stop-opacity="0.32"/>
<stop offset="0.91" stop-color="#9C7282" stop-opacity="0.56"/>
<stop offset="0.95" stop-color="#DDAAA9" stop-opacity="0.86"/>
<stop offset="0.98" stop-color="#FCC4BB"/>
</radialGradient>
<radialGradient id="paint1_radial_8017_57213" cx="0" cy="0" r="1" gradientUnits="userSpaceOnUse" gradientTransform="translate(77.364 69.8956) scale(143.003)">
<stop offset="0.78" stop-color="#230C3B" stop-opacity="0"/>
<stop offset="0.8" stop-color="#2B1340" stop-opacity="0.04"/>
<stop offset="0.83" stop-color="#42264D" stop-opacity="0.15"/>
<stop offset="0.86" stop-color="#684663" stop-opacity="0.32"/>
<stop offset="0.91" stop-color="#9C7282" stop-opacity="0.56"/>
<stop offset="0.95" stop-color="#DDAAA9" stop-opacity="0.86"/>
<stop offset="0.98" stop-color="#FCC4BB"/>
</radialGradient>
<radialGradient id="paint2_radial_8017_57213" cx="0" cy="0" r="1" gradientUnits="userSpaceOnUse" gradientTransform="translate(74.7725 107.5) scale(105.407)">
<stop offset="0.78" stop-color="#230C3B" stop-opacity="0"/>
<stop offset="0.8" stop-color="#2B1340" stop-opacity="0.04"/>
<stop offset="0.83" stop-color="#42264D" stop-opacity="0.15"/>
<stop offset="0.86" stop-color="#684663" stop-opacity="0.32"/>
<stop offset="0.91" stop-color="#9C7282" stop-opacity="0.56"/>
<stop offset="0.95" stop-color="#DDAAA9" stop-opacity="0.86"/>
<stop offset="0.98" stop-color="#FCC4BB"/>
</radialGradient>
<radialGradient id="paint3_radial_8017_57213" cx="0" cy="0" r="1" gradientUnits="userSpaceOnUse" gradientTransform="translate(92.0708 137.162) scale(81.9845)">
<stop offset="0.78" stop-color="#230C3B" stop-opacity="0"/>
<stop offset="0.8" stop-color="#2B1340" stop-opacity="0.04"/>
<stop offset="0.83" stop-color="#42264D" stop-opacity="0.15"/>
<stop offset="0.86" stop-color="#684663" stop-opacity="0.32"/>
<stop offset="0.91" stop-color="#9C7282" stop-opacity="0.56"/>
<stop offset="0.95" stop-color="#DDAAA9" stop-opacity="0.86"/>
<stop offset="0.98" stop-color="#FCC4BB"/>
</radialGradient>
<radialGradient id="paint4_radial_8017_57213" cx="0" cy="0" r="1" gradientUnits="userSpaceOnUse" gradientTransform="translate(91.8646 161.478) scale(51.4258 51.4258)">
<stop offset="0.78" stop-color="#230C3B" stop-opacity="0"/>
<stop offset="0.8" stop-color="#2B1340" stop-opacity="0.04"/>
<stop offset="0.83" stop-color="#42264D" stop-opacity="0.15"/>
<stop offset="0.86" stop-color="#684663" stop-opacity="0.32"/>
<stop offset="0.91" stop-color="#9C7282" stop-opacity="0.56"/>
<stop offset="0.95" stop-color="#DDAAA9" stop-opacity="0.86"/>
<stop offset="0.98" stop-color="#FCC4BB"/>
</radialGradient>
<radialGradient id="paint5_radial_8017_57213" cx="0" cy="0" r="1" gradientUnits="userSpaceOnUse" gradientTransform="translate(92.8799 178.22) scale(34.6938 34.6938)">
<stop offset="0.78" stop-color="#230C3B" stop-opacity="0"/>
<stop offset="0.8" stop-color="#2B1340" stop-opacity="0.04"/>
<stop offset="0.83" stop-color="#42264D" stop-opacity="0.15"/>
<stop offset="0.86" stop-color="#684663" stop-opacity="0.32"/>
<stop offset="0.91" stop-color="#9C7282" stop-opacity="0.56"/>
<stop offset="0.95" stop-color="#DDAAA9" stop-opacity="0.86"/>
<stop offset="0.98" stop-color="#FCC4BB"/>
</radialGradient>
<radialGradient id="paint6_radial_8017_57213" cx="0" cy="0" r="1" gradientUnits="userSpaceOnUse" gradientTransform="translate(89.077 192.751) scale(20.1763 20.1763)">
<stop offset="0.78" stop-color="#230C3B" stop-opacity="0"/>
<stop offset="0.8" stop-color="#2B1340" stop-opacity="0.04"/>
<stop offset="0.83" stop-color="#42264D" stop-opacity="0.15"/>
<stop offset="0.86" stop-color="#684663" stop-opacity="0.32"/>
<stop offset="0.91" stop-color="#9C7282" stop-opacity="0.56"/>
<stop offset="0.95" stop-color="#DDAAA9" stop-opacity="0.86"/>
<stop offset="0.98" stop-color="#FCC4BB"/>
</radialGradient>
<radialGradient id="paint7_radial_8017_57213" cx="0" cy="0" r="1" gradientUnits="userSpaceOnUse" gradientTransform="translate(201.035 47.8871) scale(223.158)">
<stop offset="0.78" stop-color="#230C3B" stop-opacity="0"/>
<stop offset="0.8" stop-color="#2B1340" stop-opacity="0.04"/>
<stop offset="0.83" stop-color="#42264D" stop-opacity="0.15"/>
<stop offset="0.86" stop-color="#684663" stop-opacity="0.32"/>
<stop offset="0.91" stop-color="#9C7282" stop-opacity="0.56"/>
<stop offset="0.95" stop-color="#DDAAA9" stop-opacity="0.86"/>
<stop offset="0.98" stop-color="#FCC4BB"/>
</radialGradient>
<radialGradient id="paint8_radial_8017_57213" cx="0" cy="0" r="1" gradientUnits="userSpaceOnUse" gradientTransform="translate(206.599 41.5669) scale(163.627)">
<stop offset="0.78" stop-color="#230C3B" stop-opacity="0"/>
<stop offset="0.8" stop-color="#2B1340" stop-opacity="0.04"/>
<stop offset="0.83" stop-color="#42264D" stop-opacity="0.15"/>
<stop offset="0.86" stop-color="#684663" stop-opacity="0.32"/>
<stop offset="0.91" stop-color="#9C7282" stop-opacity="0.56"/>
<stop offset="0.95" stop-color="#DDAAA9" stop-opacity="0.86"/>
<stop offset="0.98" stop-color="#FCC4BB"/>
</radialGradient>
<radialGradient id="paint9_radial_8017_57213" cx="0" cy="0" r="1" gradientUnits="userSpaceOnUse" gradientTransform="translate(203.631 84.5942) scale(120.609)">
<stop offset="0.78" stop-color="#230C3B" stop-opacity="0"/>
<stop offset="0.8" stop-color="#2B1340" stop-opacity="0.04"/>
<stop offset="0.83" stop-color="#42264D" stop-opacity="0.15"/>
<stop offset="0.86" stop-color="#684663" stop-opacity="0.32"/>
<stop offset="0.91" stop-color="#9C7282" stop-opacity="0.56"/>
<stop offset="0.95" stop-color="#DDAAA9" stop-opacity="0.86"/>
<stop offset="0.98" stop-color="#FCC4BB"/>
</radialGradient>
<radialGradient id="paint10_radial_8017_57213" cx="0" cy="0" r="1" gradientUnits="userSpaceOnUse" gradientTransform="translate(223.426 118.535) scale(93.8088)">
<stop offset="0.78" stop-color="#230C3B" stop-opacity="0"/>
<stop offset="0.8" stop-color="#2B1340" stop-opacity="0.04"/>
<stop offset="0.83" stop-color="#42264D" stop-opacity="0.15"/>
<stop offset="0.86" stop-color="#684663" stop-opacity="0.32"/>
<stop offset="0.91" stop-color="#9C7282" stop-opacity="0.56"/>
<stop offset="0.95" stop-color="#DDAAA9" stop-opacity="0.86"/>
<stop offset="0.98" stop-color="#FCC4BB"/>
</radialGradient>
<radialGradient id="paint11_radial_8017_57213" cx="0" cy="0" r="1" gradientUnits="userSpaceOnUse" gradientTransform="translate(223.19 146.357) scale(58.8428 58.8428)">
<stop offset="0.78" stop-color="#230C3B" stop-opacity="0"/>
<stop offset="0.8" stop-color="#2B1340" stop-opacity="0.04"/>
<stop offset="0.83" stop-color="#42264D" stop-opacity="0.15"/>
<stop offset="0.86" stop-color="#684663" stop-opacity="0.32"/>
<stop offset="0.91" stop-color="#9C7282" stop-opacity="0.56"/>
<stop offset="0.95" stop-color="#DDAAA9" stop-opacity="0.86"/>
<stop offset="0.98" stop-color="#FCC4BB"/>
</radialGradient>
<radialGradient id="paint12_radial_8017_57213" cx="0" cy="0" r="1" gradientUnits="userSpaceOnUse" gradientTransform="translate(224.351 165.515) scale(39.6975 39.6975)">
<stop offset="0.78" stop-color="#230C3B" stop-opacity="0"/>
<stop offset="0.8" stop-color="#2B1340" stop-opacity="0.04"/>
<stop offset="0.83" stop-color="#42264D" stop-opacity="0.15"/>
<stop offset="0.86" stop-color="#684663" stop-opacity="0.32"/>
<stop offset="0.91" stop-color="#9C7282" stop-opacity="0.56"/>
<stop offset="0.95" stop-color="#DDAAA9" stop-opacity="0.86"/>
<stop offset="0.98" stop-color="#FCC4BB"/>
</radialGradient>
<radialGradient id="paint13_radial_8017_57213" cx="0" cy="0" r="1" gradientUnits="userSpaceOnUse" gradientTransform="translate(220 182.14) scale(23.0863 23.0863)">
<stop offset="0.78" stop-color="#230C3B" stop-opacity="0"/>
<stop offset="0.8" stop-color="#2B1340" stop-opacity="0.04"/>
<stop offset="0.83" stop-color="#42264D" stop-opacity="0.15"/>
<stop offset="0.86" stop-color="#684663" stop-opacity="0.32"/>
<stop offset="0.91" stop-color="#9C7282" stop-opacity="0.56"/>
<stop offset="0.95" stop-color="#DDAAA9" stop-opacity="0.86"/>
<stop offset="0.98" stop-color="#FCC4BB"/>
</radialGradient>
<radialGradient id="paint14_radial_8017_57213" cx="0" cy="0" r="1" gradientUnits="userSpaceOnUse" gradientTransform="translate(253.246 131.233) scale(117.902)">
<stop offset="0.78" stop-color="#230C3B" stop-opacity="0"/>
<stop offset="0.8" stop-color="#2B1340" stop-opacity="0.04"/>
<stop offset="0.83" stop-color="#42264D" stop-opacity="0.15"/>
<stop offset="0.86" stop-color="#684663" stop-opacity="0.32"/>
<stop offset="0.91" stop-color="#9C7282" stop-opacity="0.56"/>
<stop offset="0.95" stop-color="#DDAAA9" stop-opacity="0.86"/>
<stop offset="0.98" stop-color="#FCC4BB"/>
</radialGradient>
<radialGradient id="paint15_radial_8017_57213" cx="0" cy="0" r="1" gradientUnits="userSpaceOnUse" gradientTransform="translate(256.186 127.894) scale(86.4499)">
<stop offset="0.78" stop-color="#230C3B" stop-opacity="0"/>
<stop offset="0.8" stop-color="#2B1340" stop-opacity="0.04"/>
<stop offset="0.83" stop-color="#42264D" stop-opacity="0.15"/>
<stop offset="0.86" stop-color="#684663" stop-opacity="0.32"/>
<stop offset="0.91" stop-color="#9C7282" stop-opacity="0.56"/>
<stop offset="0.95" stop-color="#DDAAA9" stop-opacity="0.86"/>
<stop offset="0.98" stop-color="#FCC4BB"/>
</radialGradient>
<radialGradient id="paint16_radial_8017_57213" cx="0" cy="0" r="1" gradientUnits="userSpaceOnUse" gradientTransform="translate(254.618 150.627) scale(63.7219)">
<stop offset="0.78" stop-color="#230C3B" stop-opacity="0"/>
<stop offset="0.8" stop-color="#2B1340" stop-opacity="0.04"/>
<stop offset="0.83" stop-color="#42264D" stop-opacity="0.15"/>
<stop offset="0.86" stop-color="#684663" stop-opacity="0.32"/>
<stop offset="0.91" stop-color="#9C7282" stop-opacity="0.56"/>
<stop offset="0.95" stop-color="#DDAAA9" stop-opacity="0.86"/>
<stop offset="0.98" stop-color="#FCC4BB"/>
</radialGradient>
<radialGradient id="paint17_radial_8017_57213" cx="0" cy="0" r="1" gradientUnits="userSpaceOnUse" gradientTransform="translate(265.077 168.559) scale(49.5624)">
<stop offset="0.78" stop-color="#230C3B" stop-opacity="0"/>
<stop offset="0.8" stop-color="#2B1340" stop-opacity="0.04"/>
<stop offset="0.83" stop-color="#42264D" stop-opacity="0.15"/>
<stop offset="0.86" stop-color="#684663" stop-opacity="0.32"/>
<stop offset="0.91" stop-color="#9C7282" stop-opacity="0.56"/>
<stop offset="0.95" stop-color="#DDAAA9" stop-opacity="0.86"/>
<stop offset="0.98" stop-color="#FCC4BB"/>
</radialGradient>
<radialGradient id="paint18_radial_8017_57213" cx="0" cy="0" r="1" gradientUnits="userSpaceOnUse" gradientTransform="translate(264.952 183.258) scale(31.0886 31.0886)">
<stop offset="0.78" stop-color="#230C3B" stop-opacity="0"/>
<stop offset="0.8" stop-color="#2B1340" stop-opacity="0.04"/>
<stop offset="0.83" stop-color="#42264D" stop-opacity="0.15"/>
<stop offset="0.86" stop-color="#684663" stop-opacity="0.32"/>
<stop offset="0.91" stop-color="#9C7282" stop-opacity="0.56"/>
<stop offset="0.95" stop-color="#DDAAA9" stop-opacity="0.86"/>
<stop offset="0.98" stop-color="#FCC4BB"/>
</radialGradient>
<radialGradient id="paint19_radial_8017_57213" cx="0" cy="0" r="1" gradientUnits="userSpaceOnUse" gradientTransform="translate(265.564 193.38) scale(20.9735 20.9735)">
<stop offset="0.78" stop-color="#230C3B" stop-opacity="0"/>
<stop offset="0.8" stop-color="#2B1340" stop-opacity="0.04"/>
<stop offset="0.83" stop-color="#42264D" stop-opacity="0.15"/>
<stop offset="0.86" stop-color="#684663" stop-opacity="0.32"/>
<stop offset="0.91" stop-color="#9C7282" stop-opacity="0.56"/>
<stop offset="0.95" stop-color="#DDAAA9" stop-opacity="0.86"/>
<stop offset="0.98" stop-color="#FCC4BB"/>
</radialGradient>
<clipPath id="clip0_8017_57213">
<rect y="0.886719" width="316" height="296" rx="28.9806" fill="white"/>
</clipPath>
<clipPath id="clip1_8017_57213">
<rect width="225.037" height="108.608" fill="white" transform="translate(52.3633 64.1521)"/>
</clipPath>
<clipPath id="clip2_8017_57213">
<rect width="225.037" height="64.6384" fill="white" transform="translate(52.3633 108.122)"/>
</clipPath>
<clipPath id="clip3_8017_57213">
<rect x="52.3633" y="108.122" width="95.7606" height="64.6384" rx="10.7731" fill="white"/>
</clipPath>
<clipPath id="clip4_8017_57213">
<rect x="61.9395" y="117.698" width="16.7581" height="16.7581" rx="8.37905" fill="white"/>
</clipPath>
<clipPath id="clip5_8017_57213">
<rect x="152.912" y="108.122" width="95.7606" height="64.6384" rx="10.7731" fill="white"/>
</clipPath>
<clipPath id="clip6_8017_57213">
<rect x="162.488" y="117.698" width="16.7581" height="16.7581" rx="8.37905" fill="white"/>
</clipPath>
<clipPath id="clip7_8017_57213">
<rect x="253.461" y="108.122" width="95.7606" height="64.6384" rx="10.7731" fill="white"/>
</clipPath>
<clipPath id="clip8_8017_57213">
<rect x="263.037" y="117.698" width="16.7581" height="16.7581" rx="8.37905" fill="white"/>
</clipPath>
</defs>
</svg>
