<svg width="316" height="297" viewBox="0 0 316 297" fill="none" xmlns="http://www.w3.org/2000/svg">
<g clip-path="url(#clip0_8017_57242)">
<rect y="0.886719" width="316" height="296" rx="28.9806" fill="#4F3FD7"/>
<rect x="37.6066" y="44.6066" width="240.787" height="293.936" rx="15.6629" fill="white"/>
<rect x="37.6066" y="44.6066" width="240.787" height="293.936" rx="15.6629" stroke="url(#paint0_radial_8017_57242)" stroke-width="0.786885"/>
<path d="M52.9391 77V69.0595H54.4487V77H52.9391ZM55.5561 71.0209H56.7566L56.9349 72.1739C57.0855 71.7618 57.3312 71.4448 57.6719 71.2229C58.0127 70.9931 58.4168 70.8782 58.8844 70.8782C59.455 70.8782 59.9067 71.0526 60.2395 71.4012C60.5803 71.742 60.7507 72.2135 60.7507 72.8158V77H59.2767V73.2199C59.2767 72.8633 59.1935 72.5899 59.027 72.3998C58.8606 72.2096 58.6189 72.1145 58.3019 72.1145C57.8978 72.1145 57.5808 72.2492 57.351 72.5186C57.1291 72.7801 57.0182 73.1566 57.0182 73.6479V77H55.5561V71.0209ZM62.5717 71.0209L63.9743 75.419H63.9981L65.4602 71.0209H66.8748L64.6876 77H63.2255L61.0264 71.0209H62.5717ZM69.5913 70.8782C70.463 70.8782 71.1524 71.1556 71.6596 71.7103C72.1747 72.265 72.4323 73.0298 72.4323 74.0045C72.4323 74.9792 72.1787 75.7479 71.6715 76.3106C71.1643 76.8653 70.4709 77.1426 69.5913 77.1426C68.7196 77.1426 68.0262 76.8653 67.5111 76.3106C67.0039 75.7479 66.7503 74.9792 66.7503 74.0045C66.7503 73.0377 67.0039 72.2769 67.5111 71.7222C68.0262 71.1595 68.7196 70.8782 69.5913 70.8782ZM69.5913 76.049C70.043 76.049 70.3838 75.8787 70.6136 75.5379C70.8513 75.1892 70.9702 74.6781 70.9702 74.0045C70.9702 73.3388 70.8513 72.8356 70.6136 72.4948C70.3838 72.1462 70.043 71.9718 69.5913 71.9718C69.1396 71.9718 68.7988 72.1422 68.569 72.483C68.3392 72.8237 68.2243 73.3309 68.2243 74.0045C68.2243 74.6781 68.3392 75.1892 68.569 75.5379C68.7988 75.8787 69.1396 76.049 69.5913 76.049ZM73.8177 68.3938C74.0792 68.3938 74.2971 68.4771 74.4714 68.6435C74.6537 68.8099 74.7448 69.0199 74.7448 69.2735C74.7448 69.5271 74.6537 69.7371 74.4714 69.9035C74.2971 70.0699 74.0792 70.1531 73.8177 70.1531C73.5561 70.1531 73.3382 70.0699 73.1639 69.9035C72.9895 69.7371 72.9024 69.5271 72.9024 69.2735C72.9024 69.0199 72.9895 68.8099 73.1639 68.6435C73.3382 68.4771 73.5561 68.3938 73.8177 68.3938ZM73.0926 77V71.0209H74.5547V77H73.0926ZM78.0433 77.1426C77.1716 77.1426 76.4821 76.8653 75.975 76.3106C75.4678 75.7479 75.2142 74.9832 75.2142 74.0164C75.2142 73.0496 75.4638 72.2848 75.9631 71.7222C76.4702 71.1595 77.1557 70.8782 78.0195 70.8782C78.6852 70.8782 79.228 71.0526 79.648 71.4012C80.076 71.7499 80.3216 72.2175 80.385 72.8039L79.1012 73.0773C79.0774 72.7445 78.9705 72.479 78.7803 72.2809C78.5901 72.0828 78.3405 71.9837 78.0314 71.9837C77.6035 71.9837 77.2706 72.162 77.0329 72.5186C76.7952 72.8752 76.6763 73.3745 76.6763 74.0164C76.6763 74.6583 76.7952 75.1575 77.0329 75.5141C77.2706 75.8628 77.6074 76.0372 78.0433 76.0372C78.3444 76.0372 78.5901 75.9381 78.7803 75.74C78.9705 75.5419 79.0814 75.2724 79.1131 74.9317L80.4088 75.2764C80.3058 75.8549 80.0443 76.3106 79.6242 76.6434C79.2042 76.9762 78.6773 77.1426 78.0433 77.1426ZM83.4012 76.0253C83.7261 76.0253 83.9877 75.95 84.1858 75.7994C84.3839 75.6409 84.5226 75.4071 84.6018 75.0981L85.8143 75.4904C85.6716 76.0213 85.3864 76.4294 84.9584 76.7147C84.5305 77 84.0075 77.1426 83.3893 77.1426C82.5097 77.1426 81.8203 76.8692 81.321 76.3224C80.8218 75.7756 80.5721 75.0188 80.5721 74.052C80.5721 73.0773 80.8257 72.3047 81.3329 71.7341C81.8401 71.1635 82.5295 70.8782 83.4012 70.8782C84.162 70.8782 84.7643 71.116 85.2081 71.5914C85.6518 72.059 85.8737 72.685 85.8737 73.4696C85.8737 73.6122 85.8618 73.7588 85.8381 73.9094C85.8143 74.052 85.7865 74.1709 85.7549 74.266H81.9748C81.9907 74.8207 82.1214 75.2526 82.3671 75.5617C82.6207 75.8707 82.9654 76.0253 83.4012 76.0253ZM83.3775 71.9362C82.9892 71.9362 82.6722 72.0709 82.4265 72.3403C82.1888 72.6018 82.0461 72.9743 81.9986 73.4577H84.4711C84.479 73.426 84.4829 73.3903 84.4829 73.3507C84.4829 73.3032 84.4829 73.2398 84.4829 73.1605C84.4829 72.796 84.3799 72.5028 84.1739 72.2809C83.9758 72.0511 83.7103 71.9362 83.3775 71.9362ZM91.1236 75.9896C91.5198 75.9896 91.8408 75.843 92.0864 75.5498C92.3321 75.2566 92.4549 74.8564 92.4549 74.3492V73.4458C92.4549 73.002 92.3281 72.6494 92.0745 72.3879C91.8289 72.1184 91.5198 71.9837 91.1473 71.9837C90.6956 71.9837 90.347 72.166 90.1013 72.5305C89.8556 72.8871 89.7328 73.4022 89.7328 74.0758C89.7328 74.686 89.8517 75.1575 90.0894 75.4904C90.3351 75.8232 90.6798 75.9896 91.1236 75.9896ZM93.917 77H92.6808L92.5262 75.8826C92.3994 76.2868 92.1696 76.5998 91.8368 76.8217C91.5119 77.0357 91.1196 77.1426 90.66 77.1426C89.9388 77.1426 89.3524 76.8692 88.9007 76.3224C88.4569 75.7756 88.235 75.0426 88.235 74.1234C88.235 73.1169 88.4609 72.3245 88.9126 71.746C89.3643 71.1675 89.9785 70.8782 90.7551 70.8782C91.1592 70.8782 91.5119 70.9614 91.813 71.1278C92.1221 71.2943 92.336 71.5201 92.4549 71.8054V68.4176H93.917V77ZM97.3972 76.0253C97.7221 76.0253 97.9836 75.95 98.1817 75.7994C98.3798 75.6409 98.5185 75.4071 98.5978 75.0981L99.8102 75.4904C99.6676 76.0213 99.3823 76.4294 98.9544 76.7147C98.5264 77 98.0034 77.1426 97.3853 77.1426C96.5057 77.1426 95.8162 76.8692 95.317 76.3224C94.8177 75.7756 94.5681 75.0188 94.5681 74.052C94.5681 73.0773 94.8217 72.3047 95.3289 71.7341C95.836 71.1635 96.5255 70.8782 97.3972 70.8782C98.158 70.8782 98.7602 71.116 99.204 71.5914C99.6478 72.059 99.8697 72.685 99.8697 73.4696C99.8697 73.6122 99.8578 73.7588 99.834 73.9094C99.8102 74.052 99.7825 74.1709 99.7508 74.266H95.9708C95.9866 74.8207 96.1174 75.2526 96.363 75.5617C96.6166 75.8707 96.9613 76.0253 97.3972 76.0253ZM97.3734 71.9362C96.9851 71.9362 96.6681 72.0709 96.4225 72.3403C96.1847 72.6018 96.0421 72.9743 95.9945 73.4577H98.467C98.4749 73.426 98.4789 73.3903 98.4789 73.3507C98.4789 73.3032 98.4789 73.2398 98.4789 73.1605C98.4789 72.796 98.3759 72.5028 98.1698 72.2809C97.9717 72.0511 97.7063 71.9362 97.3734 71.9362ZM102.929 75.9421C103.095 75.9421 103.25 75.9183 103.392 75.8707C103.543 75.8232 103.705 75.7439 103.88 75.633L104.082 76.7147C103.892 76.8494 103.67 76.9525 103.416 77.0238C103.17 77.103 102.917 77.1426 102.655 77.1426C102.021 77.1426 101.534 76.9881 101.193 76.6791C100.86 76.3621 100.694 75.9064 100.694 75.3121V72.1145H99.8856V71.0209H100.694V69.749L102.168 69.5588V71.0209H103.844V72.1145H102.168V75.1337C102.168 75.4032 102.231 75.6053 102.358 75.74C102.485 75.8747 102.675 75.9421 102.929 75.9421ZM106.463 76.1204C106.82 76.1204 107.105 76.0055 107.319 75.7756C107.541 75.5458 107.652 75.2249 107.652 74.8128V74.3968C107.525 74.3809 107.418 74.373 107.331 74.373C107.252 74.3651 107.197 74.3611 107.165 74.3611C106.634 74.3611 106.234 74.4443 105.964 74.6107C105.695 74.7692 105.56 75.007 105.56 75.3239C105.56 75.5696 105.639 75.7638 105.798 75.9064C105.964 76.049 106.186 76.1204 106.463 76.1204ZM106.796 70.8782C107.541 70.8782 108.104 71.0407 108.484 71.3656C108.865 71.6905 109.055 72.1699 109.055 72.8039V75.5498C109.055 75.7083 109.087 75.8272 109.15 75.9064C109.221 75.9777 109.328 76.0134 109.471 76.0134C109.534 76.0134 109.598 76.0055 109.661 75.9896C109.724 75.9658 109.776 75.9341 109.816 75.8945L109.875 76.893C109.772 76.9643 109.641 77.0198 109.483 77.0594C109.332 77.0991 109.178 77.1189 109.019 77.1189C108.774 77.1189 108.556 77.0753 108.365 76.9881C108.175 76.893 108.025 76.7583 107.914 76.584C107.874 76.5126 107.838 76.4413 107.807 76.37C107.783 76.2987 107.759 76.2234 107.735 76.1441C107.624 76.4453 107.41 76.683 107.094 76.8574C106.784 77.0317 106.424 77.1189 106.012 77.1189C105.441 77.1189 104.986 76.9683 104.645 76.6672C104.304 76.3581 104.134 75.9421 104.134 75.419C104.134 74.8168 104.379 74.3492 104.871 74.0164C105.37 73.6835 106.079 73.5171 106.998 73.5171C107.094 73.5171 107.2 73.5211 107.319 73.529C107.446 73.5369 107.557 73.5449 107.652 73.5528V72.8871C107.652 72.5939 107.573 72.3681 107.414 72.2096C107.256 72.0511 107.026 71.9718 106.725 71.9718C106.424 71.9718 106.194 72.055 106.036 72.2214C105.877 72.3799 105.794 72.6098 105.786 72.9109L104.407 72.6969C104.463 72.1343 104.704 71.6905 105.132 71.3656C105.56 71.0407 106.115 70.8782 106.796 70.8782ZM110.993 68.3938C111.255 68.3938 111.473 68.4771 111.647 68.6435C111.829 68.8099 111.92 69.0199 111.92 69.2735C111.92 69.5271 111.829 69.7371 111.647 69.9035C111.473 70.0699 111.255 70.1531 110.993 70.1531C110.732 70.1531 110.514 70.0699 110.339 69.9035C110.165 69.7371 110.078 69.5271 110.078 69.2735C110.078 69.0199 110.165 68.8099 110.339 68.6435C110.514 68.4771 110.732 68.3938 110.993 68.3938ZM110.268 77V71.0209H111.73V77H110.268ZM114.624 75.9539C114.712 75.9539 114.795 75.9421 114.874 75.9183C114.953 75.8945 115.033 75.8549 115.112 75.7994L115.219 76.8574C115.084 76.9366 114.918 77 114.72 77.0475C114.529 77.0951 114.331 77.1189 114.125 77.1189C113.658 77.1189 113.297 76.996 113.043 76.7504C112.798 76.5047 112.675 76.1521 112.675 75.6924V68.4176H114.137V75.419C114.137 75.6013 114.177 75.736 114.256 75.8232C114.335 75.9104 114.458 75.9539 114.624 75.9539ZM117.605 77.1426C116.939 77.1426 116.385 77 115.941 76.7147C115.497 76.4215 115.224 76.0173 115.121 75.5022L116.392 75.1932C116.432 75.4705 116.563 75.6964 116.785 75.8707C117.015 76.0451 117.292 76.1323 117.617 76.1323C117.95 76.1323 118.207 76.0689 118.389 75.9421C118.572 75.8073 118.663 75.6211 118.663 75.3834C118.663 75.1853 118.58 75.0268 118.413 74.9079C118.255 74.7811 117.902 74.6583 117.355 74.5394C116.951 74.4522 116.65 74.373 116.452 74.3017C116.262 74.2303 116.099 74.1511 115.965 74.0639C115.758 73.9213 115.604 73.743 115.501 73.529C115.398 73.315 115.346 73.0654 115.346 72.7801C115.346 72.2096 115.56 71.7499 115.988 71.4012C116.416 71.0526 116.975 70.8782 117.664 70.8782C118.346 70.8782 118.885 71.0248 119.281 71.318C119.677 71.6112 119.911 72.0313 119.982 72.5781L118.71 72.7326C118.687 72.4631 118.584 72.2531 118.401 72.1026C118.219 71.952 117.977 71.8767 117.676 71.8767C117.375 71.8767 117.141 71.9441 116.975 72.0788C116.808 72.2135 116.725 72.4037 116.725 72.6494C116.725 72.8475 116.805 73.006 116.963 73.1249C117.122 73.2437 117.474 73.3547 118.021 73.4577C118.433 73.5449 118.734 73.6241 118.924 73.6954C119.122 73.7667 119.293 73.85 119.436 73.9451C119.642 74.0877 119.796 74.266 119.899 74.48C120.002 74.6939 120.054 74.9515 120.054 75.2526C120.054 75.839 119.832 76.3026 119.388 76.6434C118.944 76.9762 118.35 77.1426 117.605 77.1426Z" fill="#24201E"/>
<path d="M53.0245 106.585V99.2261H53.9499V106.585H53.0245ZM55.2777 101.077H55.9497L56.0599 102.145C56.2141 101.764 56.4528 101.47 56.776 101.264C57.0991 101.051 57.4773 100.945 57.9106 100.945C58.4247 100.945 58.836 101.106 59.1445 101.429C59.4529 101.745 59.6072 102.175 59.6072 102.718V106.585H58.7038V102.906C58.7038 102.531 58.6083 102.245 58.4174 102.046C58.2338 101.841 57.9694 101.738 57.6242 101.738C57.1689 101.738 56.8127 101.881 56.5556 102.168C56.3059 102.454 56.1811 102.862 56.1811 103.39V106.585H55.2777V101.077ZM61.1214 101.077L62.6527 105.627H62.6747L64.217 101.077H65.1204L63.1044 106.585H62.179L60.163 101.077H61.1214ZM67.7425 100.945C68.499 100.945 69.0975 101.202 69.5382 101.716C69.9862 102.23 70.2102 102.935 70.2102 103.831C70.2102 104.727 69.9862 105.432 69.5382 105.946C69.0975 106.46 68.499 106.717 67.7425 106.717C66.9861 106.717 66.3838 106.46 65.9358 105.946C65.4952 105.432 65.2748 104.727 65.2748 103.831C65.2748 102.935 65.4952 102.23 65.9358 101.716C66.3838 101.202 66.9861 100.945 67.7425 100.945ZM67.7425 106.012C68.2493 106.012 68.6348 105.829 68.8992 105.461C69.1636 105.087 69.2958 104.543 69.2958 103.831C69.2958 103.119 69.1636 102.579 68.8992 102.212C68.6348 101.837 68.2493 101.65 67.7425 101.65C67.2358 101.65 66.8502 101.837 66.5858 102.212C66.3214 102.579 66.1892 103.119 66.1892 103.831C66.1892 104.543 66.3214 105.087 66.5858 105.461C66.8502 105.829 67.2358 106.012 67.7425 106.012ZM71.5405 98.7414C71.7241 98.7414 71.8783 98.8038 72.0032 98.9287C72.128 99.0535 72.1905 99.2114 72.1905 99.4024C72.1905 99.5933 72.128 99.7512 72.0032 99.8761C71.8783 100.001 71.7241 100.063 71.5405 100.063C71.3569 100.063 71.2027 100.001 71.0778 99.8761C70.953 99.7512 70.8905 99.5933 70.8905 99.4024C70.8905 99.2114 70.953 99.0535 71.0778 98.9287C71.2027 98.8038 71.3569 98.7414 71.5405 98.7414ZM71.0888 106.585V101.077H71.9922V106.585H71.0888ZM75.3281 106.717C74.5716 106.717 73.9731 106.46 73.5324 105.946C73.0917 105.432 72.8714 104.727 72.8714 103.831C72.8714 102.942 73.0917 102.241 73.5324 101.727C73.9731 101.205 74.5716 100.945 75.3281 100.945C75.8789 100.945 76.3379 101.099 76.7051 101.407C77.0723 101.716 77.2853 102.123 77.3441 102.63L76.5178 102.784C76.4885 102.454 76.3636 102.186 76.1433 101.98C75.9303 101.767 75.6586 101.661 75.3281 101.661C74.8434 101.661 74.4651 101.852 74.1934 102.234C73.9216 102.616 73.7858 103.148 73.7858 103.831C73.7858 104.514 73.9216 105.046 74.1934 105.428C74.4651 105.81 74.8434 106.001 75.3281 106.001C75.6659 106.001 75.9413 105.898 76.1543 105.693C76.3673 105.48 76.4885 105.201 76.5178 104.856L77.3441 105.01C77.2633 105.546 77.0466 105.964 76.6941 106.266C76.3416 106.567 75.8862 106.717 75.3281 106.717ZM80.186 106.001C80.5312 106.001 80.814 105.917 81.0343 105.748C81.2546 105.579 81.4052 105.329 81.486 104.999L82.2681 105.219C82.1506 105.704 81.9119 106.075 81.5521 106.332C81.1922 106.589 80.7369 106.717 80.186 106.717C79.4149 106.717 78.8127 106.468 78.3794 105.968C77.946 105.469 77.7294 104.764 77.7294 103.853C77.7294 102.964 77.9497 102.259 78.3904 101.738C78.8384 101.209 79.4369 100.945 80.186 100.945C80.8397 100.945 81.3575 101.158 81.7394 101.584C82.1286 102.002 82.3232 102.56 82.3232 103.258C82.3232 103.398 82.3122 103.534 82.2902 103.666C82.2681 103.798 82.2424 103.908 82.2131 103.996H78.5997C78.6217 104.635 78.7686 105.131 79.0403 105.483C79.3194 105.829 79.7013 106.001 80.186 106.001ZM80.164 101.639C79.7307 101.639 79.3782 101.786 79.1064 102.079C78.842 102.373 78.6805 102.792 78.6217 103.335H81.4199C81.4272 103.299 81.4309 103.262 81.4309 103.225C81.4309 103.181 81.4309 103.122 81.4309 103.049C81.4309 102.63 81.3134 102.292 81.0784 102.035C80.8507 101.771 80.5459 101.639 80.164 101.639ZM87.3415 106.717C86.5851 106.717 85.9865 106.46 85.5459 105.946C85.1052 105.432 84.8849 104.727 84.8849 103.831C84.8849 102.942 85.1052 102.241 85.5459 101.727C85.9865 101.205 86.5851 100.945 87.3415 100.945C87.8924 100.945 88.3514 101.099 88.7186 101.407C89.0858 101.716 89.2988 102.123 89.3575 102.63L88.5313 102.784C88.5019 102.454 88.3771 102.186 88.1567 101.98C87.9438 101.767 87.672 101.661 87.3415 101.661C86.8568 101.661 86.4786 101.852 86.2068 102.234C85.9351 102.616 85.7992 103.148 85.7992 103.831C85.7992 104.514 85.9351 105.046 86.2068 105.428C86.4786 105.81 86.8568 106.001 87.3415 106.001C87.6794 106.001 87.9548 105.898 88.1678 105.693C88.3807 105.48 88.5019 105.201 88.5313 104.856L89.3575 105.01C89.2767 105.546 89.0601 105.964 88.7076 106.266C88.355 106.567 87.8997 106.717 87.3415 106.717ZM94.3477 106.585H93.6316L93.5215 105.539C93.3966 105.92 93.1836 106.214 92.8825 106.42C92.5814 106.618 92.2142 106.717 91.7809 106.717C91.2741 106.717 90.8629 106.559 90.5471 106.244C90.2386 105.928 90.0844 105.498 90.0844 104.955V101.077H90.9877V104.856C90.9877 105.208 91.0795 105.487 91.2631 105.693C91.4467 105.891 91.7038 105.99 92.0343 105.99C92.4676 105.99 92.8091 105.84 93.0588 105.539C93.3085 105.237 93.4333 104.815 93.4333 104.272V101.077H94.3477V106.585ZM95.6214 106.585V101.077H96.3375L96.4586 102.487C96.5615 102.024 96.7744 101.653 97.0976 101.374C97.4207 101.088 97.7916 100.945 98.2102 100.945C98.2617 100.945 98.3131 100.948 98.3645 100.956C98.4232 100.963 98.4783 100.97 98.5297 100.978L98.4746 101.925C98.4306 101.918 98.3681 101.91 98.2874 101.903C98.2066 101.896 98.1221 101.892 98.034 101.892C97.5786 101.892 97.2114 102.065 96.9323 102.41C96.6606 102.755 96.5247 103.218 96.5247 103.798V106.585H95.6214ZM99.0916 106.585V101.077H99.8076L99.9288 102.487C100.032 102.024 100.245 101.653 100.568 101.374C100.891 101.088 101.262 100.945 101.68 100.945C101.732 100.945 101.783 100.948 101.835 100.956C101.893 100.963 101.948 100.97 102 100.978L101.945 101.925C101.901 101.918 101.838 101.91 101.758 101.903C101.677 101.896 101.592 101.892 101.504 101.892C101.049 101.892 100.682 102.065 100.403 102.41C100.131 102.755 99.9949 103.218 99.9949 103.798V106.585H99.0916ZM104.514 106.001C104.859 106.001 105.142 105.917 105.362 105.748C105.583 105.579 105.733 105.329 105.814 104.999L106.596 105.219C106.479 105.704 106.24 106.075 105.88 106.332C105.52 106.589 105.065 106.717 104.514 106.717C103.743 106.717 103.141 106.468 102.708 105.968C102.274 105.469 102.058 104.764 102.058 103.853C102.058 102.964 102.278 102.259 102.719 101.738C103.167 101.209 103.765 100.945 104.514 100.945C105.168 100.945 105.686 101.158 106.068 101.584C106.457 102.002 106.651 102.56 106.651 103.258C106.651 103.398 106.64 103.534 106.618 103.666C106.596 103.798 106.571 103.908 106.541 103.996H102.928C102.95 104.635 103.097 105.131 103.368 105.483C103.648 105.829 104.029 106.001 104.514 106.001ZM104.492 101.639C104.059 101.639 103.706 101.786 103.435 102.079C103.17 102.373 103.009 102.792 102.95 103.335H105.748C105.755 103.299 105.759 103.262 105.759 103.225C105.759 103.181 105.759 103.122 105.759 103.049C105.759 102.63 105.642 102.292 105.407 102.035C105.179 101.771 104.874 101.639 104.492 101.639ZM107.517 101.077H108.189L108.299 102.145C108.453 101.764 108.692 101.47 109.015 101.264C109.338 101.051 109.716 100.945 110.149 100.945C110.664 100.945 111.075 101.106 111.383 101.429C111.692 101.745 111.846 102.175 111.846 102.718V106.585H110.943V102.906C110.943 102.531 110.847 102.245 110.656 102.046C110.473 101.841 110.208 101.738 109.863 101.738C109.408 101.738 109.051 101.881 108.794 102.168C108.545 102.454 108.42 102.862 108.42 103.39V106.585H107.517V101.077ZM115.134 106.717C114.377 106.717 113.779 106.46 113.338 105.946C112.898 105.432 112.677 104.727 112.677 103.831C112.677 102.942 112.898 102.241 113.338 101.727C113.779 101.205 114.377 100.945 115.134 100.945C115.685 100.945 116.144 101.099 116.511 101.407C116.878 101.716 117.091 102.123 117.15 102.63L116.324 102.784C116.294 102.454 116.169 102.186 115.949 101.98C115.736 101.767 115.464 101.661 115.134 101.661C114.649 101.661 114.271 101.852 113.999 102.234C113.727 102.616 113.592 103.148 113.592 103.831C113.592 104.514 113.727 105.046 113.999 105.428C114.271 105.81 114.649 106.001 115.134 106.001C115.472 106.001 115.747 105.898 115.96 105.693C116.173 105.48 116.294 105.201 116.324 104.856L117.15 105.01C117.069 105.546 116.852 105.964 116.5 106.266C116.147 106.567 115.692 106.717 115.134 106.717ZM119.738 105.726H119.76L121.314 101.077H122.217L120.124 106.883C119.86 107.61 119.581 108.127 119.287 108.436C118.993 108.744 118.622 108.899 118.174 108.899C118.042 108.899 117.91 108.88 117.778 108.843C117.645 108.807 117.52 108.755 117.403 108.689L117.535 107.94C117.682 108.028 117.796 108.083 117.877 108.105C117.965 108.135 118.057 108.149 118.152 108.149C118.424 108.149 118.637 108.061 118.791 107.885C118.945 107.709 119.118 107.353 119.309 106.816L117.26 101.077H118.218L119.738 105.726Z" fill="#080615"/>
<rect x="52.1967" y="114.235" width="210.492" height="37.377" rx="6.70986" stroke="#D3D2D2" stroke-width="0.393443"/>
<path d="M69.492 135.888C69.9914 135.888 70.3733 135.734 70.6377 135.425C70.9021 135.11 71.0343 134.654 71.0343 134.059V129.565H72.4223V134.169C72.4223 135.088 72.1616 135.8 71.6402 136.307C71.1261 136.806 70.41 137.056 69.492 137.056C68.5813 137.056 67.8689 136.806 67.3548 136.307C66.8407 135.8 66.5836 135.088 66.5836 134.169V129.565H67.9827V134.059C67.9827 134.654 68.1113 135.11 68.3683 135.425C68.6254 135.734 68.9999 135.888 69.492 135.888ZM78.4254 134.853C78.4254 135.521 78.1684 136.057 77.6543 136.461C77.1402 136.857 76.4792 137.056 75.6713 137.056C74.9002 137.056 74.2539 136.88 73.7324 136.527C73.2183 136.167 72.8915 135.675 72.752 135.051L73.9748 134.588C74.0409 135.007 74.2282 135.341 74.5366 135.591C74.8524 135.84 75.2343 135.965 75.6823 135.965C76.0936 135.965 76.4204 135.873 76.6628 135.69C76.9125 135.506 77.0373 135.253 77.0373 134.93C77.0373 134.68 76.9382 134.478 76.7399 134.324C76.549 134.162 76.1156 133.997 75.44 133.828C74.9626 133.703 74.6101 133.597 74.3824 133.509C74.1547 133.413 73.9601 133.307 73.7985 133.189C73.5488 133.013 73.3615 132.796 73.2367 132.539C73.1192 132.282 73.0604 131.985 73.0604 131.647C73.0604 130.993 73.3101 130.461 73.8095 130.049C74.309 129.638 74.9406 129.432 75.7044 129.432C76.4682 129.432 77.0777 129.598 77.5331 129.928C77.9884 130.251 78.2675 130.725 78.3703 131.349L77.1145 131.669C77.063 131.316 76.9125 131.037 76.6628 130.832C76.4131 130.619 76.0973 130.512 75.7154 130.512C75.3335 130.512 75.025 130.608 74.79 130.798C74.555 130.982 74.4375 131.228 74.4375 131.537C74.4375 131.786 74.533 131.992 74.7239 132.153C74.9222 132.308 75.3555 132.469 76.0238 132.638C76.5086 132.756 76.8648 132.862 77.0924 132.958C77.3274 133.053 77.5257 133.16 77.6873 133.277C77.937 133.461 78.1206 133.685 78.2381 133.949C78.363 134.206 78.4254 134.507 78.4254 134.853ZM81.5672 136.924H79.0775V129.565H81.5672C82.7276 129.565 83.631 129.884 84.2773 130.523C84.9309 131.162 85.2577 132.065 85.2577 133.233C85.2577 134.408 84.9309 135.319 84.2773 135.965C83.631 136.604 82.7276 136.924 81.5672 136.924ZM81.5232 130.732H80.4656V135.756H81.5232C82.2503 135.756 82.8121 135.539 83.2087 135.106C83.6126 134.673 83.8146 134.048 83.8146 133.233C83.8146 132.418 83.6163 131.797 83.2197 131.371C82.8304 130.945 82.2649 130.732 81.5232 130.732Z" fill="#504D4B"/>
<path d="M246.534 131.087L242.862 134.76L239.189 131.087" stroke="#D3D2D2" stroke-width="1.29498" stroke-linecap="square"/>
<path d="M53.0245 170.715V163.356H53.9499V170.715H53.0245ZM56.9081 170.848C56.3206 170.848 55.8285 170.712 55.432 170.44C55.0427 170.168 54.8077 169.797 54.7269 169.327L55.5531 169.096C55.5972 169.404 55.7441 169.658 55.9938 169.856C56.2508 170.054 56.5556 170.153 56.9081 170.153C57.29 170.153 57.5838 170.08 57.7895 169.933C58.0024 169.779 58.1089 169.562 58.1089 169.283C58.1089 169.048 58.0245 168.861 57.8556 168.721C57.694 168.582 57.3341 168.45 56.776 168.325C56.4087 168.244 56.137 168.171 55.9607 168.104C55.7918 168.038 55.6449 167.965 55.5201 167.884C55.3365 167.752 55.1969 167.59 55.1015 167.399C55.0133 167.208 54.9693 166.984 54.9693 166.727C54.9693 166.228 55.1455 165.828 55.498 165.527C55.8579 165.225 56.3243 165.075 56.8971 165.075C57.4994 165.075 57.9657 165.207 58.2962 165.472C58.634 165.729 58.8323 166.107 58.8911 166.606L58.0428 166.727C58.0135 166.419 57.8996 166.184 57.7013 166.022C57.5104 165.853 57.2423 165.769 56.8971 165.769C56.5593 165.769 56.2949 165.85 56.104 166.011C55.913 166.166 55.8175 166.382 55.8175 166.661C55.8175 166.889 55.8983 167.073 56.0599 167.212C56.2215 167.344 56.5777 167.469 57.1285 167.587C57.503 167.667 57.7784 167.741 57.9547 167.807C58.131 167.866 58.2815 167.939 58.4064 168.027C58.59 168.16 58.7259 168.325 58.814 168.523C58.9095 168.714 58.9572 168.945 58.9572 169.217C58.9572 169.717 58.7699 170.113 58.3954 170.407C58.0208 170.701 57.5251 170.848 56.9081 170.848ZM61.4219 170.848C60.8343 170.848 60.3422 170.712 59.9457 170.44C59.5564 170.168 59.3214 169.797 59.2406 169.327L60.0668 169.096C60.1109 169.404 60.2578 169.658 60.5075 169.856C60.7645 170.054 61.0693 170.153 61.4219 170.153C61.8038 170.153 62.0975 170.08 62.3032 169.933C62.5162 169.779 62.6226 169.562 62.6226 169.283C62.6226 169.048 62.5382 168.861 62.3693 168.721C62.2077 168.582 61.8478 168.45 61.2897 168.325C60.9224 168.244 60.6507 168.171 60.4744 168.104C60.3055 168.038 60.1586 167.965 60.0338 167.884C59.8502 167.752 59.7106 167.59 59.6152 167.399C59.527 167.208 59.483 166.984 59.483 166.727C59.483 166.228 59.6592 165.828 60.0118 165.527C60.3716 165.225 60.838 165.075 61.4108 165.075C62.0131 165.075 62.4794 165.207 62.8099 165.472C63.1478 165.729 63.3461 166.107 63.4048 166.606L62.5565 166.727C62.5272 166.419 62.4133 166.184 62.215 166.022C62.0241 165.853 61.756 165.769 61.4108 165.769C61.073 165.769 60.8086 165.85 60.6177 166.011C60.4267 166.166 60.3312 166.382 60.3312 166.661C60.3312 166.889 60.412 167.073 60.5736 167.212C60.7352 167.344 61.0914 167.469 61.6422 167.587C62.0167 167.667 62.2922 167.741 62.4684 167.807C62.6447 167.866 62.7952 167.939 62.9201 168.027C63.1037 168.16 63.2396 168.325 63.3277 168.523C63.4232 168.714 63.4709 168.945 63.4709 169.217C63.4709 169.717 63.2836 170.113 62.9091 170.407C62.5345 170.701 62.0388 170.848 61.4219 170.848ZM68.5134 170.715H67.7973L67.6872 169.669C67.5623 170.051 67.3493 170.344 67.0482 170.55C66.7471 170.748 66.3799 170.848 65.9466 170.848C65.4398 170.848 65.0285 170.69 64.7127 170.374C64.4043 170.058 64.2501 169.628 64.2501 169.085V165.207H65.1534V168.986C65.1534 169.338 65.2452 169.617 65.4288 169.823C65.6124 170.021 65.8695 170.12 66.2 170.12C66.6333 170.12 66.9748 169.97 67.2245 169.669C67.4742 169.368 67.599 168.945 67.599 168.402V165.207H68.5134V170.715ZM71.8472 170.131C72.1923 170.131 72.4751 170.047 72.6954 169.878C72.9157 169.709 73.0663 169.459 73.1471 169.129L73.9293 169.349C73.8117 169.834 73.5731 170.205 73.2132 170.462C72.8533 170.719 72.398 170.848 71.8472 170.848C71.076 170.848 70.4738 170.598 70.0405 170.098C69.6072 169.599 69.3905 168.894 69.3905 167.983C69.3905 167.095 69.6108 166.39 70.0515 165.868C70.4995 165.339 71.098 165.075 71.8472 165.075C72.5008 165.075 73.0186 165.288 73.4005 165.714C73.7897 166.133 73.9843 166.691 73.9843 167.388C73.9843 167.528 73.9733 167.664 73.9513 167.796C73.9293 167.928 73.9035 168.038 73.8742 168.126H70.2608C70.2828 168.765 70.4297 169.261 70.7014 169.614C70.9805 169.959 71.3624 170.131 71.8472 170.131ZM71.8251 165.769C71.3918 165.769 71.0393 165.916 70.7675 166.21C70.5032 166.503 70.3416 166.922 70.2828 167.465H73.081C73.0883 167.429 73.092 167.392 73.092 167.355C73.092 167.311 73.092 167.253 73.092 167.179C73.092 166.76 72.9745 166.423 72.7395 166.166C72.5118 165.901 72.207 165.769 71.8251 165.769ZM79.1899 170.715H76.9977V163.356H79.1899C80.3356 163.356 81.228 163.676 81.8669 164.315C82.5059 164.946 82.8253 165.846 82.8253 167.014C82.8253 168.189 82.5022 169.1 81.8559 169.746C81.2096 170.392 80.3209 170.715 79.1899 170.715ZM79.1899 164.15H77.923V169.922H79.1899C80.0272 169.922 80.6808 169.672 81.1508 169.173C81.6209 168.674 81.8559 167.954 81.8559 167.014C81.8559 166.081 81.6245 165.372 81.1619 164.888C80.6992 164.396 80.0419 164.15 79.1899 164.15ZM85.1484 170.142C85.5597 170.142 85.8902 170.01 86.1399 169.746C86.3896 169.481 86.5144 169.118 86.5144 168.655V168.193C86.419 168.185 86.3272 168.182 86.239 168.182C86.1509 168.174 86.0701 168.171 85.9967 168.171C85.3651 168.171 84.895 168.262 84.5866 168.446C84.2781 168.622 84.1239 168.89 84.1239 169.25C84.1239 169.529 84.2157 169.75 84.3993 169.911C84.5829 170.065 84.8326 170.142 85.1484 170.142ZM85.4789 165.075C86.0885 165.075 86.5548 165.222 86.878 165.516C87.2011 165.802 87.3627 166.221 87.3627 166.771V169.636C87.3627 169.797 87.3958 169.918 87.4619 169.999C87.528 170.08 87.6308 170.12 87.7703 170.12C87.8291 170.12 87.8915 170.109 87.9576 170.087C88.0237 170.065 88.0751 170.036 88.1118 169.999L88.1669 170.671C88.1008 170.715 88.009 170.752 87.8915 170.781C87.7813 170.811 87.6712 170.825 87.561 170.825C87.3554 170.825 87.1754 170.785 87.0212 170.704C86.8743 170.616 86.7605 170.491 86.6797 170.33C86.6503 170.271 86.6209 170.209 86.5916 170.142C86.5695 170.069 86.5512 169.988 86.5365 169.9C86.4337 170.187 86.2354 170.414 85.9416 170.583C85.6478 170.752 85.3137 170.837 84.9391 170.837C84.425 170.837 84.0101 170.697 83.6942 170.418C83.3858 170.131 83.2316 169.753 83.2316 169.283C83.2316 168.71 83.4666 168.27 83.9366 167.961C84.414 167.653 85.1007 167.499 85.9967 167.499C86.0407 167.499 86.0958 167.502 86.1619 167.51C86.2354 167.51 86.3529 167.513 86.5144 167.521V166.871C86.5144 166.533 86.419 166.272 86.228 166.088C86.0444 165.905 85.7763 165.813 85.4238 165.813C85.086 165.813 84.8253 165.897 84.6417 166.066C84.4581 166.235 84.3589 166.481 84.3442 166.805L83.4629 166.65C83.5217 166.166 83.731 165.784 84.0908 165.505C84.4581 165.218 84.9207 165.075 85.4789 165.075ZM90.5633 170.087C90.7322 170.087 90.8828 170.069 91.015 170.032C91.1472 169.988 91.2977 169.911 91.4667 169.801L91.6319 170.517C91.4703 170.62 91.2867 170.701 91.0811 170.759C90.8828 170.818 90.6882 170.848 90.4972 170.848C89.9684 170.848 89.5608 170.719 89.2744 170.462C88.9953 170.198 88.8558 169.819 88.8558 169.327V165.901H88.0626V165.207H88.8558V164.039L89.7591 163.896V165.207H91.4116V165.901H89.7591V169.239C89.7591 169.518 89.8252 169.731 89.9574 169.878C90.097 170.018 90.2989 170.087 90.5633 170.087ZM94.3619 170.131C94.7071 170.131 94.9898 170.047 95.2102 169.878C95.4305 169.709 95.5811 169.459 95.6618 169.129L96.444 169.349C96.3265 169.834 96.0878 170.205 95.7279 170.462C95.3681 170.719 94.9127 170.848 94.3619 170.848C93.5908 170.848 92.9885 170.598 92.5552 170.098C92.1219 169.599 91.9052 168.894 91.9052 167.983C91.9052 167.095 92.1256 166.39 92.5662 165.868C93.0142 165.339 93.6128 165.075 94.3619 165.075C95.0155 165.075 95.5333 165.288 95.9152 165.714C96.3045 166.133 96.4991 166.691 96.4991 167.388C96.4991 167.528 96.4881 167.664 96.466 167.796C96.444 167.928 96.4183 168.038 96.3889 168.126H92.7755C92.7976 168.765 92.9445 169.261 93.2162 169.614C93.4953 169.959 93.8772 170.131 94.3619 170.131ZM94.3399 165.769C93.9066 165.769 93.554 165.916 93.2823 166.21C93.0179 166.503 92.8563 166.922 92.7976 167.465H95.5957C95.6031 167.429 95.6068 167.392 95.6068 167.355C95.6068 167.311 95.6068 167.253 95.6068 167.179C95.6068 166.76 95.4893 166.423 95.2542 166.166C95.0266 165.901 94.7218 165.769 94.3399 165.769Z" fill="#080615"/>
<rect x="52.1967" y="178.365" width="210.492" height="37.377" rx="6.70986" stroke="#D3D2D2" stroke-width="0.393443"/>
<path d="M67.5311 200.239H71.1665V201.054H66.2862V200.338C66.3596 200.279 66.5873 200.103 66.9692 199.809C67.3511 199.508 67.6486 199.269 67.8615 199.093C68.192 198.814 68.4711 198.564 68.6988 198.344C68.9338 198.116 69.1321 197.903 69.2937 197.705C69.5434 197.397 69.727 197.095 69.8445 196.802C69.962 196.501 70.0208 196.196 70.0208 195.887C70.0208 195.388 69.8922 194.999 69.6352 194.72C69.3781 194.44 69.0183 194.301 68.5556 194.301C68.1443 194.301 67.8065 194.433 67.5421 194.697C67.285 194.962 67.1565 195.303 67.1565 195.722C67.1565 195.869 67.1749 196.005 67.2116 196.13C67.2483 196.254 67.3071 196.387 67.3878 196.526L66.6057 196.846C66.5029 196.684 66.4257 196.508 66.3743 196.317C66.3229 196.126 66.2972 195.909 66.2972 195.667C66.2972 195.087 66.5102 194.591 66.9362 194.18C67.3621 193.768 67.9056 193.563 68.5666 193.563C69.2863 193.563 69.8592 193.768 70.2852 194.18C70.7111 194.591 70.9241 195.153 70.9241 195.865C70.9241 196.526 70.6671 197.202 70.153 197.892C69.6389 198.575 68.7649 199.357 67.5311 200.239ZM73.8498 193.563V201.054H72.9355V194.72L71.0957 195.226V194.367L73.8498 193.563ZM83.3339 195.05H83.3119L81.2077 199.357H80.5027L78.3986 195.05H78.3765L78.3875 196.328V201.054H77.4842V193.695H78.6079L80.8772 198.355H80.8993L83.1687 193.695H84.2262V201.054H83.3229V196.328L83.3339 195.05ZM87.0228 200.481C87.434 200.481 87.7645 200.349 88.0142 200.085C88.2639 199.82 88.3888 199.457 88.3888 198.994V198.531C88.2933 198.524 88.2015 198.52 88.1134 198.52C88.0252 198.513 87.9445 198.509 87.871 198.509C87.2394 198.509 86.7694 198.601 86.4609 198.785C86.1525 198.961 85.9982 199.229 85.9982 199.589C85.9982 199.868 86.09 200.088 86.2736 200.25C86.4572 200.404 86.707 200.481 87.0228 200.481ZM87.3532 195.414C87.9628 195.414 88.4292 195.56 88.7523 195.854C89.0755 196.141 89.2371 196.559 89.2371 197.11V199.974C89.2371 200.136 89.2701 200.257 89.3362 200.338C89.4023 200.419 89.5051 200.459 89.6447 200.459C89.7034 200.459 89.7658 200.448 89.8319 200.426C89.898 200.404 89.9494 200.375 89.9862 200.338L90.0413 201.01C89.9752 201.054 89.8833 201.091 89.7658 201.12C89.6557 201.149 89.5455 201.164 89.4353 201.164C89.2297 201.164 89.0498 201.124 88.8955 201.043C88.7487 200.955 88.6348 200.83 88.554 200.668C88.5247 200.61 88.4953 200.547 88.4659 200.481C88.4439 200.408 88.4255 200.327 88.4108 200.239C88.308 200.525 88.1097 200.753 87.8159 200.922C87.5222 201.091 87.188 201.175 86.8134 201.175C86.2993 201.175 85.8844 201.036 85.5686 200.757C85.2601 200.47 85.1059 200.092 85.1059 199.622C85.1059 199.049 85.3409 198.608 85.811 198.3C86.2883 197.991 86.975 197.837 87.871 197.837C87.9151 197.837 87.9702 197.841 88.0363 197.848C88.1097 197.848 88.2272 197.852 88.3888 197.859V197.209C88.3888 196.871 88.2933 196.611 88.1024 196.427C87.9188 196.243 87.6507 196.152 87.2982 196.152C86.9603 196.152 86.6996 196.236 86.516 196.405C86.3324 196.574 86.2332 196.82 86.2186 197.143L85.3372 196.989C85.396 196.504 85.6053 196.122 85.9652 195.843C86.3324 195.557 86.7951 195.414 87.3532 195.414ZM90.62 201.054V195.546H91.336L91.4572 196.956C91.56 196.493 91.773 196.122 92.0962 195.843C92.4193 195.557 92.7902 195.414 93.2088 195.414C93.2602 195.414 93.3116 195.417 93.363 195.425C93.4218 195.432 93.4769 195.439 93.5283 195.447L93.4732 196.394C93.4291 196.387 93.3667 196.379 93.2859 196.372C93.2051 196.365 93.1207 196.361 93.0325 196.361C92.5772 196.361 92.21 196.534 91.9309 196.879C91.6592 197.224 91.5233 197.687 91.5233 198.267V201.054H90.62ZM96.9323 200.239H100.568V201.054H95.6875V200.338C95.7609 200.279 95.9886 200.103 96.3705 199.809C96.7524 199.508 97.0499 199.269 97.2628 199.093C97.5933 198.814 97.8724 198.564 98.1001 198.344C98.3351 198.116 98.5334 197.903 98.695 197.705C98.9447 197.397 99.1283 197.095 99.2458 196.802C99.3633 196.501 99.4221 196.196 99.4221 195.887C99.4221 195.388 99.2935 194.999 99.0365 194.72C98.7794 194.44 98.4196 194.301 97.9569 194.301C97.5456 194.301 97.2078 194.433 96.9434 194.697C96.6863 194.962 96.5578 195.303 96.5578 195.722C96.5578 195.869 96.5762 196.005 96.6129 196.13C96.6496 196.254 96.7083 196.387 96.7891 196.526L96.007 196.846C95.9042 196.684 95.827 196.508 95.7756 196.317C95.7242 196.126 95.6985 195.909 95.6985 195.667C95.6985 195.087 95.9115 194.591 96.3375 194.18C96.7634 193.768 97.3069 193.563 97.9679 193.563C98.6876 193.563 99.2605 193.768 99.6864 194.18C100.112 194.591 100.325 195.153 100.325 195.865C100.325 196.526 100.068 197.202 99.5543 197.892C99.0402 198.575 98.1662 199.357 96.9323 200.239ZM100.839 197.374C100.839 196.221 101.081 195.3 101.566 194.609C102.058 193.912 102.722 193.563 103.56 193.563C104.397 193.563 105.058 193.912 105.543 194.609C106.035 195.3 106.281 196.221 106.281 197.374C106.281 198.528 106.035 199.453 105.543 200.151C105.058 200.841 104.397 201.186 103.56 201.186C102.722 201.186 102.058 200.841 101.566 200.151C101.081 199.453 100.839 198.528 100.839 197.374ZM101.775 197.374C101.775 198.344 101.929 199.093 102.238 199.622C102.546 200.143 102.987 200.404 103.56 200.404C104.132 200.404 104.573 200.143 104.882 199.622C105.19 199.093 105.344 198.344 105.344 197.374C105.344 196.405 105.19 195.66 104.882 195.138C104.573 194.609 104.132 194.345 103.56 194.345C102.987 194.345 102.546 194.609 102.238 195.138C101.929 195.66 101.775 196.405 101.775 197.374ZM107.918 200.239H111.553V201.054H106.673V200.338C106.746 200.279 106.974 200.103 107.356 199.809C107.738 199.508 108.035 199.269 108.248 199.093C108.579 198.814 108.858 198.564 109.085 198.344C109.321 198.116 109.519 197.903 109.68 197.705C109.93 197.397 110.114 197.095 110.231 196.802C110.349 196.501 110.407 196.196 110.407 195.887C110.407 195.388 110.279 194.999 110.022 194.72C109.765 194.44 109.405 194.301 108.942 194.301C108.531 194.301 108.193 194.433 107.929 194.697C107.672 194.962 107.543 195.303 107.543 195.722C107.543 195.869 107.562 196.005 107.598 196.13C107.635 196.254 107.694 196.387 107.775 196.526L106.992 196.846C106.89 196.684 106.812 196.508 106.761 196.317C106.71 196.126 106.684 195.909 106.684 195.667C106.684 195.087 106.897 194.591 107.323 194.18C107.749 193.768 108.292 193.563 108.953 193.563C109.673 193.563 110.246 193.768 110.672 194.18C111.098 194.591 111.311 195.153 111.311 195.865C111.311 196.526 111.054 197.202 110.54 197.892C110.026 198.575 109.152 199.357 107.918 200.239ZM112.992 197.617H112.243L112.441 193.695H116.253V194.499H113.168L113.047 196.879C113.223 196.717 113.429 196.592 113.664 196.504C113.906 196.409 114.156 196.361 114.413 196.361C115.059 196.361 115.588 196.585 115.999 197.033C116.41 197.474 116.616 198.039 116.616 198.729C116.616 199.464 116.381 200.059 115.911 200.514C115.441 200.962 114.839 201.186 114.104 201.186C113.429 201.186 112.856 201.006 112.386 200.646C111.923 200.279 111.655 199.816 111.582 199.258L112.375 198.961C112.47 199.438 112.669 199.805 112.97 200.062C113.278 200.32 113.664 200.448 114.126 200.448C114.626 200.448 115.019 200.297 115.305 199.996C115.592 199.688 115.735 199.269 115.735 198.741C115.735 198.248 115.595 197.856 115.316 197.562C115.044 197.268 114.677 197.121 114.214 197.121C113.972 197.121 113.744 197.165 113.531 197.253C113.318 197.341 113.139 197.463 112.992 197.617Z" fill="#7C7978"/>
<rect x="238.141" y="193.906" width="9.44262" height="7.86885" rx="1.04918" stroke="#7C7978" stroke-width="1.04918"/>
<path d="M238.664 196.529H247.058" stroke="#7C7978" stroke-width="1.04918" stroke-linecap="round"/>
<path d="M241.289 199.152H244.437" stroke="#7C7978" stroke-width="1.04918" stroke-linecap="round"/>
<path d="M240.764 192.333L240.764 194.431" stroke="#7C7978" stroke-width="1.04918" stroke-linecap="round"/>
<path d="M244.961 192.333L244.961 194.431" stroke="#7C7978" stroke-width="1.04918" stroke-linecap="round"/>
<path d="M55.2168 234.846H53.0245V227.487H55.2168C56.3625 227.487 57.2548 227.806 57.8938 228.445C58.5327 229.077 58.8522 229.976 58.8522 231.144C58.8522 232.319 58.529 233.23 57.8828 233.876C57.2365 234.523 56.3478 234.846 55.2168 234.846ZM55.2168 228.28H53.9499V234.053H55.2168C56.054 234.053 56.7077 233.803 57.1777 233.303C57.6477 232.804 57.8828 232.084 57.8828 231.144C57.8828 230.211 57.6514 229.503 57.1887 229.018C56.726 228.526 56.0687 228.28 55.2168 228.28ZM63.9184 234.846H63.2023L63.0921 233.799C62.9673 234.181 62.7543 234.475 62.4532 234.68C62.1521 234.879 61.7849 234.978 61.3515 234.978C60.8448 234.978 60.4335 234.82 60.1177 234.504C59.8092 234.188 59.655 233.759 59.655 233.215V229.338H60.5584V233.116C60.5584 233.469 60.6502 233.748 60.8338 233.953C61.0174 234.152 61.2744 234.251 61.6049 234.251C62.0382 234.251 62.3797 234.1 62.6294 233.799C62.8791 233.498 63.004 233.076 63.004 232.532V229.338H63.9184V234.846ZM67.2521 234.262C67.5973 234.262 67.88 234.177 68.1004 234.008C68.3207 233.84 68.4713 233.59 68.552 233.259L69.3342 233.48C69.2167 233.964 68.978 234.335 68.6181 234.592C68.2583 234.849 67.8029 234.978 67.2521 234.978C66.481 234.978 65.8787 234.728 65.4454 234.229C65.0121 233.729 64.7955 233.024 64.7955 232.114C64.7955 231.225 65.0158 230.52 65.4564 229.998C65.9044 229.47 66.503 229.205 67.2521 229.205C67.9058 229.205 68.4235 229.418 68.8054 229.844C69.1947 230.263 69.3893 230.821 69.3893 231.519C69.3893 231.658 69.3783 231.794 69.3562 231.926C69.3342 232.059 69.3085 232.169 69.2791 232.257H65.6658C65.6878 232.896 65.8347 233.392 66.1064 233.744C66.3855 234.089 66.7674 234.262 67.2521 234.262ZM67.2301 229.899C66.7968 229.899 66.4442 230.046 66.1725 230.34C65.9081 230.634 65.7465 231.052 65.6878 231.596H68.4859C68.4933 231.559 68.497 231.522 68.497 231.486C68.497 231.442 68.497 231.383 68.497 231.309C68.497 230.891 68.3795 230.553 68.1444 230.296C67.9168 230.032 67.612 229.899 67.2301 229.899ZM74.5949 234.846H72.4026V227.487H74.5949C75.7406 227.487 76.6329 227.806 77.2719 228.445C77.9108 229.077 78.2303 229.976 78.2303 231.144C78.2303 232.319 77.9071 233.23 77.2608 233.876C76.6146 234.523 75.7259 234.846 74.5949 234.846ZM74.5949 228.28H73.328V234.053H74.5949C75.4321 234.053 76.0858 233.803 76.5558 233.303C77.0258 232.804 77.2608 232.084 77.2608 231.144C77.2608 230.211 77.0295 229.503 76.5668 229.018C76.1041 228.526 75.4468 228.28 74.5949 228.28ZM80.5534 234.273C80.9647 234.273 81.2951 234.141 81.5448 233.876C81.7946 233.612 81.9194 233.248 81.9194 232.786V232.323C81.8239 232.316 81.7321 232.312 81.644 232.312C81.5559 232.305 81.4751 232.301 81.4016 232.301C80.77 232.301 80.3 232.393 79.9915 232.576C79.6831 232.753 79.5288 233.021 79.5288 233.381C79.5288 233.66 79.6207 233.88 79.8043 234.042C79.9879 234.196 80.2376 234.273 80.5534 234.273ZM80.8839 229.205C81.4934 229.205 81.9598 229.352 82.2829 229.646C82.6061 229.932 82.7677 230.351 82.7677 230.902V233.766C82.7677 233.928 82.8007 234.049 82.8668 234.13C82.9329 234.21 83.0357 234.251 83.1753 234.251C83.234 234.251 83.2965 234.24 83.3626 234.218C83.4287 234.196 83.4801 234.166 83.5168 234.13L83.5719 234.802C83.5058 234.846 83.414 234.882 83.2965 234.912C83.1863 234.941 83.0761 234.956 82.966 234.956C82.7603 234.956 82.5804 234.915 82.4262 234.835C82.2793 234.747 82.1654 234.622 82.0847 234.46C82.0553 234.401 82.0259 234.339 81.9965 234.273C81.9745 234.199 81.9561 234.119 81.9414 234.03C81.8386 234.317 81.6403 234.545 81.3466 234.714C81.0528 234.882 80.7186 234.967 80.3441 234.967C79.83 234.967 79.415 234.827 79.0992 234.548C78.7907 234.262 78.6365 233.884 78.6365 233.414C78.6365 232.841 78.8715 232.4 79.3416 232.092C79.8189 231.783 80.5056 231.629 81.4016 231.629C81.4457 231.629 81.5008 231.633 81.5669 231.64C81.6403 231.64 81.7578 231.644 81.9194 231.651V231.001C81.9194 230.663 81.8239 230.402 81.633 230.219C81.4494 230.035 81.1813 229.943 80.8288 229.943C80.4909 229.943 80.2302 230.028 80.0466 230.197C79.863 230.366 79.7639 230.612 79.7492 230.935L78.8679 230.781C78.9266 230.296 79.1359 229.914 79.4958 229.635C79.863 229.349 80.3257 229.205 80.8839 229.205ZM85.9683 234.218C86.1372 234.218 86.2878 234.199 86.4199 234.163C86.5521 234.119 86.7027 234.042 86.8716 233.931L87.0369 234.647C86.8753 234.75 86.6917 234.831 86.486 234.89C86.2878 234.949 86.0931 234.978 85.9022 234.978C85.3734 234.978 84.9658 234.849 84.6794 234.592C84.4003 234.328 84.2607 233.95 84.2607 233.458V230.032H83.4676V229.338H84.2607V228.17L85.1641 228.027V229.338H86.8165V230.032H85.1641V233.37C85.1641 233.649 85.2302 233.862 85.3624 234.008C85.5019 234.148 85.7039 234.218 85.9683 234.218ZM89.7669 234.262C90.112 234.262 90.3948 234.177 90.6151 234.008C90.8355 233.84 90.986 233.59 91.0668 233.259L91.849 233.48C91.7315 233.964 91.4928 234.335 91.1329 234.592C90.773 234.849 90.3177 234.978 89.7669 234.978C88.9957 234.978 88.3935 234.728 87.9602 234.229C87.5269 233.729 87.3102 233.024 87.3102 232.114C87.3102 231.225 87.5305 230.52 87.9712 229.998C88.4192 229.47 89.0178 229.205 89.7669 229.205C90.4205 229.205 90.9383 229.418 91.3202 229.844C91.7094 230.263 91.904 230.821 91.904 231.519C91.904 231.658 91.893 231.794 91.871 231.926C91.849 232.059 91.8233 232.169 91.7939 232.257H88.1805C88.2025 232.896 88.3494 233.392 88.6212 233.744C88.9002 234.089 89.2821 234.262 89.7669 234.262ZM89.7448 229.899C89.3115 229.899 88.959 230.046 88.6873 230.34C88.4229 230.634 88.2613 231.052 88.2025 231.596H91.0007C91.008 231.559 91.0117 231.522 91.0117 231.486C91.0117 231.442 91.0117 231.383 91.0117 231.309C91.0117 230.891 90.8942 230.553 90.6592 230.296C90.4315 230.032 90.1267 229.899 89.7448 229.899Z" fill="#080615"/>
<rect x="52.1967" y="242.496" width="210.492" height="37.377" rx="6.70986" stroke="#D3D2D2" stroke-width="0.393443"/>
<path d="M67.5311 264.369H71.1665V265.184H66.2862V264.468C66.3596 264.41 66.5873 264.233 66.9692 263.939C67.3511 263.638 67.6486 263.4 67.8615 263.223C68.192 262.944 68.4711 262.695 68.6988 262.474C68.9338 262.247 69.1321 262.034 69.2937 261.835C69.5434 261.527 69.727 261.226 69.8445 260.932C69.962 260.631 70.0208 260.326 70.0208 260.018C70.0208 259.518 69.8922 259.129 69.6352 258.85C69.3781 258.571 69.0183 258.431 68.5556 258.431C68.1443 258.431 67.8065 258.563 67.5421 258.828C67.285 259.092 67.1565 259.434 67.1565 259.852C67.1565 259.999 67.1749 260.135 67.2116 260.26C67.2483 260.385 67.3071 260.517 67.3878 260.657L66.6057 260.976C66.5029 260.814 66.4257 260.638 66.3743 260.447C66.3229 260.256 66.2972 260.04 66.2972 259.797C66.2972 259.217 66.5102 258.721 66.9362 258.31C67.3621 257.899 67.9056 257.693 68.5666 257.693C69.2863 257.693 69.8592 257.899 70.2852 258.31C70.7111 258.721 70.9241 259.283 70.9241 259.996C70.9241 260.657 70.6671 261.332 70.153 262.023C69.6389 262.706 68.7649 263.488 67.5311 264.369ZM73.6405 265.317C73.097 265.317 72.638 265.192 72.2635 264.942C71.8889 264.692 71.6098 264.321 71.4262 263.829L72.1974 263.466C72.3149 263.811 72.4985 264.079 72.7482 264.27C72.9979 264.461 73.2953 264.556 73.6405 264.556C74.2868 264.556 74.7972 264.259 75.1718 263.664C75.5463 263.069 75.7336 262.28 75.7336 261.296V261.053H75.7006C75.5684 261.494 75.3223 261.846 74.9625 262.111C74.6026 262.368 74.1803 262.496 73.6956 262.496C73.0052 262.496 72.4507 262.276 72.0321 261.835C71.6135 261.395 71.4042 260.822 71.4042 260.117C71.4042 259.412 71.6282 258.832 72.0762 258.376C72.5242 257.921 73.1117 257.693 73.8388 257.693C74.3162 257.693 74.7385 257.796 75.1057 258.002C75.4802 258.207 75.785 258.508 76.02 258.905C76.2037 259.213 76.3395 259.57 76.4277 259.974C76.5231 260.37 76.5709 260.811 76.5709 261.296C76.5709 262.507 76.3028 263.48 75.7667 264.215C75.2379 264.949 74.5292 265.317 73.6405 265.317ZM73.8939 258.453C73.4165 258.453 73.0273 258.604 72.7261 258.905C72.425 259.206 72.2745 259.603 72.2745 260.095C72.2745 260.587 72.425 260.983 72.7261 261.285C73.0273 261.578 73.4165 261.725 73.8939 261.725C74.3566 261.725 74.7348 261.575 75.0286 261.274C75.3223 260.972 75.4692 260.579 75.4692 260.095C75.4692 259.61 75.3223 259.217 75.0286 258.916C74.7348 258.608 74.3566 258.453 73.8939 258.453ZM85.464 259.18H85.442L83.3379 263.488H82.6328L80.5287 259.18H80.5066L80.5177 260.458V265.184H79.6143V257.825H80.738L83.0074 262.485H83.0294L85.2988 257.825H86.3564V265.184H85.453V260.458L85.464 259.18ZM89.1529 264.611C89.5642 264.611 89.8947 264.479 90.1444 264.215C90.3941 263.95 90.5189 263.587 90.5189 263.124V262.662C90.4234 262.654 90.3316 262.651 90.2435 262.651C90.1554 262.643 90.0746 262.64 90.0011 262.64C89.3695 262.64 88.8995 262.731 88.591 262.915C88.2826 263.091 88.1284 263.359 88.1284 263.719C88.1284 263.998 88.2202 264.219 88.4038 264.38C88.5874 264.534 88.8371 264.611 89.1529 264.611ZM89.4834 259.544C90.0929 259.544 90.5593 259.691 90.8825 259.985C91.2056 260.271 91.3672 260.69 91.3672 261.24V264.105C91.3672 264.266 91.4002 264.387 91.4663 264.468C91.5324 264.549 91.6352 264.589 91.7748 264.589C91.8335 264.589 91.896 264.578 91.9621 264.556C92.0282 264.534 92.0796 264.505 92.1163 264.468L92.1714 265.14C92.1053 265.184 92.0135 265.221 91.896 265.25C91.7858 265.28 91.6756 265.294 91.5655 265.294C91.3598 265.294 91.1799 265.254 91.0257 265.173C90.8788 265.085 90.7649 264.96 90.6842 264.799C90.6548 264.74 90.6254 264.678 90.596 264.611C90.574 264.538 90.5556 264.457 90.5409 264.369C90.4381 264.656 90.2398 264.883 89.9461 265.052C89.6523 265.221 89.3181 265.306 88.9436 265.306C88.4295 265.306 88.0145 265.166 87.6987 264.887C87.3903 264.6 87.236 264.222 87.236 263.752C87.236 263.179 87.471 262.739 87.9411 262.43C88.4185 262.122 89.1051 261.968 90.0011 261.968C90.0452 261.968 90.1003 261.971 90.1664 261.979C90.2398 261.979 90.3573 261.982 90.5189 261.99V261.34C90.5189 261.002 90.4234 260.741 90.2325 260.557C90.0489 260.374 89.7808 260.282 89.4283 260.282C89.0905 260.282 88.8297 260.366 88.6461 260.535C88.4625 260.704 88.3634 260.95 88.3487 261.274L87.4674 261.119C87.5261 260.635 87.7354 260.253 88.0953 259.974C88.4625 259.687 88.9252 259.544 89.4834 259.544ZM92.7501 265.184V259.676H93.4661L93.5873 261.086C93.6901 260.624 93.9031 260.253 94.2263 259.974C94.5494 259.687 94.9203 259.544 95.3389 259.544C95.3903 259.544 95.4418 259.548 95.4932 259.555C95.5519 259.562 95.607 259.57 95.6584 259.577L95.6033 260.524C95.5593 260.517 95.4968 260.51 95.416 260.502C95.3353 260.495 95.2508 260.491 95.1627 260.491C94.7073 260.491 94.3401 260.664 94.061 261.009C93.7893 261.354 93.6534 261.817 93.6534 262.397V265.184H92.7501ZM99.0625 264.369H102.698V265.184H97.8176V264.468C97.8911 264.41 98.1187 264.233 98.5006 263.939C98.8825 263.638 99.18 263.4 99.393 263.223C99.7235 262.944 100.003 262.695 100.23 262.474C100.465 262.247 100.664 262.034 100.825 261.835C101.075 261.527 101.258 261.226 101.376 260.932C101.493 260.631 101.552 260.326 101.552 260.018C101.552 259.518 101.424 259.129 101.167 258.85C100.91 258.571 100.55 258.431 100.087 258.431C99.6757 258.431 99.3379 258.563 99.0735 258.828C98.8164 259.092 98.6879 259.434 98.6879 259.852C98.6879 259.999 98.7063 260.135 98.743 260.26C98.7797 260.385 98.8385 260.517 98.9193 260.657L98.1371 260.976C98.0343 260.814 97.9572 260.638 97.9058 260.447C97.8543 260.256 97.8286 260.04 97.8286 259.797C97.8286 259.217 98.0416 258.721 98.4676 258.31C98.8936 257.899 99.437 257.693 100.098 257.693C100.818 257.693 101.391 257.899 101.817 258.31C102.243 258.721 102.456 259.283 102.456 259.996C102.456 260.657 102.198 261.332 101.684 262.023C101.17 262.706 100.296 263.488 99.0625 264.369ZM102.969 261.505C102.969 260.352 103.211 259.43 103.696 258.74C104.188 258.042 104.852 257.693 105.69 257.693C106.527 257.693 107.188 258.042 107.673 258.74C108.165 259.43 108.411 260.352 108.411 261.505C108.411 262.658 108.165 263.583 107.673 264.281C107.188 264.971 106.527 265.317 105.69 265.317C104.852 265.317 104.188 264.971 103.696 264.281C103.211 263.583 102.969 262.658 102.969 261.505ZM103.905 261.505C103.905 262.474 104.059 263.223 104.368 263.752C104.676 264.274 105.117 264.534 105.69 264.534C106.263 264.534 106.703 264.274 107.012 263.752C107.32 263.223 107.474 262.474 107.474 261.505C107.474 260.535 107.32 259.79 107.012 259.269C106.703 258.74 106.263 258.475 105.69 258.475C105.117 258.475 104.676 258.74 104.368 259.269C104.059 259.79 103.905 260.535 103.905 261.505ZM110.048 264.369H113.683V265.184H108.803V264.468C108.876 264.41 109.104 264.233 109.486 263.939C109.868 263.638 110.165 263.4 110.378 263.223C110.709 262.944 110.988 262.695 111.216 262.474C111.451 262.247 111.649 262.034 111.811 261.835C112.06 261.527 112.244 261.226 112.361 260.932C112.479 260.631 112.538 260.326 112.538 260.018C112.538 259.518 112.409 259.129 112.152 258.85C111.895 258.571 111.535 258.431 111.072 258.431C110.661 258.431 110.323 258.563 110.059 258.828C109.802 259.092 109.673 259.434 109.673 259.852C109.673 259.999 109.692 260.135 109.728 260.26C109.765 260.385 109.824 260.517 109.905 260.657L109.123 260.976C109.02 260.814 108.943 260.638 108.891 260.447C108.84 260.256 108.814 260.04 108.814 259.797C108.814 259.217 109.027 258.721 109.453 258.31C109.879 257.899 110.422 257.693 111.083 257.693C111.803 257.693 112.376 257.899 112.802 258.31C113.228 258.721 113.441 259.283 113.441 259.996C113.441 260.657 113.184 261.332 112.67 262.023C112.156 262.706 111.282 263.488 110.048 264.369ZM115.122 261.747H114.373L114.571 257.825H118.383V258.63H115.298L115.177 261.009C115.353 260.848 115.559 260.723 115.794 260.635C116.036 260.539 116.286 260.491 116.543 260.491C117.189 260.491 117.718 260.715 118.129 261.163C118.541 261.604 118.746 262.17 118.746 262.86C118.746 263.594 118.511 264.189 118.041 264.645C117.571 265.093 116.969 265.317 116.234 265.317C115.559 265.317 114.986 265.137 114.516 264.777C114.053 264.41 113.785 263.947 113.712 263.389L114.505 263.091C114.6 263.569 114.799 263.936 115.1 264.193C115.408 264.45 115.794 264.578 116.256 264.578C116.756 264.578 117.149 264.428 117.435 264.127C117.722 263.818 117.865 263.4 117.865 262.871C117.865 262.379 117.725 261.986 117.446 261.692C117.175 261.398 116.807 261.251 116.345 261.251C116.102 261.251 115.875 261.296 115.662 261.384C115.449 261.472 115.269 261.593 115.122 261.747Z" fill="#7C7978"/>
<rect x="238.141" y="258.037" width="9.44262" height="7.86885" rx="1.04918" stroke="#7C7978" stroke-width="1.04918"/>
<path d="M238.664 260.66H247.058" stroke="#7C7978" stroke-width="1.04918" stroke-linecap="round"/>
<path d="M241.289 263.283H244.437" stroke="#7C7978" stroke-width="1.04918" stroke-linecap="round"/>
<path d="M240.764 256.463L240.764 258.561" stroke="#7C7978" stroke-width="1.04918" stroke-linecap="round"/>
<path d="M244.961 256.463L244.961 258.561" stroke="#7C7978" stroke-width="1.04918" stroke-linecap="round"/>
<rect x="52" y="293.655" width="210.569" height="30.9092" rx="7.7273" fill="#4F3FD7"/>
</g>
<defs>
<radialGradient id="paint0_radial_8017_57242" cx="0" cy="0" r="1" gradientUnits="userSpaceOnUse" gradientTransform="translate(158.393 45) rotate(90.0769) scale(293.149 240.001)">
<stop stop-color="#FBFBFB" stop-opacity="0.46"/>
<stop offset="1" stop-color="white" stop-opacity="0.12"/>
</radialGradient>
<clipPath id="clip0_8017_57242">
<rect y="0.886719" width="316" height="296" rx="28.9806" fill="white"/>
</clipPath>
</defs>
</svg>
