<svg width="318" height="297" viewBox="0 0 318 297" fill="none" xmlns="http://www.w3.org/2000/svg">
<g clip-path="url(#clip0_8017_57285)">
<rect y="0.886719" width="318" height="296" rx="28.9806" fill="#4F3FD7"/>
<rect x="38.6066" y="44.6066" width="240.787" height="214.001" rx="15.6629" fill="white"/>
<rect x="38.6066" y="44.6066" width="240.787" height="214.001" rx="15.6629" stroke="url(#paint0_radial_8017_57285)" stroke-width="0.786885"/>
<path d="M111.568 67.432C111.568 67.032 111.452 66.732 111.22 66.532C110.996 66.324 110.66 66.22 110.212 66.22H108.448V68.68H110.224C110.672 68.68 111.008 68.576 111.232 68.368C111.456 68.16 111.568 67.848 111.568 67.432ZM113.524 73H111.892C111.804 72.896 111.732 72.784 111.676 72.664C111.628 72.544 111.584 72.392 111.544 72.208L111.256 70.936C111.176 70.56 111.032 70.292 110.824 70.132C110.616 69.972 110.3 69.892 109.876 69.892H108.448V73H106.948V64.984H110.332C111.252 64.984 111.948 65.18 112.42 65.572C112.9 65.964 113.14 66.536 113.14 67.288C113.14 67.84 112.968 68.304 112.624 68.68C112.288 69.048 111.86 69.256 111.34 69.304V69.328C111.724 69.376 112.024 69.504 112.24 69.712C112.456 69.92 112.612 70.224 112.708 70.624L113.08 72.124C113.112 72.284 113.164 72.436 113.236 72.58C113.316 72.724 113.412 72.864 113.524 73ZM116.491 72.016C116.819 72.016 117.083 71.94 117.283 71.788C117.483 71.628 117.623 71.392 117.703 71.08L118.927 71.476C118.783 72.012 118.495 72.424 118.063 72.712C117.631 73 117.103 73.144 116.479 73.144C115.591 73.144 114.895 72.868 114.391 72.316C113.887 71.764 113.635 71 113.635 70.024C113.635 69.04 113.891 68.26 114.403 67.684C114.915 67.108 115.611 66.82 116.491 66.82C117.259 66.82 117.867 67.06 118.315 67.54C118.763 68.012 118.987 68.644 118.987 69.436C118.987 69.58 118.975 69.728 118.951 69.88C118.927 70.024 118.899 70.144 118.867 70.24H115.051C115.067 70.8 115.199 71.236 115.447 71.548C115.703 71.86 116.051 72.016 116.491 72.016ZM116.467 67.888C116.075 67.888 115.755 68.024 115.507 68.296C115.267 68.56 115.123 68.936 115.075 69.424H117.571C117.579 69.392 117.583 69.356 117.583 69.316C117.583 69.268 117.583 69.204 117.583 69.124C117.583 68.756 117.479 68.46 117.271 68.236C117.071 68.004 116.803 67.888 116.467 67.888ZM120.457 66.964L121.873 71.404H121.897L123.373 66.964H124.801L122.593 73H121.117L118.897 66.964H120.457ZM125.944 64.312C126.208 64.312 126.428 64.396 126.604 64.564C126.788 64.732 126.88 64.944 126.88 65.2C126.88 65.456 126.788 65.668 126.604 65.836C126.428 66.004 126.208 66.088 125.944 66.088C125.68 66.088 125.46 66.004 125.284 65.836C125.108 65.668 125.02 65.456 125.02 65.2C125.02 64.944 125.108 64.732 125.284 64.564C125.46 64.396 125.68 64.312 125.944 64.312ZM125.212 73V66.964H126.688V73H125.212ZM130.21 72.016C130.538 72.016 130.802 71.94 131.002 71.788C131.202 71.628 131.342 71.392 131.422 71.08L132.646 71.476C132.502 72.012 132.214 72.424 131.782 72.712C131.35 73 130.822 73.144 130.198 73.144C129.31 73.144 128.614 72.868 128.11 72.316C127.606 71.764 127.354 71 127.354 70.024C127.354 69.04 127.61 68.26 128.122 67.684C128.634 67.108 129.33 66.82 130.21 66.82C130.978 66.82 131.586 67.06 132.034 67.54C132.482 68.012 132.706 68.644 132.706 69.436C132.706 69.58 132.694 69.728 132.67 69.88C132.646 70.024 132.618 70.144 132.586 70.24H128.77C128.786 70.8 128.918 71.236 129.166 71.548C129.422 71.86 129.77 72.016 130.21 72.016ZM130.186 67.888C129.794 67.888 129.474 68.024 129.226 68.296C128.986 68.56 128.842 68.936 128.794 69.424H131.29C131.298 69.392 131.302 69.356 131.302 69.316C131.302 69.268 131.302 69.204 131.302 69.124C131.302 68.756 131.198 68.46 130.99 68.236C130.79 68.004 130.522 67.888 130.186 67.888ZM135.195 71.344L136.263 66.964H137.463L138.531 71.344H138.555L139.599 66.964H141.027L139.347 73H137.919L136.851 68.776H136.827L135.771 73H134.331L132.651 66.964H134.127L135.171 71.344H135.195ZM143.615 73V64.984H145.139V73H143.615ZM146.257 66.964H147.469L147.649 68.128C147.801 67.712 148.049 67.392 148.393 67.168C148.737 66.936 149.145 66.82 149.617 66.82C150.193 66.82 150.649 66.996 150.985 67.348C151.329 67.692 151.501 68.168 151.501 68.776V73H150.013V69.184C150.013 68.824 149.929 68.548 149.761 68.356C149.593 68.164 149.349 68.068 149.029 68.068C148.621 68.068 148.301 68.204 148.069 68.476C147.845 68.74 147.733 69.12 147.733 69.616V73H146.257V66.964ZM153.339 66.964L154.755 71.404H154.779L156.255 66.964H157.683L155.475 73H153.999L151.779 66.964H153.339ZM160.426 66.82C161.306 66.82 162.002 67.1 162.514 67.66C163.034 68.22 163.294 68.992 163.294 69.976C163.294 70.96 163.038 71.736 162.526 72.304C162.014 72.864 161.314 73.144 160.426 73.144C159.546 73.144 158.846 72.864 158.326 72.304C157.814 71.736 157.558 70.96 157.558 69.976C157.558 69 157.814 68.232 158.326 67.672C158.846 67.104 159.546 66.82 160.426 66.82ZM160.426 72.04C160.882 72.04 161.226 71.868 161.458 71.524C161.698 71.172 161.818 70.656 161.818 69.976C161.818 69.304 161.698 68.796 161.458 68.452C161.226 68.1 160.882 67.924 160.426 67.924C159.97 67.924 159.626 68.096 159.394 68.44C159.162 68.784 159.046 69.296 159.046 69.976C159.046 70.656 159.162 71.172 159.394 71.524C159.626 71.868 159.97 72.04 160.426 72.04ZM164.692 64.312C164.956 64.312 165.176 64.396 165.352 64.564C165.536 64.732 165.628 64.944 165.628 65.2C165.628 65.456 165.536 65.668 165.352 65.836C165.176 66.004 164.956 66.088 164.692 66.088C164.428 66.088 164.208 66.004 164.032 65.836C163.856 65.668 163.768 65.456 163.768 65.2C163.768 64.944 163.856 64.732 164.032 64.564C164.208 64.396 164.428 64.312 164.692 64.312ZM163.96 73V66.964H165.436V73H163.96ZM168.958 73.144C168.078 73.144 167.382 72.864 166.87 72.304C166.358 71.736 166.102 70.964 166.102 69.988C166.102 69.012 166.354 68.24 166.858 67.672C167.37 67.104 168.062 66.82 168.934 66.82C169.606 66.82 170.154 66.996 170.578 67.348C171.01 67.7 171.258 68.172 171.322 68.764L170.026 69.04C170.002 68.704 169.894 68.436 169.702 68.236C169.51 68.036 169.258 67.936 168.946 67.936C168.514 67.936 168.178 68.116 167.938 68.476C167.698 68.836 167.578 69.34 167.578 69.988C167.578 70.636 167.698 71.14 167.938 71.5C168.178 71.852 168.518 72.028 168.958 72.028C169.262 72.028 169.51 71.928 169.702 71.728C169.894 71.528 170.006 71.256 170.038 70.912L171.346 71.26C171.242 71.844 170.978 72.304 170.554 72.64C170.13 72.976 169.598 73.144 168.958 73.144ZM174.367 72.016C174.695 72.016 174.959 71.94 175.159 71.788C175.359 71.628 175.499 71.392 175.579 71.08L176.803 71.476C176.659 72.012 176.371 72.424 175.939 72.712C175.507 73 174.979 73.144 174.355 73.144C173.467 73.144 172.771 72.868 172.267 72.316C171.763 71.764 171.511 71 171.511 70.024C171.511 69.04 171.767 68.26 172.279 67.684C172.791 67.108 173.487 66.82 174.367 66.82C175.135 66.82 175.743 67.06 176.191 67.54C176.639 68.012 176.863 68.644 176.863 69.436C176.863 69.58 176.851 69.728 176.827 69.88C176.803 70.024 176.775 70.144 176.743 70.24H172.927C172.943 70.8 173.075 71.236 173.323 71.548C173.579 71.86 173.927 72.016 174.367 72.016ZM174.343 67.888C173.951 67.888 173.631 68.024 173.383 68.296C173.143 68.56 172.999 68.936 172.951 69.424H175.447C175.455 69.392 175.459 69.356 175.459 69.316C175.459 69.268 175.459 69.204 175.459 69.124C175.459 68.756 175.355 68.46 175.147 68.236C174.947 68.004 174.679 67.888 174.343 67.888ZM182.163 71.98C182.563 71.98 182.887 71.832 183.135 71.536C183.383 71.24 183.507 70.836 183.507 70.324V69.412C183.507 68.964 183.379 68.608 183.123 68.344C182.875 68.072 182.563 67.936 182.187 67.936C181.731 67.936 181.379 68.12 181.131 68.488C180.883 68.848 180.759 69.368 180.759 70.048C180.759 70.664 180.879 71.14 181.119 71.476C181.367 71.812 181.715 71.98 182.163 71.98ZM184.983 73H183.735L183.579 71.872C183.451 72.28 183.219 72.596 182.883 72.82C182.555 73.036 182.159 73.144 181.695 73.144C180.967 73.144 180.375 72.868 179.919 72.316C179.471 71.764 179.247 71.024 179.247 70.096C179.247 69.08 179.475 68.28 179.931 67.696C180.387 67.112 181.007 66.82 181.791 66.82C182.199 66.82 182.555 66.904 182.859 67.072C183.171 67.24 183.387 67.468 183.507 67.756V64.336H184.983V73ZM188.496 72.016C188.824 72.016 189.088 71.94 189.288 71.788C189.488 71.628 189.628 71.392 189.708 71.08L190.932 71.476C190.788 72.012 190.5 72.424 190.068 72.712C189.636 73 189.108 73.144 188.484 73.144C187.596 73.144 186.9 72.868 186.396 72.316C185.892 71.764 185.64 71 185.64 70.024C185.64 69.04 185.896 68.26 186.408 67.684C186.92 67.108 187.616 66.82 188.496 66.82C189.264 66.82 189.872 67.06 190.32 67.54C190.768 68.012 190.992 68.644 190.992 69.436C190.992 69.58 190.98 69.728 190.956 69.88C190.932 70.024 190.904 70.144 190.872 70.24H187.056C187.072 70.8 187.204 71.236 187.452 71.548C187.708 71.86 188.056 72.016 188.496 72.016ZM188.472 67.888C188.08 67.888 187.76 68.024 187.512 68.296C187.272 68.56 187.128 68.936 187.08 69.424H189.576C189.584 69.392 189.588 69.356 189.588 69.316C189.588 69.268 189.588 69.204 189.588 69.124C189.588 68.756 189.484 68.46 189.276 68.236C189.076 68.004 188.808 67.888 188.472 67.888ZM194.08 71.932C194.248 71.932 194.404 71.908 194.548 71.86C194.7 71.812 194.864 71.732 195.04 71.62L195.244 72.712C195.052 72.848 194.828 72.952 194.572 73.024C194.324 73.104 194.068 73.144 193.804 73.144C193.164 73.144 192.672 72.988 192.328 72.676C191.992 72.356 191.824 71.896 191.824 71.296V68.068H191.008V66.964H191.824V65.68L193.312 65.488V66.964H195.004V68.068H193.312V71.116C193.312 71.388 193.376 71.592 193.504 71.728C193.632 71.864 193.824 71.932 194.08 71.932ZM197.649 72.112C198.009 72.112 198.297 71.996 198.513 71.764C198.737 71.532 198.849 71.208 198.849 70.792V70.372C198.721 70.356 198.613 70.348 198.525 70.348C198.445 70.34 198.389 70.336 198.357 70.336C197.821 70.336 197.417 70.42 197.145 70.588C196.873 70.748 196.737 70.988 196.737 71.308C196.737 71.556 196.817 71.752 196.977 71.896C197.145 72.04 197.369 72.112 197.649 72.112ZM197.985 66.82C198.737 66.82 199.305 66.984 199.689 67.312C200.073 67.64 200.265 68.124 200.265 68.764V71.536C200.265 71.696 200.297 71.816 200.361 71.896C200.433 71.968 200.541 72.004 200.685 72.004C200.749 72.004 200.813 71.996 200.877 71.98C200.941 71.956 200.993 71.924 201.033 71.884L201.093 72.892C200.989 72.964 200.857 73.02 200.697 73.06C200.545 73.1 200.389 73.12 200.229 73.12C199.981 73.12 199.761 73.076 199.569 72.988C199.377 72.892 199.225 72.756 199.113 72.58C199.073 72.508 199.037 72.436 199.005 72.364C198.981 72.292 198.957 72.216 198.933 72.136C198.821 72.44 198.605 72.68 198.285 72.856C197.973 73.032 197.609 73.12 197.193 73.12C196.617 73.12 196.157 72.968 195.813 72.664C195.469 72.352 195.297 71.932 195.297 71.404C195.297 70.796 195.545 70.324 196.041 69.988C196.545 69.652 197.261 69.484 198.189 69.484C198.285 69.484 198.393 69.488 198.513 69.496C198.641 69.504 198.753 69.512 198.849 69.52V68.848C198.849 68.552 198.769 68.324 198.609 68.164C198.449 68.004 198.217 67.924 197.913 67.924C197.609 67.924 197.377 68.008 197.217 68.176C197.057 68.336 196.973 68.568 196.965 68.872L195.573 68.656C195.629 68.088 195.873 67.64 196.305 67.312C196.737 66.984 197.297 66.82 197.985 66.82ZM202.221 64.312C202.485 64.312 202.705 64.396 202.881 64.564C203.065 64.732 203.157 64.944 203.157 65.2C203.157 65.456 203.065 65.668 202.881 65.836C202.705 66.004 202.485 66.088 202.221 66.088C201.957 66.088 201.737 66.004 201.561 65.836C201.385 65.668 201.297 65.456 201.297 65.2C201.297 64.944 201.385 64.732 201.561 64.564C201.737 64.396 201.957 64.312 202.221 64.312ZM201.489 73V66.964H202.965V73H201.489ZM205.887 71.944C205.975 71.944 206.059 71.932 206.139 71.908C206.219 71.884 206.299 71.844 206.379 71.788L206.487 72.856C206.351 72.936 206.183 73 205.983 73.048C205.791 73.096 205.591 73.12 205.383 73.12C204.911 73.12 204.547 72.996 204.291 72.748C204.043 72.5 203.919 72.144 203.919 71.68V64.336H205.395V71.404C205.395 71.588 205.435 71.724 205.515 71.812C205.595 71.9 205.719 71.944 205.887 71.944ZM208.896 73.144C208.224 73.144 207.664 73 207.216 72.712C206.768 72.416 206.492 72.008 206.388 71.488L207.672 71.176C207.712 71.456 207.844 71.684 208.068 71.86C208.3 72.036 208.58 72.124 208.908 72.124C209.244 72.124 209.504 72.06 209.688 71.932C209.872 71.796 209.964 71.608 209.964 71.368C209.964 71.168 209.88 71.008 209.712 70.888C209.552 70.76 209.196 70.636 208.644 70.516C208.236 70.428 207.932 70.348 207.732 70.276C207.54 70.204 207.376 70.124 207.24 70.036C207.032 69.892 206.876 69.712 206.772 69.496C206.668 69.28 206.616 69.028 206.616 68.74C206.616 68.164 206.832 67.7 207.264 67.348C207.696 66.996 208.26 66.82 208.956 66.82C209.644 66.82 210.188 66.968 210.588 67.264C210.988 67.56 211.224 67.984 211.296 68.536L210.012 68.692C209.988 68.42 209.884 68.208 209.7 68.056C209.516 67.904 209.272 67.828 208.968 67.828C208.664 67.828 208.428 67.896 208.26 68.032C208.092 68.168 208.008 68.36 208.008 68.608C208.008 68.808 208.088 68.968 208.248 69.088C208.408 69.208 208.764 69.32 209.316 69.424C209.732 69.512 210.036 69.592 210.228 69.664C210.428 69.736 210.6 69.82 210.744 69.916C210.952 70.06 211.108 70.24 211.212 70.456C211.316 70.672 211.368 70.932 211.368 71.236C211.368 71.828 211.144 72.296 210.696 72.64C210.248 72.976 209.648 73.144 208.896 73.144Z" fill="#24201E"/>
<path d="M140.544 95.304C140.544 95.6453 140.661 95.9227 140.896 96.136C141.131 96.3493 141.536 96.5253 142.112 96.664V93.816C141.632 93.88 141.248 94.0453 140.96 94.312C140.683 94.5787 140.544 94.9093 140.544 95.304ZM144.736 99.96C144.736 99.6293 144.619 99.3573 144.384 99.144C144.149 98.9307 143.749 98.7547 143.184 98.616V101.464C143.685 101.389 144.069 101.224 144.336 100.968C144.603 100.701 144.736 100.365 144.736 99.96ZM143.184 102.984V104.68H142.112V103C141.099 102.936 140.261 102.659 139.6 102.168C138.939 101.667 138.523 101.005 138.352 100.184L140.032 99.512C140.117 100.067 140.341 100.515 140.704 100.856C141.067 101.197 141.536 101.405 142.112 101.48V98.376C141.493 98.248 141.013 98.1253 140.672 98.008C140.331 97.8907 140.043 97.7467 139.808 97.576C139.456 97.3413 139.195 97.048 139.024 96.696C138.853 96.344 138.768 95.928 138.768 95.448C138.768 94.5947 139.077 93.8853 139.696 93.32C140.315 92.744 141.12 92.408 142.112 92.312V90.824H143.184V92.328C144.112 92.4027 144.853 92.6747 145.408 93.144C145.973 93.6133 146.325 94.2533 146.464 95.064L144.736 95.512C144.683 95.0853 144.517 94.728 144.24 94.44C143.973 94.152 143.621 93.9547 143.184 93.848V96.888C143.813 97.016 144.299 97.144 144.64 97.272C144.981 97.3893 145.269 97.528 145.504 97.688C145.845 97.9333 146.101 98.2373 146.272 98.6C146.443 98.952 146.528 99.368 146.528 99.848C146.528 100.712 146.224 101.427 145.616 101.992C145.008 102.547 144.197 102.877 143.184 102.984ZM149.54 101.288H154.34V103H146.836V101.528C148.18 100.493 148.99 99.864 149.268 99.64C149.556 99.4053 149.812 99.192 150.036 99C150.761 98.36 151.278 97.7733 151.588 97.24C151.908 96.7067 152.068 96.1627 152.068 95.608C152.068 95.0213 151.913 94.5627 151.604 94.232C151.305 93.9013 150.884 93.736 150.339 93.736C149.849 93.736 149.449 93.896 149.14 94.216C148.841 94.5253 148.692 94.9307 148.692 95.432C148.692 95.6133 148.713 95.7893 148.756 95.96C148.809 96.12 148.894 96.2907 149.012 96.472L147.347 97.144C147.166 96.8987 147.028 96.6267 146.932 96.328C146.846 96.0293 146.803 95.6933 146.803 95.32C146.803 94.424 147.14 93.6667 147.812 93.048C148.484 92.4293 149.348 92.12 150.404 92.12C151.524 92.12 152.409 92.4293 153.06 93.048C153.721 93.6667 154.052 94.504 154.052 95.56C154.052 96.488 153.684 97.4213 152.948 98.36C152.212 99.2987 151.076 100.275 149.54 101.288ZM161.543 95.016C161.543 95.6773 161.361 96.232 160.999 96.68C160.636 97.1173 160.14 97.3893 159.511 97.496V97.528C160.204 97.6027 160.764 97.8693 161.191 98.328C161.617 98.7867 161.831 99.352 161.831 100.024C161.831 100.973 161.473 101.741 160.759 102.328C160.055 102.904 159.137 103.192 158.007 103.192C156.972 103.192 156.097 102.936 155.383 102.424C154.679 101.912 154.263 101.245 154.135 100.424L155.847 99.768C155.964 100.365 156.204 100.829 156.567 101.16C156.94 101.48 157.415 101.64 157.991 101.64C158.577 101.64 159.047 101.485 159.399 101.176C159.751 100.867 159.927 100.445 159.927 99.912C159.927 99.4 159.745 99 159.383 98.712C159.031 98.424 158.545 98.28 157.927 98.28H156.839V96.856H157.847C158.433 96.856 158.876 96.712 159.175 96.424C159.484 96.136 159.639 95.72 159.639 95.176C159.639 94.7493 159.489 94.4027 159.191 94.136C158.892 93.8587 158.503 93.72 158.023 93.72C157.521 93.72 157.105 93.8747 156.775 94.184C156.444 94.4827 156.231 94.9093 156.135 95.464L154.455 94.792C154.657 93.9707 155.079 93.32 155.719 92.84C156.369 92.36 157.159 92.12 158.087 92.12C159.153 92.12 159.996 92.3813 160.615 92.904C161.233 93.4267 161.543 94.1307 161.543 95.016ZM164.423 98.216H162.807L163.095 92.312H169.063V93.992H164.647L164.503 96.808C164.759 96.5947 165.052 96.4293 165.383 96.312C165.713 96.184 166.055 96.12 166.407 96.12C167.367 96.12 168.145 96.4347 168.743 97.064C169.34 97.6933 169.639 98.5093 169.639 99.512C169.639 100.621 169.271 101.512 168.535 102.184C167.809 102.856 166.881 103.192 165.751 103.192C164.727 103.192 163.863 102.931 163.159 102.408C162.455 101.885 162.028 101.203 161.879 100.36L163.623 99.736C163.729 100.323 163.969 100.787 164.343 101.128C164.716 101.459 165.185 101.624 165.751 101.624C166.348 101.624 166.823 101.437 167.175 101.064C167.527 100.691 167.703 100.184 167.703 99.544C167.703 98.9467 167.537 98.472 167.207 98.12C166.887 97.768 166.449 97.592 165.895 97.592C165.596 97.592 165.319 97.6507 165.063 97.768C164.807 97.8747 164.593 98.024 164.423 98.216ZM170.035 97.656C170.035 95.992 170.414 94.6533 171.171 93.64C171.928 92.6267 172.952 92.12 174.243 92.12C175.534 92.12 176.558 92.6267 177.315 93.64C178.072 94.6533 178.451 95.992 178.451 97.656C178.451 99.32 178.067 100.659 177.299 101.672C176.542 102.685 175.523 103.192 174.243 103.192C172.963 103.192 171.939 102.685 171.171 101.672C170.414 100.659 170.035 99.32 170.035 97.656ZM172.035 97.656C172.035 98.8933 172.222 99.848 172.595 100.52C172.979 101.181 173.528 101.512 174.243 101.512C174.968 101.512 175.518 101.181 175.891 100.52C176.275 99.848 176.467 98.8933 176.467 97.656C176.467 96.4187 176.275 95.4693 175.891 94.808C175.518 94.136 174.968 93.8 174.243 93.8C173.528 93.8 172.979 94.136 172.595 94.808C172.222 95.4693 172.035 96.4187 172.035 97.656Z" fill="#4F3FD7"/>
<path d="M57.2692 129.132C56.3218 129.132 55.558 128.787 54.9778 128.097C54.3976 127.406 54.1075 126.481 54.1075 125.321C54.1075 124.16 54.3976 123.235 54.9778 122.544C55.558 121.854 56.3218 121.509 57.2692 121.509C57.9155 121.509 58.4516 121.652 58.8776 121.938C59.3035 122.218 59.6303 122.644 59.858 123.216L59.0648 123.668C58.94 123.227 58.7197 122.89 58.4039 122.655C58.0954 122.42 57.7172 122.302 57.2692 122.302C56.5935 122.302 56.061 122.57 55.6718 123.106C55.2899 123.642 55.0989 124.38 55.0989 125.321C55.0989 126.261 55.2899 126.999 55.6718 127.535C56.061 128.071 56.5935 128.339 57.2692 128.339C57.7172 128.339 58.0954 128.222 58.4039 127.986C58.7197 127.744 58.94 127.406 59.0648 126.973L59.858 127.414C59.6303 127.994 59.3035 128.427 58.8776 128.714C58.4516 128.993 57.9155 129.132 57.2692 129.132ZM64.851 129H64.135L64.0248 127.953C63.8999 128.335 63.687 128.629 63.3858 128.835C63.0847 129.033 62.7175 129.132 62.2842 129.132C61.7775 129.132 61.3662 128.974 61.0504 128.658C60.7419 128.343 60.5877 127.913 60.5877 127.37V123.492H61.491V127.27C61.491 127.623 61.5828 127.902 61.7664 128.108C61.95 128.306 62.2071 128.405 62.5376 128.405C62.9709 128.405 63.3124 128.255 63.5621 127.953C63.8118 127.652 63.9367 127.23 63.9367 126.687V123.492H64.851V129ZM67.7551 129.132C67.1676 129.132 66.6755 128.996 66.2789 128.725C65.8897 128.453 65.6547 128.082 65.5739 127.612L66.4001 127.381C66.4442 127.689 66.5911 127.942 66.8408 128.141C67.0978 128.339 67.4026 128.438 67.7551 128.438C68.137 128.438 68.4308 128.365 68.6364 128.218C68.8494 128.064 68.9559 127.847 68.9559 127.568C68.9559 127.333 68.8715 127.146 68.7025 127.006C68.541 126.866 68.1811 126.734 67.6229 126.609C67.2557 126.529 66.984 126.455 66.8077 126.389C66.6388 126.323 66.4919 126.25 66.3671 126.169C66.1835 126.037 66.0439 125.875 65.9484 125.684C65.8603 125.493 65.8163 125.269 65.8163 125.012C65.8163 124.513 65.9925 124.112 66.345 123.811C66.7049 123.51 67.1713 123.36 67.7441 123.36C68.3463 123.36 68.8127 123.492 69.1432 123.756C69.481 124.013 69.6793 124.391 69.7381 124.891L68.8898 125.012C68.8604 124.704 68.7466 124.469 68.5483 124.307C68.3574 124.138 68.0893 124.054 67.7441 124.054C67.4063 124.054 67.1419 124.134 66.9509 124.296C66.76 124.45 66.6645 124.667 66.6645 124.946C66.6645 125.174 66.7453 125.357 66.9069 125.497C67.0684 125.629 67.4246 125.754 67.9755 125.871C68.35 125.952 68.6254 126.026 68.8017 126.092C68.978 126.15 69.1285 126.224 69.2534 126.312C69.437 126.444 69.5728 126.609 69.661 126.808C69.7564 126.999 69.8042 127.23 69.8042 127.502C69.8042 128.001 69.6169 128.398 69.2424 128.692C68.8678 128.985 68.3721 129.132 67.7551 129.132ZM72.4561 128.372C72.625 128.372 72.7756 128.354 72.9078 128.317C73.04 128.273 73.1906 128.196 73.3595 128.086L73.5247 128.802C73.3631 128.905 73.1795 128.985 72.9739 129.044C72.7756 129.103 72.581 129.132 72.39 129.132C71.8612 129.132 71.4536 129.004 71.1672 128.747C70.8881 128.482 70.7486 128.104 70.7486 127.612V124.186H69.9554V123.492H70.7486V122.324L71.6519 122.181V123.492H73.3044V124.186H71.6519V127.524C71.6519 127.803 71.718 128.016 71.8502 128.163C71.9898 128.302 72.1917 128.372 72.4561 128.372ZM76.2657 123.36C77.0222 123.36 77.6207 123.617 78.0614 124.131C78.5094 124.645 78.7334 125.35 78.7334 126.246C78.7334 127.142 78.5094 127.847 78.0614 128.361C77.6207 128.875 77.0222 129.132 76.2657 129.132C75.5093 129.132 74.907 128.875 74.459 128.361C74.0184 127.847 73.7981 127.142 73.7981 126.246C73.7981 125.35 74.0184 124.645 74.459 124.131C74.907 123.617 75.5093 123.36 76.2657 123.36ZM76.2657 128.427C76.7725 128.427 77.1581 128.244 77.4225 127.876C77.6868 127.502 77.819 126.958 77.819 126.246C77.819 125.534 77.6868 124.994 77.4225 124.626C77.1581 124.252 76.7725 124.065 76.2657 124.065C75.759 124.065 75.3734 124.252 75.109 124.626C74.8446 124.994 74.7124 125.534 74.7124 126.246C74.7124 126.958 74.8446 127.502 75.109 127.876C75.3734 128.244 75.759 128.427 76.2657 128.427ZM82.1018 123.36C82.491 123.36 82.8252 123.462 83.1042 123.668C83.3833 123.866 83.5743 124.149 83.6771 124.516C83.8387 124.149 84.0663 123.866 84.3601 123.668C84.6539 123.462 84.9954 123.36 85.3846 123.36C85.9061 123.36 86.3174 123.514 86.6185 123.822C86.9269 124.123 87.0812 124.542 87.0812 125.078V129H86.1778V125.31C86.1778 124.92 86.0897 124.63 85.9134 124.439C85.7372 124.248 85.4691 124.153 85.1092 124.153C84.7053 124.153 84.3858 124.296 84.1508 124.582C83.9158 124.869 83.7983 125.273 83.7983 125.794V129H82.8949V125.31C82.8949 124.928 82.8031 124.641 82.6195 124.45C82.4433 124.252 82.1789 124.153 81.8263 124.153C81.4224 124.153 81.1029 124.3 80.8679 124.593C80.6329 124.88 80.5154 125.284 80.5154 125.805V129H79.612V123.492H80.284L80.3942 124.56C80.5264 124.186 80.7431 123.892 81.0442 123.679C81.3453 123.466 81.6978 123.36 82.1018 123.36ZM90.36 128.416C90.7052 128.416 90.9879 128.332 91.2083 128.163C91.4286 127.994 91.5791 127.744 91.6599 127.414L92.4421 127.634C92.3246 128.119 92.0859 128.49 91.726 128.747C91.3662 129.004 90.9108 129.132 90.36 129.132C89.5889 129.132 88.9866 128.882 88.5533 128.383C88.12 127.884 87.9033 127.179 87.9033 126.268C87.9033 125.379 88.1237 124.674 88.5643 124.153C89.0123 123.624 89.6109 123.36 90.36 123.36C91.0136 123.36 91.5314 123.573 91.9133 123.999C92.3026 124.417 92.4972 124.975 92.4972 125.673C92.4972 125.813 92.4862 125.948 92.4641 126.081C92.4421 126.213 92.4164 126.323 92.387 126.411H88.7736C88.7957 127.05 88.9426 127.546 89.2143 127.898C89.4934 128.244 89.8753 128.416 90.36 128.416ZM90.338 124.054C89.9047 124.054 89.5521 124.201 89.2804 124.494C89.016 124.788 88.8544 125.207 88.7957 125.75H91.5938C91.6012 125.713 91.6049 125.677 91.6049 125.64C91.6049 125.596 91.6049 125.537 91.6049 125.464C91.6049 125.045 91.4873 124.707 91.2523 124.45C91.0247 124.186 90.7199 124.054 90.338 124.054ZM93.3623 129V123.492H94.0784L94.1996 124.902C94.3024 124.439 94.5154 124.068 94.8385 123.789C95.1617 123.503 95.5325 123.36 95.9512 123.36C96.0026 123.36 96.054 123.363 96.1054 123.371C96.1642 123.378 96.2192 123.385 96.2706 123.393L96.2156 124.34C96.1715 124.333 96.1091 124.325 96.0283 124.318C95.9475 124.311 95.863 124.307 95.7749 124.307C95.3196 124.307 94.9523 124.48 94.6733 124.825C94.4015 125.17 94.2657 125.633 94.2657 126.213V129H93.3623ZM98.9256 123.492H99.5976L99.7078 124.56C99.862 124.178 100.101 123.885 100.424 123.679C100.747 123.466 101.125 123.36 101.559 123.36C102.073 123.36 102.484 123.521 102.792 123.844C103.101 124.16 103.255 124.59 103.255 125.133V129H102.352V125.321C102.352 124.946 102.256 124.66 102.065 124.461C101.882 124.256 101.617 124.153 101.272 124.153C100.817 124.153 100.461 124.296 100.203 124.582C99.9538 124.869 99.8289 125.276 99.8289 125.805V129H98.9256V123.492ZM105.948 128.427C106.359 128.427 106.69 128.295 106.94 128.031C107.189 127.766 107.314 127.403 107.314 126.94V126.477C107.219 126.47 107.127 126.466 107.039 126.466C106.951 126.459 106.87 126.455 106.796 126.455C106.165 126.455 105.695 126.547 105.386 126.731C105.078 126.907 104.924 127.175 104.924 127.535C104.924 127.814 105.015 128.034 105.199 128.196C105.383 128.35 105.632 128.427 105.948 128.427ZM106.279 123.36C106.888 123.36 107.354 123.506 107.678 123.8C108.001 124.087 108.162 124.505 108.162 125.056V127.92C108.162 128.082 108.195 128.203 108.261 128.284C108.328 128.365 108.43 128.405 108.57 128.405C108.629 128.405 108.691 128.394 108.757 128.372C108.823 128.35 108.875 128.321 108.911 128.284L108.967 128.956C108.9 129 108.809 129.037 108.691 129.066C108.581 129.095 108.471 129.11 108.361 129.11C108.155 129.11 107.975 129.07 107.821 128.989C107.674 128.901 107.56 128.776 107.479 128.614C107.45 128.556 107.421 128.493 107.391 128.427C107.369 128.354 107.351 128.273 107.336 128.185C107.233 128.471 107.035 128.699 106.741 128.868C106.447 129.037 106.113 129.121 105.739 129.121C105.225 129.121 104.81 128.982 104.494 128.703C104.185 128.416 104.031 128.038 104.031 127.568C104.031 126.995 104.266 126.554 104.736 126.246C105.214 125.937 105.9 125.783 106.796 125.783C106.84 125.783 106.895 125.787 106.962 125.794C107.035 125.794 107.152 125.798 107.314 125.805V125.155C107.314 124.817 107.219 124.557 107.028 124.373C106.844 124.19 106.576 124.098 106.223 124.098C105.886 124.098 105.625 124.182 105.441 124.351C105.258 124.52 105.159 124.766 105.144 125.089L104.263 124.935C104.321 124.45 104.531 124.068 104.89 123.789C105.258 123.503 105.72 123.36 106.279 123.36ZM112.035 123.36C112.424 123.36 112.758 123.462 113.037 123.668C113.317 123.866 113.507 124.149 113.61 124.516C113.772 124.149 114 123.866 114.293 123.668C114.587 123.462 114.929 123.36 115.318 123.36C115.839 123.36 116.251 123.514 116.552 123.822C116.86 124.123 117.014 124.542 117.014 125.078V129H116.111V125.31C116.111 124.92 116.023 124.63 115.847 124.439C115.67 124.248 115.402 124.153 115.042 124.153C114.638 124.153 114.319 124.296 114.084 124.582C113.849 124.869 113.731 125.273 113.731 125.794V129H112.828V125.31C112.828 124.928 112.736 124.641 112.553 124.45C112.376 124.252 112.112 124.153 111.76 124.153C111.356 124.153 111.036 124.3 110.801 124.593C110.566 124.88 110.449 125.284 110.449 125.805V129H109.545V123.492H110.217L110.327 124.56C110.46 124.186 110.676 123.892 110.977 123.679C111.278 123.466 111.631 123.36 112.035 123.36ZM120.293 128.416C120.638 128.416 120.921 128.332 121.141 128.163C121.362 127.994 121.512 127.744 121.593 127.414L122.375 127.634C122.258 128.119 122.019 128.49 121.659 128.747C121.299 129.004 120.844 129.132 120.293 129.132C119.522 129.132 118.92 128.882 118.486 128.383C118.053 127.884 117.837 127.179 117.837 126.268C117.837 125.379 118.057 124.674 118.498 124.153C118.946 123.624 119.544 123.36 120.293 123.36C120.947 123.36 121.465 123.573 121.846 123.999C122.236 124.417 122.43 124.975 122.43 125.673C122.43 125.813 122.419 125.948 122.397 126.081C122.375 126.213 122.35 126.323 122.32 126.411H118.707C118.729 127.05 118.876 127.546 119.147 127.898C119.427 128.244 119.808 128.416 120.293 128.416ZM120.271 124.054C119.838 124.054 119.485 124.201 119.214 124.494C118.949 124.788 118.788 125.207 118.729 125.75H121.527C121.534 125.713 121.538 125.677 121.538 125.64C121.538 125.596 121.538 125.537 121.538 125.464C121.538 125.045 121.421 124.707 121.186 124.45C120.958 124.186 120.653 124.054 120.271 124.054Z" fill="#080615"/>
<path d="M219.927 127.42C220.36 127.42 220.683 127.29 220.897 127.03C221.11 126.763 221.217 126.363 221.217 125.83V121.32H222.067V125.9C222.067 126.607 221.877 127.153 221.497 127.54C221.117 127.927 220.59 128.12 219.917 128.12C219.35 128.12 218.877 127.957 218.497 127.63C218.117 127.303 217.903 126.88 217.857 126.36L218.587 125.97C218.62 126.417 218.753 126.77 218.987 127.03C219.227 127.29 219.54 127.42 219.927 127.42ZM225.058 122.88C225.745 122.88 226.288 123.113 226.688 123.58C227.095 124.047 227.298 124.687 227.298 125.5C227.298 126.313 227.095 126.953 226.688 127.42C226.288 127.887 225.745 128.12 225.058 128.12C224.372 128.12 223.825 127.887 223.418 127.42C223.018 126.953 222.818 126.313 222.818 125.5C222.818 124.687 223.018 124.047 223.418 123.58C223.825 123.113 224.372 122.88 225.058 122.88ZM225.058 127.48C225.518 127.48 225.868 127.313 226.108 126.98C226.348 126.64 226.468 126.147 226.468 125.5C226.468 124.853 226.348 124.363 226.108 124.03C225.868 123.69 225.518 123.52 225.058 123.52C224.598 123.52 224.248 123.69 224.008 124.03C223.768 124.363 223.648 124.853 223.648 125.5C223.648 126.147 223.768 126.64 224.008 126.98C224.248 127.313 224.598 127.48 225.058 127.48ZM228.096 120.78H228.916V123.79C229.069 123.497 229.279 123.273 229.546 123.12C229.819 122.96 230.133 122.88 230.486 122.88C230.953 122.88 231.326 123.027 231.606 123.32C231.886 123.607 232.026 123.997 232.026 124.49V128H231.206V124.66C231.206 124.32 231.119 124.06 230.946 123.88C230.779 123.693 230.539 123.6 230.226 123.6C229.813 123.6 229.489 123.73 229.256 123.99C229.029 124.25 228.916 124.62 228.916 125.1V128H228.096V120.78ZM233.141 123H233.751L233.851 123.97C233.991 123.623 234.207 123.357 234.501 123.17C234.794 122.977 235.137 122.88 235.531 122.88C235.997 122.88 236.371 123.027 236.651 123.32C236.931 123.607 237.071 123.997 237.071 124.49V128H236.251V124.66C236.251 124.32 236.164 124.06 235.991 123.88C235.824 123.693 235.584 123.6 235.271 123.6C234.857 123.6 234.534 123.73 234.301 123.99C234.074 124.25 233.961 124.62 233.961 125.1V128H233.141V123ZM241.755 126.93L243.115 121.32H244.005L245.365 126.93H245.405L246.765 121.32H247.595L245.855 128H244.965L243.565 122.47H243.535L242.135 128H241.245L239.505 121.32H240.355L241.725 126.93H241.755ZM249.67 127.22H249.69L251.1 123H251.92L250.02 128.27C249.78 128.93 249.527 129.4 249.26 129.68C248.993 129.96 248.657 130.1 248.25 130.1C248.13 130.1 248.01 130.083 247.89 130.05C247.77 130.017 247.657 129.97 247.55 129.91L247.67 129.23C247.803 129.31 247.907 129.36 247.98 129.38C248.06 129.407 248.143 129.42 248.23 129.42C248.477 129.42 248.67 129.34 248.81 129.18C248.95 129.02 249.107 128.697 249.28 128.21L247.42 123H248.29L249.67 127.22ZM253.701 127.48C254.075 127.48 254.375 127.36 254.601 127.12C254.828 126.88 254.941 126.55 254.941 126.13V125.71C254.855 125.703 254.771 125.7 254.691 125.7C254.611 125.693 254.538 125.69 254.471 125.69C253.898 125.69 253.471 125.773 253.191 125.94C252.911 126.1 252.771 126.343 252.771 126.67C252.771 126.923 252.855 127.123 253.021 127.27C253.188 127.41 253.415 127.48 253.701 127.48ZM254.001 122.88C254.555 122.88 254.978 123.013 255.271 123.28C255.565 123.54 255.711 123.92 255.711 124.42V127.02C255.711 127.167 255.741 127.277 255.801 127.35C255.861 127.423 255.955 127.46 256.081 127.46C256.135 127.46 256.191 127.45 256.251 127.43C256.311 127.41 256.358 127.383 256.391 127.35L256.441 127.96C256.381 128 256.298 128.033 256.191 128.06C256.091 128.087 255.991 128.1 255.891 128.1C255.705 128.1 255.541 128.063 255.401 127.99C255.268 127.91 255.165 127.797 255.091 127.65C255.065 127.597 255.038 127.54 255.011 127.48C254.991 127.413 254.975 127.34 254.961 127.26C254.868 127.52 254.688 127.727 254.421 127.88C254.155 128.033 253.851 128.11 253.511 128.11C253.045 128.11 252.668 127.983 252.381 127.73C252.101 127.47 251.961 127.127 251.961 126.7C251.961 126.18 252.175 125.78 252.601 125.5C253.035 125.22 253.658 125.08 254.471 125.08C254.511 125.08 254.561 125.083 254.621 125.09C254.688 125.09 254.795 125.093 254.941 125.1V124.51C254.941 124.203 254.855 123.967 254.681 123.8C254.515 123.633 254.271 123.55 253.951 123.55C253.645 123.55 253.408 123.627 253.241 123.78C253.075 123.933 252.985 124.157 252.971 124.45L252.171 124.31C252.225 123.87 252.415 123.523 252.741 123.27C253.075 123.01 253.495 122.88 254.001 122.88ZM258.617 127.43C258.77 127.43 258.907 127.413 259.027 127.38C259.147 127.34 259.283 127.27 259.437 127.17L259.587 127.82C259.44 127.913 259.273 127.987 259.087 128.04C258.907 128.093 258.73 128.12 258.557 128.12C258.077 128.12 257.707 128.003 257.447 127.77C257.193 127.53 257.067 127.187 257.067 126.74V123.63H256.347V123H257.067V121.94L257.887 121.81V123H259.387V123.63H257.887V126.66C257.887 126.913 257.947 127.107 258.067 127.24C258.193 127.367 258.377 127.43 258.617 127.43ZM261.845 127.43C261.998 127.43 262.135 127.413 262.255 127.38C262.375 127.34 262.512 127.27 262.665 127.17L262.815 127.82C262.668 127.913 262.502 127.987 262.315 128.04C262.135 128.093 261.958 128.12 261.785 128.12C261.305 128.12 260.935 128.003 260.675 127.77C260.422 127.53 260.295 127.187 260.295 126.74V123.63H259.575V123H260.295V121.94L261.115 121.81V123H262.615V123.63H261.115V126.66C261.115 126.913 261.175 127.107 261.295 127.24C261.422 127.367 261.605 127.43 261.845 127.43Z" fill="#92908F"/>
<path d="M55.4845 151.091H59.2081V151.906H54.5812V144.548H59.2081V145.363H55.4845V147.753H58.8004V148.569H55.4845V151.091ZM62.7129 146.266C63.1021 146.266 63.4363 146.369 63.7154 146.575C63.9945 146.773 64.1854 147.056 64.2882 147.423C64.4498 147.056 64.6775 146.773 64.9713 146.575C65.265 146.369 65.6065 146.266 65.9958 146.266C66.5172 146.266 66.9285 146.42 67.2296 146.729C67.5381 147.03 67.6923 147.449 67.6923 147.985V151.906H66.789V148.216C66.789 147.827 66.7008 147.537 66.5246 147.346C66.3483 147.155 66.0802 147.059 65.7204 147.059C65.3164 147.059 64.997 147.202 64.7619 147.489C64.5269 147.775 64.4094 148.179 64.4094 148.701V151.906H63.5061V148.216C63.5061 147.834 63.4143 147.548 63.2307 147.357C63.0544 147.158 62.79 147.059 62.4375 147.059C62.0336 147.059 61.7141 147.206 61.4791 147.5C61.244 147.786 61.1265 148.19 61.1265 148.712V151.906H60.2232V146.398H60.8952L61.0054 147.467C61.1376 147.092 61.3542 146.799 61.6553 146.586C61.9564 146.373 62.309 146.266 62.7129 146.266ZM70.3763 151.334C70.7875 151.334 71.118 151.201 71.3677 150.937C71.6174 150.673 71.7423 150.309 71.7423 149.846V149.384C71.6468 149.376 71.555 149.373 71.4669 149.373C71.3788 149.365 71.298 149.362 71.2245 149.362C70.5929 149.362 70.1229 149.454 69.8144 149.637C69.506 149.813 69.3517 150.081 69.3517 150.441C69.3517 150.72 69.4435 150.941 69.6271 151.102C69.8108 151.257 70.0605 151.334 70.3763 151.334ZM70.7068 146.266C71.3163 146.266 71.7827 146.413 72.1058 146.707C72.429 146.993 72.5906 147.412 72.5906 147.963V150.827C72.5906 150.988 72.6236 151.11 72.6897 151.19C72.7558 151.271 72.8586 151.312 72.9982 151.312C73.0569 151.312 73.1193 151.301 73.1854 151.279C73.2515 151.257 73.303 151.227 73.3397 151.19L73.3948 151.862C73.3287 151.906 73.2369 151.943 73.1193 151.973C73.0092 152.002 72.899 152.017 72.7889 152.017C72.5832 152.017 72.4033 151.976 72.2491 151.895C72.1022 151.807 71.9883 151.682 71.9075 151.521C71.8782 151.462 71.8488 151.4 71.8194 151.334C71.7974 151.26 71.779 151.179 71.7643 151.091C71.6615 151.378 71.4632 151.605 71.1694 151.774C70.8757 151.943 70.5415 152.028 70.167 152.028C69.6529 152.028 69.2379 151.888 68.9221 151.609C68.6136 151.323 68.4594 150.944 68.4594 150.474C68.4594 149.902 68.6944 149.461 69.1645 149.152C69.6418 148.844 70.3285 148.69 71.2245 148.69C71.2686 148.69 71.3237 148.693 71.3898 148.701C71.4632 148.701 71.5807 148.704 71.7423 148.712V148.062C71.7423 147.724 71.6468 147.463 71.4559 147.28C71.2723 147.096 71.0042 147.004 70.6517 147.004C70.3138 147.004 70.0531 147.089 69.8695 147.258C69.6859 147.426 69.5868 147.673 69.5721 147.996L68.6908 147.841C68.7495 147.357 68.9588 146.975 69.3187 146.696C69.6859 146.409 70.1486 146.266 70.7068 146.266ZM74.4251 144.063C74.6087 144.063 74.763 144.125 74.8878 144.25C75.0127 144.375 75.0751 144.533 75.0751 144.724C75.0751 144.915 75.0127 145.073 74.8878 145.198C74.763 145.322 74.6087 145.385 74.4251 145.385C74.2415 145.385 74.0873 145.322 73.9624 145.198C73.8376 145.073 73.7752 144.915 73.7752 144.724C73.7752 144.533 73.8376 144.375 73.9624 144.25C74.0873 144.125 74.2415 144.063 74.4251 144.063ZM73.9735 151.906V146.398H74.8768V151.906H73.9735ZM77.4636 151.279C77.5517 151.279 77.6362 151.268 77.717 151.246C77.8051 151.216 77.8859 151.176 77.9593 151.124L78.0585 151.818C77.9557 151.877 77.8271 151.925 77.6729 151.962C77.5187 151.998 77.3681 152.017 77.2212 152.017C76.8393 152.017 76.5492 151.921 76.3509 151.73C76.16 151.532 76.0645 151.246 76.0645 150.871V143.953H76.9679V150.772C76.9679 150.948 77.0082 151.077 77.089 151.157C77.1698 151.238 77.2947 151.279 77.4636 151.279ZM82.2667 151.334C82.6779 151.334 83.0084 151.201 83.2581 150.937C83.5078 150.673 83.6327 150.309 83.6327 149.846V149.384C83.5372 149.376 83.4454 149.373 83.3573 149.373C83.2691 149.365 83.1884 149.362 83.1149 149.362C82.4833 149.362 82.0133 149.454 81.7048 149.637C81.3964 149.813 81.2421 150.081 81.2421 150.441C81.2421 150.72 81.3339 150.941 81.5175 151.102C81.7011 151.257 81.9508 151.334 82.2667 151.334ZM82.5971 146.266C83.2067 146.266 83.6731 146.413 83.9962 146.707C84.3194 146.993 84.4809 147.412 84.4809 147.963V150.827C84.4809 150.988 84.514 151.11 84.5801 151.19C84.6462 151.271 84.749 151.312 84.8886 151.312C84.9473 151.312 85.0097 151.301 85.0758 151.279C85.1419 151.257 85.1933 151.227 85.2301 151.19L85.2851 151.862C85.219 151.906 85.1272 151.943 85.0097 151.973C84.8996 152.002 84.7894 152.017 84.6792 152.017C84.4736 152.017 84.2937 151.976 84.1394 151.895C83.9926 151.807 83.8787 151.682 83.7979 151.521C83.7686 151.462 83.7392 151.4 83.7098 151.334C83.6878 151.26 83.6694 151.179 83.6547 151.091C83.5519 151.378 83.3536 151.605 83.0598 151.774C82.7661 151.943 82.4319 152.028 82.0573 152.028C81.5432 152.028 81.1283 151.888 80.8125 151.609C80.504 151.323 80.3498 150.944 80.3498 150.474C80.3498 149.902 80.5848 149.461 81.0548 149.152C81.5322 148.844 82.2189 148.69 83.1149 148.69C83.159 148.69 83.2141 148.693 83.2802 148.701C83.3536 148.701 83.4711 148.704 83.6327 148.712V148.062C83.6327 147.724 83.5372 147.463 83.3463 147.28C83.1627 147.096 82.8946 147.004 82.5421 147.004C82.2042 147.004 81.9435 147.089 81.7599 147.258C81.5763 147.426 81.4771 147.673 81.4625 147.996L80.5811 147.841C80.6399 147.357 80.8492 146.975 81.2091 146.696C81.5763 146.409 82.039 146.266 82.5971 146.266ZM87.9349 151.312C88.3682 151.312 88.7208 151.157 88.9925 150.849C89.2642 150.533 89.4001 150.103 89.4001 149.56V148.535C89.4001 148.065 89.2606 147.691 88.9815 147.412C88.7024 147.125 88.3572 146.982 87.9459 146.982C87.4539 146.982 87.0683 147.177 86.7892 147.566C86.5175 147.955 86.3816 148.51 86.3816 149.23C86.3816 149.89 86.5175 150.405 86.7892 150.772C87.061 151.132 87.4429 151.312 87.9349 151.312ZM90.3035 151.906H89.5874L89.4882 150.86C89.3634 151.242 89.1467 151.536 88.8383 151.741C88.5298 151.94 88.1553 152.039 87.7146 152.039C87.0463 152.039 86.5028 151.789 86.0842 151.29C85.6729 150.783 85.4673 150.1 85.4673 149.241C85.4673 148.315 85.6729 147.588 86.0842 147.059C86.5028 146.53 87.0757 146.266 87.8027 146.266C88.1846 146.266 88.5188 146.347 88.8052 146.508C89.0917 146.67 89.2899 146.883 89.4001 147.147V143.953H90.3035V151.906ZM93.6536 151.312C94.0869 151.312 94.4394 151.157 94.7111 150.849C94.9829 150.533 95.1187 150.103 95.1187 149.56V148.535C95.1187 148.065 94.9792 147.691 94.7001 147.412C94.421 147.125 94.0759 146.982 93.6646 146.982C93.1725 146.982 92.7869 147.177 92.5079 147.566C92.2361 147.955 92.1002 148.51 92.1002 149.23C92.1002 149.89 92.2361 150.405 92.5079 150.772C92.7796 151.132 93.1615 151.312 93.6536 151.312ZM96.0221 151.906H95.306L95.2069 150.86C95.082 151.242 94.8654 151.536 94.5569 151.741C94.2484 151.94 93.8739 152.039 93.4332 152.039C92.7649 152.039 92.2214 151.789 91.8028 151.29C91.3915 150.783 91.1859 150.1 91.1859 149.241C91.1859 148.315 91.3915 147.588 91.8028 147.059C92.2214 146.53 92.7943 146.266 93.5214 146.266C93.9033 146.266 94.2374 146.347 94.5239 146.508C94.8103 146.67 95.0086 146.883 95.1187 147.147V143.953H96.0221V151.906ZM97.3011 151.906V146.398H98.0172L98.1383 147.808C98.2412 147.346 98.4542 146.975 98.7773 146.696C99.1004 146.409 99.4713 146.266 99.89 146.266C99.9414 146.266 99.9928 146.27 100.044 146.277C100.103 146.284 100.158 146.292 100.209 146.299L100.154 147.247C100.11 147.239 100.048 147.232 99.9671 147.225C99.8863 147.217 99.8018 147.214 99.7137 147.214C99.2583 147.214 98.8911 147.386 98.6121 147.731C98.3403 148.076 98.2044 148.539 98.2044 149.119V151.906H97.3011ZM102.724 151.323C103.069 151.323 103.352 151.238 103.572 151.069C103.792 150.9 103.943 150.651 104.024 150.32L104.806 150.54C104.688 151.025 104.45 151.396 104.09 151.653C103.73 151.91 103.275 152.039 102.724 152.039C101.953 152.039 101.35 151.789 100.917 151.29C100.484 150.79 100.267 150.085 100.267 149.174C100.267 148.286 100.487 147.581 100.928 147.059C101.376 146.53 101.975 146.266 102.724 146.266C103.377 146.266 103.895 146.479 104.277 146.905C104.666 147.324 104.861 147.882 104.861 148.58C104.861 148.719 104.85 148.855 104.828 148.987C104.806 149.119 104.78 149.23 104.751 149.318H101.137C101.159 149.957 101.306 150.452 101.578 150.805C101.857 151.15 102.239 151.323 102.724 151.323ZM102.702 146.96C102.268 146.96 101.916 147.107 101.644 147.401C101.38 147.695 101.218 148.113 101.159 148.657H103.958C103.965 148.62 103.969 148.583 103.969 148.546C103.969 148.502 103.969 148.444 103.969 148.37C103.969 147.952 103.851 147.614 103.616 147.357C103.388 147.092 103.084 146.96 102.702 146.96ZM107.356 152.039C106.769 152.039 106.277 151.903 105.88 151.631C105.491 151.359 105.256 150.988 105.175 150.518L106.001 150.287C106.046 150.596 106.192 150.849 106.442 151.047C106.699 151.246 107.004 151.345 107.356 151.345C107.738 151.345 108.032 151.271 108.238 151.124C108.451 150.97 108.557 150.753 108.557 150.474C108.557 150.239 108.473 150.052 108.304 149.913C108.142 149.773 107.782 149.641 107.224 149.516C106.857 149.435 106.585 149.362 106.409 149.296C106.24 149.23 106.093 149.156 105.968 149.075C105.785 148.943 105.645 148.782 105.55 148.591C105.462 148.4 105.418 148.176 105.418 147.919C105.418 147.419 105.594 147.019 105.946 146.718C106.306 146.417 106.773 146.266 107.345 146.266C107.948 146.266 108.414 146.398 108.745 146.663C109.082 146.92 109.281 147.298 109.339 147.797L108.491 147.919C108.462 147.61 108.348 147.375 108.15 147.214C107.959 147.045 107.691 146.96 107.345 146.96C107.008 146.96 106.743 147.041 106.552 147.202C106.361 147.357 106.266 147.573 106.266 147.852C106.266 148.08 106.347 148.264 106.508 148.403C106.67 148.535 107.026 148.66 107.577 148.778C107.951 148.859 108.227 148.932 108.403 148.998C108.579 149.057 108.73 149.13 108.855 149.218C109.038 149.351 109.174 149.516 109.262 149.714C109.358 149.905 109.406 150.137 109.406 150.408C109.406 150.908 109.218 151.304 108.844 151.598C108.469 151.892 107.973 152.039 107.356 152.039ZM111.87 152.039C111.283 152.039 110.791 151.903 110.394 151.631C110.005 151.359 109.77 150.988 109.689 150.518L110.515 150.287C110.559 150.596 110.706 150.849 110.956 151.047C111.213 151.246 111.518 151.345 111.87 151.345C112.252 151.345 112.546 151.271 112.752 151.124C112.964 150.97 113.071 150.753 113.071 150.474C113.071 150.239 112.987 150.052 112.818 149.913C112.656 149.773 112.296 149.641 111.738 149.516C111.371 149.435 111.099 149.362 110.923 149.296C110.754 149.23 110.607 149.156 110.482 149.075C110.299 148.943 110.159 148.782 110.064 148.591C109.975 148.4 109.931 148.176 109.931 147.919C109.931 147.419 110.108 147.019 110.46 146.718C110.82 146.417 111.286 146.266 111.859 146.266C112.461 146.266 112.928 146.398 113.258 146.663C113.596 146.92 113.794 147.298 113.853 147.797L113.005 147.919C112.976 147.61 112.862 147.375 112.663 147.214C112.472 147.045 112.204 146.96 111.859 146.96C111.521 146.96 111.257 147.041 111.066 147.202C110.875 147.357 110.78 147.573 110.78 147.852C110.78 148.08 110.86 148.264 111.022 148.403C111.184 148.535 111.54 148.66 112.091 148.778C112.465 148.859 112.74 148.932 112.917 148.998C113.093 149.057 113.244 149.13 113.368 149.218C113.552 149.351 113.688 149.516 113.776 149.714C113.872 149.905 113.919 150.137 113.919 150.408C113.919 150.908 113.732 151.304 113.357 151.598C112.983 151.892 112.487 152.039 111.87 152.039Z" fill="#080615"/>
<path d="M188.847 143.786C189.013 143.786 189.153 143.843 189.267 143.956C189.38 144.07 189.437 144.213 189.437 144.386C189.437 144.56 189.38 144.703 189.267 144.816C189.153 144.93 189.013 144.986 188.847 144.986C188.68 144.986 188.54 144.93 188.427 144.816C188.313 144.703 188.257 144.56 188.257 144.386C188.257 144.213 188.313 144.07 188.427 143.956C188.54 143.843 188.68 143.786 188.847 143.786ZM188.437 151.066V145.906H189.257V151.126C189.257 151.84 189.057 152.356 188.657 152.676C188.383 152.896 188.053 153.003 187.667 152.996C187.48 152.996 187.277 152.97 187.057 152.916L187.167 152.216C187.347 152.27 187.507 152.296 187.647 152.296C187.847 152.296 188.007 152.243 188.127 152.136C188.333 151.95 188.437 151.593 188.437 151.066ZM192.295 145.786C192.981 145.786 193.525 146.02 193.925 146.486C194.331 146.953 194.535 147.593 194.535 148.406C194.535 149.22 194.331 149.86 193.925 150.326C193.525 150.793 192.981 151.026 192.295 151.026C191.608 151.026 191.061 150.793 190.655 150.326C190.255 149.86 190.055 149.22 190.055 148.406C190.055 147.593 190.255 146.953 190.655 146.486C191.061 146.02 191.608 145.786 192.295 145.786ZM192.295 150.386C192.755 150.386 193.105 150.22 193.345 149.886C193.585 149.546 193.705 149.053 193.705 148.406C193.705 147.76 193.585 147.27 193.345 146.936C193.105 146.596 192.755 146.426 192.295 146.426C191.835 146.426 191.485 146.596 191.245 146.936C191.005 147.27 190.885 147.76 190.885 148.406C190.885 149.053 191.005 149.546 191.245 149.886C191.485 150.22 191.835 150.386 192.295 150.386ZM195.332 143.686H196.152V146.696C196.306 146.403 196.516 146.18 196.782 146.026C197.056 145.866 197.369 145.786 197.722 145.786C198.189 145.786 198.562 145.933 198.842 146.226C199.122 146.513 199.262 146.903 199.262 147.396V150.906H198.442V147.566C198.442 147.226 198.356 146.966 198.182 146.786C198.016 146.6 197.776 146.506 197.462 146.506C197.049 146.506 196.726 146.636 196.492 146.896C196.266 147.156 196.152 147.526 196.152 148.006V150.906H195.332V143.686ZM200.377 145.906H200.987L201.087 146.876C201.227 146.53 201.444 146.263 201.737 146.076C202.03 145.883 202.374 145.786 202.767 145.786C203.234 145.786 203.607 145.933 203.887 146.226C204.167 146.513 204.307 146.903 204.307 147.396V150.906H203.487V147.566C203.487 147.226 203.4 146.966 203.227 146.786C203.06 146.6 202.82 146.506 202.507 146.506C202.094 146.506 201.77 146.636 201.537 146.896C201.31 147.156 201.197 147.526 201.197 148.006V150.906H200.377V145.906ZM206.681 149.926L207.721 145.906H208.461L209.501 149.926H209.521L210.561 145.906H211.351L209.931 150.906H209.131L208.091 146.966H208.071L207.031 150.906H206.231L204.811 145.906H205.621L206.661 149.926H206.681ZM213.541 150.126H213.561L214.971 145.906H215.791L213.891 151.176C213.651 151.836 213.398 152.306 213.131 152.586C212.865 152.866 212.528 153.006 212.121 153.006C212.001 153.006 211.881 152.99 211.761 152.956C211.641 152.923 211.528 152.876 211.421 152.816L211.541 152.136C211.675 152.216 211.778 152.266 211.851 152.286C211.931 152.313 212.015 152.326 212.101 152.326C212.348 152.326 212.541 152.246 212.681 152.086C212.821 151.926 212.978 151.603 213.151 151.116L211.291 145.906H212.161L213.541 150.126ZM217.573 150.386C217.946 150.386 218.246 150.266 218.473 150.026C218.7 149.786 218.813 149.456 218.813 149.036V148.616C218.726 148.61 218.643 148.606 218.563 148.606C218.483 148.6 218.41 148.596 218.343 148.596C217.77 148.596 217.343 148.68 217.063 148.846C216.783 149.006 216.643 149.25 216.643 149.576C216.643 149.83 216.726 150.03 216.893 150.176C217.06 150.316 217.286 150.386 217.573 150.386ZM217.873 145.786C218.426 145.786 218.85 145.92 219.143 146.186C219.436 146.446 219.583 146.826 219.583 147.326V149.926C219.583 150.073 219.613 150.183 219.673 150.256C219.733 150.33 219.826 150.366 219.953 150.366C220.006 150.366 220.063 150.356 220.123 150.336C220.183 150.316 220.23 150.29 220.263 150.256L220.313 150.866C220.253 150.906 220.17 150.94 220.063 150.966C219.963 150.993 219.863 151.006 219.763 151.006C219.576 151.006 219.413 150.97 219.273 150.896C219.14 150.816 219.036 150.703 218.963 150.556C218.936 150.503 218.91 150.446 218.883 150.386C218.863 150.32 218.846 150.246 218.833 150.166C218.74 150.426 218.56 150.633 218.293 150.786C218.026 150.94 217.723 151.016 217.383 151.016C216.916 151.016 216.54 150.89 216.253 150.636C215.973 150.376 215.833 150.033 215.833 149.606C215.833 149.086 216.046 148.686 216.473 148.406C216.906 148.126 217.53 147.986 218.343 147.986C218.383 147.986 218.433 147.99 218.493 147.996C218.56 147.996 218.666 148 218.813 148.006V147.416C218.813 147.11 218.726 146.873 218.553 146.706C218.386 146.54 218.143 146.456 217.823 146.456C217.516 146.456 217.28 146.533 217.113 146.686C216.946 146.84 216.856 147.063 216.843 147.356L216.043 147.216C216.096 146.776 216.286 146.43 216.613 146.176C216.946 145.916 217.366 145.786 217.873 145.786ZM222.488 150.336C222.642 150.336 222.778 150.32 222.898 150.286C223.018 150.246 223.155 150.176 223.308 150.076L223.458 150.726C223.312 150.82 223.145 150.893 222.958 150.946C222.778 151 222.602 151.026 222.428 151.026C221.948 151.026 221.578 150.91 221.318 150.676C221.065 150.436 220.938 150.093 220.938 149.646V146.536H220.218V145.906H220.938V144.846L221.758 144.716V145.906H223.258V146.536H221.758V149.566C221.758 149.82 221.818 150.013 221.938 150.146C222.065 150.273 222.248 150.336 222.488 150.336ZM225.716 150.336C225.87 150.336 226.006 150.32 226.126 150.286C226.246 150.246 226.383 150.176 226.536 150.076L226.686 150.726C226.54 150.82 226.373 150.893 226.186 150.946C226.006 151 225.83 151.026 225.656 151.026C225.176 151.026 224.806 150.91 224.546 150.676C224.293 150.436 224.166 150.093 224.166 149.646V146.536H223.446V145.906H224.166V144.846L224.986 144.716V145.906H226.486V146.536H224.986V149.566C224.986 149.82 225.046 150.013 225.166 150.146C225.293 150.273 225.476 150.336 225.716 150.336ZM228.944 150.336C229.098 150.336 229.234 150.32 229.354 150.286C229.474 150.246 229.611 150.176 229.764 150.076L229.914 150.726C229.768 150.82 229.601 150.893 229.414 150.946C229.234 151 229.058 151.026 228.884 151.026C228.404 151.026 228.034 150.91 227.774 150.676C227.521 150.436 227.394 150.093 227.394 149.646V146.536H226.674V145.906H227.394V144.846L228.214 144.716V145.906H229.714V146.536H228.214V149.566C228.214 149.82 228.274 150.013 228.394 150.146C228.521 150.273 228.704 150.336 228.944 150.336ZM232.173 150.336C232.326 150.336 232.463 150.32 232.583 150.286C232.703 150.246 232.839 150.176 232.993 150.076L233.143 150.726C232.996 150.82 232.829 150.893 232.643 150.946C232.463 151 232.286 151.026 232.113 151.026C231.633 151.026 231.263 150.91 231.003 150.676C230.749 150.436 230.623 150.093 230.623 149.646V146.536H229.903V145.906H230.623V144.846L231.443 144.716V145.906H232.943V146.536H231.443V149.566C231.443 149.82 231.503 150.013 231.623 150.146C231.749 150.273 231.933 150.336 232.173 150.336ZM235.401 150.336C235.554 150.336 235.691 150.32 235.811 150.286C235.931 150.246 236.067 150.176 236.221 150.076L236.371 150.726C236.224 150.82 236.057 150.893 235.871 150.946C235.691 151 235.514 151.026 235.341 151.026C234.861 151.026 234.491 150.91 234.231 150.676C233.977 150.436 233.851 150.093 233.851 149.646V146.536H233.131V145.906H233.851V144.846L234.671 144.716V145.906H236.171V146.536H234.671V149.566C234.671 149.82 234.731 150.013 234.851 150.146C234.977 150.273 235.161 150.336 235.401 150.336ZM242.139 149.396C242.139 149.563 242.185 149.69 242.279 149.776C242.379 149.863 242.522 149.906 242.709 149.906C243.062 149.906 243.365 149.696 243.619 149.276C243.879 148.856 244.009 148.323 244.009 147.676C244.009 146.836 243.729 146.163 243.169 145.656C242.609 145.143 241.875 144.886 240.969 144.886C239.962 144.886 239.115 145.24 238.429 145.946C237.742 146.646 237.399 147.523 237.399 148.576C237.399 149.576 237.722 150.386 238.369 151.006C239.022 151.626 239.859 151.936 240.879 151.936C241.439 151.936 241.925 151.863 242.339 151.716C242.752 151.576 243.145 151.346 243.519 151.026L243.839 151.516C243.465 151.856 243.025 152.113 242.519 152.286C242.012 152.466 241.465 152.556 240.879 152.556C239.659 152.556 238.655 152.186 237.869 151.446C237.089 150.713 236.699 149.753 236.699 148.566C236.699 147.986 236.805 147.433 237.019 146.906C237.232 146.38 237.535 145.916 237.929 145.516C238.329 145.116 238.789 144.81 239.309 144.596C239.835 144.376 240.389 144.266 240.969 144.266C242.055 144.266 242.949 144.583 243.649 145.216C244.349 145.843 244.699 146.66 244.699 147.666C244.699 148.48 244.489 149.153 244.069 149.686C243.649 150.213 243.142 150.476 242.549 150.476C242.255 150.476 242.009 150.396 241.809 150.236C241.615 150.07 241.519 149.856 241.519 149.596C241.392 149.883 241.215 150.103 240.989 150.256C240.769 150.41 240.512 150.486 240.219 150.486C239.792 150.486 239.442 150.336 239.169 150.036C238.902 149.73 238.769 149.323 238.769 148.816C238.769 148.103 238.965 147.496 239.359 146.996C239.759 146.496 240.242 146.246 240.809 146.246C241.082 146.246 241.315 146.32 241.509 146.466C241.709 146.606 241.839 146.793 241.899 147.026L242.169 146.356H242.679L242.159 149.156C242.152 149.21 242.145 149.256 242.139 149.296C242.139 149.336 242.139 149.37 242.139 149.396ZM240.389 149.866C240.682 149.866 240.929 149.766 241.129 149.566C241.329 149.36 241.465 149.066 241.539 148.686C241.585 148.466 241.622 148.256 241.649 148.056C241.682 147.856 241.699 147.726 241.699 147.666C241.699 147.433 241.622 147.24 241.469 147.086C241.315 146.926 241.115 146.846 240.869 146.846C240.489 146.846 240.169 147.036 239.909 147.416C239.655 147.79 239.529 148.25 239.529 148.796C239.529 149.136 239.602 149.4 239.749 149.586C239.902 149.773 240.115 149.866 240.389 149.866ZM249.086 150.906H248.186L246.836 148.946H246.816L245.486 150.906H244.636L246.426 148.356L244.726 145.906H245.626L246.886 147.786H246.906L248.156 145.906H248.996L247.296 148.346L249.086 150.906ZM253.516 150.906H252.616L251.266 148.946H251.246L249.916 150.906H249.066L250.856 148.356L249.156 145.906H250.056L251.316 147.786H251.336L252.586 145.906H253.426L251.726 148.346L253.516 150.906ZM257.945 150.906H257.045L255.695 148.946H255.675L254.345 150.906H253.495L255.285 148.356L253.585 145.906H254.485L255.745 147.786H255.765L257.015 145.906H257.855L256.155 148.346L257.945 150.906ZM262.374 150.906H261.474L260.124 148.946H260.104L258.774 150.906H257.924L259.714 148.356L258.014 145.906H258.914L260.174 147.786H260.194L261.444 145.906H262.284L260.584 148.346L262.374 150.906Z" fill="#92908F"/>
<path d="M54.5812 174.813V167.454H55.5065V174.813H54.5812ZM58.4648 174.945C57.8772 174.945 57.3852 174.81 56.9886 174.538C56.5993 174.266 56.3643 173.895 56.2835 173.425L57.1098 173.194C57.1538 173.502 57.3007 173.756 57.5504 173.954C57.8075 174.152 58.1123 174.251 58.4648 174.251C58.8467 174.251 59.1405 174.178 59.3461 174.031C59.5591 173.877 59.6656 173.66 59.6656 173.381C59.6656 173.146 59.5811 172.959 59.4122 172.819C59.2506 172.68 58.8908 172.548 58.3326 172.423C57.9654 172.342 57.6936 172.268 57.5174 172.202C57.3485 172.136 57.2016 172.063 57.0767 171.982C56.8931 171.85 56.7536 171.688 56.6581 171.497C56.57 171.306 56.5259 171.082 56.5259 170.825C56.5259 170.326 56.7022 169.926 57.0547 169.625C57.4146 169.323 57.8809 169.173 58.4538 169.173C59.056 169.173 59.5224 169.305 59.8529 169.569C60.1907 169.826 60.389 170.205 60.4477 170.704L59.5995 170.825C59.5701 170.517 59.4563 170.282 59.258 170.12C59.067 169.951 58.799 169.867 58.4538 169.867C58.1159 169.867 57.8515 169.948 57.6606 170.109C57.4696 170.263 57.3742 170.48 57.3742 170.759C57.3742 170.987 57.455 171.17 57.6165 171.31C57.7781 171.442 58.1343 171.567 58.6851 171.685C59.0597 171.765 59.3351 171.839 59.5113 171.905C59.6876 171.964 59.8382 172.037 59.963 172.125C60.1466 172.257 60.2825 172.423 60.3706 172.621C60.4661 172.812 60.5138 173.043 60.5138 173.315C60.5138 173.814 60.3266 174.211 59.952 174.505C59.5774 174.799 59.0817 174.945 58.4648 174.945ZM62.9785 174.945C62.391 174.945 61.8989 174.81 61.5023 174.538C61.1131 174.266 60.878 173.895 60.7973 173.425L61.6235 173.194C61.6675 173.502 61.8144 173.756 62.0641 173.954C62.3212 174.152 62.626 174.251 62.9785 174.251C63.3604 174.251 63.6542 174.178 63.8598 174.031C64.0728 173.877 64.1793 173.66 64.1793 173.381C64.1793 173.146 64.0948 172.959 63.9259 172.819C63.7643 172.68 63.4045 172.548 62.8463 172.423C62.4791 172.342 62.2073 172.268 62.0311 172.202C61.8622 172.136 61.7153 172.063 61.5904 171.982C61.4068 171.85 61.2673 171.688 61.1718 171.497C61.0837 171.306 61.0396 171.082 61.0396 170.825C61.0396 170.326 61.2159 169.926 61.5684 169.625C61.9283 169.323 62.3946 169.173 62.9675 169.173C63.5697 169.173 64.0361 169.305 64.3666 169.569C64.7044 169.826 64.9027 170.205 64.9614 170.704L64.1132 170.825C64.0838 170.517 63.97 170.282 63.7717 170.12C63.5807 169.951 63.3127 169.867 62.9675 169.867C62.6296 169.867 62.3653 169.948 62.1743 170.109C61.9833 170.263 61.8879 170.48 61.8879 170.759C61.8879 170.987 61.9687 171.17 62.1302 171.31C62.2918 171.442 62.648 171.567 63.1988 171.685C63.5734 171.765 63.8488 171.839 64.0251 171.905C64.2013 171.964 64.3519 172.037 64.4767 172.125C64.6603 172.257 64.7962 172.423 64.8843 172.621C64.9798 172.812 65.0275 173.043 65.0275 173.315C65.0275 173.814 64.8403 174.211 64.4657 174.505C64.0912 174.799 63.5954 174.945 62.9785 174.945ZM70.07 174.813H69.354L69.2438 173.767C69.119 174.149 68.906 174.442 68.6049 174.648C68.3037 174.846 67.9365 174.945 67.5032 174.945C66.9965 174.945 66.5852 174.788 66.2694 174.472C65.9609 174.156 65.8067 173.726 65.8067 173.183V169.305H66.71V173.084C66.71 173.436 66.8018 173.715 66.9855 173.921C67.1691 174.119 67.4261 174.218 67.7566 174.218C68.1899 174.218 68.5314 174.068 68.7811 173.767C69.0308 173.466 69.1557 173.043 69.1557 172.5V169.305H70.07V174.813ZM73.4038 174.229C73.749 174.229 74.0317 174.145 74.2521 173.976C74.4724 173.807 74.6229 173.557 74.7037 173.227L75.4859 173.447C75.3684 173.932 75.1297 174.303 74.7698 174.56C74.41 174.817 73.9546 174.945 73.4038 174.945C72.6326 174.945 72.0304 174.696 71.5971 174.196C71.1638 173.697 70.9471 172.992 70.9471 172.081C70.9471 171.193 71.1675 170.487 71.6081 169.966C72.0561 169.437 72.6547 169.173 73.4038 169.173C74.0574 169.173 74.5752 169.386 74.9571 169.812C75.3464 170.23 75.541 170.789 75.541 171.486C75.541 171.626 75.53 171.762 75.5079 171.894C75.4859 172.026 75.4602 172.136 75.4308 172.224H71.8174C71.8395 172.863 71.9864 173.359 72.2581 173.712C72.5372 174.057 72.9191 174.229 73.4038 174.229ZM73.3818 169.867C72.9484 169.867 72.5959 170.014 72.3242 170.308C72.0598 170.601 71.8982 171.02 71.8395 171.563H74.6376C74.645 171.527 74.6486 171.49 74.6486 171.453C74.6486 171.409 74.6486 171.35 74.6486 171.277C74.6486 170.858 74.5311 170.521 74.2961 170.263C74.0684 169.999 73.7637 169.867 73.3818 169.867ZM80.5703 174.218C81.0036 174.218 81.3561 174.064 81.6279 173.756C81.8996 173.44 82.0355 173.01 82.0355 172.467V171.442C82.0355 170.972 81.8959 170.598 81.6169 170.319C81.3378 170.032 80.9926 169.889 80.5813 169.889C80.0893 169.889 79.7037 170.084 79.4246 170.473C79.1529 170.862 79.017 171.417 79.017 172.136C79.017 172.797 79.1529 173.311 79.4246 173.679C79.6963 174.038 80.0782 174.218 80.5703 174.218ZM82.9388 174.813H82.2228L82.1236 173.767C81.9988 174.149 81.7821 174.442 81.4736 174.648C81.1652 174.846 80.7906 174.945 80.35 174.945C79.6816 174.945 79.1382 174.696 78.7195 174.196C78.3083 173.69 78.1026 173.007 78.1026 172.147C78.1026 171.222 78.3083 170.495 78.7195 169.966C79.1382 169.437 79.711 169.173 80.4381 169.173C80.82 169.173 81.1542 169.254 81.4406 169.415C81.727 169.577 81.9253 169.79 82.0355 170.054V166.859H82.9388V174.813ZM85.683 174.24C86.0943 174.24 86.4248 174.108 86.6745 173.844C86.9242 173.579 87.0491 173.216 87.0491 172.753V172.29C86.9536 172.283 86.8618 172.279 86.7736 172.279C86.6855 172.272 86.6047 172.268 86.5313 172.268C85.8997 172.268 85.4296 172.36 85.1212 172.544C84.8127 172.72 84.6585 172.988 84.6585 173.348C84.6585 173.627 84.7503 173.847 84.9339 174.009C85.1175 174.163 85.3672 174.24 85.683 174.24ZM86.0135 169.173C86.6231 169.173 87.0895 169.32 87.4126 169.613C87.7357 169.9 87.8973 170.319 87.8973 170.869V173.734C87.8973 173.895 87.9304 174.016 87.9965 174.097C88.0626 174.178 88.1654 174.218 88.3049 174.218C88.3637 174.218 88.4261 174.207 88.4922 174.185C88.5583 174.163 88.6097 174.134 88.6464 174.097L88.7015 174.769C88.6354 174.813 88.5436 174.85 88.4261 174.879C88.3159 174.909 88.2058 174.923 88.0956 174.923C87.89 174.923 87.71 174.883 87.5558 174.802C87.4089 174.714 87.2951 174.589 87.2143 174.428C87.1849 174.369 87.1556 174.306 87.1262 174.24C87.1041 174.167 87.0858 174.086 87.0711 173.998C86.9683 174.284 86.77 174.512 86.4762 174.681C86.1824 174.85 85.8483 174.934 85.4737 174.934C84.9596 174.934 84.5447 174.795 84.2289 174.516C83.9204 174.229 83.7662 173.851 83.7662 173.381C83.7662 172.808 84.0012 172.368 84.4712 172.059C84.9486 171.751 85.6353 171.596 86.5313 171.596C86.5754 171.596 86.6304 171.6 86.6965 171.607C86.77 171.607 86.8875 171.611 87.0491 171.618V170.969C87.0491 170.631 86.9536 170.37 86.7626 170.186C86.579 170.003 86.311 169.911 85.9584 169.911C85.6206 169.911 85.3599 169.995 85.1763 170.164C84.9927 170.333 84.8935 170.579 84.8788 170.902L83.9975 170.748C84.0563 170.263 84.2656 169.882 84.6255 169.602C84.9927 169.316 85.4554 169.173 86.0135 169.173ZM91.0979 174.185C91.2668 174.185 91.4174 174.167 91.5496 174.13C91.6818 174.086 91.8324 174.009 92.0013 173.899L92.1665 174.615C92.0049 174.718 91.8213 174.799 91.6157 174.857C91.4174 174.916 91.2228 174.945 91.0318 174.945C90.503 174.945 90.0954 174.817 89.809 174.56C89.5299 174.295 89.3904 173.917 89.3904 173.425V169.999H88.5972V169.305H89.3904V168.137L90.2937 167.994V169.305H91.9462V169.999H90.2937V173.337C90.2937 173.616 90.3598 173.829 90.492 173.976C90.6316 174.116 90.8335 174.185 91.0979 174.185ZM94.8965 174.229C95.2417 174.229 95.5245 174.145 95.7448 173.976C95.9651 173.807 96.1157 173.557 96.1965 173.227L96.9786 173.447C96.8611 173.932 96.6224 174.303 96.2625 174.56C95.9027 174.817 95.4473 174.945 94.8965 174.945C94.1254 174.945 93.5231 174.696 93.0898 174.196C92.6565 173.697 92.4399 172.992 92.4399 172.081C92.4399 171.193 92.6602 170.487 93.1008 169.966C93.5488 169.437 94.1474 169.173 94.8965 169.173C95.5502 169.173 96.0679 169.386 96.4498 169.812C96.8391 170.23 97.0337 170.789 97.0337 171.486C97.0337 171.626 97.0227 171.762 97.0006 171.894C96.9786 172.026 96.9529 172.136 96.9235 172.224H93.3102C93.3322 172.863 93.4791 173.359 93.7508 173.712C94.0299 174.057 94.4118 174.229 94.8965 174.229ZM94.8745 169.867C94.4412 169.867 94.0886 170.014 93.8169 170.308C93.5525 170.601 93.3909 171.02 93.3322 171.563H96.1304C96.1377 171.527 96.1414 171.49 96.1414 171.453C96.1414 171.409 96.1414 171.35 96.1414 171.277C96.1414 170.858 96.0239 170.521 95.7888 170.263C95.5612 169.999 95.2564 169.867 94.8745 169.867Z" fill="#080615"/>
<path d="M218.117 173.073H221.417V173.813H216.987V173.163C217.053 173.11 217.26 172.95 217.607 172.683C217.953 172.41 218.223 172.193 218.417 172.033C218.717 171.78 218.97 171.553 219.177 171.353C219.39 171.147 219.57 170.953 219.717 170.773C219.943 170.493 220.11 170.22 220.217 169.953C220.323 169.68 220.377 169.403 220.377 169.123C220.377 168.67 220.26 168.317 220.027 168.063C219.793 167.81 219.467 167.683 219.047 167.683C218.673 167.683 218.367 167.803 218.127 168.043C217.893 168.283 217.777 168.593 217.777 168.973C217.777 169.107 217.793 169.23 217.827 169.343C217.86 169.457 217.913 169.577 217.987 169.703L217.277 169.993C217.183 169.847 217.113 169.687 217.067 169.513C217.02 169.34 216.997 169.143 216.997 168.923C216.997 168.397 217.19 167.947 217.577 167.573C217.963 167.2 218.457 167.013 219.057 167.013C219.71 167.013 220.23 167.2 220.617 167.573C221.003 167.947 221.197 168.457 221.197 169.103C221.197 169.703 220.963 170.317 220.497 170.943C220.03 171.563 219.237 172.273 218.117 173.073ZM223.852 167.013V173.813H223.022V168.063L221.352 168.523V167.743L223.852 167.013ZM232.461 168.363H232.441L230.531 172.273H229.891L227.981 168.363H227.961L227.971 169.523V173.813H227.151V167.133H228.171L230.231 171.363H230.251L232.311 167.133H233.271V173.813H232.451V169.523L232.461 168.363ZM235.81 173.293C236.183 173.293 236.483 173.173 236.71 172.933C236.937 172.693 237.05 172.363 237.05 171.943V171.523C236.963 171.517 236.88 171.513 236.8 171.513C236.72 171.507 236.647 171.503 236.58 171.503C236.007 171.503 235.58 171.587 235.3 171.753C235.02 171.913 234.88 172.157 234.88 172.483C234.88 172.737 234.963 172.937 235.13 173.083C235.297 173.223 235.523 173.293 235.81 173.293ZM236.11 168.693C236.663 168.693 237.087 168.827 237.38 169.093C237.673 169.353 237.82 169.733 237.82 170.233V172.833C237.82 172.98 237.85 173.09 237.91 173.163C237.97 173.237 238.063 173.273 238.19 173.273C238.243 173.273 238.3 173.263 238.36 173.243C238.42 173.223 238.467 173.197 238.5 173.163L238.55 173.773C238.49 173.813 238.407 173.847 238.3 173.873C238.2 173.9 238.1 173.913 238 173.913C237.813 173.913 237.65 173.877 237.51 173.803C237.377 173.723 237.273 173.61 237.2 173.463C237.173 173.41 237.147 173.353 237.12 173.293C237.1 173.227 237.083 173.153 237.07 173.073C236.977 173.333 236.797 173.54 236.53 173.693C236.263 173.847 235.96 173.923 235.62 173.923C235.153 173.923 234.777 173.797 234.49 173.543C234.21 173.283 234.07 172.94 234.07 172.513C234.07 171.993 234.283 171.593 234.71 171.313C235.143 171.033 235.767 170.893 236.58 170.893C236.62 170.893 236.67 170.897 236.73 170.903C236.797 170.903 236.903 170.907 237.05 170.913V170.323C237.05 170.017 236.963 169.78 236.79 169.613C236.623 169.447 236.38 169.363 236.06 169.363C235.753 169.363 235.517 169.44 235.35 169.593C235.183 169.747 235.093 169.97 235.08 170.263L234.28 170.123C234.333 169.683 234.523 169.337 234.85 169.083C235.183 168.823 235.603 168.693 236.11 168.693ZM239.075 173.813V168.813H239.725L239.835 170.093C239.929 169.673 240.122 169.337 240.415 169.083C240.709 168.823 241.045 168.693 241.425 168.693C241.472 168.693 241.519 168.697 241.565 168.703C241.619 168.71 241.669 168.717 241.715 168.723L241.665 169.583C241.625 169.577 241.569 169.57 241.495 169.563C241.422 169.557 241.345 169.553 241.265 169.553C240.852 169.553 240.519 169.71 240.265 170.023C240.019 170.337 239.895 170.757 239.895 171.283V173.813H239.075ZM244.805 173.073H248.105V173.813H243.675V173.163C243.742 173.11 243.949 172.95 244.295 172.683C244.642 172.41 244.912 172.193 245.105 172.033C245.405 171.78 245.659 171.553 245.865 171.353C246.079 171.147 246.259 170.953 246.405 170.773C246.632 170.493 246.799 170.22 246.905 169.953C247.012 169.68 247.065 169.403 247.065 169.123C247.065 168.67 246.949 168.317 246.715 168.063C246.482 167.81 246.155 167.683 245.735 167.683C245.362 167.683 245.055 167.803 244.815 168.043C244.582 168.283 244.465 168.593 244.465 168.973C244.465 169.107 244.482 169.23 244.515 169.343C244.549 169.457 244.602 169.577 244.675 169.703L243.965 169.993C243.872 169.847 243.802 169.687 243.755 169.513C243.709 169.34 243.685 169.143 243.685 168.923C243.685 168.397 243.879 167.947 244.265 167.573C244.652 167.2 245.145 167.013 245.745 167.013C246.399 167.013 246.919 167.2 247.305 167.573C247.692 167.947 247.885 168.457 247.885 169.103C247.885 169.703 247.652 170.317 247.185 170.943C246.719 171.563 245.925 172.273 244.805 173.073ZM248.351 170.473C248.351 169.427 248.571 168.59 249.011 167.963C249.458 167.33 250.061 167.013 250.821 167.013C251.581 167.013 252.181 167.33 252.621 167.963C253.068 168.59 253.291 169.427 253.291 170.473C253.291 171.52 253.068 172.36 252.621 172.993C252.181 173.62 251.581 173.933 250.821 173.933C250.061 173.933 249.458 173.62 249.011 172.993C248.571 172.36 248.351 171.52 248.351 170.473ZM249.201 170.473C249.201 171.353 249.341 172.033 249.621 172.513C249.901 172.987 250.301 173.223 250.821 173.223C251.341 173.223 251.741 172.987 252.021 172.513C252.301 172.033 252.441 171.353 252.441 170.473C252.441 169.593 252.301 168.917 252.021 168.443C251.741 167.963 251.341 167.723 250.821 167.723C250.301 167.723 249.901 167.963 249.621 168.443C249.341 168.917 249.201 169.593 249.201 170.473ZM254.777 173.073H258.077V173.813H253.647V173.163C253.714 173.11 253.921 172.95 254.267 172.683C254.614 172.41 254.884 172.193 255.077 172.033C255.377 171.78 255.631 171.553 255.837 171.353C256.051 171.147 256.231 170.953 256.377 170.773C256.604 170.493 256.771 170.22 256.877 169.953C256.984 169.68 257.037 169.403 257.037 169.123C257.037 168.67 256.921 168.317 256.687 168.063C256.454 167.81 256.127 167.683 255.707 167.683C255.334 167.683 255.027 167.803 254.787 168.043C254.554 168.283 254.437 168.593 254.437 168.973C254.437 169.107 254.454 169.23 254.487 169.343C254.521 169.457 254.574 169.577 254.647 169.703L253.937 169.993C253.844 169.847 253.774 169.687 253.727 169.513C253.681 169.34 253.657 169.143 253.657 168.923C253.657 168.397 253.851 167.947 254.237 167.573C254.624 167.2 255.117 167.013 255.717 167.013C256.371 167.013 256.891 167.2 257.277 167.573C257.664 167.947 257.857 168.457 257.857 169.103C257.857 169.703 257.624 170.317 257.157 170.943C256.691 171.563 255.897 172.273 254.777 173.073ZM259.383 170.693H258.703L258.883 167.133H262.343V167.863H259.543L259.433 170.023C259.593 169.877 259.78 169.763 259.993 169.683C260.213 169.597 260.44 169.553 260.673 169.553C261.26 169.553 261.74 169.757 262.113 170.163C262.486 170.563 262.673 171.077 262.673 171.703C262.673 172.37 262.46 172.91 262.033 173.323C261.606 173.73 261.06 173.933 260.393 173.933C259.78 173.933 259.26 173.77 258.833 173.443C258.413 173.11 258.17 172.69 258.103 172.183L258.823 171.913C258.91 172.347 259.09 172.68 259.363 172.913C259.643 173.147 259.993 173.263 260.413 173.263C260.866 173.263 261.223 173.127 261.483 172.853C261.743 172.573 261.873 172.193 261.873 171.713C261.873 171.267 261.746 170.91 261.493 170.643C261.246 170.377 260.913 170.243 260.493 170.243C260.273 170.243 260.066 170.283 259.873 170.363C259.68 170.443 259.516 170.553 259.383 170.693Z" fill="#92908F"/>
<path d="M56.7734 197.72H54.5812V190.361H56.7734C57.9191 190.361 58.8115 190.68 59.4504 191.319C60.0894 191.951 60.4088 192.85 60.4088 194.018C60.4088 195.193 60.0857 196.104 59.4394 196.75C58.7931 197.397 57.9044 197.72 56.7734 197.72ZM56.7734 191.154H55.5065V196.927H56.7734C57.6107 196.927 58.2643 196.677 58.7343 196.177C59.2044 195.678 59.4394 194.958 59.4394 194.018C59.4394 193.085 59.2081 192.377 58.7454 191.892C58.2827 191.4 57.6254 191.154 56.7734 191.154ZM65.475 197.72H64.7589L64.6488 196.673C64.5239 197.055 64.3109 197.349 64.0098 197.554C63.7087 197.753 63.3415 197.852 62.9082 197.852C62.4014 197.852 61.9901 197.694 61.6743 197.378C61.3659 197.062 61.2117 196.633 61.2117 196.089V192.212H62.115V195.99C62.115 196.343 62.2068 196.622 62.3904 196.827C62.574 197.026 62.8311 197.125 63.1616 197.125C63.5949 197.125 63.9364 196.974 64.1861 196.673C64.4358 196.372 64.5606 195.95 64.5606 195.406V192.212H65.475V197.72ZM68.8088 197.136C69.1539 197.136 69.4367 197.051 69.657 196.882C69.8773 196.714 70.0279 196.464 70.1087 196.133L70.8909 196.354C70.7733 196.838 70.5347 197.209 70.1748 197.466C69.8149 197.723 69.3596 197.852 68.8088 197.852C68.0376 197.852 67.4354 197.602 67.0021 197.103C66.5688 196.603 66.3521 195.898 66.3521 194.988C66.3521 194.099 66.5724 193.394 67.0131 192.873C67.4611 192.344 68.0596 192.079 68.8088 192.079C69.4624 192.079 69.9802 192.292 70.3621 192.718C70.7513 193.137 70.9459 193.695 70.9459 194.393C70.9459 194.532 70.9349 194.668 70.9129 194.8C70.8909 194.933 70.8651 195.043 70.8358 195.131H67.2224C67.2444 195.77 67.3913 196.266 67.663 196.618C67.9421 196.963 68.324 197.136 68.8088 197.136ZM68.7867 192.773C68.3534 192.773 68.0009 192.92 67.7291 193.214C67.4648 193.508 67.3032 193.926 67.2444 194.47H70.0426C70.0499 194.433 70.0536 194.396 70.0536 194.36C70.0536 194.316 70.0536 194.257 70.0536 194.183C70.0536 193.765 69.9361 193.427 69.7011 193.17C69.4734 192.906 69.1686 192.773 68.7867 192.773ZM75.9753 197.125C76.4086 197.125 76.7611 196.971 77.0328 196.662C77.3046 196.346 77.4404 195.917 77.4404 195.373V194.349C77.4404 193.879 77.3009 193.504 77.0218 193.225C76.7427 192.939 76.3976 192.795 75.9863 192.795C75.4942 192.795 75.1086 192.99 74.8296 193.379C74.5578 193.769 74.4219 194.323 74.4219 195.043C74.4219 195.704 74.5578 196.218 74.8296 196.585C75.1013 196.945 75.4832 197.125 75.9753 197.125ZM78.3438 197.72H77.6277L77.5286 196.673C77.4037 197.055 77.1871 197.349 76.8786 197.554C76.5701 197.753 76.1956 197.852 75.7549 197.852C75.0866 197.852 74.5431 197.602 74.1245 197.103C73.7132 196.596 73.5076 195.913 73.5076 195.054C73.5076 194.128 73.7132 193.401 74.1245 192.873C74.5431 192.344 75.116 192.079 75.8431 192.079C76.225 192.079 76.5591 192.16 76.8456 192.322C77.132 192.483 77.3303 192.696 77.4404 192.961V189.766H78.3438V197.72ZM81.088 197.147C81.4993 197.147 81.8298 197.015 82.0795 196.75C82.3292 196.486 82.454 196.122 82.454 195.66V195.197C82.3585 195.19 82.2667 195.186 82.1786 195.186C82.0905 195.179 82.0097 195.175 81.9362 195.175C81.3046 195.175 80.8346 195.267 80.5261 195.45C80.2177 195.627 80.0635 195.895 80.0635 196.255C80.0635 196.534 80.1553 196.754 80.3389 196.916C80.5225 197.07 80.7722 197.147 81.088 197.147ZM81.4185 192.079C82.0281 192.079 82.4944 192.226 82.8176 192.52C83.1407 192.806 83.3023 193.225 83.3023 193.776V196.64C83.3023 196.802 83.3353 196.923 83.4014 197.004C83.4675 197.084 83.5703 197.125 83.7099 197.125C83.7686 197.125 83.8311 197.114 83.8972 197.092C83.9633 197.07 84.0147 197.04 84.0514 197.004L84.1065 197.676C84.0404 197.72 83.9486 197.756 83.8311 197.786C83.7209 197.815 83.6107 197.83 83.5006 197.83C83.2949 197.83 83.115 197.789 82.9608 197.709C82.8139 197.621 82.7001 197.496 82.6193 197.334C82.5899 197.275 82.5605 197.213 82.5311 197.147C82.5091 197.073 82.4907 196.993 82.4761 196.905C82.3732 197.191 82.1749 197.419 81.8812 197.588C81.5874 197.756 81.2532 197.841 80.8787 197.841C80.3646 197.841 79.9496 197.701 79.6338 197.422C79.3254 197.136 79.1711 196.758 79.1711 196.288C79.1711 195.715 79.4061 195.274 79.8762 194.966C80.3536 194.657 81.0402 194.503 81.9362 194.503C81.9803 194.503 82.0354 194.507 82.1015 194.514C82.1749 194.514 82.2924 194.518 82.454 194.525V193.875C82.454 193.537 82.3585 193.276 82.1676 193.093C81.984 192.909 81.7159 192.817 81.3634 192.817C81.0256 192.817 80.7648 192.902 80.5812 193.071C80.3976 193.24 80.2985 193.486 80.2838 193.809L79.4025 193.655C79.4612 193.17 79.6705 192.788 80.0304 192.509C80.3976 192.223 80.8603 192.079 81.4185 192.079ZM86.5029 197.092C86.6718 197.092 86.8224 197.073 86.9546 197.037C87.0868 196.993 87.2373 196.916 87.4062 196.805L87.5715 197.521C87.4099 197.624 87.2263 197.705 87.0207 197.764C86.8224 197.823 86.6277 197.852 86.4368 197.852C85.908 197.852 85.5004 197.723 85.214 197.466C84.9349 197.202 84.7953 196.824 84.7953 196.332V192.906H84.0022V192.212H84.7953V191.044L85.6987 190.901V192.212H87.3512V192.906H85.6987V196.244C85.6987 196.523 85.7648 196.736 85.897 196.882C86.0365 197.022 86.2385 197.092 86.5029 197.092ZM90.3015 197.136C90.6467 197.136 90.9294 197.051 91.1497 196.882C91.3701 196.714 91.5206 196.464 91.6014 196.133L92.3836 196.354C92.2661 196.838 92.0274 197.209 91.6675 197.466C91.3076 197.723 90.8523 197.852 90.3015 197.852C89.5303 197.852 88.9281 197.602 88.4948 197.103C88.0615 196.603 87.8448 195.898 87.8448 194.988C87.8448 194.099 88.0651 193.394 88.5058 192.873C88.9538 192.344 89.5524 192.079 90.3015 192.079C90.9551 192.079 91.4729 192.292 91.8548 192.718C92.244 193.137 92.4387 193.695 92.4387 194.393C92.4387 194.532 92.4276 194.668 92.4056 194.8C92.3836 194.933 92.3579 195.043 92.3285 195.131H88.7151C88.7371 195.77 88.884 196.266 89.1558 196.618C89.4349 196.963 89.8168 197.136 90.3015 197.136ZM90.2794 192.773C89.8461 192.773 89.4936 192.92 89.2219 193.214C88.9575 193.508 88.7959 193.926 88.7371 194.47H91.5353C91.5427 194.433 91.5463 194.396 91.5463 194.36C91.5463 194.316 91.5463 194.257 91.5463 194.183C91.5463 193.765 91.4288 193.427 91.1938 193.17C90.9661 192.906 90.6613 192.773 90.2794 192.773Z" fill="#080615"/>
<path d="M216.117 195.98H219.417V196.72H214.987V196.07C215.053 196.016 215.26 195.856 215.607 195.59C215.953 195.316 216.223 195.1 216.417 194.94C216.717 194.686 216.97 194.46 217.177 194.26C217.39 194.053 217.57 193.86 217.717 193.68C217.943 193.4 218.11 193.126 218.217 192.86C218.323 192.586 218.377 192.31 218.377 192.03C218.377 191.576 218.26 191.223 218.027 190.97C217.793 190.716 217.467 190.59 217.047 190.59C216.673 190.59 216.367 190.71 216.127 190.95C215.893 191.19 215.777 191.5 215.777 191.88C215.777 192.013 215.793 192.136 215.827 192.25C215.86 192.363 215.913 192.483 215.987 192.61L215.277 192.9C215.183 192.753 215.113 192.593 215.067 192.42C215.02 192.246 214.997 192.05 214.997 191.83C214.997 191.303 215.19 190.853 215.577 190.48C215.963 190.106 216.457 189.92 217.057 189.92C217.71 189.92 218.23 190.106 218.617 190.48C219.003 190.853 219.197 191.363 219.197 192.01C219.197 192.61 218.963 193.223 218.497 193.85C218.03 194.47 217.237 195.18 216.117 195.98ZM221.662 196.84C221.169 196.84 220.752 196.726 220.412 196.5C220.072 196.273 219.819 195.936 219.652 195.49L220.352 195.16C220.459 195.473 220.626 195.716 220.852 195.89C221.079 196.063 221.349 196.15 221.662 196.15C222.249 196.15 222.712 195.88 223.052 195.34C223.392 194.8 223.562 194.083 223.562 193.19V192.97H223.532C223.412 193.37 223.189 193.69 222.862 193.93C222.536 194.163 222.152 194.28 221.712 194.28C221.086 194.28 220.582 194.08 220.202 193.68C219.822 193.28 219.632 192.76 219.632 192.12C219.632 191.48 219.836 190.953 220.242 190.54C220.649 190.126 221.182 189.92 221.842 189.92C222.276 189.92 222.659 190.013 222.992 190.2C223.332 190.386 223.609 190.66 223.822 191.02C223.989 191.3 224.112 191.623 224.192 191.99C224.279 192.35 224.322 192.75 224.322 193.19C224.322 194.29 224.079 195.173 223.592 195.84C223.112 196.506 222.469 196.84 221.662 196.84ZM221.892 190.61C221.459 190.61 221.106 190.746 220.832 191.02C220.559 191.293 220.422 191.653 220.422 192.1C220.422 192.546 220.559 192.906 220.832 193.18C221.106 193.446 221.459 193.58 221.892 193.58C222.312 193.58 222.656 193.443 222.922 193.17C223.189 192.896 223.322 192.54 223.322 192.1C223.322 191.66 223.189 191.303 222.922 191.03C222.656 190.75 222.312 190.61 221.892 190.61ZM232.395 191.27H232.375L230.465 195.18H229.825L227.915 191.27H227.895L227.905 192.43V196.72H227.085V190.04H228.105L230.165 194.27H230.185L232.245 190.04H233.205V196.72H232.385V192.43L232.395 191.27ZM235.744 196.2C236.117 196.2 236.417 196.08 236.644 195.84C236.87 195.6 236.984 195.27 236.984 194.85V194.43C236.897 194.423 236.814 194.42 236.734 194.42C236.654 194.413 236.58 194.41 236.514 194.41C235.94 194.41 235.514 194.493 235.234 194.66C234.954 194.82 234.814 195.063 234.814 195.39C234.814 195.643 234.897 195.843 235.064 195.99C235.23 196.13 235.457 196.2 235.744 196.2ZM236.044 191.6C236.597 191.6 237.02 191.733 237.314 192C237.607 192.26 237.754 192.64 237.754 193.14V195.74C237.754 195.886 237.784 195.996 237.844 196.07C237.904 196.143 237.997 196.18 238.124 196.18C238.177 196.18 238.234 196.17 238.294 196.15C238.354 196.13 238.4 196.103 238.434 196.07L238.484 196.68C238.424 196.72 238.34 196.753 238.234 196.78C238.134 196.806 238.034 196.82 237.934 196.82C237.747 196.82 237.584 196.783 237.444 196.71C237.31 196.63 237.207 196.516 237.134 196.37C237.107 196.316 237.08 196.26 237.054 196.2C237.034 196.133 237.017 196.06 237.004 195.98C236.91 196.24 236.73 196.446 236.464 196.6C236.197 196.753 235.894 196.83 235.554 196.83C235.087 196.83 234.71 196.703 234.424 196.45C234.144 196.19 234.004 195.846 234.004 195.42C234.004 194.9 234.217 194.5 234.644 194.22C235.077 193.94 235.7 193.8 236.514 193.8C236.554 193.8 236.604 193.803 236.664 193.81C236.73 193.81 236.837 193.813 236.984 193.82V193.23C236.984 192.923 236.897 192.686 236.724 192.52C236.557 192.353 236.314 192.27 235.994 192.27C235.687 192.27 235.45 192.346 235.284 192.5C235.117 192.653 235.027 192.876 235.014 193.17L234.214 193.03C234.267 192.59 234.457 192.243 234.784 191.99C235.117 191.73 235.537 191.6 236.044 191.6ZM239.009 196.72V191.72H239.659L239.769 193C239.862 192.58 240.056 192.243 240.349 191.99C240.642 191.73 240.979 191.6 241.359 191.6C241.406 191.6 241.452 191.603 241.499 191.61C241.552 191.616 241.602 191.623 241.649 191.63L241.599 192.49C241.559 192.483 241.502 192.476 241.429 192.47C241.356 192.463 241.279 192.46 241.199 192.46C240.786 192.46 240.452 192.616 240.199 192.93C239.952 193.243 239.829 193.663 239.829 194.19V196.72H239.009ZM244.739 195.98H248.039V196.72H243.609V196.07C243.676 196.016 243.882 195.856 244.229 195.59C244.576 195.316 244.846 195.1 245.039 194.94C245.339 194.686 245.592 194.46 245.799 194.26C246.012 194.053 246.192 193.86 246.339 193.68C246.566 193.4 246.732 193.126 246.839 192.86C246.946 192.586 246.999 192.31 246.999 192.03C246.999 191.576 246.882 191.223 246.649 190.97C246.416 190.716 246.089 190.59 245.669 190.59C245.296 190.59 244.989 190.71 244.749 190.95C244.516 191.19 244.399 191.5 244.399 191.88C244.399 192.013 244.416 192.136 244.449 192.25C244.482 192.363 244.536 192.483 244.609 192.61L243.899 192.9C243.806 192.753 243.736 192.593 243.689 192.42C243.642 192.246 243.619 192.05 243.619 191.83C243.619 191.303 243.812 190.853 244.199 190.48C244.586 190.106 245.079 189.92 245.679 189.92C246.332 189.92 246.852 190.106 247.239 190.48C247.626 190.853 247.819 191.363 247.819 192.01C247.819 192.61 247.586 193.223 247.119 193.85C246.652 194.47 245.859 195.18 244.739 195.98ZM248.285 193.38C248.285 192.333 248.505 191.496 248.945 190.87C249.391 190.236 249.995 189.92 250.755 189.92C251.515 189.92 252.115 190.236 252.555 190.87C253.001 191.496 253.225 192.333 253.225 193.38C253.225 194.426 253.001 195.266 252.555 195.9C252.115 196.526 251.515 196.84 250.755 196.84C249.995 196.84 249.391 196.526 248.945 195.9C248.505 195.266 248.285 194.426 248.285 193.38ZM249.135 193.38C249.135 194.26 249.275 194.94 249.555 195.42C249.835 195.893 250.235 196.13 250.755 196.13C251.275 196.13 251.675 195.893 251.955 195.42C252.235 194.94 252.375 194.26 252.375 193.38C252.375 192.5 252.235 191.823 251.955 191.35C251.675 190.87 251.275 190.63 250.755 190.63C250.235 190.63 249.835 190.87 249.555 191.35C249.275 191.823 249.135 192.5 249.135 193.38ZM254.711 195.98H258.011V196.72H253.581V196.07C253.647 196.016 253.854 195.856 254.201 195.59C254.547 195.316 254.817 195.1 255.011 194.94C255.311 194.686 255.564 194.46 255.771 194.26C255.984 194.053 256.164 193.86 256.311 193.68C256.537 193.4 256.704 193.126 256.811 192.86C256.917 192.586 256.971 192.31 256.971 192.03C256.971 191.576 256.854 191.223 256.621 190.97C256.387 190.716 256.061 190.59 255.641 190.59C255.267 190.59 254.961 190.71 254.721 190.95C254.487 191.19 254.371 191.5 254.371 191.88C254.371 192.013 254.387 192.136 254.421 192.25C254.454 192.363 254.507 192.483 254.581 192.61L253.871 192.9C253.777 192.753 253.707 192.593 253.661 192.42C253.614 192.246 253.591 192.05 253.591 191.83C253.591 191.303 253.784 190.853 254.171 190.48C254.557 190.106 255.051 189.92 255.651 189.92C256.304 189.92 256.824 190.106 257.211 190.48C257.597 190.853 257.791 191.363 257.791 192.01C257.791 192.61 257.557 193.223 257.091 193.85C256.624 194.47 255.831 195.18 254.711 195.98ZM259.317 193.6H258.637L258.817 190.04H262.277V190.77H259.477L259.367 192.93C259.527 192.783 259.713 192.67 259.927 192.59C260.147 192.503 260.373 192.46 260.607 192.46C261.193 192.46 261.673 192.663 262.047 193.07C262.42 193.47 262.607 193.983 262.607 194.61C262.607 195.276 262.393 195.816 261.967 196.23C261.54 196.636 260.993 196.84 260.327 196.84C259.713 196.84 259.193 196.676 258.767 196.35C258.347 196.016 258.103 195.596 258.037 195.09L258.757 194.82C258.843 195.253 259.023 195.586 259.297 195.82C259.577 196.053 259.927 196.17 260.347 196.17C260.8 196.17 261.157 196.033 261.417 195.76C261.677 195.48 261.807 195.1 261.807 194.62C261.807 194.173 261.68 193.816 261.427 193.55C261.18 193.283 260.847 193.15 260.427 193.15C260.207 193.15 260 193.19 259.807 193.27C259.613 193.35 259.45 193.46 259.317 193.6Z" fill="#92908F"/>
<rect x="53.7148" y="213.72" width="210.569" height="30.9092" rx="7.7273" fill="#4F3FD7"/>
<path d="M138.323 230.479C138.323 231.026 138.113 231.465 137.692 231.796C137.271 232.12 136.73 232.282 136.069 232.282C135.438 232.282 134.909 232.138 134.483 231.85C134.062 231.555 133.794 231.153 133.68 230.642L134.681 230.263C134.735 230.606 134.888 230.879 135.141 231.083C135.399 231.288 135.712 231.39 136.078 231.39C136.415 231.39 136.682 231.315 136.881 231.165C137.085 231.014 137.187 230.807 137.187 230.543C137.187 230.338 137.106 230.173 136.944 230.047C136.788 229.915 136.433 229.779 135.88 229.641C135.489 229.539 135.201 229.452 135.015 229.38C134.828 229.301 134.669 229.214 134.537 229.118C134.332 228.974 134.179 228.797 134.077 228.586C133.981 228.376 133.933 228.133 133.933 227.856C133.933 227.321 134.137 226.885 134.546 226.549C134.954 226.212 135.471 226.044 136.096 226.044C136.721 226.044 137.22 226.179 137.593 226.45C137.966 226.714 138.194 227.102 138.278 227.613L137.25 227.874C137.208 227.586 137.085 227.357 136.881 227.189C136.676 227.015 136.418 226.927 136.105 226.927C135.793 226.927 135.54 227.006 135.348 227.162C135.156 227.312 135.06 227.513 135.06 227.766C135.06 227.97 135.138 228.139 135.294 228.271C135.456 228.397 135.811 228.529 136.358 228.667C136.754 228.764 137.046 228.851 137.232 228.929C137.425 229.007 137.587 229.094 137.719 229.19C137.923 229.341 138.074 229.524 138.17 229.74C138.272 229.951 138.323 230.197 138.323 230.479ZM141.137 231.435C141.383 231.435 141.582 231.378 141.732 231.264C141.882 231.144 141.987 230.966 142.048 230.732L142.967 231.029C142.859 231.432 142.643 231.742 142.318 231.958C141.993 232.174 141.597 232.282 141.128 232.282C140.461 232.282 139.938 232.075 139.559 231.66C139.181 231.246 138.991 230.672 138.991 229.939C138.991 229.199 139.184 228.613 139.568 228.181C139.953 227.748 140.476 227.531 141.137 227.531C141.714 227.531 142.171 227.712 142.507 228.072C142.844 228.427 143.012 228.902 143.012 229.497C143.012 229.605 143.003 229.716 142.985 229.83C142.967 229.939 142.946 230.029 142.922 230.101H140.055C140.067 230.522 140.166 230.849 140.353 231.083C140.545 231.318 140.806 231.435 141.137 231.435ZM141.119 228.334C140.824 228.334 140.584 228.436 140.398 228.64C140.217 228.839 140.109 229.121 140.073 229.488H141.948C141.954 229.464 141.957 229.437 141.957 229.407C141.957 229.371 141.957 229.323 141.957 229.262C141.957 228.986 141.879 228.764 141.723 228.595C141.573 228.421 141.371 228.334 141.119 228.334ZM143.953 227.64H144.863L144.999 228.514C145.113 228.202 145.299 227.961 145.558 227.793C145.816 227.619 146.122 227.531 146.477 227.531C146.91 227.531 147.252 227.664 147.505 227.928C147.763 228.187 147.892 228.544 147.892 229.001V232.174H146.775V229.307C146.775 229.037 146.711 228.83 146.585 228.685C146.459 228.541 146.276 228.469 146.035 228.469C145.729 228.469 145.488 228.571 145.314 228.776C145.146 228.974 145.062 229.259 145.062 229.632V232.174H143.953V227.64ZM150.977 231.408C151.277 231.408 151.52 231.297 151.707 231.074C151.893 230.852 151.986 230.549 151.986 230.164V229.479C151.986 229.142 151.89 228.875 151.698 228.676C151.511 228.472 151.277 228.37 150.995 228.37C150.652 228.37 150.388 228.508 150.201 228.785C150.015 229.055 149.922 229.446 149.922 229.957C149.922 230.419 150.012 230.777 150.192 231.029C150.379 231.282 150.64 231.408 150.977 231.408ZM153.095 232.174H152.158L152.04 231.327C151.944 231.633 151.77 231.871 151.517 232.039C151.271 232.201 150.974 232.282 150.625 232.282C150.078 232.282 149.633 232.075 149.291 231.66C148.954 231.246 148.786 230.69 148.786 229.993C148.786 229.229 148.957 228.628 149.3 228.19C149.642 227.751 150.108 227.531 150.697 227.531C151.004 227.531 151.271 227.595 151.499 227.721C151.734 227.847 151.896 228.018 151.986 228.235V225.665H153.095V232.174ZM156.936 225.647C157.135 225.647 157.3 225.71 157.432 225.837C157.57 225.963 157.639 226.122 157.639 226.314C157.639 226.507 157.57 226.666 157.432 226.792C157.3 226.918 157.135 226.982 156.936 226.982C156.738 226.982 156.573 226.918 156.44 226.792C156.308 226.666 156.242 226.507 156.242 226.314C156.242 226.122 156.308 225.963 156.44 225.837C156.573 225.71 156.738 225.647 156.936 225.647ZM156.386 232.174V227.64H157.495V232.174H156.386ZM158.744 227.64H159.654L159.789 228.514C159.904 228.202 160.09 227.961 160.348 227.793C160.607 227.619 160.913 227.531 161.268 227.531C161.701 227.531 162.043 227.664 162.296 227.928C162.554 228.187 162.683 228.544 162.683 229.001V232.174H161.565V229.307C161.565 229.037 161.502 228.83 161.376 228.685C161.25 228.541 161.067 228.469 160.826 228.469C160.52 228.469 160.279 228.571 160.105 228.776C159.937 228.974 159.853 229.259 159.853 229.632V232.174H158.744V227.64ZM164.515 227.64L165.579 230.975H165.597L166.706 227.64H167.779L166.12 232.174H165.011L163.343 227.64H164.515ZM170.29 227.531C170.951 227.531 171.474 227.742 171.858 228.163C172.249 228.583 172.444 229.163 172.444 229.902C172.444 230.642 172.252 231.225 171.867 231.651C171.483 232.072 170.957 232.282 170.29 232.282C169.629 232.282 169.103 232.072 168.712 231.651C168.327 231.225 168.135 230.642 168.135 229.902C168.135 229.169 168.327 228.592 168.712 228.172C169.103 227.745 169.629 227.531 170.29 227.531ZM170.29 231.453C170.632 231.453 170.891 231.324 171.065 231.065C171.245 230.801 171.335 230.413 171.335 229.902C171.335 229.398 171.245 229.016 171.065 228.758C170.891 228.493 170.632 228.361 170.29 228.361C169.947 228.361 169.689 228.49 169.514 228.749C169.34 229.007 169.253 229.392 169.253 229.902C169.253 230.413 169.34 230.801 169.514 231.065C169.689 231.324 169.947 231.453 170.29 231.453ZM173.946 225.647C174.144 225.647 174.309 225.71 174.442 225.837C174.58 225.963 174.649 226.122 174.649 226.314C174.649 226.507 174.58 226.666 174.442 226.792C174.309 226.918 174.144 226.982 173.946 226.982C173.747 226.982 173.582 226.918 173.45 226.792C173.318 226.666 173.252 226.507 173.252 226.314C173.252 226.122 173.318 225.963 173.45 225.837C173.582 225.71 173.747 225.647 173.946 225.647ZM173.396 232.174V227.64H174.505V232.174H173.396ZM177.601 232.282C176.94 232.282 176.417 232.072 176.033 231.651C175.648 231.225 175.456 230.645 175.456 229.912C175.456 229.178 175.645 228.598 176.024 228.172C176.408 227.745 176.928 227.531 177.583 227.531C178.088 227.531 178.5 227.664 178.818 227.928C179.143 228.193 179.329 228.547 179.377 228.992L178.404 229.199C178.386 228.947 178.304 228.746 178.16 228.595C178.016 228.445 177.827 228.37 177.592 228.37C177.268 228.37 177.015 228.505 176.835 228.776C176.655 229.046 176.565 229.425 176.565 229.912C176.565 230.398 176.655 230.777 176.835 231.047C177.015 231.312 177.271 231.444 177.601 231.444C177.83 231.444 178.016 231.369 178.16 231.219C178.304 231.068 178.389 230.864 178.413 230.606L179.395 230.867C179.317 231.306 179.119 231.651 178.8 231.904C178.482 232.156 178.082 232.282 177.601 232.282ZM182.116 231.435C182.362 231.435 182.56 231.378 182.711 231.264C182.861 231.144 182.966 230.966 183.026 230.732L183.946 231.029C183.837 231.432 183.621 231.742 183.297 231.958C182.972 232.174 182.575 232.282 182.107 232.282C181.439 232.282 180.917 232.075 180.538 231.66C180.159 231.246 179.97 230.672 179.97 229.939C179.97 229.199 180.162 228.613 180.547 228.181C180.932 227.748 181.454 227.531 182.116 227.531C182.693 227.531 183.149 227.712 183.486 228.072C183.822 228.427 183.991 228.902 183.991 229.497C183.991 229.605 183.982 229.716 183.964 229.83C183.946 229.939 183.925 230.029 183.901 230.101H181.034C181.046 230.522 181.145 230.849 181.331 231.083C181.524 231.318 181.785 231.435 182.116 231.435ZM182.098 228.334C181.803 228.334 181.563 228.436 181.376 228.64C181.196 228.839 181.088 229.121 181.052 229.488H182.927C182.933 229.464 182.936 229.437 182.936 229.407C182.936 229.371 182.936 229.323 182.936 229.262C182.936 228.986 182.858 228.764 182.702 228.595C182.551 228.421 182.35 228.334 182.098 228.334Z" fill="white"/>
</g>
<defs>
<radialGradient id="paint0_radial_8017_57285" cx="0" cy="0" r="1" gradientUnits="userSpaceOnUse" gradientTransform="translate(159.393 45) rotate(90.1057) scale(213.214 240.001)">
<stop stop-color="#FBFBFB" stop-opacity="0.46"/>
<stop offset="1" stop-color="white" stop-opacity="0.12"/>
</radialGradient>
<clipPath id="clip0_8017_57285">
<rect y="0.886719" width="318" height="296" rx="28.9806" fill="white"/>
</clipPath>
</defs>
</svg>
