<svg width="280" height="240" viewBox="0 0 280 240" fill="none" xmlns="http://www.w3.org/2000/svg">
<rect y="0.000732422" width="280" height="239.145" rx="16.7581" fill="white"/>
<g clip-path="url(#clip0_6125_77976)">
<path d="M19.6486 27.3568V32.334H18.9447V27.3568H17.0259V26.7368H21.5674V27.3568H19.6486ZM23.021 28.0439C23.5964 28.0439 24.0516 28.2394 24.3868 28.6304C24.7276 29.0215 24.8979 29.5577 24.8979 30.2392C24.8979 30.9207 24.7276 31.457 24.3868 31.848C24.0516 32.239 23.5964 32.4345 23.021 32.4345C22.4457 32.4345 21.9876 32.239 21.6469 31.848C21.3117 31.457 21.1441 30.9207 21.1441 30.2392C21.1441 29.5577 21.3117 29.0215 21.6469 28.6304C21.9876 28.2394 22.4457 28.0439 23.021 28.0439ZM23.021 31.8983C23.4065 31.8983 23.6997 31.7586 23.9008 31.4793C24.1019 31.1944 24.2025 30.7811 24.2025 30.2392C24.2025 29.6974 24.1019 29.2868 23.9008 29.0075C23.6997 28.7226 23.4065 28.5802 23.021 28.5802C22.6356 28.5802 22.3423 28.7226 22.1412 29.0075C21.9401 29.2868 21.8396 29.6974 21.8396 30.2392C21.8396 30.7811 21.9401 31.1944 22.1412 31.4793C22.3423 31.7586 22.6356 31.8983 23.021 31.8983ZM27.0326 31.8564C27.161 31.8564 27.2756 31.8424 27.3761 31.8145C27.4766 31.781 27.5912 31.7223 27.7196 31.6385L27.8453 32.1832C27.7224 32.2614 27.5828 32.3228 27.4264 32.3675C27.2756 32.4122 27.1275 32.4345 26.9823 32.4345C26.5801 32.4345 26.2701 32.3368 26.0522 32.1413C25.8399 31.9402 25.7338 31.6525 25.7338 31.2782V28.6723H25.1305V28.1445H25.7338V27.2563L26.4209 27.1474V28.1445H27.6777V28.6723H26.4209V31.2112C26.4209 31.4235 26.4712 31.5855 26.5717 31.6972C26.6778 31.8033 26.8315 31.8564 27.0326 31.8564ZM29.5531 31.8983C29.8659 31.8983 30.1173 31.7977 30.3072 31.5966C30.4971 31.3955 30.5921 31.119 30.5921 30.7671V30.4152C30.5195 30.4096 30.4496 30.4068 30.3826 30.4068C30.3156 30.4012 30.2541 30.3984 30.1983 30.3984C29.7179 30.3984 29.3604 30.4682 29.1258 30.6079C28.8911 30.742 28.7738 30.9459 28.7738 31.2196C28.7738 31.4318 28.8437 31.5994 28.9833 31.7223C29.123 31.8396 29.3129 31.8983 29.5531 31.8983ZM29.8045 28.0439C30.2681 28.0439 30.6228 28.1556 30.8686 28.3791C31.1144 28.5969 31.2373 28.9153 31.2373 29.3343V31.5128C31.2373 31.6357 31.2624 31.7279 31.3127 31.7893C31.363 31.8508 31.4412 31.8815 31.5473 31.8815C31.592 31.8815 31.6395 31.8731 31.6897 31.8564C31.74 31.8396 31.7791 31.8173 31.807 31.7893L31.8489 32.3005C31.7987 32.334 31.7288 32.3619 31.6395 32.3843C31.5557 32.4066 31.4719 32.4178 31.3881 32.4178C31.2317 32.4178 31.0948 32.3871 30.9775 32.3256C30.8658 32.2586 30.7792 32.1636 30.7178 32.0407C30.6954 31.996 30.6731 31.9485 30.6507 31.8983C30.634 31.8424 30.62 31.781 30.6088 31.7139C30.5306 31.9318 30.3798 32.105 30.1564 32.2334C29.9329 32.3619 29.6788 32.4262 29.3939 32.4262C29.0029 32.4262 28.6872 32.32 28.447 32.1077C28.2124 31.8899 28.0951 31.6022 28.0951 31.2447C28.0951 30.809 28.2739 30.4738 28.6314 30.2392C28.9945 30.0046 29.5168 29.8873 30.1983 29.8873C30.2318 29.8873 30.2737 29.8901 30.324 29.8957C30.3798 29.8957 30.4692 29.8985 30.5921 29.9041V29.4097C30.5921 29.1527 30.5195 28.9544 30.3742 28.8148C30.2346 28.6751 30.0307 28.6053 29.7626 28.6053C29.5056 28.6053 29.3073 28.6695 29.1676 28.798C29.028 28.9265 28.9526 29.1136 28.9414 29.3594L28.2711 29.2421C28.3158 28.8734 28.475 28.583 28.7487 28.3707C29.028 28.1528 29.3799 28.0439 29.8045 28.0439ZM33.37 31.8564C33.437 31.8564 33.5013 31.848 33.5627 31.8312C33.6298 31.8089 33.6912 31.7782 33.7471 31.7391L33.8225 32.267C33.7443 32.3116 33.6465 32.3479 33.5292 32.3759C33.4119 32.4038 33.2974 32.4178 33.1857 32.4178C32.8952 32.4178 32.6745 32.3452 32.5237 32.1999C32.3785 32.0491 32.3059 31.8312 32.3059 31.5464V26.2843H32.9929V31.4709C32.9929 31.605 33.0237 31.7028 33.0851 31.7642C33.1466 31.8257 33.2415 31.8564 33.37 31.8564ZM39.8386 28.2031C39.8386 28.5383 39.7408 28.8232 39.5453 29.0578C39.3554 29.2868 39.104 29.4292 38.7912 29.4851V29.5019C39.1822 29.5466 39.4811 29.6806 39.6877 29.9041C39.9 30.1219 40.0061 30.4152 40.0061 30.7839C40.0061 31.281 39.8442 31.6637 39.5202 31.9318C39.1962 32.1999 38.7297 32.334 38.1209 32.334H36.1183V26.7368H38.0538C38.6292 26.7368 39.0705 26.8625 39.3777 27.1138C39.685 27.3652 39.8386 27.7283 39.8386 28.2031ZM38.0036 27.3317H36.8137V29.2505H38.0036C38.3611 29.2505 38.6348 29.1695 38.8247 29.0075C39.0146 28.8455 39.1096 28.6081 39.1096 28.2953C39.1096 27.9825 39.0146 27.7451 38.8247 27.5831C38.6404 27.4155 38.3666 27.3317 38.0036 27.3317ZM38.0957 29.8286H36.8137V31.7558H38.0957C38.4867 31.7558 38.7856 31.6748 38.9923 31.5128C39.199 31.3453 39.3023 31.1051 39.3023 30.7922C39.3023 30.4794 39.199 30.242 38.9923 30.08C38.7856 29.9124 38.4867 29.8286 38.0957 29.8286ZM41.9351 31.8983C42.2479 31.8983 42.4993 31.7977 42.6892 31.5966C42.8791 31.3955 42.9741 31.119 42.9741 30.7671V30.4152C42.9015 30.4096 42.8317 30.4068 42.7646 30.4068C42.6976 30.4012 42.6361 30.3984 42.5803 30.3984C42.0999 30.3984 41.7424 30.4682 41.5078 30.6079C41.2732 30.742 41.1558 30.9459 41.1558 31.2196C41.1558 31.4318 41.2257 31.5994 41.3653 31.7223C41.505 31.8396 41.6949 31.8983 41.9351 31.8983ZM42.1865 28.0439C42.6501 28.0439 43.0048 28.1556 43.2506 28.3791C43.4964 28.5969 43.6193 28.9153 43.6193 29.3343V31.5128C43.6193 31.6357 43.6444 31.7279 43.6947 31.7893C43.745 31.8508 43.8232 31.8815 43.9293 31.8815C43.974 31.8815 44.0215 31.8731 44.0718 31.8564C44.122 31.8396 44.1611 31.8173 44.1891 31.7893L44.231 32.3005C44.1807 32.334 44.1109 32.3619 44.0215 32.3843C43.9377 32.4066 43.8539 32.4178 43.7701 32.4178C43.6137 32.4178 43.4768 32.3871 43.3595 32.3256C43.2478 32.2586 43.1612 32.1636 43.0998 32.0407C43.0774 31.996 43.0551 31.9485 43.0328 31.8983C43.016 31.8424 43.002 31.781 42.9909 31.7139C42.9127 31.9318 42.7618 32.105 42.5384 32.2334C42.3149 32.3619 42.0608 32.4262 41.7759 32.4262C41.3849 32.4262 41.0693 32.32 40.8291 32.1077C40.5944 31.8899 40.4771 31.6022 40.4771 31.2447C40.4771 30.809 40.6559 30.4738 41.0134 30.2392C41.3765 30.0046 41.8988 29.8873 42.5803 29.8873C42.6138 29.8873 42.6557 29.8901 42.706 29.8957C42.7618 29.8957 42.8512 29.8985 42.9741 29.9041V29.4097C42.9741 29.1527 42.9015 28.9544 42.7562 28.8148C42.6166 28.6751 42.4127 28.6053 42.1446 28.6053C41.8876 28.6053 41.6893 28.6695 41.5497 28.798C41.41 28.9265 41.3346 29.1136 41.3234 29.3594L40.6531 29.2421C40.6978 28.8734 40.857 28.583 41.1307 28.3707C41.41 28.1528 41.7619 28.0439 42.1865 28.0439ZM45.752 31.8564C45.819 31.8564 45.8833 31.848 45.9447 31.8312C46.0118 31.8089 46.0732 31.7782 46.1291 31.7391L46.2045 32.267C46.1263 32.3116 46.0285 32.3479 45.9112 32.3759C45.7939 32.4038 45.6794 32.4178 45.5677 32.4178C45.2772 32.4178 45.0566 32.3452 44.9057 32.1999C44.7605 32.0491 44.6879 31.8312 44.6879 31.5464V26.2843H45.375V31.4709C45.375 31.605 45.4057 31.7028 45.4671 31.7642C45.5286 31.8257 45.6235 31.8564 45.752 31.8564ZM47.897 31.8983C48.2098 31.8983 48.4612 31.7977 48.6511 31.5966C48.841 31.3955 48.936 31.119 48.936 30.7671V30.4152C48.8634 30.4096 48.7935 30.4068 48.7265 30.4068C48.6595 30.4012 48.598 30.3984 48.5422 30.3984C48.0618 30.3984 47.7043 30.4682 47.4697 30.6079C47.235 30.742 47.1177 30.9459 47.1177 31.2196C47.1177 31.4318 47.1876 31.5994 47.3272 31.7223C47.4669 31.8396 47.6568 31.8983 47.897 31.8983ZM48.1484 28.0439C48.612 28.0439 48.9667 28.1556 49.2125 28.3791C49.4583 28.5969 49.5812 28.9153 49.5812 29.3343V31.5128C49.5812 31.6357 49.6063 31.7279 49.6566 31.7893C49.7069 31.8508 49.7851 31.8815 49.8912 31.8815C49.9359 31.8815 49.9834 31.8731 50.0336 31.8564C50.0839 31.8396 50.123 31.8173 50.151 31.7893L50.1929 32.3005C50.1426 32.334 50.0728 32.3619 49.9834 32.3843C49.8996 32.4066 49.8158 32.4178 49.732 32.4178C49.5756 32.4178 49.4387 32.3871 49.3214 32.3256C49.2097 32.2586 49.1231 32.1636 49.0617 32.0407C49.0393 31.996 49.017 31.9485 48.9946 31.8983C48.9779 31.8424 48.9639 31.781 48.9528 31.7139C48.8745 31.9318 48.7237 32.105 48.5003 32.2334C48.2768 32.3619 48.0227 32.4262 47.7378 32.4262C47.3468 32.4262 47.0312 32.32 46.791 32.1077C46.5563 31.8899 46.439 31.6022 46.439 31.2447C46.439 30.809 46.6178 30.4738 46.9753 30.2392C47.3384 30.0046 47.8607 29.8873 48.5422 29.8873C48.5757 29.8873 48.6176 29.8901 48.6679 29.8957C48.7237 29.8957 48.8131 29.8985 48.936 29.9041V29.4097C48.936 29.1527 48.8634 28.9544 48.7181 28.8148C48.5785 28.6751 48.3746 28.6053 48.1065 28.6053C47.8495 28.6053 47.6512 28.6695 47.5116 28.798C47.3719 28.9265 47.2965 29.1136 47.2853 29.3594L46.615 29.2421C46.6597 28.8734 46.8189 28.583 47.0926 28.3707C47.3719 28.1528 47.7238 28.0439 48.1484 28.0439ZM50.7168 28.1445H51.2279L51.3117 28.9572C51.429 28.6668 51.6106 28.4433 51.8564 28.2869C52.1021 28.1249 52.3898 28.0439 52.7194 28.0439C53.1104 28.0439 53.4232 28.1668 53.6579 28.4126C53.8925 28.6528 54.0098 28.9796 54.0098 29.3929V32.334H53.3227V29.5354C53.3227 29.2505 53.2501 29.0326 53.1048 28.8818C52.9652 28.7254 52.7641 28.6472 52.5015 28.6472C52.1552 28.6472 51.8843 28.7561 51.6888 28.974C51.4988 29.1918 51.4039 29.5019 51.4039 29.9041V32.334H50.7168V28.1445ZM56.5943 32.4345C56.019 32.4345 55.5637 32.239 55.2285 31.848C54.8934 31.457 54.7258 30.9207 54.7258 30.2392C54.7258 29.5633 54.8934 29.0298 55.2285 28.6388C55.5637 28.2422 56.019 28.0439 56.5943 28.0439C57.0133 28.0439 57.3624 28.1612 57.6417 28.3958C57.921 28.6304 58.083 28.9405 58.1277 29.3259L57.4993 29.4432C57.4769 29.1918 57.3819 28.9879 57.2144 28.8315C57.0524 28.6695 56.8457 28.5885 56.5943 28.5885C56.2256 28.5885 55.938 28.7338 55.7313 29.0243C55.5246 29.3147 55.4212 29.7197 55.4212 30.2392C55.4212 30.7587 55.5246 31.1637 55.7313 31.4542C55.938 31.7447 56.2256 31.8899 56.5943 31.8899C56.8513 31.8899 57.0608 31.8117 57.2227 31.6553C57.3847 31.4933 57.4769 31.281 57.4993 31.0185L58.1277 31.1358C58.0662 31.5436 57.9014 31.862 57.6333 32.091C57.3652 32.32 57.0189 32.4345 56.5943 32.4345ZM60.3731 31.8899C60.6356 31.8899 60.8507 31.8257 61.0183 31.6972C61.1858 31.5687 61.3004 31.3788 61.3618 31.1274L61.9567 31.295C61.8673 31.6637 61.6858 31.9458 61.4121 32.1413C61.1384 32.3368 60.792 32.4345 60.3731 32.4345C59.7865 32.4345 59.3285 32.2446 58.9989 31.8648C58.6693 31.4849 58.5045 30.9486 58.5045 30.256C58.5045 29.5801 58.6721 29.0438 59.0073 28.6472C59.348 28.245 59.8033 28.0439 60.3731 28.0439C60.8702 28.0439 61.264 28.2059 61.5545 28.5299C61.8506 28.8483 61.9986 29.2728 61.9986 29.8035C61.9986 29.9096 61.9902 30.013 61.9735 30.1135C61.9567 30.2141 61.9372 30.2979 61.9148 30.3649H59.1665C59.1832 30.8509 59.295 31.2279 59.5017 31.4961C59.7139 31.7586 60.0044 31.8899 60.3731 31.8899ZM60.3563 28.5718C60.0267 28.5718 59.7586 28.6835 59.5519 28.907C59.3508 29.1304 59.2279 29.4488 59.1832 29.8622H61.3115C61.3171 29.8342 61.3199 29.8063 61.3199 29.7784C61.3199 29.7449 61.3199 29.7002 61.3199 29.6443C61.3199 29.3259 61.2305 29.0689 61.0518 28.8734C60.8786 28.6723 60.6468 28.5718 60.3563 28.5718Z" fill="#C9C8C8"/>
<path d="M20.0885 48.0511C20.0885 48.498 20.2421 48.8611 20.5493 49.1404C20.8566 49.4197 21.3872 49.6501 22.1414 49.8317V46.103C21.5129 46.1868 21.0102 46.4033 20.6331 46.7524C20.27 47.1015 20.0885 47.5344 20.0885 48.0511ZM25.5768 54.1469C25.5768 53.714 25.4231 53.3579 25.1159 53.0786C24.8087 52.7993 24.285 52.5688 23.5448 52.3873V56.116C24.2012 56.0182 24.7039 55.8018 25.0531 55.4666C25.4022 55.1175 25.5768 54.6776 25.5768 54.1469ZM23.5448 58.106V60.3265H22.1414V58.127C20.8147 58.0432 19.7184 57.6801 18.8526 57.0377C17.9867 56.3813 17.4421 55.5155 17.2187 54.4402L19.4182 53.5604C19.5299 54.2866 19.8231 54.8731 20.298 55.32C20.7728 55.7669 21.3872 56.0392 22.1414 56.1369V52.0731C21.3314 51.9055 20.7029 51.7449 20.2561 51.5913C19.8092 51.4377 19.4321 51.2491 19.1249 51.0257C18.664 50.7185 18.3219 50.3344 18.0985 49.8736C17.875 49.4127 17.7633 48.8681 17.7633 48.2397C17.7633 47.1225 18.1683 46.1938 18.9783 45.4536C19.7882 44.6995 20.8426 44.2596 22.1414 44.1339V42.1858H23.5448V44.1549C24.7598 44.2526 25.7304 44.6087 26.4566 45.2232C27.1967 45.8377 27.6576 46.6756 27.8391 47.7369L25.5768 48.3235C25.5069 47.7649 25.2905 47.297 24.9274 46.92C24.5783 46.5429 24.1174 46.2846 23.5448 46.1449V50.125C24.3688 50.2925 25.0042 50.4601 25.4511 50.6277C25.898 50.7813 26.275 50.9629 26.5823 51.1723C27.0291 51.4935 27.3643 51.8915 27.5877 52.3664C27.8112 52.8272 27.9229 53.3718 27.9229 54.0003C27.9229 55.1314 27.5249 56.0671 26.7289 56.8073C25.9329 57.5334 24.8715 57.9664 23.5448 58.106ZM32.1798 51.8636H30.0641L30.4412 44.1339H38.2547V46.3334H32.4731L32.2846 50.0202C32.6198 49.7409 33.0038 49.5245 33.4367 49.3708C33.8696 49.2033 34.3165 49.1195 34.7774 49.1195C36.0342 49.1195 37.0537 49.5314 37.8357 50.3554C38.6178 51.1793 39.0088 52.2477 39.0088 53.5604C39.0088 55.0127 38.527 56.1788 37.5634 57.0586C36.6138 57.9384 35.3988 58.3783 33.9185 58.3783C32.5779 58.3783 31.4467 58.0362 30.525 57.3519C29.6033 56.6676 29.0447 55.7738 28.8492 54.6706L31.1325 53.8536C31.2721 54.6217 31.5863 55.2292 32.0751 55.6761C32.5639 56.109 33.1784 56.3255 33.9185 56.3255C34.7005 56.3255 35.322 56.0811 35.7828 55.5923C36.2437 55.1035 36.4741 54.4402 36.4741 53.6023C36.4741 52.8202 36.2577 52.1988 35.8247 51.7379C35.4058 51.2771 34.8332 51.0467 34.107 51.0467C33.716 51.0467 33.3529 51.1235 33.0178 51.2771C32.6826 51.4167 32.4033 51.6122 32.1798 51.8636ZM42.235 58.127L47.1368 46.2915H42.1303V48.5329H39.868V44.1339H49.86V46.0611L44.9582 58.127H42.235ZM51.079 54.922C51.6516 54.922 52.1194 55.1384 52.4825 55.5713C52.8596 56.0043 53.0481 56.5629 53.0481 57.2472C53.0481 58.4063 52.699 59.3629 52.0007 60.117C51.3025 60.8711 50.3947 61.2482 49.2775 61.2482V60.0541C49.906 60.0122 50.4227 59.7958 50.8277 59.4048C51.2466 59.0137 51.4561 58.5529 51.4561 58.0222C51.4561 57.9524 51.4491 57.8895 51.4351 57.8337C51.4212 57.7778 51.4072 57.7359 51.3932 57.708C51.3234 57.7499 51.2396 57.7848 51.1419 57.8127C51.0581 57.8267 50.9813 57.8337 50.9115 57.8337C50.5204 57.8337 50.1922 57.708 49.9269 57.4566C49.6755 57.1913 49.5499 56.8491 49.5499 56.4302C49.5499 55.9833 49.6965 55.6202 49.9898 55.3409C50.283 55.0616 50.6461 54.922 51.079 54.922ZM58.5127 43.9035V58.127H55.8942V46.8152L52.7521 47.5903V45.2651L58.5127 43.9035ZM66.7626 43.8826C67.81 43.8826 68.7037 44.113 69.4439 44.5738C70.184 45.0207 70.7357 45.6701 71.0987 46.522L69.2554 47.7369C69.0459 47.1783 68.7177 46.7454 68.2708 46.4382C67.8379 46.117 67.3282 45.9564 66.7416 45.9564C65.6663 45.9564 64.8075 46.4312 64.1651 47.3808C63.5367 48.3165 63.2224 49.5664 63.2224 51.1304V51.4866H63.2853C63.5367 50.7883 63.9766 50.2297 64.605 49.8107C65.2474 49.3918 65.9666 49.1823 66.7626 49.1823C68.0753 49.1823 69.1297 49.6013 69.9257 50.4392C70.7357 51.2631 71.1406 52.3314 71.1406 53.6442C71.1406 55.0407 70.6938 56.1788 69.8 57.0586C68.9062 57.9384 67.7401 58.3783 66.3017 58.3783C65.38 58.3783 64.5631 58.1898 63.8509 57.8127C63.1386 57.4357 62.5381 56.8841 62.0494 56.1579C61.6444 55.5574 61.3371 54.8661 61.1277 54.0841C60.9182 53.2881 60.8135 52.4222 60.8135 51.4866C60.8135 49.1963 61.3511 47.3599 62.4264 45.9773C63.5157 44.5808 64.9611 43.8826 66.7626 43.8826ZM66.197 56.3255C66.9511 56.3255 67.5656 56.0881 68.0404 55.6132C68.5152 55.1384 68.7526 54.517 68.7526 53.7489C68.7526 52.9808 68.5152 52.3594 68.0404 51.8846C67.5656 51.4097 66.9511 51.1723 66.197 51.1723C65.4708 51.1723 64.8703 51.4097 64.3955 51.8846C63.9347 52.3594 63.7042 52.9808 63.7042 53.7489C63.7042 54.517 63.9347 55.1384 64.3955 55.6132C64.8703 56.0881 65.4708 56.3255 66.197 56.3255ZM82.7916 54.3773C82.7916 55.5923 82.3168 56.5629 81.3672 57.289C80.4315 58.0152 79.1747 58.3783 77.5966 58.3783C76.0185 58.3783 74.7617 58.0152 73.826 57.289C72.8904 56.5629 72.4225 55.5923 72.4225 54.3773C72.4225 53.5674 72.6809 52.8482 73.1976 52.2197C73.7143 51.5913 74.3916 51.1723 75.2295 50.9629V50.921C74.4894 50.6836 73.9098 50.2856 73.4909 49.727C73.0859 49.1544 72.8834 48.4701 72.8834 47.6741C72.8834 46.5429 73.3163 45.6282 74.1821 44.9299C75.048 44.2317 76.1861 43.8826 77.5966 43.8826C79.021 43.8826 80.1662 44.2317 81.032 44.9299C81.8979 45.6282 82.3308 46.5429 82.3308 47.6741C82.3308 48.4701 82.1213 49.1544 81.7023 49.727C81.2974 50.2856 80.7248 50.6836 79.9846 50.921V50.9629C80.8225 51.1723 81.4998 51.5913 82.0166 52.2197C82.5333 52.8482 82.7916 53.5674 82.7916 54.3773ZM75.3343 47.8626C75.3343 48.5329 75.5368 49.0566 75.9417 49.4337C76.3467 49.7968 76.8983 49.9783 77.5966 49.9783C78.2949 49.9783 78.8465 49.7898 79.2515 49.4127C79.6704 49.0357 79.8799 48.519 79.8799 47.8626C79.8799 47.1923 79.6774 46.6756 79.2724 46.3125C78.8674 45.9494 78.3088 45.7679 77.5966 45.7679C76.8844 45.7679 76.3258 45.9494 75.9208 46.3125C75.5298 46.6756 75.3343 47.1923 75.3343 47.8626ZM80.2151 54.1888C80.2151 53.4905 79.9777 52.9389 79.5028 52.5339C79.042 52.1289 78.4066 51.9265 77.5966 51.9265C76.8006 51.9265 76.1652 52.1289 75.6904 52.5339C75.2295 52.9389 74.9991 53.4905 74.9991 54.1888C74.9991 54.8871 75.2295 55.4387 75.6904 55.8437C76.1512 56.2347 76.7866 56.4302 77.5966 56.4302C78.4066 56.4302 79.042 56.2347 79.5028 55.8437C79.9777 55.4387 80.2151 54.8871 80.2151 54.1888ZM86.0655 54.922C86.5403 54.922 86.9383 55.0826 87.2595 55.4038C87.5807 55.725 87.7413 56.123 87.7413 56.5978C87.7413 57.0726 87.5807 57.4776 87.2595 57.8127C86.9383 58.1339 86.5403 58.2945 86.0655 58.2945C85.5907 58.2945 85.1927 58.1339 84.8715 57.8127C84.5503 57.4776 84.3897 57.0726 84.3897 56.5978C84.3897 56.123 84.5503 55.725 84.8715 55.4038C85.1927 55.0826 85.5907 54.922 86.0655 54.922ZM88.8915 51.1304C88.8915 48.9519 89.3872 47.1993 90.3787 45.8726C91.3703 44.5459 92.7109 43.8826 94.4007 43.8826C96.0905 43.8826 97.4311 44.5459 98.4226 45.8726C99.4142 47.1993 99.9099 48.9519 99.9099 51.1304C99.9099 53.309 99.4072 55.0616 98.4017 56.3883C97.4102 57.715 96.0765 58.3783 94.4007 58.3783C92.7249 58.3783 91.3842 57.715 90.3787 56.3883C89.3872 55.0616 88.8915 53.309 88.8915 51.1304ZM91.5099 51.1304C91.5099 52.7504 91.7543 54.0003 92.2431 54.8801C92.7458 55.7459 93.465 56.1788 94.4007 56.1788C95.3503 56.1788 96.0695 55.7459 96.5583 54.8801C97.061 54.0003 97.3124 52.7504 97.3124 51.1304C97.3124 49.5105 97.061 48.2676 96.5583 47.4018C96.0695 46.522 95.3503 46.0821 94.4007 46.0821C93.465 46.0821 92.7458 46.522 92.2431 47.4018C91.7543 48.2676 91.5099 49.5105 91.5099 51.1304ZM104.191 51.8636H102.075L102.452 44.1339H110.265V46.3334H104.484L104.295 50.0202C104.631 49.7409 105.015 49.5245 105.447 49.3708C105.88 49.2033 106.327 49.1195 106.788 49.1195C108.045 49.1195 109.064 49.5314 109.846 50.3554C110.629 51.1793 111.02 52.2477 111.02 53.5604C111.02 55.0127 110.538 56.1788 109.574 57.0586C108.625 57.9384 107.41 58.3783 105.929 58.3783C104.589 58.3783 103.457 58.0362 102.536 57.3519C101.614 56.6676 101.055 55.7738 100.86 54.6706L103.143 53.8536C103.283 54.6217 103.597 55.2292 104.086 55.6761C104.575 56.109 105.189 56.3255 105.929 56.3255C106.711 56.3255 107.333 56.0811 107.794 55.5923C108.254 55.1035 108.485 54.4402 108.485 53.6023C108.485 52.8202 108.268 52.1988 107.835 51.7379C107.417 51.2771 106.844 51.0467 106.118 51.0467C105.727 51.0467 105.364 51.1235 105.029 51.2771C104.693 51.4167 104.414 51.6122 104.191 51.8636Z" fill="#24201E"/>
<path d="M132.914 51.7103L132.809 51.6056C132.545 51.3413 132.545 50.9128 132.809 50.6484L132.907 50.5502C133.006 50.4513 133.029 50.2997 132.962 50.1769C132.813 49.902 132.549 49.4293 132.407 49.2316V49.2284C132.315 49.1021 132.22 48.9757 132.119 48.8557C131.993 48.7041 131.863 48.5556 131.724 48.4166C131.705 48.3945 131.683 48.3756 131.661 48.3534C131.592 48.2839 131.519 48.2144 131.443 48.1481C131.364 48.0755 131.285 48.0028 131.2 47.9365C131.2 47.9333 131.197 47.9333 131.193 47.9333C131.118 47.867 131.039 47.8038 130.957 47.7438C130.499 47.3995 129.996 47.1088 129.459 46.8877C129.377 46.853 129.295 46.8214 129.213 46.793C129.118 46.7582 129.023 46.7266 128.929 46.6982C128.591 46.5876 128.237 46.5055 127.877 46.455C127.788 46.4392 127.697 46.4265 127.605 46.4171C127.586 46.4171 127.564 46.4139 127.542 46.4107C127.45 46.4013 127.359 46.3949 127.267 46.3918C127.138 46.3823 127.008 46.3792 126.879 46.3792C126.749 46.3792 126.619 46.3823 126.49 46.3918C126.398 46.3949 126.307 46.4013 126.215 46.4107C126.193 46.4139 126.171 46.4171 126.152 46.4171C126.06 46.4265 125.969 46.4392 125.88 46.455C125.52 46.5055 125.166 46.5876 124.828 46.6982C124.734 46.7266 124.639 46.7582 124.544 46.793C124.462 46.8214 124.38 46.853 124.298 46.8877C123.761 47.1088 123.258 47.3995 122.8 47.7438C122.718 47.8038 122.639 47.867 122.563 47.9333C122.56 47.9333 122.557 47.9333 122.557 47.9365C122.472 48.0028 122.393 48.0755 122.314 48.1481C122.238 48.2144 122.165 48.2839 122.096 48.3534C122.074 48.3756 122.052 48.3945 122.033 48.4166C121.897 48.5556 121.764 48.7041 121.638 48.8557C121.313 49.2474 121.035 49.677 120.804 50.135C120.769 50.2014 120.735 50.2709 120.703 50.3435C120.69 50.3688 120.678 50.3972 120.665 50.4256C120.637 50.4888 120.611 50.552 120.583 50.6183C120.555 50.6867 120.528 50.7561 120.502 50.8264C120.434 51.01 120.417 51.2123 120.472 51.4003C120.622 51.914 120.828 52.3507 121.049 52.714C121.138 52.859 121.357 52.8094 121.373 52.6403C121.424 52.1095 121.55 51.6018 121.742 51.1269C121.875 50.7952 122.039 50.4762 122.232 50.1792C122.26 50.135 122.289 50.0908 122.32 50.0466C122.513 49.7654 122.731 49.5033 122.971 49.2632C123.034 49.2 123.097 49.14 123.161 49.0831C123.224 49.0231 123.287 48.9694 123.353 48.9126C123.355 48.9126 123.412 48.8695 123.479 48.8181C123.605 48.7224 123.783 48.7343 123.895 48.8463L125.057 50.008C125.147 50.0979 125.178 50.2344 125.125 50.3501C124.957 50.7217 124.904 51.1562 125.018 51.6112C125.183 52.2672 125.711 52.795 126.366 52.9611C126.822 53.0765 127.258 53.0233 127.63 52.8545C127.746 52.8021 127.882 52.8332 127.972 52.923L128.824 53.7753C128.989 53.9397 128.926 54.2215 128.707 54.2988C128.134 54.5005 127.519 54.6111 126.879 54.6111C125.241 54.6111 123.767 53.8967 122.752 52.7626C122.653 52.652 122.471 52.7091 122.447 52.8554C122.398 53.1404 122.374 53.4336 122.374 53.733V53.9338C122.374 54.0769 122.435 54.215 122.545 54.3065C123.722 55.2863 125.231 55.8747 126.879 55.8747C128.828 55.8747 130.584 55.0502 131.819 53.733C132.034 53.5119 132.226 53.2749 132.407 53.0285C132.463 52.9464 132.52 52.8643 132.574 52.779C132.723 52.551 132.856 52.3171 132.976 52.0728C133.036 51.9522 133.009 51.8055 132.914 51.7103ZM131.986 51.1972C131.793 51.6633 131.538 52.0973 131.231 52.4884C131.012 52.7678 130.766 53.0247 130.498 53.2568C130.374 53.3635 130.187 53.3514 130.072 53.2361L128.76 51.9246C128.678 51.8423 128.654 51.7226 128.684 51.6101C128.777 51.2618 128.776 50.8752 128.632 50.4728C128.445 49.9517 128.024 49.5313 127.502 49.3464C127.101 49.2043 126.716 49.2032 126.369 49.296C126.257 49.326 126.138 49.3021 126.056 49.2201L125.232 48.3967C125.063 48.2278 125.136 47.9396 125.365 47.8708C125.551 47.8148 125.727 47.7634 125.763 47.7564C125.842 47.7375 125.925 47.7248 126.007 47.7122C126.124 47.6932 126.24 47.6774 126.36 47.668C126.424 47.6616 126.49 47.6553 126.556 47.6522C126.575 47.6522 126.594 47.649 126.613 47.649C126.702 47.6459 126.79 47.6427 126.879 47.6427C126.967 47.6427 127.055 47.6459 127.144 47.649C127.163 47.649 127.182 47.6522 127.201 47.6522C127.267 47.6553 127.33 47.6616 127.396 47.668C127.513 47.6774 127.63 47.6932 127.747 47.7122C127.829 47.7248 127.911 47.7375 127.99 47.7564C128.069 47.7722 128.145 47.788 128.218 47.807C128.322 47.8322 128.423 47.8607 128.521 47.8922C128.61 47.9175 128.695 47.9491 128.777 47.9807C128.948 48.0407 129.112 48.1102 129.273 48.1892C129.345 48.2239 129.418 48.2618 129.491 48.2997C129.579 48.3471 129.665 48.3977 129.75 48.4482C129.826 48.4924 129.898 48.5398 129.968 48.5904C130.034 48.6346 130.097 48.6788 130.157 48.723C130.239 48.783 130.318 48.8462 130.394 48.9094C130.464 48.9631 130.53 49.02 130.593 49.0831C130.66 49.14 130.723 49.2 130.783 49.2632C130.786 49.2632 130.789 49.2664 130.789 49.2695C130.852 49.3295 130.912 49.3927 130.969 49.459C131.029 49.5222 131.089 49.5885 131.143 49.658C131.36 49.9111 131.53 50.2098 131.66 50.3799L131.672 50.402C131.72 50.5161 131.776 50.6031 131.822 50.7005C131.88 50.817 131.936 50.9357 131.986 51.0566C132.005 51.1013 132.005 51.1525 131.986 51.1972Z" fill="#C9C8C8"/>
<g clip-path="url(#clip1_6125_77976)">
<g clip-path="url(#clip2_6125_77976)">
<rect x="16.7578" y="75.2991" width="111.721" height="75.4115" rx="12.5686" fill="#3E32A7"/>
<g opacity="0.15">
<path d="M163.653 -152.442L-133.017 -108.316C-143.622 -106.739 -150.94 -96.8635 -149.363 -86.2588L-105.237 210.411C-103.66 221.016 -93.784 228.334 -83.1793 226.757L213.491 182.631C224.096 181.054 231.414 171.178 229.837 160.574L185.711 -136.097C184.133 -146.701 174.258 -154.02 163.653 -152.442Z" fill="url(#paint0_radial_6125_77976)"/>
<path d="M61.4009 -131.024L-101.873 -36.7581C-120.076 -26.2486 -126.312 -2.97262 -115.803 15.2303L-21.5369 178.504C-11.0274 196.707 12.2486 202.944 30.4515 192.434L193.725 98.1681C211.928 87.6587 218.165 64.3826 207.655 46.1797L113.389 -117.094C102.88 -135.297 79.6039 -141.534 61.4009 -131.024Z" fill="url(#paint1_radial_6125_77976)"/>
<path d="M-4.81779 -29.2527L-68.7512 50.1792C-86.5121 72.2457 -83.0218 104.532 -60.9554 122.293L18.4766 186.226C40.543 203.987 72.8294 200.497 90.5903 178.431L154.524 98.9986C172.285 76.9322 168.794 44.6458 146.728 26.8849L67.2959 -37.0486C45.2295 -54.8095 12.9431 -51.3191 -4.81779 -29.2527Z" fill="url(#paint2_radial_6125_77976)"/>
<path d="M-9.31931 60.563L-23.6821 117.913C-30.7246 146.033 -13.6377 174.538 14.4825 181.581L71.8327 195.944C99.9529 202.986 128.458 185.899 135.5 157.779L149.863 100.429C156.906 72.3086 139.819 43.8037 111.698 36.7612L54.3482 22.3984C26.228 15.356 -2.27688 32.4428 -9.31931 60.563Z" fill="url(#paint3_radial_6125_77976)"/>
<path d="M6.0891 152.129L10.111 163.095C20.0922 190.311 50.2466 204.283 77.4627 194.302L88.4292 190.28C115.645 180.299 129.617 150.144 119.636 122.928L115.614 111.962C105.633 84.7454 75.4782 70.7738 48.2622 80.755L37.2956 84.7769C10.0795 94.7581 -3.89212 124.913 6.0891 152.129Z" fill="url(#paint4_radial_6125_77976)"/>
<path d="M42.4076 189.468L53.3174 194.523C69.5963 202.066 88.9075 194.984 96.4501 178.705L101.505 167.795C109.048 151.516 101.965 132.205 85.6865 124.662L74.7767 119.607C58.4978 112.065 39.1866 119.147 31.644 135.426L26.5891 146.336C19.0465 162.615 26.1287 181.926 42.4076 189.468Z" fill="url(#paint5_radial_6125_77976)"/>
<path d="M36.4661 178.267C38.8125 191.051 51.0786 199.513 63.8632 197.167C76.6478 194.82 85.1096 182.554 82.7632 169.769C80.4168 156.985 68.1507 148.523 55.3661 150.869C42.5815 153.216 34.1197 165.482 36.4661 178.267Z" fill="url(#paint6_radial_6125_77976)"/>
</g>
<g clip-path="url(#clip3_6125_77976)">
<mask id="mask0_6125_77976" style="mask-type:luminance" maskUnits="userSpaceOnUse" x="27" y="86" width="21" height="21">
<path d="M47.4808 86.4712H27.9297V106.022H47.4808V86.4712Z" fill="white"/>
</mask>
<g mask="url(#mask0_6125_77976)">
<path d="M34.4467 105.472V87.021C30.6587 88.3651 27.9297 91.9902 27.9297 96.2467C27.9297 100.503 30.6587 104.128 34.4467 105.472Z" fill="#005B13"/>
<path d="M40.9643 87.0211C39.946 86.6748 38.8463 86.4712 37.7058 86.4712C36.5653 86.4712 35.4655 86.6748 34.4473 87.0211V105.452C35.4655 105.819 36.5653 106.022 37.7058 106.022C38.8463 106.022 39.946 105.819 40.9643 105.472V87.0211Z" fill="white"/>
<path d="M40.9629 87.021V105.452C44.7509 104.128 47.4799 100.503 47.4799 96.2467C47.4799 91.9902 44.7509 88.3651 40.9629 87.021Z" fill="#005B13"/>
</g>
</g>
<rect x="28.2788" y="86.8203" width="18.8529" height="18.8529" rx="9.42643" stroke="white" stroke-width="0.698254"/>
<path d="M29.0357 137.332V134.101H28.0554V133.297H29.0357V132.266H28.0554V131.462H29.0357V128.358H30.3429L31.5369 131.462H33.02V128.358H34.0129V131.462H34.9932V132.266H34.0129V133.297H34.9932V134.101H34.0129V137.332H32.6932L31.4992 134.101H30.0161V137.332H29.0357ZM30.0161 133.297H31.1975L30.8205 132.266H29.9909L30.0161 133.297ZM33.02 135.559H33.0702L33.0325 134.101H32.5047L33.02 135.559ZM29.9909 131.462H30.5188L29.9909 129.904H29.9407L29.9909 131.462ZM32.203 133.297H33.0451L33.02 132.266H31.8259L32.203 133.297ZM38.4404 128.797V137.332H36.8693V130.545L34.984 131.01V129.614L38.4404 128.797ZM41.769 135.987H45.5395V137.332H39.6449V136.175C40.7006 135.362 41.3374 134.868 41.5553 134.692C41.7815 134.508 41.9826 134.34 42.1586 134.189C42.7284 133.687 43.1348 133.226 43.3777 132.807C43.6291 132.388 43.7548 131.961 43.7548 131.525C43.7548 131.064 43.6333 130.704 43.3903 130.444C43.1557 130.184 42.8247 130.054 42.3974 130.054C42.012 130.054 41.6977 130.18 41.4548 130.431C41.2201 130.674 41.1028 130.993 41.1028 131.387C41.1028 131.529 41.1196 131.667 41.1531 131.801C41.195 131.927 41.262 132.061 41.3542 132.204L40.0471 132.731C39.9046 132.539 39.7957 132.325 39.7203 132.09C39.6533 131.856 39.6197 131.592 39.6197 131.299C39.6197 130.595 39.8837 130 40.4116 129.514C40.9394 129.028 41.6181 128.785 42.4477 128.785C43.3275 128.785 44.0229 129.028 44.5341 129.514C45.0536 130 45.3133 130.658 45.3133 131.487C45.3133 132.216 45.0242 132.949 44.4461 133.687C43.8679 134.424 42.9756 135.191 41.769 135.987ZM51.575 131.06C51.575 131.579 51.4326 132.015 51.1477 132.367C50.8628 132.71 50.4732 132.924 49.9788 133.008V133.033C50.5234 133.092 50.9633 133.301 51.2985 133.662C51.6337 134.022 51.8012 134.466 51.8012 134.994C51.8012 135.74 51.5205 136.343 50.9592 136.804C50.4061 137.256 49.6855 137.482 48.7974 137.482C47.9846 137.482 47.2975 137.281 46.7361 136.879C46.1831 136.477 45.8563 135.953 45.7558 135.308L47.1006 134.793C47.1928 135.262 47.3813 135.626 47.6662 135.886C47.9595 136.138 48.3323 136.263 48.7848 136.263C49.2456 136.263 49.6143 136.142 49.8908 135.899C50.1673 135.656 50.3056 135.325 50.3056 134.906C50.3056 134.504 50.1631 134.189 49.8783 133.963C49.6017 133.737 49.2205 133.624 48.7345 133.624H47.8799V132.505H48.6717C49.1325 132.505 49.4803 132.392 49.7149 132.166C49.9579 131.94 50.0794 131.613 50.0794 131.186C50.0794 130.85 49.962 130.578 49.7274 130.369C49.4928 130.151 49.187 130.042 48.8099 130.042C48.4161 130.042 48.0893 130.163 47.8296 130.406C47.5698 130.641 47.4022 130.976 47.3268 131.412L46.0071 130.884C46.1663 130.239 46.4973 129.728 47.0001 129.35C47.5112 128.973 48.1312 128.785 48.8602 128.785C49.6981 128.785 50.3601 128.99 50.846 129.401C51.332 129.811 51.575 130.364 51.575 131.06ZM53.3775 135.409C53.7211 135.409 54.0018 135.538 54.2196 135.798C54.4459 136.058 54.559 136.393 54.559 136.804C54.559 137.499 54.3495 138.073 53.9305 138.526C53.5116 138.978 52.967 139.204 52.2966 139.204V138.488C52.6737 138.463 52.9837 138.333 53.2267 138.098C53.4781 137.864 53.6038 137.587 53.6038 137.269C53.6038 137.227 53.5996 137.189 53.5912 137.156C53.5828 137.122 53.5744 137.097 53.5661 137.08C53.5242 137.105 53.4739 137.126 53.4152 137.143C53.365 137.151 53.3189 137.156 53.277 137.156C53.0424 137.156 52.8455 137.08 52.6863 136.929C52.5354 136.77 52.46 136.565 52.46 136.313C52.46 136.045 52.548 135.828 52.724 135.66C52.8999 135.492 53.1178 135.409 53.3775 135.409ZM57.1144 133.574H55.845L56.0712 128.936H60.7593V130.255H57.2904L57.1773 132.468C57.3784 132.3 57.6088 132.17 57.8685 132.078C58.1283 131.977 58.3964 131.927 58.6729 131.927C59.427 131.927 60.0387 132.174 60.5079 132.669C60.9772 133.163 61.2118 133.804 61.2118 134.592C61.2118 135.463 60.9227 136.163 60.3445 136.691C59.7748 137.218 59.0458 137.482 58.1576 137.482C57.3532 137.482 56.6745 137.277 56.1215 136.867C55.5685 136.456 55.2333 135.92 55.116 135.258L56.486 134.768C56.5698 135.228 56.7583 135.593 57.0516 135.861C57.3448 136.121 57.7135 136.251 58.1576 136.251C58.6268 136.251 58.9997 136.104 59.2762 135.811C59.5527 135.517 59.691 135.119 59.691 134.617C59.691 134.148 59.5611 133.775 59.3014 133.498C59.05 133.222 58.7064 133.083 58.2707 133.083C58.0361 133.083 57.8183 133.129 57.6172 133.222C57.4161 133.305 57.2485 133.423 57.1144 133.574ZM63.6599 133.574H62.3905L62.6167 128.936H67.3048V130.255H63.8359L63.7227 132.468C63.9238 132.3 64.1543 132.17 64.414 132.078C64.6738 131.977 64.9419 131.927 65.2184 131.927C65.9725 131.927 66.5842 132.174 67.0534 132.669C67.5226 133.163 67.7573 133.804 67.7573 134.592C67.7573 135.463 67.4682 136.163 66.89 136.691C66.3202 137.218 65.5913 137.482 64.7031 137.482C63.8987 137.482 63.22 137.277 62.667 136.867C62.114 136.456 61.7788 135.92 61.6615 135.258L63.0315 134.768C63.1153 135.228 63.3038 135.593 63.5971 135.861C63.8903 136.121 64.259 136.251 64.7031 136.251C65.1723 136.251 65.5452 136.104 65.8217 135.811C66.0982 135.517 66.2365 135.119 66.2365 134.617C66.2365 134.148 66.1066 133.775 65.8468 133.498C65.5955 133.222 65.2519 133.083 64.8162 133.083C64.5816 133.083 64.3637 133.129 64.1626 133.222C63.9615 133.305 63.794 133.423 63.6599 133.574ZM70.4091 135.987H74.1797V137.332H68.285V136.175C69.3408 135.362 69.9776 134.868 70.1955 134.692C70.4217 134.508 70.6228 134.34 70.7988 134.189C71.3685 133.687 71.7749 133.226 72.0179 132.807C72.2693 132.388 72.395 131.961 72.395 131.525C72.395 131.064 72.2735 130.704 72.0305 130.444C71.7959 130.184 71.4649 130.054 71.0376 130.054C70.6521 130.054 70.3379 130.18 70.0949 130.431C69.8603 130.674 69.743 130.993 69.743 131.387C69.743 131.529 69.7597 131.667 69.7933 131.801C69.8352 131.927 69.9022 132.061 69.9944 132.204L68.6872 132.731C68.5448 132.539 68.4359 132.325 68.3604 132.09C68.2934 131.856 68.2599 131.592 68.2599 131.299C68.2599 130.595 68.5238 130 69.0517 129.514C69.5796 129.028 70.2583 128.785 71.0878 128.785C71.9676 128.785 72.6631 129.028 73.1742 129.514C73.6937 130 73.9535 130.658 73.9535 131.487C73.9535 132.216 73.6644 132.949 73.0862 133.687C72.5081 134.424 71.6157 135.191 70.4091 135.987ZM76.1374 135.409C76.4222 135.409 76.661 135.505 76.8538 135.698C77.0465 135.89 77.1428 136.129 77.1428 136.414C77.1428 136.699 77.0465 136.942 76.8538 137.143C76.661 137.336 76.4222 137.432 76.1374 137.432C75.8525 137.432 75.6137 137.336 75.4209 137.143C75.2282 136.942 75.1319 136.699 75.1319 136.414C75.1319 136.129 75.2282 135.89 75.4209 135.698C75.6137 135.505 75.8525 135.409 76.1374 135.409ZM80.3211 135.987H84.0917V137.332H78.197V136.175C79.2528 135.362 79.8896 134.868 80.1075 134.692C80.3337 134.508 80.5348 134.34 80.7107 134.189C81.2805 133.687 81.6869 133.226 81.9299 132.807C82.1813 132.388 82.307 131.961 82.307 131.525C82.307 131.064 82.1855 130.704 81.9425 130.444C81.7079 130.184 81.3769 130.054 80.9495 130.054C80.5641 130.054 80.2499 130.18 80.0069 130.431C79.7723 130.674 79.655 130.993 79.655 131.387C79.655 131.529 79.6717 131.667 79.7053 131.801C79.7472 131.927 79.8142 132.061 79.9064 132.204L78.5992 132.731C78.4568 132.539 78.3479 132.325 78.2724 132.09C78.2054 131.856 78.1719 131.592 78.1719 131.299C78.1719 130.595 78.4358 130 78.9637 129.514C79.4916 129.028 80.1703 128.785 80.9998 128.785C81.8796 128.785 82.5751 129.028 83.0862 129.514C83.6057 130 83.8655 130.658 83.8655 131.487C83.8655 132.216 83.5764 132.949 82.9982 133.687C82.4201 134.424 81.5277 135.191 80.3211 135.987ZM87.1735 137.482C86.5451 137.482 86.0089 137.348 85.5648 137.08C85.1207 136.804 84.7897 136.41 84.5719 135.899L85.6779 135.17C85.8036 135.505 85.9963 135.769 86.256 135.962C86.5242 136.146 86.8342 136.238 87.1861 136.238C87.8313 136.238 88.3424 135.957 88.7195 135.396C89.1049 134.826 89.2976 134.072 89.2976 133.134V132.92H89.2599C89.1091 133.339 88.841 133.674 88.4555 133.925C88.0785 134.177 87.6512 134.303 87.1735 134.303C86.3859 134.303 85.7491 134.055 85.2631 133.561C84.7855 133.058 84.5467 132.413 84.5467 131.625C84.5467 130.788 84.8148 130.105 85.3511 129.577C85.8874 129.049 86.587 128.785 87.4501 128.785C88.0031 128.785 88.4932 128.898 88.9206 129.124C89.3479 129.35 89.7082 129.681 90.0015 130.117C90.2445 130.477 90.4288 130.896 90.5545 131.374C90.6802 131.843 90.743 132.359 90.743 132.92C90.743 134.294 90.4162 135.4 89.7627 136.238C89.1175 137.068 88.2544 137.482 87.1735 137.482ZM87.5129 130.017C87.0604 130.017 86.6918 130.159 86.4069 130.444C86.122 130.729 85.9795 131.102 85.9795 131.563C85.9795 132.023 86.122 132.396 86.4069 132.681C86.6918 132.966 87.0604 133.109 87.5129 133.109C87.9486 133.109 88.3047 132.966 88.5812 132.681C88.8661 132.396 89.0086 132.023 89.0086 131.563C89.0086 131.102 88.8661 130.729 88.5812 130.444C88.3047 130.159 87.9486 130.017 87.5129 130.017Z" fill="white"/>
</g>
<g clip-path="url(#clip4_6125_77976)">
<rect x="134.064" y="75.2991" width="111.721" height="75.4115" rx="12.5686" fill="#241C5F"/>
<g opacity="0.25">
<path d="M331.403 -211.909L-8.0545 -161.419C-20.1887 -159.614 -28.5623 -148.314 -26.7575 -136.18L23.7325 203.278C25.5374 215.412 36.8371 223.786 48.9713 221.981L388.429 171.491C400.563 169.686 408.937 158.386 407.132 146.252L356.642 -193.206C354.837 -205.34 343.537 -213.713 331.403 -211.909Z" fill="url(#paint7_radial_6125_77976)"/>
<path d="M214.404 -187.401L27.582 -79.5397C6.75378 -67.5145 -0.382507 -40.8815 11.6427 -20.0532L119.504 166.769C131.53 187.597 158.163 194.733 178.991 182.708L365.813 74.8464C386.641 62.8212 393.777 36.1882 381.752 15.3599L273.89 -171.462C261.865 -192.29 235.232 -199.427 214.404 -187.401Z" fill="url(#paint8_radial_6125_77976)"/>
<path d="M138.633 -70.9521L65.4787 19.936C45.1563 45.185 49.15 82.1279 74.3989 102.45L165.287 175.605C190.536 195.927 227.479 191.933 247.801 166.684L320.956 75.7964C341.278 50.5474 337.284 13.6045 312.035 -6.71803L221.147 -79.8723C195.898 -100.195 158.955 -96.201 138.633 -70.9521Z" fill="url(#paint9_radial_6125_77976)"/>
<path d="M133.484 31.8186L117.05 97.4402C108.991 129.616 128.543 162.232 160.718 170.29L226.34 186.725C258.516 194.783 291.132 175.231 299.19 143.056L315.624 77.434C323.683 45.2582 304.131 12.6421 271.956 4.58398L206.334 -11.8503C174.158 -19.9085 141.542 -0.357244 133.484 31.8186Z" fill="url(#paint10_radial_6125_77976)"/>
<path d="M151.115 136.589L155.717 149.137C167.138 180.278 201.642 196.265 232.783 184.844L245.331 180.242C276.472 168.822 292.459 134.318 281.038 103.177L276.436 90.6286C265.016 59.4872 230.512 43.5006 199.371 54.9213L186.823 59.5233C155.681 70.944 139.695 105.447 151.115 136.589Z" fill="url(#paint11_radial_6125_77976)"/>
<path d="M192.669 179.315L205.152 185.099C223.779 193.729 245.875 185.626 254.506 166.999L260.29 154.516C268.92 135.889 260.817 113.793 242.19 105.162L229.706 99.3784C211.08 90.748 188.983 98.8515 180.353 117.478L174.569 129.962C165.939 148.588 174.042 170.685 192.669 179.315Z" fill="url(#paint12_radial_6125_77976)"/>
<path d="M185.871 166.497C188.556 181.125 202.591 190.807 217.22 188.123C231.848 185.438 241.531 171.403 238.846 156.774C236.161 142.146 222.126 132.463 207.497 135.148C192.869 137.833 183.187 151.868 185.871 166.497Z" fill="url(#paint13_radial_6125_77976)"/>
</g>
<g clip-path="url(#clip5_6125_77976)">
<mask id="mask1_6125_77976" style="mask-type:luminance" maskUnits="userSpaceOnUse" x="145" y="86" width="20" height="21">
<path d="M164.787 96.2468C164.787 90.8479 160.411 86.4712 155.012 86.4712C149.613 86.4712 145.236 90.8479 145.236 96.2468C145.236 101.646 149.613 106.022 155.012 106.022C160.411 106.022 164.787 101.646 164.787 96.2468Z" fill="white"/>
</mask>
<g mask="url(#mask1_6125_77976)">
<path d="M164.787 96.2468C164.787 90.8479 160.411 86.4712 155.012 86.4712C149.613 86.4712 145.236 90.8479 145.236 96.2468C145.236 101.646 149.613 106.022 155.012 106.022C160.411 106.022 164.787 101.646 164.787 96.2468Z" fill="white"/>
<mask id="mask2_6125_77976" style="mask-type:alpha" maskUnits="userSpaceOnUse" x="145" y="86" width="20" height="21">
<path d="M155.012 106.022C160.411 106.022 164.787 101.646 164.787 96.2468C164.787 90.8479 160.411 86.4712 155.012 86.4712C149.613 86.4712 145.236 90.8479 145.236 96.2468C145.236 101.646 149.613 106.022 155.012 106.022Z" fill="white"/>
</mask>
<g mask="url(#mask2_6125_77976)">
<path d="M145.234 86.4709H164.785V106.022H145.234V86.4709Z" fill="white"/>
<path d="M155.01 86.4709H145.234V97.0072H155.01V86.4709Z" fill="#231D9A"/>
<path d="M151.55 89.0535L152.285 88.3179L151.55 87.5823L150.814 88.3179L151.55 89.0535Z" fill="white"/>
<path d="M151.55 92.0283L152.285 91.2927L151.55 90.5571L150.814 91.2927L151.55 92.0283Z" fill="white"/>
<path d="M151.55 95.0034L152.285 94.2678L151.55 93.5322L150.814 94.2678L151.55 95.0034Z" fill="white"/>
<path d="M147.626 89.0535L148.361 88.3179L147.626 87.5823L146.89 88.3179L147.626 89.0535Z" fill="white"/>
<path d="M147.626 92.0283L148.361 91.2927L147.626 90.5571L146.89 91.2927L147.626 92.0283Z" fill="white"/>
<path d="M147.626 95.0034L148.361 94.2678L147.626 93.5322L146.89 94.2678L147.626 95.0034Z" fill="white"/>
<path d="M153.511 90.5408L154.246 89.8052L153.511 89.0696L152.775 89.8052L153.511 90.5408Z" fill="white"/>
<path d="M153.511 87.5661L154.246 86.8306L153.511 86.095L152.775 86.8306L153.511 87.5661Z" fill="white"/>
<path d="M153.511 93.5159L154.246 92.7803L153.511 92.0447L152.775 92.7803L153.511 93.5159Z" fill="white"/>
<path d="M153.511 96.491L154.246 95.7554L153.511 95.0198L152.775 95.7554L153.511 96.491Z" fill="white"/>
<path d="M149.587 90.5408L150.322 89.8052L149.587 89.0696L148.851 89.8052L149.587 90.5408Z" fill="white"/>
<path d="M149.587 93.5159L150.322 92.7803L149.587 92.0447L148.851 92.7803L149.587 93.5159Z" fill="white"/>
<path d="M149.587 96.491L150.322 95.7554L149.587 95.0198L148.851 95.7554L149.587 96.491Z" fill="white"/>
<path d="M145.665 90.5408L146.4 89.8052L145.665 89.0696L144.929 89.8052L145.665 90.5408Z" fill="white"/>
<path d="M145.665 93.5159L146.4 92.7803L145.665 92.0447L144.929 92.7803L145.665 93.5159Z" fill="white"/>
<path d="M145.665 96.491L146.4 95.7554L145.665 95.0198L144.929 95.7554L145.665 96.491Z" fill="white"/>
<path d="M169.444 86.3708H155.01V87.8902H169.444V86.3708Z" fill="#F0263C"/>
<path d="M165.645 89.4097H155.01V90.929H165.645V89.4097Z" fill="#F0263C"/>
<path d="M165.645 92.4482H155.01V93.9676H165.645V92.4482Z" fill="#F0263C"/>
<path d="M169.444 95.4871H155.01V97.0064H169.444V95.4871Z" fill="#F0263C"/>
<path d="M169.367 98.5256H145.438V100.045H169.367V98.5256Z" fill="#F0263C"/>
<path d="M169.367 101.564H145.438V103.084H169.367V101.564Z" fill="#F0263C"/>
<path d="M169.367 104.603H145.438V106.122H169.367V104.603Z" fill="#F0263C"/>
</g>
</g>
</g>
<rect x="145.585" y="86.8203" width="18.8529" height="18.8529" rx="9.42643" stroke="white" stroke-width="0.698254"/>
<path d="M147.235 131.286C147.235 131.554 147.327 131.772 147.511 131.94C147.696 132.107 148.014 132.245 148.466 132.354V130.117C148.089 130.167 147.788 130.297 147.562 130.507C147.344 130.716 147.235 130.976 147.235 131.286ZM150.528 134.944C150.528 134.684 150.436 134.47 150.251 134.303C150.067 134.135 149.753 133.997 149.309 133.888V136.125C149.702 136.066 150.004 135.936 150.213 135.735C150.423 135.526 150.528 135.262 150.528 134.944ZM149.309 137.319V138.651H148.466V137.332C147.67 137.281 147.013 137.063 146.493 136.678C145.974 136.284 145.647 135.765 145.513 135.119L146.833 134.592C146.9 135.027 147.076 135.379 147.36 135.647C147.645 135.915 148.014 136.079 148.466 136.138V133.699C147.98 133.599 147.603 133.502 147.335 133.41C147.067 133.318 146.841 133.205 146.657 133.071C146.38 132.886 146.175 132.656 146.041 132.38C145.907 132.103 145.84 131.776 145.84 131.399C145.84 130.729 146.083 130.172 146.569 129.728C147.055 129.275 147.687 129.011 148.466 128.936V127.767H149.309V128.948C150.038 129.007 150.62 129.221 151.056 129.589C151.5 129.958 151.776 130.461 151.885 131.098L150.528 131.449C150.486 131.114 150.356 130.834 150.138 130.607C149.929 130.381 149.652 130.226 149.309 130.142V132.53C149.803 132.631 150.184 132.731 150.452 132.832C150.72 132.924 150.947 133.033 151.131 133.159C151.399 133.351 151.6 133.59 151.734 133.875C151.868 134.152 151.935 134.478 151.935 134.856C151.935 135.534 151.697 136.096 151.219 136.54C150.741 136.975 150.105 137.235 149.309 137.319ZM155.772 128.797V137.332H154.2V130.545L152.315 131.01V129.614L155.772 128.797ZM157.888 135.409C158.231 135.409 158.512 135.538 158.73 135.798C158.956 136.058 159.069 136.393 159.069 136.804C159.069 137.499 158.86 138.073 158.441 138.526C158.022 138.978 157.477 139.204 156.807 139.204V138.488C157.184 138.463 157.494 138.333 157.737 138.098C157.988 137.864 158.114 137.587 158.114 137.269C158.114 137.227 158.11 137.189 158.101 137.156C158.093 137.122 158.085 137.097 158.076 137.08C158.034 137.105 157.984 137.126 157.925 137.143C157.875 137.151 157.829 137.156 157.787 137.156C157.553 137.156 157.356 137.08 157.197 136.929C157.046 136.77 156.97 136.565 156.97 136.313C156.97 136.045 157.058 135.828 157.234 135.66C157.41 135.492 157.628 135.409 157.888 135.409ZM161.625 133.574H160.355L160.581 128.936H165.27V130.255H161.801L161.688 132.468C161.889 132.3 162.119 132.17 162.379 132.078C162.639 131.977 162.907 131.927 163.183 131.927C163.937 131.927 164.549 132.174 165.018 132.669C165.487 133.163 165.722 133.804 165.722 134.592C165.722 135.463 165.433 136.163 164.855 136.691C164.285 137.218 163.556 137.482 162.668 137.482C161.863 137.482 161.185 137.277 160.632 136.867C160.079 136.456 159.744 135.92 159.626 135.258L160.996 134.768C161.08 135.228 161.269 135.593 161.562 135.861C161.855 136.121 162.224 136.251 162.668 136.251C163.137 136.251 163.51 136.104 163.786 135.811C164.063 135.517 164.201 135.119 164.201 134.617C164.201 134.148 164.071 133.775 163.812 133.498C163.56 133.222 163.217 133.083 162.781 133.083C162.546 133.083 162.329 133.129 162.127 133.222C161.926 133.305 161.759 133.423 161.625 133.574ZM169.98 128.785C170.608 128.785 171.145 128.923 171.589 129.2C172.033 129.468 172.364 129.857 172.582 130.369L171.476 131.098C171.35 130.762 171.153 130.503 170.885 130.318C170.625 130.126 170.319 130.029 169.967 130.029C169.322 130.029 168.807 130.314 168.422 130.884C168.044 131.445 167.856 132.195 167.856 133.134V133.347H167.894C168.044 132.928 168.308 132.593 168.685 132.342C169.071 132.09 169.502 131.965 169.98 131.965C170.768 131.965 171.4 132.216 171.878 132.719C172.364 133.213 172.607 133.854 172.607 134.642C172.607 135.48 172.339 136.163 171.802 136.691C171.266 137.218 170.567 137.482 169.704 137.482C169.151 137.482 168.66 137.369 168.233 137.143C167.806 136.917 167.445 136.586 167.152 136.15C166.909 135.79 166.725 135.375 166.599 134.906C166.473 134.428 166.411 133.909 166.411 133.347C166.411 131.973 166.733 130.871 167.378 130.042C168.032 129.204 168.899 128.785 169.98 128.785ZM169.641 136.251C170.093 136.251 170.462 136.108 170.747 135.823C171.032 135.538 171.174 135.166 171.174 134.705C171.174 134.244 171.032 133.871 170.747 133.586C170.462 133.301 170.093 133.159 169.641 133.159C169.205 133.159 168.845 133.301 168.56 133.586C168.283 133.871 168.145 134.244 168.145 134.705C168.145 135.166 168.283 135.538 168.56 135.823C168.845 136.108 169.205 136.251 169.641 136.251ZM179.472 135.082C179.472 135.811 179.187 136.393 178.617 136.829C178.056 137.265 177.302 137.482 176.355 137.482C175.408 137.482 174.654 137.265 174.092 136.829C173.531 136.393 173.25 135.811 173.25 135.082C173.25 134.596 173.405 134.164 173.715 133.787C174.025 133.41 174.432 133.159 174.935 133.033V133.008C174.49 132.866 174.143 132.627 173.891 132.292C173.648 131.948 173.527 131.537 173.527 131.06C173.527 130.381 173.787 129.832 174.306 129.413C174.826 128.994 175.508 128.785 176.355 128.785C177.209 128.785 177.896 128.994 178.416 129.413C178.936 129.832 179.195 130.381 179.195 131.06C179.195 131.537 179.07 131.948 178.818 132.292C178.575 132.627 178.232 132.866 177.788 133.008V133.033C178.29 133.159 178.697 133.41 179.007 133.787C179.317 134.164 179.472 134.596 179.472 135.082ZM174.997 131.173C174.997 131.575 175.119 131.889 175.362 132.116C175.605 132.333 175.936 132.442 176.355 132.442C176.774 132.442 177.105 132.329 177.348 132.103C177.599 131.877 177.725 131.567 177.725 131.173C177.725 130.771 177.603 130.461 177.36 130.243C177.117 130.025 176.782 129.916 176.355 129.916C175.927 129.916 175.592 130.025 175.349 130.243C175.115 130.461 174.997 130.771 174.997 131.173ZM177.926 134.969C177.926 134.55 177.783 134.219 177.498 133.976C177.222 133.733 176.841 133.611 176.355 133.611C175.877 133.611 175.496 133.733 175.211 133.976C174.935 134.219 174.796 134.55 174.796 134.969C174.796 135.388 174.935 135.719 175.211 135.962C175.488 136.196 175.869 136.313 176.355 136.313C176.841 136.313 177.222 136.196 177.498 135.962C177.783 135.719 177.926 135.388 177.926 134.969ZM181.31 135.409C181.595 135.409 181.834 135.505 182.027 135.698C182.22 135.89 182.316 136.129 182.316 136.414C182.316 136.699 182.22 136.942 182.027 137.143C181.834 137.336 181.595 137.432 181.31 137.432C181.026 137.432 180.787 137.336 180.594 137.143C180.401 136.942 180.305 136.699 180.305 136.414C180.305 136.129 180.401 135.89 180.594 135.698C180.787 135.505 181.026 135.409 181.31 135.409ZM183.855 137.332L186.796 130.23H183.792V131.575H182.434V128.936H188.43V130.092L185.488 137.332H183.855ZM191.033 135.987H194.804V137.332H188.909V136.175C189.965 135.362 190.602 134.868 190.82 134.692C191.046 134.508 191.247 134.34 191.423 134.189C191.993 133.687 192.399 133.226 192.642 132.807C192.893 132.388 193.019 131.961 193.019 131.525C193.019 131.064 192.898 130.704 192.655 130.444C192.42 130.184 192.089 130.054 191.662 130.054C191.276 130.054 190.962 130.18 190.719 130.431C190.484 130.674 190.367 130.993 190.367 131.387C190.367 131.529 190.384 131.667 190.417 131.801C190.459 131.927 190.526 132.061 190.618 132.204L189.311 132.731C189.169 132.539 189.06 132.325 188.985 132.09C188.917 131.856 188.884 131.592 188.884 131.299C188.884 130.595 189.148 130 189.676 129.514C190.204 129.028 190.882 128.785 191.712 128.785C192.592 128.785 193.287 129.028 193.798 129.514C194.318 130 194.578 130.658 194.578 131.487C194.578 132.216 194.288 132.949 193.71 133.687C193.132 134.424 192.24 135.191 191.033 135.987Z" fill="white"/>
</g>
<g clip-path="url(#clip6_6125_77976)">
<rect x="251.371" y="75.2988" width="111.721" height="75.4115" rx="12.5686" fill="#230D3A"/>
<g opacity="0.25">
<path d="M325.715 -12.3506L146.368 14.325C139.957 15.2785 135.533 21.2486 136.486 27.6595L163.162 207.007C164.115 213.418 170.086 217.842 176.496 216.888L355.844 190.212C362.254 189.259 366.679 183.289 365.725 176.878L339.049 -2.46921C338.096 -8.88012 332.126 -13.3042 325.715 -12.3506Z" fill="url(#paint14_radial_6125_77976)"/>
<path d="M263.899 0.597389L165.195 57.5844C154.19 63.9377 150.42 78.0089 156.773 89.0131L213.76 187.718C220.114 198.722 234.185 202.492 245.189 196.139L343.893 139.152C354.898 132.799 358.668 118.727 352.315 107.723L295.328 9.01869C288.974 -1.98559 274.903 -5.75594 263.899 0.597389Z" fill="url(#paint15_radial_6125_77976)"/>
<path d="M223.866 62.1219L185.217 110.141C174.479 123.481 176.59 142.999 189.929 153.736L237.949 192.386C251.289 203.123 270.807 201.013 281.544 187.673L320.194 139.654C330.931 126.314 328.821 106.796 315.481 96.0589L267.462 57.409C254.122 46.6719 234.604 48.782 223.866 62.1219Z" fill="url(#paint16_radial_6125_77976)"/>
<path d="M221.149 116.419L212.466 151.089C208.209 168.089 218.539 185.321 235.538 189.579L270.208 198.261C287.208 202.519 304.44 192.189 308.698 175.19L317.38 140.519C321.638 123.52 311.308 106.288 294.309 102.03L259.638 93.3474C242.639 89.0901 225.407 99.4196 221.149 116.419Z" fill="url(#paint17_radial_6125_77976)"/>
<path d="M230.463 171.773L232.895 178.403C238.929 194.856 257.158 203.302 273.611 197.268L280.241 194.837C296.694 188.803 305.14 170.574 299.106 154.121L296.675 147.491C290.641 131.038 272.412 122.592 255.958 128.626L249.329 131.057C232.876 137.091 224.429 155.32 230.463 171.773Z" fill="url(#paint18_radial_6125_77976)"/>
<path d="M252.416 194.346L259.011 197.402C268.852 201.961 280.526 197.68 285.086 187.839L288.142 181.243C292.702 171.402 288.42 159.728 278.579 155.168L271.984 152.112C262.143 147.553 250.469 151.834 245.909 161.675L242.853 168.271C238.293 178.112 242.575 189.786 252.416 194.346Z" fill="url(#paint19_radial_6125_77976)"/>
</g>
<g clip-path="url(#clip7_6125_77976)">
<mask id="mask3_6125_77976" style="mask-type:alpha" maskUnits="userSpaceOnUse" x="262" y="86" width="21" height="21">
<path d="M272.319 106.022C277.717 106.022 282.094 101.645 282.094 96.2463C282.094 90.8474 277.717 86.4707 272.319 86.4707C266.92 86.4707 262.543 90.8474 262.543 96.2463C262.543 101.645 266.92 106.022 272.319 106.022Z" fill="#231D9A"/>
</mask>
<g mask="url(#mask3_6125_77976)">
<path d="M282.096 86.4709H262.545V106.022H282.096V86.4709Z" fill="#231D9A"/>
<path d="M270.792 94.7189V86.1653H269.876V92.7332L263.308 88.3037L261.322 90.9003L265.752 93.8024H261.78V94.7189H270.792Z" fill="white"/>
<path d="M270.792 97.7739V106.328H269.876V99.7596L263.308 104.189L261.322 101.593L265.752 98.6904H261.78V97.7739H270.792Z" fill="white"/>
<path d="M273.848 94.7189V86.1653H274.764V92.7332L281.332 88.3037L283.318 90.9003L278.888 93.8024H282.86V94.7189H273.848Z" fill="white"/>
<path d="M273.848 97.7739V106.328H274.764V99.7596L281.332 104.189L283.318 101.593L278.888 98.6904H282.86V97.7739H273.848Z" fill="white"/>
<path d="M269.875 93.8026V93.6499L263.46 89.373L262.391 90.595L267.126 93.8026H269.875Z" fill="#F0263C"/>
<path d="M269.875 98.6902V98.8429L263.46 103.12L262.391 101.898L267.126 98.6902H269.875Z" fill="#F0263C"/>
<path d="M274.764 93.8026V93.6499L281.179 89.373L282.248 90.595L277.513 93.8026H274.764Z" fill="#F0263C"/>
<path d="M274.764 98.6902V98.8429L281.179 103.12L282.248 101.898L277.513 98.6902H274.764Z" fill="#F0263C"/>
<path fill-rule="evenodd" clip-rule="evenodd" d="M273.848 94.719V85.8599H270.793V94.719H261.934V97.7738H270.793V106.633H273.848V97.7738H282.707V94.719H273.848Z" fill="#F0263C"/>
</g>
</g>
<rect x="262.892" y="86.8198" width="18.8529" height="18.8529" rx="9.42643" stroke="white" stroke-width="0.698254"/>
<path d="M268.752 134.616L269.845 135.345C269.753 136.024 269.506 136.527 269.104 136.854C268.702 137.172 268.123 137.331 267.369 137.331H263.234V136.012C263.611 136.012 263.909 135.907 264.127 135.697C264.353 135.48 264.466 135.19 264.466 134.83C264.466 134.696 264.453 134.562 264.428 134.428C264.411 134.286 264.382 134.143 264.34 134.001H263.322V133.033H263.951C263.825 132.723 263.737 132.455 263.687 132.228C263.636 132.002 263.611 131.776 263.611 131.55C263.611 130.754 263.888 130.096 264.441 129.576C265.002 129.049 265.714 128.785 266.577 128.785C267.399 128.785 268.052 129.015 268.538 129.476C269.033 129.937 269.28 130.532 269.28 131.261C269.28 131.487 269.246 131.713 269.179 131.939C269.112 132.157 269.012 132.367 268.878 132.568L267.633 132.065C267.709 131.931 267.763 131.801 267.797 131.675C267.839 131.55 267.859 131.416 267.859 131.273C267.859 130.888 267.742 130.582 267.508 130.356C267.281 130.121 266.975 130.004 266.59 130.004C266.163 130.004 265.819 130.146 265.559 130.431C265.3 130.716 265.17 131.089 265.17 131.55C265.17 131.793 265.191 132.027 265.233 132.254C265.283 132.471 265.371 132.731 265.497 133.033H267.231V134.001H265.811C265.836 134.11 265.853 134.223 265.861 134.34C265.869 134.457 265.874 134.575 265.874 134.692C265.874 134.943 265.781 135.199 265.597 135.459C265.421 135.71 265.203 135.894 264.944 136.012H267.269C267.763 136.012 268.123 135.907 268.35 135.697C268.584 135.48 268.718 135.119 268.752 134.616ZM273.36 128.797V137.331H271.789V130.544L269.904 131.009V129.614L273.36 128.797ZM275.477 135.408C275.82 135.408 276.101 135.538 276.319 135.798C276.545 136.058 276.658 136.393 276.658 136.803C276.658 137.499 276.449 138.073 276.03 138.525C275.611 138.978 275.066 139.204 274.396 139.204V138.488C274.773 138.462 275.083 138.333 275.326 138.098C275.577 137.863 275.703 137.587 275.703 137.268C275.703 137.227 275.699 137.189 275.69 137.155C275.682 137.122 275.674 137.097 275.665 137.08C275.623 137.105 275.573 137.126 275.514 137.143C275.464 137.151 275.418 137.155 275.376 137.155C275.142 137.155 274.945 137.08 274.785 136.929C274.635 136.77 274.559 136.565 274.559 136.313C274.559 136.045 274.647 135.827 274.823 135.66C274.999 135.492 275.217 135.408 275.477 135.408ZM279.214 133.573H277.944L278.17 128.935H282.859V130.255H279.39L279.276 132.467C279.478 132.3 279.708 132.17 279.968 132.078C280.227 131.977 280.496 131.927 280.772 131.927C281.526 131.927 282.138 132.174 282.607 132.668C283.076 133.163 283.311 133.804 283.311 134.591C283.311 135.463 283.022 136.162 282.444 136.69C281.874 137.218 281.145 137.482 280.257 137.482C279.452 137.482 278.774 137.277 278.221 136.866C277.668 136.456 277.333 135.919 277.215 135.257L278.585 134.767C278.669 135.228 278.858 135.593 279.151 135.861C279.444 136.121 279.813 136.25 280.257 136.25C280.726 136.25 281.099 136.104 281.375 135.811C281.652 135.517 281.79 135.119 281.79 134.616C281.79 134.147 281.66 133.774 281.401 133.498C281.149 133.221 280.806 133.083 280.37 133.083C280.135 133.083 279.917 133.129 279.716 133.221C279.515 133.305 279.348 133.422 279.214 133.573ZM287.569 128.785C288.197 128.785 288.734 128.923 289.178 129.199C289.622 129.468 289.953 129.857 290.171 130.368L289.065 131.097C288.939 130.762 288.742 130.502 288.474 130.318C288.214 130.125 287.908 130.029 287.556 130.029C286.911 130.029 286.396 130.314 286.01 130.884C285.633 131.445 285.445 132.195 285.445 133.133V133.347H285.483C285.633 132.928 285.897 132.593 286.274 132.342C286.66 132.09 287.091 131.965 287.569 131.965C288.357 131.965 288.989 132.216 289.467 132.719C289.953 133.213 290.196 133.854 290.196 134.642C290.196 135.48 289.928 136.162 289.391 136.69C288.855 137.218 288.156 137.482 287.292 137.482C286.739 137.482 286.249 137.369 285.822 137.143C285.395 136.917 285.034 136.586 284.741 136.15C284.498 135.79 284.314 135.375 284.188 134.906C284.062 134.428 283.999 133.908 283.999 133.347C283.999 131.973 284.322 130.871 284.967 130.042C285.621 129.204 286.488 128.785 287.569 128.785ZM287.23 136.25C287.682 136.25 288.051 136.108 288.336 135.823C288.621 135.538 288.763 135.165 288.763 134.704C288.763 134.244 288.621 133.871 288.336 133.586C288.051 133.301 287.682 133.159 287.23 133.159C286.794 133.159 286.434 133.301 286.149 133.586C285.872 133.871 285.734 134.244 285.734 134.704C285.734 135.165 285.872 135.538 286.149 135.823C286.434 136.108 286.794 136.25 287.23 136.25ZM297.061 135.082C297.061 135.811 296.776 136.393 296.206 136.829C295.645 137.264 294.891 137.482 293.944 137.482C292.997 137.482 292.243 137.264 291.681 136.829C291.12 136.393 290.839 135.811 290.839 135.082C290.839 134.596 290.994 134.164 291.304 133.787C291.614 133.41 292.021 133.159 292.523 133.033V133.008C292.079 132.865 291.732 132.626 291.48 132.291C291.237 131.948 291.116 131.537 291.116 131.06C291.116 130.381 291.376 129.832 291.895 129.413C292.415 128.994 293.097 128.785 293.944 128.785C294.798 128.785 295.485 128.994 296.005 129.413C296.524 129.832 296.784 130.381 296.784 131.06C296.784 131.537 296.659 131.948 296.407 132.291C296.164 132.626 295.821 132.865 295.377 133.008V133.033C295.879 133.159 296.286 133.41 296.596 133.787C296.906 134.164 297.061 134.596 297.061 135.082ZM292.586 131.173C292.586 131.575 292.708 131.889 292.951 132.115C293.194 132.333 293.525 132.442 293.944 132.442C294.363 132.442 294.694 132.329 294.937 132.103C295.188 131.877 295.314 131.567 295.314 131.173C295.314 130.771 295.192 130.46 294.949 130.243C294.706 130.025 294.371 129.916 293.944 129.916C293.516 129.916 293.181 130.025 292.938 130.243C292.704 130.46 292.586 130.771 292.586 131.173ZM295.515 134.968C295.515 134.549 295.372 134.218 295.087 133.975C294.811 133.732 294.43 133.611 293.944 133.611C293.466 133.611 293.085 133.732 292.8 133.975C292.523 134.218 292.385 134.549 292.385 134.968C292.385 135.387 292.523 135.718 292.8 135.961C293.076 136.196 293.458 136.313 293.944 136.313C294.43 136.313 294.811 136.196 295.087 135.961C295.372 135.718 295.515 135.387 295.515 134.968ZM298.899 135.408C299.184 135.408 299.423 135.505 299.616 135.697C299.808 135.89 299.905 136.129 299.905 136.414C299.905 136.699 299.808 136.942 299.616 137.143C299.423 137.335 299.184 137.432 298.899 137.432C298.614 137.432 298.376 137.335 298.183 137.143C297.99 136.942 297.894 136.699 297.894 136.414C297.894 136.129 297.99 135.89 298.183 135.697C298.376 135.505 298.614 135.408 298.899 135.408ZM301.444 137.331L304.385 130.23H301.381V131.575H300.023V128.935H306.018V130.092L303.077 137.331H301.444ZM308.622 135.986H312.393V137.331H306.498V136.175C307.554 135.362 308.191 134.868 308.408 134.692C308.635 134.508 308.836 134.34 309.012 134.189C309.582 133.686 309.988 133.226 310.231 132.807C310.482 132.388 310.608 131.96 310.608 131.525C310.608 131.064 310.486 130.703 310.243 130.444C310.009 130.184 309.678 130.054 309.251 130.054C308.865 130.054 308.551 130.18 308.308 130.431C308.073 130.674 307.956 130.993 307.956 131.386C307.956 131.529 307.973 131.667 308.006 131.801C308.048 131.927 308.115 132.061 308.207 132.203L306.9 132.731C306.758 132.538 306.649 132.325 306.573 132.09C306.506 131.856 306.473 131.592 306.473 131.298C306.473 130.595 306.737 130 307.265 129.514C307.793 129.028 308.471 128.785 309.301 128.785C310.181 128.785 310.876 129.028 311.387 129.514C311.907 130 312.166 130.657 312.166 131.487C312.166 132.216 311.877 132.949 311.299 133.686C310.721 134.424 309.829 135.19 308.622 135.986Z" fill="white"/>
</g>
</g>
</g>
<rect x="25.1367" y="164.711" width="33.5162" height="33.5162" rx="16.7581" fill="#F7F7FF"/>
<path d="M47.8658 180.841H43.1522C42.8052 180.841 42.524 180.559 42.524 180.212V175.499C42.524 175.325 42.3833 175.185 42.2099 175.185H41.5817C41.4082 175.185 41.2676 175.325 41.2676 175.499V180.212C41.2676 180.559 40.9863 180.841 40.6394 180.841H35.9254C35.752 180.841 35.6113 180.981 35.6113 181.155V181.783C35.6113 181.956 35.752 182.097 35.9254 182.097H40.6394C40.9863 182.097 41.2676 182.378 41.2676 182.725V187.439C41.2676 187.613 41.4082 187.753 41.5817 187.753H42.2099C42.3833 187.753 42.524 187.613 42.524 187.439V182.725C42.524 182.378 42.8052 182.097 43.1522 182.097H47.8658C48.0393 182.097 48.1799 181.956 48.1799 181.783V181.155C48.1799 180.981 48.0393 180.841 47.8658 180.841Z" fill="#4F3FD7"/>
<path d="M25.3782 207.978H25.3615L24.3979 210.651H26.3502L25.3782 207.978ZM27.8417 212.813H27.1295L26.5597 211.246H24.18L23.6186 212.813H22.9232L24.9928 207.216H25.7721L27.8417 212.813ZM29.9906 212.361C30.3202 212.361 30.5883 212.243 30.795 212.009C31.0017 211.768 31.105 211.442 31.105 211.028V210.249C31.105 209.891 30.9989 209.607 30.7866 209.394C30.5743 209.176 30.3118 209.068 29.999 209.068C29.6247 209.068 29.3314 209.216 29.1192 209.512C28.9125 209.808 28.8091 210.229 28.8091 210.777C28.8091 211.28 28.9125 211.671 29.1192 211.95C29.3258 212.224 29.6163 212.361 29.9906 212.361ZM31.7921 212.813H31.2474L31.172 212.017C31.0771 212.307 30.9123 212.531 30.6777 212.687C30.4431 212.838 30.1582 212.914 29.823 212.914C29.3147 212.914 28.9013 212.724 28.5829 212.344C28.2701 211.958 28.1137 211.439 28.1137 210.785C28.1137 210.081 28.2701 209.528 28.5829 209.126C28.9013 208.724 29.337 208.523 29.89 208.523C30.1805 208.523 30.4347 208.584 30.6525 208.707C30.8704 208.83 31.0212 208.992 31.105 209.193V206.763H31.7921V212.813ZM34.424 212.361C34.7535 212.361 35.0217 212.243 35.2283 212.009C35.435 211.768 35.5384 211.442 35.5384 211.028V210.249C35.5384 209.891 35.4322 209.607 35.22 209.394C35.0077 209.176 34.7451 209.068 34.4323 209.068C34.0581 209.068 33.7648 209.216 33.5525 209.512C33.3458 209.808 33.2425 210.229 33.2425 210.777C33.2425 211.28 33.3458 211.671 33.5525 211.95C33.7592 212.224 34.0497 212.361 34.424 212.361ZM36.2254 212.813H35.6808L35.6054 212.017C35.5104 212.307 35.3456 212.531 35.111 212.687C34.8764 212.838 34.5915 212.914 34.2564 212.914C33.748 212.914 33.3347 212.724 33.0163 212.344C32.7035 211.958 32.547 211.439 32.547 210.785C32.547 210.081 32.7035 209.528 33.0163 209.126C33.3347 208.724 33.7704 208.523 34.3234 208.523C34.6139 208.523 34.868 208.584 35.0859 208.707C35.3038 208.83 35.4546 208.992 35.5384 209.193V206.763H36.2254V212.813ZM43.449 208.246H43.4323L41.8319 211.523H41.2956L39.6952 208.246H39.6785L39.6868 209.218V212.813H38.9998V207.216H39.8544L41.5805 210.76H41.5973L43.3234 207.216H44.1277V212.813H43.4407V209.218L43.449 208.246ZM46.7994 208.523C47.3748 208.523 47.83 208.718 48.1652 209.109C48.506 209.5 48.6763 210.037 48.6763 210.718C48.6763 211.4 48.506 211.936 48.1652 212.327C47.83 212.718 47.3748 212.914 46.7994 212.914C46.2241 212.914 45.766 212.718 45.4253 212.327C45.0901 211.936 44.9225 211.4 44.9225 210.718C44.9225 210.037 45.0901 209.5 45.4253 209.109C45.766 208.718 46.2241 208.523 46.7994 208.523ZM46.7994 212.377C47.1849 212.377 47.4781 212.238 47.6792 211.958C47.8803 211.673 47.9809 211.26 47.9809 210.718C47.9809 210.176 47.8803 209.766 47.6792 209.487C47.4781 209.202 47.1849 209.059 46.7994 209.059C46.414 209.059 46.1207 209.202 45.9196 209.487C45.7185 209.766 45.618 210.176 45.618 210.718C45.618 211.26 45.7185 211.673 45.9196 211.958C46.1207 212.238 46.414 212.377 46.7994 212.377ZM49.4284 208.623H49.9395L50.0233 209.436C50.1406 209.146 50.3222 208.922 50.568 208.766C50.8137 208.604 51.1014 208.523 51.431 208.523C51.822 208.523 52.1348 208.646 52.3695 208.892C52.6041 209.132 52.7214 209.459 52.7214 209.872V212.813H52.0343V210.014C52.0343 209.729 51.9617 209.512 51.8164 209.361C51.6768 209.204 51.4757 209.126 51.2132 209.126C50.8668 209.126 50.5959 209.235 50.4004 209.453C50.2105 209.671 50.1155 209.981 50.1155 210.383V212.813H49.4284V208.623ZM55.3059 212.369C55.5685 212.369 55.7835 212.305 55.9511 212.176C56.1187 212.048 56.2332 211.858 56.2947 211.606L56.8896 211.774C56.8002 212.143 56.6186 212.425 56.3449 212.62C56.0712 212.816 55.7249 212.914 55.3059 212.914C54.7194 212.914 54.2613 212.724 53.9318 212.344C53.6022 211.964 53.4374 211.428 53.4374 210.735C53.4374 210.059 53.605 209.523 53.9401 209.126C54.2809 208.724 54.7361 208.523 55.3059 208.523C55.8031 208.523 56.1969 208.685 56.4874 209.009C56.7834 209.327 56.9315 209.752 56.9315 210.283C56.9315 210.389 56.9231 210.492 56.9063 210.593C56.8896 210.693 56.87 210.777 56.8477 210.844H54.0993C54.1161 211.33 54.2278 211.707 54.4345 211.975C54.6468 212.238 54.9372 212.369 55.3059 212.369ZM55.2892 209.051C54.9596 209.051 54.6915 209.163 54.4848 209.386C54.2837 209.609 54.1608 209.928 54.1161 210.341H56.2444C56.25 210.313 56.2528 210.285 56.2528 210.257C56.2528 210.224 56.2528 210.179 56.2528 210.123C56.2528 209.805 56.1634 209.548 55.9846 209.352C55.8115 209.151 55.5796 209.051 55.2892 209.051ZM59.0065 212.159H59.0233L60.2047 208.623H60.8918L59.2998 213.039C59.0987 213.592 58.8864 213.986 58.663 214.221C58.4395 214.455 58.1574 214.573 57.8167 214.573C57.7161 214.573 57.6156 214.559 57.515 214.531C57.4145 214.503 57.3195 214.464 57.2302 214.413L57.3307 213.844C57.4424 213.911 57.529 213.953 57.5905 213.969C57.6575 213.992 57.7273 214.003 57.7999 214.003C58.0066 214.003 58.1686 213.936 58.2859 213.802C58.4032 213.668 58.5345 213.397 58.6797 212.989L57.1212 208.623H57.8502L59.0065 212.159Z" fill="#241C5F"/>
<rect x="90.5391" y="164.711" width="33.5162" height="33.5162" rx="16.7581" fill="#F7F7FF"/>
<path d="M113.571 176.22L110.218 187.502C110.173 187.652 110.035 187.754 109.879 187.753L108.934 187.746C108.809 187.745 108.694 187.678 108.632 187.569L106.673 184.144C106.459 183.77 106.433 183.307 106.637 182.926C106.642 182.918 106.646 182.909 106.651 182.901C106.823 182.587 106.883 182.224 106.789 181.878C106.672 181.444 106.796 180.981 107.114 180.663L108.066 179.711C108.203 179.574 108.426 179.574 108.563 179.711L109.059 180.208C109.196 180.345 109.196 180.567 109.059 180.704L107.507 182.256C107.395 182.368 107.372 182.541 107.451 182.678L108.75 184.951C108.902 185.217 109.298 185.174 109.39 184.882L111.694 177.52C111.778 177.249 111.524 176.995 111.254 177.08L103.886 179.381C103.594 179.472 103.551 179.868 103.817 180.02L105.128 180.769C105.297 180.866 105.355 181.08 105.258 181.249L104.909 181.857C104.813 182.025 104.599 182.084 104.431 181.987L101.197 180.139C101.089 180.076 101.022 179.961 101.021 179.837L101.014 178.892C101.013 178.735 101.115 178.597 101.265 178.552L112.553 175.199C112.676 175.162 112.81 175.196 112.901 175.288L113.484 175.873C113.574 175.964 113.608 176.097 113.571 176.22Z" fill="#4F3FD7"/>
<path d="M90.8105 211.33C90.8105 211.805 90.6318 212.187 90.2743 212.478C89.9168 212.768 89.4559 212.914 88.8917 212.914C88.3164 212.914 87.8388 212.768 87.4589 212.478C87.0791 212.182 86.8528 211.78 86.7802 211.271L87.4254 211.07C87.4757 211.456 87.6349 211.763 87.903 211.992C88.1767 212.221 88.5063 212.335 88.8917 212.335C89.266 212.335 89.5648 212.249 89.7883 212.076C90.0173 211.897 90.1318 211.657 90.1318 211.355C90.1318 211.193 90.0927 211.053 90.0145 210.936C89.9363 210.813 89.8162 210.707 89.6542 210.618C89.5704 210.573 89.4699 210.528 89.3526 210.484C89.2353 210.439 89.0453 210.38 88.7828 210.308C88.4253 210.207 88.1628 210.123 87.9952 210.056C87.8332 209.989 87.6935 209.914 87.5762 209.83C87.3919 209.696 87.255 209.537 87.1656 209.352C87.0763 209.163 87.0316 208.945 87.0316 208.699C87.0316 208.235 87.2047 207.855 87.5511 207.559C87.903 207.263 88.3471 207.115 88.8834 207.115C89.4364 207.115 89.8749 207.244 90.1989 207.501C90.5284 207.758 90.7212 208.129 90.777 208.615L90.1235 208.758C90.0843 208.434 89.9531 208.177 89.7296 207.987C89.5118 207.791 89.2325 207.693 88.8917 207.693C88.5398 207.693 88.2549 207.783 88.0371 207.962C87.8192 208.14 87.7103 208.375 87.7103 208.665C87.7103 208.827 87.7466 208.967 87.8192 209.084C87.8974 209.202 88.0175 209.305 88.1795 209.394C88.2633 209.439 88.3638 209.484 88.4812 209.528C88.5985 209.568 88.7856 209.621 89.0426 209.688C89.4056 209.788 89.671 209.875 89.8386 209.947C90.0061 210.014 90.1486 210.09 90.2659 210.174C90.4502 210.308 90.5871 210.47 90.6765 210.66C90.7658 210.849 90.8105 211.073 90.8105 211.33ZM93.1351 212.369C93.3977 212.369 93.6127 212.305 93.7803 212.176C93.9479 212.048 94.0624 211.858 94.1239 211.606L94.7188 211.774C94.6294 212.143 94.4478 212.425 94.1741 212.62C93.9004 212.816 93.5541 212.914 93.1351 212.914C92.5486 212.914 92.0905 212.724 91.761 212.344C91.4314 211.964 91.2666 211.428 91.2666 210.735C91.2666 210.059 91.4342 209.523 91.7693 209.126C92.1101 208.724 92.5654 208.523 93.1351 208.523C93.6323 208.523 94.0261 208.685 94.3166 209.009C94.6126 209.327 94.7607 209.752 94.7607 210.283C94.7607 210.389 94.7523 210.492 94.7355 210.593C94.7188 210.693 94.6992 210.777 94.6769 210.844H91.9285C91.9453 211.33 92.057 211.707 92.2637 211.975C92.476 212.238 92.7665 212.369 93.1351 212.369ZM93.1184 209.051C92.7888 209.051 92.5207 209.163 92.314 209.386C92.1129 209.609 91.99 209.928 91.9453 210.341H94.0736C94.0792 210.313 94.082 210.285 94.082 210.257C94.082 210.224 94.082 210.179 94.082 210.123C94.082 209.805 93.9926 209.548 93.8138 209.352C93.6407 209.151 93.4088 209.051 93.1184 209.051ZM95.5025 208.623H96.0136L96.0974 209.436C96.2147 209.146 96.3962 208.922 96.642 208.766C96.8878 208.604 97.1755 208.523 97.5051 208.523C97.8961 208.523 98.2089 208.646 98.4435 208.892C98.6781 209.132 98.7954 209.459 98.7954 209.872V212.813H98.1084V210.014C98.1084 209.729 98.0357 209.512 97.8905 209.361C97.7509 209.204 97.5498 209.126 97.2872 209.126C96.9409 209.126 96.67 209.235 96.4744 209.453C96.2845 209.671 96.1896 209.981 96.1896 210.383V212.813H95.5025V208.623ZM101.388 212.361C101.718 212.361 101.986 212.243 102.193 212.009C102.399 211.768 102.503 211.442 102.503 211.028V210.249C102.503 209.891 102.397 209.607 102.184 209.394C101.972 209.176 101.71 209.068 101.397 209.068C101.022 209.068 100.729 209.216 100.517 209.512C100.31 209.808 100.207 210.229 100.207 210.777C100.207 211.28 100.31 211.671 100.517 211.95C100.724 212.224 101.014 212.361 101.388 212.361ZM103.19 212.813H102.645L102.57 212.017C102.475 212.307 102.31 212.531 102.075 212.687C101.841 212.838 101.556 212.914 101.221 212.914C100.712 212.914 100.299 212.724 99.9807 212.344C99.6679 211.958 99.5115 211.439 99.5115 210.785C99.5115 210.081 99.6679 209.528 99.9807 209.126C100.299 208.724 100.735 208.523 101.288 208.523C101.578 208.523 101.832 208.584 102.05 208.707C102.268 208.83 102.419 208.992 102.503 209.193V206.763H103.19V212.813ZM110.413 208.246H110.397L108.796 211.523H108.26L106.66 208.246H106.643L106.651 209.218V212.813H105.964V207.216H106.819L108.545 210.76H108.562L110.288 207.216H111.092V212.813H110.405V209.218L110.413 208.246ZM113.764 208.523C114.339 208.523 114.794 208.718 115.13 209.109C115.47 209.5 115.641 210.037 115.641 210.718C115.641 211.4 115.47 211.936 115.13 212.327C114.794 212.718 114.339 212.914 113.764 212.914C113.188 212.914 112.73 212.718 112.39 212.327C112.055 211.936 111.887 211.4 111.887 210.718C111.887 210.037 112.055 209.5 112.39 209.109C112.73 208.718 113.188 208.523 113.764 208.523ZM113.764 212.377C114.149 212.377 114.443 212.238 114.644 211.958C114.845 211.673 114.945 211.26 114.945 210.718C114.945 210.176 114.845 209.766 114.644 209.487C114.443 209.202 114.149 209.059 113.764 209.059C113.378 209.059 113.085 209.202 112.884 209.487C112.683 209.766 112.582 210.176 112.582 210.718C112.582 211.26 112.683 211.673 112.884 211.958C113.085 212.238 113.378 212.377 113.764 212.377ZM116.393 208.623H116.904L116.988 209.436C117.105 209.146 117.287 208.922 117.532 208.766C117.778 208.604 118.066 208.523 118.395 208.523C118.786 208.523 119.099 208.646 119.334 208.892C119.568 209.132 119.686 209.459 119.686 209.872V212.813H118.999V210.014C118.999 209.729 118.926 209.512 118.781 209.361C118.641 209.204 118.44 209.126 118.178 209.126C117.831 209.126 117.56 209.235 117.365 209.453C117.175 209.671 117.08 209.981 117.08 210.383V212.813H116.393V208.623ZM122.27 212.369C122.533 212.369 122.748 212.305 122.916 212.176C123.083 212.048 123.198 211.858 123.259 211.606L123.854 211.774C123.765 212.143 123.583 212.425 123.309 212.62C123.036 212.816 122.689 212.914 122.27 212.914C121.684 212.914 121.226 212.724 120.896 212.344C120.567 211.964 120.402 211.428 120.402 210.735C120.402 210.059 120.569 209.523 120.905 209.126C121.245 208.724 121.701 208.523 122.27 208.523C122.767 208.523 123.161 208.685 123.452 209.009C123.748 209.327 123.896 209.752 123.896 210.283C123.896 210.389 123.887 210.492 123.871 210.593C123.854 210.693 123.834 210.777 123.812 210.844H121.064C121.081 211.33 121.192 211.707 121.399 211.975C121.611 212.238 121.902 212.369 122.27 212.369ZM122.254 209.051C121.924 209.051 121.656 209.163 121.449 209.386C121.248 209.609 121.125 209.928 121.081 210.341H123.209C123.214 210.313 123.217 210.285 123.217 210.257C123.217 210.224 123.217 210.179 123.217 210.123C123.217 209.805 123.128 209.548 122.949 209.352C122.776 209.151 122.544 209.051 122.254 209.051ZM125.971 212.159H125.988L127.169 208.623H127.856L126.264 213.039C126.063 213.592 125.851 213.986 125.627 214.221C125.404 214.455 125.122 214.573 124.781 214.573C124.681 214.573 124.58 214.559 124.479 214.531C124.379 214.503 124.284 214.464 124.195 214.413L124.295 213.844C124.407 213.911 124.493 213.953 124.555 213.969C124.622 213.992 124.692 214.003 124.764 214.003C124.971 214.003 125.133 213.936 125.25 213.802C125.368 213.668 125.499 213.397 125.644 212.989L124.086 208.623H124.815L125.971 212.159Z" fill="#241C5F"/>
<rect x="155.943" y="164.711" width="33.5162" height="33.5162" rx="16.7581" fill="#F7F7FF"/>
<path d="M176.328 178.173V178.776C176.328 178.943 176.193 179.078 176.026 179.078H168.177C168.01 179.078 167.875 179.213 167.875 179.38V180.285C167.875 180.452 167.74 180.587 167.573 180.587H166.97C166.803 180.587 166.668 180.452 166.668 180.285V179.688C166.668 179.428 166.743 179.138 166.994 179.012C167.187 178.918 167.362 178.846 167.525 178.707C167.631 178.619 167.733 178.523 167.809 178.414C167.917 178.263 168.002 178.103 168.159 177.992C168.31 177.889 168.497 177.871 168.681 177.871H176.026C176.193 177.871 176.328 178.006 176.328 178.173Z" fill="#4F3FD7"/>
<path d="M175.943 181.692L175.484 181.301C175.357 181.193 175.342 181.002 175.45 180.875L177.314 178.685C177.41 178.573 177.411 178.408 177.316 178.296L175.446 176.068C175.339 175.941 175.355 175.751 175.483 175.643L175.945 175.255C176.072 175.148 176.263 175.165 176.37 175.292L178.661 178.021C178.707 178.075 178.732 178.145 178.732 178.216L178.73 178.774C178.73 178.846 178.704 178.915 178.658 178.969L176.369 181.658C176.261 181.785 176.07 181.8 175.943 181.692Z" fill="#4F3FD7"/>
<path d="M169.074 184.765V184.161C169.074 183.995 169.209 183.86 169.376 183.86H177.225C177.392 183.86 177.527 183.725 177.527 183.558V182.653C177.527 182.486 177.662 182.351 177.829 182.351H178.432C178.599 182.351 178.734 182.486 178.734 182.653V183.25C178.734 183.51 178.659 183.799 178.408 183.926C178.215 184.02 178.04 184.092 177.877 184.231C177.771 184.318 177.669 184.415 177.593 184.524C177.485 184.674 177.4 184.834 177.243 184.946C177.092 185.049 176.905 185.067 176.721 185.067H169.376C169.209 185.067 169.074 184.932 169.074 184.765Z" fill="#4F3FD7"/>
<path d="M169.457 181.246L169.916 181.637C170.043 181.745 170.058 181.936 169.95 182.063L168.085 184.253C167.99 184.365 167.989 184.529 168.084 184.642L169.954 186.869C170.061 186.997 170.045 187.187 169.917 187.294L169.455 187.683C169.328 187.79 169.137 187.773 169.03 187.646L166.739 184.917C166.693 184.862 166.668 184.793 166.668 184.722L166.67 184.163C166.67 184.092 166.696 184.023 166.742 183.969L169.031 181.28C169.139 181.153 169.33 181.138 169.457 181.246Z" fill="#4F3FD7"/>
<path d="M162.086 212.914C161.365 212.914 160.784 212.651 160.343 212.126C159.902 211.601 159.681 210.897 159.681 210.014C159.681 209.132 159.902 208.428 160.343 207.903C160.784 207.378 161.365 207.115 162.086 207.115C162.577 207.115 162.985 207.224 163.309 207.442C163.633 207.654 163.882 207.978 164.055 208.414L163.451 208.758C163.357 208.422 163.189 208.165 162.949 207.987C162.714 207.808 162.426 207.719 162.086 207.719C161.572 207.719 161.167 207.922 160.871 208.33C160.58 208.738 160.435 209.299 160.435 210.014C160.435 210.729 160.58 211.291 160.871 211.699C161.167 212.106 161.572 212.31 162.086 212.31C162.426 212.31 162.714 212.221 162.949 212.042C163.189 211.858 163.357 211.601 163.451 211.271L164.055 211.606C163.882 212.048 163.633 212.377 163.309 212.595C162.985 212.807 162.577 212.914 162.086 212.914ZM166.311 208.523C166.886 208.523 167.341 208.718 167.676 209.109C168.017 209.5 168.188 210.037 168.188 210.718C168.188 211.4 168.017 211.936 167.676 212.327C167.341 212.718 166.886 212.914 166.311 212.914C165.735 212.914 165.277 212.718 164.937 212.327C164.601 211.936 164.434 211.4 164.434 210.718C164.434 210.037 164.601 209.5 164.937 209.109C165.277 208.718 165.735 208.523 166.311 208.523ZM166.311 212.377C166.696 212.377 166.989 212.238 167.191 211.958C167.392 211.673 167.492 211.26 167.492 210.718C167.492 210.176 167.392 209.766 167.191 209.487C166.989 209.202 166.696 209.059 166.311 209.059C165.925 209.059 165.632 209.202 165.431 209.487C165.23 209.766 165.129 210.176 165.129 210.718C165.129 211.26 165.23 211.673 165.431 211.958C165.632 212.238 165.925 212.377 166.311 212.377ZM168.94 208.623H169.451L169.535 209.436C169.652 209.146 169.833 208.922 170.079 208.766C170.325 208.604 170.613 208.523 170.942 208.523C171.333 208.523 171.646 208.646 171.881 208.892C172.115 209.132 172.233 209.459 172.233 209.872V212.813H171.546V210.014C171.546 209.729 171.473 209.512 171.328 209.361C171.188 209.204 170.987 209.126 170.724 209.126C170.378 209.126 170.107 209.235 169.912 209.453C169.722 209.671 169.627 209.981 169.627 210.383V212.813H168.94V208.623ZM173.468 208.623L174.633 212.084H174.65L175.823 208.623H176.51L174.976 212.813H174.273L172.739 208.623H173.468ZM178.58 212.369C178.842 212.369 179.057 212.305 179.225 212.176C179.392 212.048 179.507 211.858 179.568 211.606L180.163 211.774C180.074 212.143 179.892 212.425 179.619 212.62C179.345 212.816 178.999 212.914 178.58 212.914C177.993 212.914 177.535 212.724 177.205 212.344C176.876 211.964 176.711 211.428 176.711 210.735C176.711 210.059 176.879 209.523 177.214 209.126C177.555 208.724 178.01 208.523 178.58 208.523C179.077 208.523 179.471 208.685 179.761 209.009C180.057 209.327 180.205 209.752 180.205 210.283C180.205 210.389 180.197 210.492 180.18 210.593C180.163 210.693 180.144 210.777 180.121 210.844H177.373C177.39 211.33 177.501 211.707 177.708 211.975C177.92 212.238 178.211 212.369 178.58 212.369ZM178.563 209.051C178.233 209.051 177.965 209.163 177.758 209.386C177.557 209.609 177.434 209.928 177.39 210.341H179.518C179.524 210.313 179.526 210.285 179.526 210.257C179.526 210.224 179.526 210.179 179.526 210.123C179.526 209.805 179.437 209.548 179.258 209.352C179.085 209.151 178.853 209.051 178.563 209.051ZM180.947 212.813V208.623H181.492L181.584 209.696C181.662 209.344 181.824 209.062 182.07 208.85C182.316 208.632 182.598 208.523 182.916 208.523C182.955 208.523 182.994 208.526 183.033 208.531C183.078 208.537 183.12 208.542 183.159 208.548L183.117 209.269C183.084 209.263 183.036 209.257 182.975 209.252C182.913 209.246 182.849 209.244 182.782 209.244C182.436 209.244 182.156 209.375 181.944 209.637C181.737 209.9 181.634 210.252 181.634 210.693V212.813H180.947ZM185.053 212.335C185.181 212.335 185.296 212.321 185.396 212.293C185.497 212.26 185.611 212.201 185.74 212.118L185.865 212.662C185.743 212.74 185.603 212.802 185.446 212.847C185.296 212.891 185.148 212.914 185.002 212.914C184.6 212.914 184.29 212.816 184.072 212.62C183.86 212.419 183.754 212.131 183.754 211.757V209.151H183.151V208.623H183.754V207.735L184.441 207.626V208.623H185.698V209.151H184.441V211.69C184.441 211.902 184.491 212.064 184.592 212.176C184.698 212.282 184.852 212.335 185.053 212.335Z" fill="#241C5F"/>
<rect x="221.346" y="164.711" width="33.5162" height="33.5162" rx="16.7581" fill="#F7F7FF"/>
<path fill-rule="evenodd" clip-rule="evenodd" d="M235.11 181.471C235.11 181.628 235.079 181.784 235.019 181.929C234.959 182.074 234.871 182.206 234.76 182.317C234.649 182.428 234.517 182.517 234.372 182.577C234.226 182.637 234.071 182.668 233.914 182.668C233.756 182.668 233.601 182.637 233.456 182.577C233.31 182.517 233.178 182.428 233.067 182.317C232.956 182.206 232.868 182.074 232.808 181.929C232.748 181.784 232.717 181.628 232.717 181.471C232.717 181.154 232.843 180.849 233.067 180.625C233.292 180.4 233.596 180.274 233.914 180.274C234.231 180.274 234.535 180.4 234.76 180.625C234.984 180.849 235.11 181.154 235.11 181.471ZM238.103 182.668C238.421 182.668 238.725 182.542 238.95 182.318C239.174 182.093 239.3 181.789 239.3 181.471C239.3 181.154 239.174 180.849 238.95 180.625C238.725 180.4 238.421 180.274 238.103 180.274C237.786 180.274 237.481 180.4 237.257 180.625C237.032 180.849 236.906 181.154 236.906 181.471C236.906 181.789 237.032 182.093 237.257 182.318C237.481 182.542 237.786 182.668 238.103 182.668ZM242.293 182.668C242.61 182.668 242.915 182.542 243.139 182.318C243.364 182.093 243.49 181.789 243.49 181.471C243.49 181.154 243.364 180.849 243.139 180.625C242.915 180.4 242.61 180.274 242.293 180.274C241.975 180.274 241.671 180.4 241.446 180.625C241.222 180.849 241.095 181.154 241.095 181.471C241.095 181.789 241.222 182.093 241.446 182.318C241.671 182.542 241.975 182.668 242.293 182.668Z" fill="#4F3FD7"/>
<path d="M234.6 208.246H234.583L232.982 211.523H232.446L230.846 208.246H230.829L230.837 209.218V212.813H230.15V207.216H231.005L232.731 210.76H232.748L234.474 207.216H235.278V212.813H234.591V209.218L234.6 208.246ZM237.95 208.523C238.525 208.523 238.981 208.718 239.316 209.109C239.656 209.5 239.827 210.037 239.827 210.718C239.827 211.4 239.656 211.936 239.316 212.327C238.981 212.718 238.525 212.914 237.95 212.914C237.375 212.914 236.916 212.718 236.576 212.327C236.241 211.936 236.073 211.4 236.073 210.718C236.073 210.037 236.241 209.5 236.576 209.109C236.916 208.718 237.375 208.523 237.95 208.523ZM237.95 212.377C238.335 212.377 238.629 212.238 238.83 211.958C239.031 211.673 239.131 211.26 239.131 210.718C239.131 210.176 239.031 209.766 238.83 209.487C238.629 209.202 238.335 209.059 237.95 209.059C237.564 209.059 237.271 209.202 237.07 209.487C236.869 209.766 236.768 210.176 236.768 210.718C236.768 211.26 236.869 211.673 237.07 211.958C237.271 212.238 237.564 212.377 237.95 212.377ZM240.579 212.813V208.623H241.124L241.216 209.696C241.294 209.344 241.456 209.062 241.702 208.85C241.947 208.632 242.23 208.523 242.548 208.523C242.587 208.523 242.626 208.526 242.665 208.531C242.71 208.537 242.752 208.542 242.791 208.548L242.749 209.269C242.716 209.263 242.668 209.257 242.607 209.252C242.545 209.246 242.481 209.244 242.414 209.244C242.068 209.244 241.788 209.375 241.576 209.637C241.369 209.9 241.266 210.252 241.266 210.693V212.813H240.579ZM244.787 212.369C245.05 212.369 245.265 212.305 245.432 212.176C245.6 212.048 245.714 211.858 245.776 211.606L246.371 211.774C246.281 212.143 246.1 212.425 245.826 212.62C245.552 212.816 245.206 212.914 244.787 212.914C244.201 212.914 243.743 212.724 243.413 212.344C243.083 211.964 242.919 211.428 242.919 210.735C242.919 210.059 243.086 209.523 243.421 209.126C243.762 208.724 244.217 208.523 244.787 208.523C245.284 208.523 245.678 208.685 245.969 209.009C246.265 209.327 246.413 209.752 246.413 210.283C246.413 210.389 246.404 210.492 246.388 210.593C246.371 210.693 246.351 210.777 246.329 210.844H243.581C243.597 211.33 243.709 211.707 243.916 211.975C244.128 212.238 244.418 212.369 244.787 212.369ZM244.77 209.051C244.441 209.051 244.173 209.163 243.966 209.386C243.765 209.609 243.642 209.928 243.597 210.341H245.726C245.731 210.313 245.734 210.285 245.734 210.257C245.734 210.224 245.734 210.179 245.734 210.123C245.734 209.805 245.645 209.548 245.466 209.352C245.293 209.151 245.061 209.051 244.77 209.051Z" fill="#241C5F"/>
<defs>
<radialGradient id="paint0_radial_6125_77976" cx="0" cy="0" r="1" gradientUnits="userSpaceOnUse" gradientTransform="translate(40.255 37.1456) scale(227.535)">
<stop offset="0.78" stop-color="#230C3B" stop-opacity="0"/>
<stop offset="0.8" stop-color="#2B1340" stop-opacity="0.04"/>
<stop offset="0.83" stop-color="#42264D" stop-opacity="0.15"/>
<stop offset="0.86" stop-color="#684663" stop-opacity="0.32"/>
<stop offset="0.91" stop-color="#9C7282" stop-opacity="0.56"/>
<stop offset="0.95" stop-color="#DDAAA9" stop-opacity="0.86"/>
<stop offset="0.98" stop-color="#FCC4BB"/>
</radialGradient>
<radialGradient id="paint1_radial_6125_77976" cx="0" cy="0" r="1" gradientUnits="userSpaceOnUse" gradientTransform="translate(45.927 30.7023) scale(166.836)">
<stop offset="0.78" stop-color="#230C3B" stop-opacity="0"/>
<stop offset="0.8" stop-color="#2B1340" stop-opacity="0.04"/>
<stop offset="0.83" stop-color="#42264D" stop-opacity="0.15"/>
<stop offset="0.86" stop-color="#684663" stop-opacity="0.32"/>
<stop offset="0.91" stop-color="#9C7282" stop-opacity="0.56"/>
<stop offset="0.95" stop-color="#DDAAA9" stop-opacity="0.86"/>
<stop offset="0.98" stop-color="#FCC4BB"/>
</radialGradient>
<radialGradient id="paint2_radial_6125_77976" cx="0" cy="0" r="1" gradientUnits="userSpaceOnUse" gradientTransform="translate(42.9032 74.5732) scale(122.975)">
<stop offset="0.78" stop-color="#230C3B" stop-opacity="0"/>
<stop offset="0.8" stop-color="#2B1340" stop-opacity="0.04"/>
<stop offset="0.83" stop-color="#42264D" stop-opacity="0.15"/>
<stop offset="0.86" stop-color="#684663" stop-opacity="0.32"/>
<stop offset="0.91" stop-color="#9C7282" stop-opacity="0.56"/>
<stop offset="0.95" stop-color="#DDAAA9" stop-opacity="0.86"/>
<stop offset="0.98" stop-color="#FCC4BB"/>
</radialGradient>
<radialGradient id="paint3_radial_6125_77976" cx="0" cy="0" r="1" gradientUnits="userSpaceOnUse" gradientTransform="translate(63.0846 109.179) scale(95.6486)">
<stop offset="0.78" stop-color="#230C3B" stop-opacity="0"/>
<stop offset="0.8" stop-color="#2B1340" stop-opacity="0.04"/>
<stop offset="0.83" stop-color="#42264D" stop-opacity="0.15"/>
<stop offset="0.86" stop-color="#684663" stop-opacity="0.32"/>
<stop offset="0.91" stop-color="#9C7282" stop-opacity="0.56"/>
<stop offset="0.95" stop-color="#DDAAA9" stop-opacity="0.86"/>
<stop offset="0.98" stop-color="#FCC4BB"/>
</radialGradient>
<radialGradient id="paint4_radial_6125_77976" cx="0" cy="0" r="1" gradientUnits="userSpaceOnUse" gradientTransform="translate(62.8433 137.548) scale(59.9968 59.9968)">
<stop offset="0.78" stop-color="#230C3B" stop-opacity="0"/>
<stop offset="0.8" stop-color="#2B1340" stop-opacity="0.04"/>
<stop offset="0.83" stop-color="#42264D" stop-opacity="0.15"/>
<stop offset="0.86" stop-color="#684663" stop-opacity="0.32"/>
<stop offset="0.91" stop-color="#9C7282" stop-opacity="0.56"/>
<stop offset="0.95" stop-color="#DDAAA9" stop-opacity="0.86"/>
<stop offset="0.98" stop-color="#FCC4BB"/>
</radialGradient>
<radialGradient id="paint5_radial_6125_77976" cx="0" cy="0" r="1" gradientUnits="userSpaceOnUse" gradientTransform="translate(64.0295 157.081) scale(40.4761 40.4761)">
<stop offset="0.78" stop-color="#230C3B" stop-opacity="0"/>
<stop offset="0.8" stop-color="#2B1340" stop-opacity="0.04"/>
<stop offset="0.83" stop-color="#42264D" stop-opacity="0.15"/>
<stop offset="0.86" stop-color="#684663" stop-opacity="0.32"/>
<stop offset="0.91" stop-color="#9C7282" stop-opacity="0.56"/>
<stop offset="0.95" stop-color="#DDAAA9" stop-opacity="0.86"/>
<stop offset="0.98" stop-color="#FCC4BB"/>
</radialGradient>
<radialGradient id="paint6_radial_6125_77976" cx="0" cy="0" r="1" gradientUnits="userSpaceOnUse" gradientTransform="translate(59.5915 174.033) scale(23.539 23.539)">
<stop offset="0.78" stop-color="#230C3B" stop-opacity="0"/>
<stop offset="0.8" stop-color="#2B1340" stop-opacity="0.04"/>
<stop offset="0.83" stop-color="#42264D" stop-opacity="0.15"/>
<stop offset="0.86" stop-color="#684663" stop-opacity="0.32"/>
<stop offset="0.91" stop-color="#9C7282" stop-opacity="0.56"/>
<stop offset="0.95" stop-color="#DDAAA9" stop-opacity="0.86"/>
<stop offset="0.98" stop-color="#FCC4BB"/>
</radialGradient>
<radialGradient id="paint7_radial_6125_77976" cx="0" cy="0" r="1" gradientUnits="userSpaceOnUse" gradientTransform="translate(190.208 5.02273) scale(260.352)">
<stop offset="0.78" stop-color="#230C3B" stop-opacity="0"/>
<stop offset="0.8" stop-color="#2B1340" stop-opacity="0.04"/>
<stop offset="0.83" stop-color="#42264D" stop-opacity="0.15"/>
<stop offset="0.86" stop-color="#684663" stop-opacity="0.32"/>
<stop offset="0.91" stop-color="#9C7282" stop-opacity="0.56"/>
<stop offset="0.95" stop-color="#DDAAA9" stop-opacity="0.86"/>
<stop offset="0.98" stop-color="#FCC4BB"/>
</radialGradient>
<radialGradient id="paint8_radial_6125_77976" cx="0" cy="0" r="1" gradientUnits="userSpaceOnUse" gradientTransform="translate(196.698 -2.34982) scale(190.899)">
<stop offset="0.78" stop-color="#230C3B" stop-opacity="0"/>
<stop offset="0.8" stop-color="#2B1340" stop-opacity="0.04"/>
<stop offset="0.83" stop-color="#42264D" stop-opacity="0.15"/>
<stop offset="0.86" stop-color="#684663" stop-opacity="0.32"/>
<stop offset="0.91" stop-color="#9C7282" stop-opacity="0.56"/>
<stop offset="0.95" stop-color="#DDAAA9" stop-opacity="0.86"/>
<stop offset="0.98" stop-color="#FCC4BB"/>
</radialGradient>
<radialGradient id="paint9_radial_6125_77976" cx="0" cy="0" r="1" gradientUnits="userSpaceOnUse" gradientTransform="translate(193.237 47.8483) scale(140.711)">
<stop offset="0.78" stop-color="#230C3B" stop-opacity="0"/>
<stop offset="0.8" stop-color="#2B1340" stop-opacity="0.04"/>
<stop offset="0.83" stop-color="#42264D" stop-opacity="0.15"/>
<stop offset="0.86" stop-color="#684663" stop-opacity="0.32"/>
<stop offset="0.91" stop-color="#9C7282" stop-opacity="0.56"/>
<stop offset="0.95" stop-color="#DDAAA9" stop-opacity="0.86"/>
<stop offset="0.98" stop-color="#FCC4BB"/>
</radialGradient>
<radialGradient id="paint10_radial_6125_77976" cx="0" cy="0" r="1" gradientUnits="userSpaceOnUse" gradientTransform="translate(216.33 87.4464) scale(109.444)">
<stop offset="0.78" stop-color="#230C3B" stop-opacity="0"/>
<stop offset="0.8" stop-color="#2B1340" stop-opacity="0.04"/>
<stop offset="0.83" stop-color="#42264D" stop-opacity="0.15"/>
<stop offset="0.86" stop-color="#684663" stop-opacity="0.32"/>
<stop offset="0.91" stop-color="#9C7282" stop-opacity="0.56"/>
<stop offset="0.95" stop-color="#DDAAA9" stop-opacity="0.86"/>
<stop offset="0.98" stop-color="#FCC4BB"/>
</radialGradient>
<radialGradient id="paint11_radial_6125_77976" cx="0" cy="0" r="1" gradientUnits="userSpaceOnUse" gradientTransform="translate(216.055 119.905) scale(68.6499 68.6499)">
<stop offset="0.78" stop-color="#230C3B" stop-opacity="0"/>
<stop offset="0.8" stop-color="#2B1340" stop-opacity="0.04"/>
<stop offset="0.83" stop-color="#42264D" stop-opacity="0.15"/>
<stop offset="0.86" stop-color="#684663" stop-opacity="0.32"/>
<stop offset="0.91" stop-color="#9C7282" stop-opacity="0.56"/>
<stop offset="0.95" stop-color="#DDAAA9" stop-opacity="0.86"/>
<stop offset="0.98" stop-color="#FCC4BB"/>
</radialGradient>
<radialGradient id="paint12_radial_6125_77976" cx="0" cy="0" r="1" gradientUnits="userSpaceOnUse" gradientTransform="translate(217.409 142.256) scale(46.3137 46.3137)">
<stop offset="0.78" stop-color="#230C3B" stop-opacity="0"/>
<stop offset="0.8" stop-color="#2B1340" stop-opacity="0.04"/>
<stop offset="0.83" stop-color="#42264D" stop-opacity="0.15"/>
<stop offset="0.86" stop-color="#684663" stop-opacity="0.32"/>
<stop offset="0.91" stop-color="#9C7282" stop-opacity="0.56"/>
<stop offset="0.95" stop-color="#DDAAA9" stop-opacity="0.86"/>
<stop offset="0.98" stop-color="#FCC4BB"/>
</radialGradient>
<radialGradient id="paint13_radial_6125_77976" cx="0" cy="0" r="1" gradientUnits="userSpaceOnUse" gradientTransform="translate(212.332 161.652) scale(26.934 26.934)">
<stop offset="0.78" stop-color="#230C3B" stop-opacity="0"/>
<stop offset="0.8" stop-color="#2B1340" stop-opacity="0.04"/>
<stop offset="0.83" stop-color="#42264D" stop-opacity="0.15"/>
<stop offset="0.86" stop-color="#684663" stop-opacity="0.32"/>
<stop offset="0.91" stop-color="#9C7282" stop-opacity="0.56"/>
<stop offset="0.95" stop-color="#DDAAA9" stop-opacity="0.86"/>
<stop offset="0.98" stop-color="#FCC4BB"/>
</radialGradient>
<radialGradient id="paint14_radial_6125_77976" cx="0" cy="0" r="1" gradientUnits="userSpaceOnUse" gradientTransform="translate(251.117 102.262) scale(137.553)">
<stop offset="0.78" stop-color="#230C3B" stop-opacity="0"/>
<stop offset="0.8" stop-color="#2B1340" stop-opacity="0.04"/>
<stop offset="0.83" stop-color="#42264D" stop-opacity="0.15"/>
<stop offset="0.86" stop-color="#684663" stop-opacity="0.32"/>
<stop offset="0.91" stop-color="#9C7282" stop-opacity="0.56"/>
<stop offset="0.95" stop-color="#DDAAA9" stop-opacity="0.86"/>
<stop offset="0.98" stop-color="#FCC4BB"/>
</radialGradient>
<radialGradient id="paint15_radial_6125_77976" cx="0" cy="0" r="1" gradientUnits="userSpaceOnUse" gradientTransform="translate(254.544 98.3665) scale(100.858)">
<stop offset="0.78" stop-color="#230C3B" stop-opacity="0"/>
<stop offset="0.8" stop-color="#2B1340" stop-opacity="0.04"/>
<stop offset="0.83" stop-color="#42264D" stop-opacity="0.15"/>
<stop offset="0.86" stop-color="#684663" stop-opacity="0.32"/>
<stop offset="0.91" stop-color="#9C7282" stop-opacity="0.56"/>
<stop offset="0.95" stop-color="#DDAAA9" stop-opacity="0.86"/>
<stop offset="0.98" stop-color="#FCC4BB"/>
</radialGradient>
<radialGradient id="paint16_radial_6125_77976" cx="0" cy="0" r="1" gradientUnits="userSpaceOnUse" gradientTransform="translate(252.715 124.888) scale(74.3423)">
<stop offset="0.78" stop-color="#230C3B" stop-opacity="0"/>
<stop offset="0.8" stop-color="#2B1340" stop-opacity="0.04"/>
<stop offset="0.83" stop-color="#42264D" stop-opacity="0.15"/>
<stop offset="0.86" stop-color="#684663" stop-opacity="0.32"/>
<stop offset="0.91" stop-color="#9C7282" stop-opacity="0.56"/>
<stop offset="0.95" stop-color="#DDAAA9" stop-opacity="0.86"/>
<stop offset="0.98" stop-color="#FCC4BB"/>
</radialGradient>
<radialGradient id="paint17_radial_6125_77976" cx="0" cy="0" r="1" gradientUnits="userSpaceOnUse" gradientTransform="translate(264.92 145.809) scale(57.8228)">
<stop offset="0.78" stop-color="#230C3B" stop-opacity="0"/>
<stop offset="0.8" stop-color="#2B1340" stop-opacity="0.04"/>
<stop offset="0.83" stop-color="#42264D" stop-opacity="0.15"/>
<stop offset="0.86" stop-color="#684663" stop-opacity="0.32"/>
<stop offset="0.91" stop-color="#9C7282" stop-opacity="0.56"/>
<stop offset="0.95" stop-color="#DDAAA9" stop-opacity="0.86"/>
<stop offset="0.98" stop-color="#FCC4BB"/>
</radialGradient>
<radialGradient id="paint18_radial_6125_77976" cx="0" cy="0" r="1" gradientUnits="userSpaceOnUse" gradientTransform="translate(264.773 162.959) scale(36.2701 36.2701)">
<stop offset="0.78" stop-color="#230C3B" stop-opacity="0"/>
<stop offset="0.8" stop-color="#2B1340" stop-opacity="0.04"/>
<stop offset="0.83" stop-color="#42264D" stop-opacity="0.15"/>
<stop offset="0.86" stop-color="#684663" stop-opacity="0.32"/>
<stop offset="0.91" stop-color="#9C7282" stop-opacity="0.56"/>
<stop offset="0.95" stop-color="#DDAAA9" stop-opacity="0.86"/>
<stop offset="0.98" stop-color="#FCC4BB"/>
</radialGradient>
<radialGradient id="paint19_radial_6125_77976" cx="0" cy="0" r="1" gradientUnits="userSpaceOnUse" gradientTransform="translate(265.487 174.766) scale(24.4691 24.4691)">
<stop offset="0.78" stop-color="#230C3B" stop-opacity="0"/>
<stop offset="0.8" stop-color="#2B1340" stop-opacity="0.04"/>
<stop offset="0.83" stop-color="#42264D" stop-opacity="0.15"/>
<stop offset="0.86" stop-color="#684663" stop-opacity="0.32"/>
<stop offset="0.91" stop-color="#9C7282" stop-opacity="0.56"/>
<stop offset="0.95" stop-color="#DDAAA9" stop-opacity="0.86"/>
<stop offset="0.98" stop-color="#FCC4BB"/>
</radialGradient>
<clipPath id="clip0_6125_77976">
<rect width="262.544" height="127.377" fill="white" transform="translate(16.7578 23.334)"/>
</clipPath>
<clipPath id="clip1_6125_77976">
<rect width="262.544" height="75.4115" fill="white" transform="translate(16.7578 75.2991)"/>
</clipPath>
<clipPath id="clip2_6125_77976">
<rect x="16.7578" y="75.2991" width="111.721" height="75.4115" rx="12.5686" fill="white"/>
</clipPath>
<clipPath id="clip3_6125_77976">
<rect x="27.9297" y="86.4712" width="19.5511" height="19.5511" rx="9.77556" fill="white"/>
</clipPath>
<clipPath id="clip4_6125_77976">
<rect x="134.064" y="75.2991" width="111.721" height="75.4115" rx="12.5686" fill="white"/>
</clipPath>
<clipPath id="clip5_6125_77976">
<rect x="145.236" y="86.4712" width="19.5511" height="19.5511" rx="9.77556" fill="white"/>
</clipPath>
<clipPath id="clip6_6125_77976">
<rect x="251.371" y="75.2988" width="111.721" height="75.4115" rx="12.5686" fill="white"/>
</clipPath>
<clipPath id="clip7_6125_77976">
<rect x="262.543" y="86.4707" width="19.5511" height="19.5511" rx="9.77556" fill="white"/>
</clipPath>
</defs>
</svg>
