<svg width="24" height="24" viewBox="0 0 24 24" fill="none" xmlns="http://www.w3.org/2000/svg">
<g clip-path="url(#clip0_11272_77538)">
<path fill-rule="evenodd" clip-rule="evenodd" d="M0 0H34.2V1.85H0V0ZM0 3.695H34.2V5.545H0V3.695ZM0 7.385H34.2V9.235H0V7.385ZM0 11.075H34.2V12.925H0V11.075ZM0 14.775H34.2V16.615H0V14.775ZM0 18.46H34.2V20.31H0V18.46ZM0 22.15H34.2V24H0V22.15Z" fill="#BD3D44"/>
<path fill-rule="evenodd" clip-rule="evenodd" d="M0 1.84961H34.2V3.69461H0V1.84961ZM0 5.53961H34.2V7.38461H0V5.53961ZM0 9.22961H34.2V11.0796H0V9.22961ZM0 12.9246H34.2V14.7746H0V12.9246ZM0 16.6146H34.2V18.4646H0V16.6146ZM0 20.3046H34.2V22.1546H0V20.3046Z" fill="white"/>
<path fill-rule="evenodd" clip-rule="evenodd" d="M0 0H13.68V12.925H0V0Z" fill="#192F5D"/>
<path fill-rule="evenodd" clip-rule="evenodd" d="M1.14008 0.550781L1.26758 1.06578H1.66508L1.34258 1.38078L1.46633 1.89578L1.14008 1.57578L0.817578 1.89078L0.937578 1.38078L0.611328 1.06578H1.02008L1.14008 0.550781ZM3.42008 0.550781L3.54383 1.06578H3.94883L3.62258 1.38078L3.74258 1.89578L3.42008 1.57578L3.09383 1.89078L3.21758 1.38078L2.89508 1.06578H3.29258L3.42008 0.550781ZM5.70008 0.550781L5.82383 1.06578H6.22508L5.90258 1.38078L6.02633 1.89578L5.70008 1.57578L5.37383 1.89078L5.49758 1.38078L5.17133 1.06578H5.57633L5.70008 0.550781ZM7.98008 0.550781L8.10383 1.06578H8.50883L8.18258 1.38078L8.30633 1.89578L7.98008 1.57578L7.65383 1.89078L7.78133 1.38078L7.45133 1.06578H7.85258L7.98008 0.550781ZM10.2601 0.550781L10.3838 1.06578H10.7851L10.4626 1.38078L10.5863 1.89578L10.2601 1.57578L9.93383 1.89078L10.0576 1.38078L9.73508 1.06578H10.1363L10.2601 0.550781ZM12.5401 0.550781L12.6638 1.06578H13.0688L12.7388 1.38078L12.8663 1.89578L12.5401 1.57578L12.2138 1.89078L12.3413 1.38078L12.0113 1.06578H12.4163L12.5401 0.550781ZM2.28008 1.85078L2.40383 2.36078H2.81258L2.48633 2.67078L2.60633 3.18578L2.28758 2.87078L1.96133 3.18578L2.07758 2.67078L1.76258 2.36078H2.16383L2.28008 1.85078ZM4.56008 1.85078L4.68758 2.36078H5.08883L4.75883 2.67078L4.88633 3.18578L4.56008 2.87078L4.23383 3.18578L4.35758 2.67078L4.03133 2.36078H4.43633L4.56008 1.85078ZM6.84008 1.85078L6.96383 2.36078H7.36883L7.04258 2.67078L7.16633 3.18578L6.84008 2.87078L6.51383 3.18578L6.63758 2.67078L6.31508 2.36078H6.71258L6.84008 1.85078ZM9.12008 1.85078L9.24758 2.36078H9.64883L9.31883 2.67078L9.44633 3.18578L9.12008 2.87078L8.79758 3.18578L8.91758 2.67078L8.59133 2.36078H9.00008L9.12008 1.85078ZM11.4001 1.85078L11.5238 2.36078H11.9288L11.6026 2.67078L11.7263 3.18578L11.4001 2.87078L11.0738 3.18578L11.1976 2.67078L10.8751 2.36078H11.2763L11.4001 1.85078ZM1.14008 3.13078L1.26758 3.65078H1.66508L1.34258 3.96578L1.46633 4.47578L1.14008 4.16078L0.817578 4.47578L0.937578 3.96578L0.611328 3.65078H1.02008L1.14008 3.13078ZM3.42008 3.13078L3.54383 3.65078H3.94883L3.62258 3.96578L3.74258 4.47578L3.42008 4.16078L3.09383 4.47578L3.21758 3.96078L2.89508 3.64578H3.29258L3.42008 3.13078ZM5.70008 3.13078L5.82383 3.64578H6.22508L5.90258 3.96078L6.02633 4.47078L5.70008 4.15578L5.37383 4.47078L5.49758 3.95578L5.17133 3.64078H5.57633L5.70008 3.13078ZM7.98008 3.13078L8.10383 3.64578H8.50883L8.18258 3.96078L8.30633 4.47078L7.98008 4.15578L7.65383 4.47078L7.78133 3.95578L7.45133 3.64078H7.85258L7.98008 3.13078ZM10.2601 3.13078L10.3838 3.64578H10.7851L10.4626 3.96078L10.5863 4.47078L10.2601 4.15578L9.93383 4.47078L10.0576 3.95578L9.73508 3.64078H10.1363L10.2601 3.13078ZM12.5401 3.13078L12.6638 3.64578H13.0688L12.7388 3.96078L12.8663 4.47078L12.5401 4.15578L12.2138 4.47078L12.3413 3.95578L12.0113 3.64078H12.4163L12.5401 3.13078ZM2.28008 4.43078L2.40383 4.94078H2.81258L2.48633 5.25578L2.61008 5.77078L2.28383 5.45078L1.95758 5.76578L2.08133 5.25578L1.75883 4.94078H2.16008L2.28008 4.43078ZM4.56008 4.43078L4.68758 4.94078H5.08883L4.75883 5.25578L4.88633 5.77078L4.56008 5.45078L4.23383 5.76578L4.35758 5.25578L4.03133 4.94078H4.43633L4.56008 4.43078ZM6.84008 4.43078L6.96383 4.94078H7.36883L7.04258 5.25578L7.16633 5.77078L6.84008 5.45078L6.51383 5.76578L6.63758 5.25578L6.31508 4.94078H6.71258L6.84008 4.43078ZM9.12008 4.43078L9.24758 4.94078H9.64883L9.32258 5.25578L9.44633 5.77078L9.12008 5.45078L8.79758 5.76578L8.91758 5.25578L8.59133 4.94078H9.00008L9.12008 4.43078ZM11.4001 4.43078L11.5238 4.94078H11.9288L11.6026 5.25578L11.7263 5.77078L11.4001 5.45078L11.0738 5.76578L11.1976 5.25578L10.8751 4.94078H11.2763L11.4001 4.43078ZM1.14008 5.72578L1.26758 6.23578H1.66508L1.34258 6.55078L1.46633 7.06578L1.14008 6.74578L0.817578 7.06078L0.937578 6.55078L0.611328 6.23578H1.02008L1.14008 5.72578ZM3.42008 5.72578L3.54383 6.23578H3.94883L3.62258 6.55078L3.74258 7.06078L3.42008 6.74578L3.09383 7.06078L3.21758 6.55078L2.89508 6.23578H3.29258L3.42008 5.72578ZM5.70008 5.72578L5.82383 6.23578H6.22508L5.90258 6.55078L6.02633 7.06578L5.70008 6.74578L5.37383 7.06078L5.49758 6.55078L5.17133 6.23578H5.57633L5.70008 5.72578ZM7.98008 5.72578L8.10383 6.23578H8.50883L8.18258 6.55078L8.30633 7.06578L7.98008 6.74578L7.65383 7.06078L7.78133 6.55078L7.45133 6.23578H7.85258L7.98008 5.72578ZM10.2601 5.72578L10.3838 6.23578H10.7851L10.4626 6.55078L10.5863 7.06578L10.2601 6.74578L9.93383 7.06078L10.0576 6.55078L9.73508 6.23578H10.1363L10.2601 5.72578ZM12.5401 5.72578L12.6638 6.23578H13.0688L12.7388 6.55078L12.8663 7.06578L12.5401 6.74578L12.2138 7.06078L12.3376 6.55078L12.0076 6.23578H12.4126L12.5401 5.72578ZM2.28008 7.01578L2.40383 7.53078H2.81258L2.48633 7.84078L2.61008 8.35578L2.28383 8.03578L1.95758 8.35578L2.08133 7.84078L1.75883 7.52578H2.16008L2.28008 7.01578ZM4.56008 7.01578L4.68758 7.53078H5.08883L4.75883 7.84078L4.88633 8.35578L4.56008 8.03578L4.23383 8.35578L4.35758 7.84078L4.03133 7.52578H4.43633L4.56008 7.01578ZM6.84008 7.01578L6.96383 7.53078H7.36883L7.04258 7.84078L7.16633 8.35578L6.84008 8.03578L6.51383 8.35578L6.63758 7.84078L6.31508 7.52578H6.71258L6.84008 7.01578ZM9.12008 7.01578L9.24758 7.53078H9.64883L9.32258 7.84078L9.44633 8.35578L9.12008 8.03578L8.79758 8.35578L8.91758 7.84078L8.59133 7.52578H9.00008L9.12008 7.01578ZM11.4001 7.01578L11.5238 7.53078H11.9288L11.6026 7.84078L11.7263 8.35578L11.4001 8.03578L11.0738 8.35578L11.1976 7.84078L10.8751 7.52578H11.2763L11.4001 7.01578ZM1.14008 8.30578L1.26758 8.82078H1.66508L1.34258 9.13578L1.46633 9.64078L1.14008 9.33078L0.817578 9.64078L0.937578 9.13078L0.611328 8.81578H1.02008L1.14008 8.30578ZM3.42008 8.30578L3.54383 8.82078H3.94883L3.62258 9.13578L3.74633 9.64078L3.42008 9.33078L3.09383 9.64078L3.22133 9.13078L2.89508 8.81578H3.29258L3.42008 8.30578ZM5.70008 8.30578L5.82383 8.82078H6.22508L5.90258 9.13578L6.02633 9.64078L5.70008 9.33078L5.37383 9.64078L5.49758 9.13078L5.17133 8.81578H5.57633L5.70008 8.30578ZM7.98008 8.30578L8.10383 8.82078H8.50883L8.18258 9.13578L8.30633 9.64078L7.98008 9.33078L7.65383 9.64078L7.78133 9.13078L7.45133 8.81578H7.85258L7.98008 8.30578ZM10.2601 8.30578L10.3838 8.82078H10.7851L10.4626 9.13578L10.5863 9.64078L10.2601 9.33078L9.93383 9.64078L10.0576 9.13078L9.73508 8.81578H10.1363L10.2601 8.30578ZM12.5401 8.30578L12.6638 8.82078H13.0688L12.7388 9.13578L12.8663 9.64078L12.5401 9.33078L12.2138 9.64078L12.3413 9.13078L12.0113 8.81578H12.4163L12.5401 8.30578ZM2.28008 9.60078L2.40383 10.1108H2.81258L2.48633 10.4258L2.61008 10.9408L2.28383 10.6208L1.95758 10.9358L2.08133 10.4258L1.75883 10.1108H2.16008L2.28008 9.60078ZM4.56008 9.60078L4.68758 10.1108H5.08883L4.75883 10.4258L4.88633 10.9408L4.56008 10.6208L4.23383 10.9358L4.35758 10.4258L4.03133 10.1108H4.43633L4.56008 9.60078ZM6.84008 9.60078L6.96383 10.1108H7.36883L7.04258 10.4258L7.16633 10.9408L6.84008 10.6208L6.51383 10.9358L6.63758 10.4258L6.31508 10.1108H6.71258L6.84008 9.60078ZM9.12008 9.60078L9.24758 10.1108H9.64883L9.32258 10.4258L9.44633 10.9408L9.12008 10.6208L8.79758 10.9358L8.91758 10.4258L8.59133 10.1108H9.00008L9.12008 9.60078ZM11.4001 9.60078L11.5238 10.1108H11.9288L11.6026 10.4258L11.7263 10.9408L11.4001 10.6208L11.0738 10.9358L11.1976 10.4258L10.8751 10.1108H11.2763L11.4001 9.60078ZM1.14008 10.8958L1.26758 11.4058H1.66508L1.34258 11.7208L1.46633 12.2308L1.14008 11.9158L0.817578 12.2308L0.937578 11.7158L0.611328 11.4008H1.02008L1.14008 10.8958ZM3.42008 10.8958L3.54383 11.4058H3.94883L3.62258 11.7208L3.74633 12.2308L3.42008 11.9158L3.09383 12.2308L3.22133 11.7158L2.89508 11.4008H3.29258L3.42008 10.8958ZM5.70008 10.8958L5.82383 11.4058H6.22508L5.91008 11.7208L6.03383 12.2308L5.70758 11.9158L5.38133 12.2308L5.50508 11.7158L5.17883 11.4008H5.58383L5.70008 10.8958ZM7.98008 10.8958L8.10383 11.4058H8.50883L8.18258 11.7208L8.30633 12.2308L7.98008 11.9158L7.65383 12.2308L7.78133 11.7158L7.45133 11.4008H7.85258L7.98008 10.8958ZM10.2601 10.8958L10.3838 11.4058H10.7851L10.4626 11.7208L10.5863 12.2308L10.2601 11.9158L9.93383 12.2308L10.0576 11.7158L9.73508 11.4008H10.1363L10.2601 10.8958ZM12.5401 10.8958L12.6638 11.4058H13.0688L12.7388 11.7208L12.8663 12.2308L12.5401 11.9158L12.2138 12.2308L12.3413 11.7158L12.0113 11.4008H12.4163L12.5401 10.8958Z" fill="white"/>
</g>
<defs>
<clipPath id="clip0_11272_77538">
<rect width="24" height="24" rx="12" fill="white"/>
</clipPath>
</defs>
</svg>
