<svg xmlns="http://www.w3.org/2000/svg" width="100%" viewBox="0 0 16 17" fill="none"><g clip-path="url(#clip0_6163_40045)"><path fill-rule="evenodd" clip-rule="evenodd" d="M4.15575 1.22949C2.38268 1.22949 0.945312 2.66685 0.945312 4.43993C0.945312 6.21301 2.38268 7.65037 4.15575 7.65037C5.92882 7.65037 7.36619 6.21301 7.36619 4.43993C7.36619 2.66685 5.92882 1.22949 4.15575 1.22949ZM11.3579 2.85742C10.0343 2.85742 8.96136 3.93038 8.96136 5.25393C8.96136 6.57749 10.0343 7.65044 11.3579 7.65044C12.6814 7.65044 13.7543 6.57749 13.7543 5.25393C13.7543 3.93038 12.6814 2.85742 11.3579 2.85742ZM15.0083 9.68851C14.8465 9.58301 14.6424 9.56633 14.4657 9.64415L14.2227 9.75133C14.07 9.81864 13.8552 9.91347 13.6063 10.0235C13.3118 10.1538 12.9694 10.3054 12.6259 10.458L12.604 10.3108C12.4846 9.50704 11.8252 8.88398 11.0139 8.81374L10.7231 8.78837H10.723C9.80504 8.708 8.82673 8.62235 7.82091 8.62235C6.81508 8.62235 5.83676 8.708 4.91876 8.78837L4.62791 8.81374C3.81663 8.88398 3.15718 9.50704 3.03778 10.3108C2.93569 10.9981 2.82575 11.7533 2.82575 12.5341C2.82575 13.315 2.93569 14.0701 3.03778 14.7574C3.15718 15.5612 3.81663 16.1843 4.62791 16.2544L4.90801 16.2789L4.91875 16.2798C5.83674 16.3603 6.81508 16.4459 7.82091 16.4459C8.82673 16.4459 9.80505 16.3603 10.7231 16.2798L11.0139 16.2544C11.8252 16.1843 12.4846 15.5612 12.604 14.7574L12.6258 14.6103C12.9694 14.7629 13.3118 14.9146 13.6063 15.0448C13.8552 15.1549 14.07 15.2496 14.2227 15.317L14.4657 15.4242C14.6424 15.502 14.8465 15.4853 15.0083 15.3798C15.17 15.2743 15.2675 15.0943 15.2675 14.9012V10.1671C15.2675 9.97403 15.17 9.79399 15.0083 9.68851Z" fill="currentColor"></path></g></svg>